<svg id="Layer_1" data-name="Layer 1" xmlns="http://www.w3.org/2000/svg" xmlns:xlink="http://www.w3.org/1999/xlink" viewBox="0 0 1600 900"><defs><style>.cls-1{fill:#33865f;}.cls-2{fill:#5c9e7f;}.cls-3{fill:url(#linear-gradient);}.cls-4{fill:#a67c52;}.cls-5{fill:#45775f;}.cls-6{fill:#006837;}.cls-7{fill:#7d5d3e;}.cls-8{fill:#66a487;}.cls-9{fill:#c46e2a;}.cls-10,.cls-18{fill:none;}.cls-10,.cls-23,.cls-41{stroke:#000;}.cls-10,.cls-15,.cls-17,.cls-23,.cls-41,.cls-46{stroke-miterlimit:10;}.cls-11{fill:#935320;}.cls-12,.cls-17{fill:#7d3309;}.cls-13,.cls-41,.cls-46{fill:#fff;}.cls-14{fill:#d08b55;}.cls-15,.cls-16{fill:#f3e2d4;}.cls-15{stroke:#f3e2d4;}.cls-17{stroke:#935320;}.cls-19{fill:#8c6239;}.cls-20{fill:#a08871;}.cls-21{fill:#754c24;}.cls-22{fill:#ffece9;}.cls-24{fill:#ff95bd;}.cls-25{fill:#c1272d;}.cls-26{fill:#993226;}.cls-27{fill:#911d22;}.cls-28{fill:#300500;}.cls-29{fill:#611417;}.cls-30{fill:#cd5257;}.cls-31{fill:#00940a;}.cls-32{fill:#154001;}.cls-33{fill:#66bf6c;}.cls-34{filter:url(#AI_GaussianBlur_7);font-size:104px;}.cls-34,.cls-36,.cls-37{font-family:Merienda-Bold, Merienda;font-weight:700;}.cls-35{font-size:96px;fill:#ed690f;font-family:MeriendaOne-Regular, Merienda One;}.cls-36{filter:url(#AI_GaussianBlur_4);font-size:111px;}.cls-37{font-size:110px;fill:#d44700;}.cls-38{fill:#8f5b48;}.cls-39{fill:#73321a;}.cls-40{fill:#844c36;}.cls-42{fill:#ab8476;}.cls-43{fill:#9d6f5f;}.cls-44{fill:#e8bcc4;}.cls-45{fill:#d98f9d;}.cls-46{stroke:#fff;}.cls-47{fill:#f0d2d8;}</style><linearGradient id="linear-gradient" x1="-7670.29" y1="2843.53" x2="-6770.29" y2="2843.53" gradientTransform="translate(8020.29 -2393.53)" gradientUnits="userSpaceOnUse"><stop offset="0" stop-color="#154001"/><stop offset="0.48" stop-color="#8dc12a"/><stop offset="1" stop-color="#6bd9f2"/></linearGradient><filter id="AI_GaussianBlur_7" name="AI_GaussianBlur_7"><feGaussianBlur stdDeviation="7"/></filter><filter id="AI_GaussianBlur_4" name="AI_GaussianBlur_4"><feGaussianBlur stdDeviation="4"/></filter></defs><polygon class="cls-1" points="-268.91 302.28 -183.49 159.73 -248.63 159.73 -172.33 26.17 -220.85 26.17 -133.26 -120 -45.67 26.17 -94.91 26.17 -18.6 159.73 -82.92 159.73 2.5 302.28 -268.91 302.28"/><polygon class="cls-2" points="-133.13 -119.79 -133.13 302.28 2.5 302.28 -82.92 159.73 -18.6 159.73 -94.91 26.17 -45.67 26.17 -133.13 -119.79"/><rect class="cls-3" x="350" y="-350" width="900" height="1600" transform="translate(350 1250) rotate(-90)"/><rect class="cls-4" x="1458.53" y="392.57" width="64.06" height="96.98"/><polygon class="cls-1" points="1328.59 404.53 1430.48 234.5 1352.78 234.5 1443.8 75.17 1385.92 75.17 1490.41 -99.19 1594.89 75.17 1536.15 75.17 1627.17 234.5 1550.45 234.5 1652.35 404.53 1328.59 404.53"/><polygon class="cls-2" points="1490.56 -98.94 1490.56 404.53 1652.35 404.53 1550.45 234.5 1627.17 234.5 1536.15 75.17 1594.89 75.17 1490.56 -98.94"/><line class="cls-2" x1="1464.96" y1="11.17" x2="1435.66" y2="55.89"/><line class="cls-2" x1="1456.12" y1="111.46" x2="1417.53" y2="170.13"/><line class="cls-2" x1="1461.56" y1="299.65" x2="1411.63" y2="382"/><line class="cls-2" x1="1456.59" y1="157.51" x2="1416.6" y2="218.39"/><line class="cls-2" x1="1428.22" y1="296.99" x2="1390.09" y2="354.77"/><line class="cls-5" x1="1518.66" y1="9.29" x2="1547.96" y2="54.01"/><line class="cls-5" x1="1527.5" y1="109.58" x2="1566.09" y2="168.25"/><line class="cls-5" x1="1522.07" y1="297.77" x2="1572" y2="380.12"/><line class="cls-5" x1="1527.04" y1="155.63" x2="1567.02" y2="216.51"/><line class="cls-5" x1="1555.4" y1="295.11" x2="1593.53" y2="352.89"/><polygon class="cls-6" points="1370.87 391.55 1440.13 511.65 1114.85 511.65 1184.12 391.55 1114.85 391.55 1190.26 260.79 1114.82 260.79 1277.46 -21.19 1440.11 260.79 1364.72 260.79 1440.13 391.55 1370.87 391.55"/><polygon class="cls-1" points="1440.13 511.65 1370.87 391.55 1440.13 391.55 1364.72 260.79 1440.11 260.79 1277.46 -21.19 1277.46 511.65 1440.13 511.65"/><rect class="cls-7" x="1243.18" y="511.75" width="72.17" height="93.91"/><line class="cls-6" x1="1314.1" y1="182.68" x2="1350.11" y2="232.34"/><line class="cls-6" x1="1356.09" y1="305.93" x2="1392.1" y2="355.59"/><line class="cls-6" x1="1309.86" y1="379.64" x2="1370.55" y2="463.4"/><line class="cls-6" x1="1301.91" y1="284.7" x2="1362.59" y2="368.46"/><line class="cls-6" x1="1309.69" y1="115.85" x2="1370.38" y2="199.61"/><line class="cls-8" x1="1237.66" y1="183.57" x2="1201.65" y2="233.23"/><line class="cls-8" x1="1195.67" y1="306.81" x2="1159.66" y2="356.48"/><line class="cls-8" x1="1241.9" y1="380.52" x2="1181.21" y2="464.28"/><line class="cls-8" x1="1249.86" y1="285.58" x2="1189.17" y2="369.34"/><line class="cls-8" x1="1242.07" y1="116.74" x2="1181.38" y2="200.5"/><rect class="cls-4" x="878.49" y="270.65" width="38.7" height="53.22"/><polygon class="cls-1" points="800 277.21 861.55 183.91 814.61 183.91 869.59 96.48 834.63 96.48 897.75 0.81 960.86 96.48 925.38 96.48 980.36 183.91 934.01 183.91 995.57 277.21 800 277.21"/><polygon class="cls-2" points="897.84 0.95 897.84 277.21 995.57 277.21 934.01 183.91 980.36 183.91 925.38 96.48 960.86 96.48 897.84 0.95"/><line class="cls-2" x1="882.37" y1="61.36" x2="864.68" y2="85.9"/><line class="cls-2" x1="877.04" y1="116.4" x2="853.72" y2="148.59"/><line class="cls-2" x1="880.32" y1="219.66" x2="850.16" y2="264.85"/><line class="cls-2" x1="877.32" y1="141.67" x2="853.16" y2="175.07"/><line class="cls-2" x1="860.18" y1="218.2" x2="837.15" y2="249.91"/><line class="cls-5" x1="914.82" y1="60.33" x2="932.51" y2="84.87"/><line class="cls-5" x1="920.15" y1="115.37" x2="943.47" y2="147.56"/><line class="cls-5" x1="916.87" y1="218.63" x2="947.03" y2="263.82"/><line class="cls-5" x1="919.87" y1="140.64" x2="944.03" y2="174.04"/><line class="cls-5" x1="937.01" y1="217.17" x2="960.04" y2="248.88"/><rect class="cls-4" x="810.08" y="422.19" width="53.09" height="85.67"/><polygon class="cls-1" points="702.39 432.76 786.84 282.57 722.43 282.57 797.88 141.82 749.9 141.82 836.5 -12.19 923.1 141.82 874.42 141.82 949.86 282.57 886.27 282.57 970.72 432.76 702.39 432.76"/><polygon class="cls-2" points="836.63 -11.97 836.63 432.76 970.72 432.76 886.27 282.57 949.86 282.57 874.42 141.82 923.1 141.82 836.63 -11.97"/><line class="cls-2" x1="815.41" y1="85.29" x2="791.13" y2="124.79"/><line class="cls-2" x1="808.09" y1="173.88" x2="776.1" y2="225.71"/><line class="cls-2" x1="812.59" y1="340.12" x2="771.21" y2="412.86"/><line class="cls-2" x1="808.47" y1="214.56" x2="775.33" y2="268.34"/><line class="cls-2" x1="784.96" y1="337.77" x2="753.36" y2="388.81"/><line class="cls-5" x1="859.92" y1="83.63" x2="884.2" y2="123.14"/><line class="cls-5" x1="867.25" y1="172.23" x2="899.23" y2="224.05"/><line class="cls-5" x1="862.74" y1="338.46" x2="904.13" y2="411.2"/><line class="cls-5" x1="866.86" y1="212.9" x2="900.01" y2="266.68"/><line class="cls-5" x1="890.37" y1="336.11" x2="921.97" y2="387.15"/><polygon class="cls-6" points="1158.03 321.76 1225 437.96 910.53 437.96 977.49 321.76 910.53 321.76 983.43 195.26 910.5 195.26 1067.74 -77.56 1224.97 195.26 1152.09 195.26 1225 321.76 1158.03 321.76"/><polygon class="cls-1" points="1225 437.96 1158.03 321.76 1225 321.76 1152.09 195.26 1224.97 195.26 1067.74 -77.56 1067.74 437.96 1225 437.96"/><rect class="cls-7" x="1034.6" y="438.06" width="69.77" height="90.86"/><line class="cls-6" x1="1103.16" y1="119.69" x2="1137.97" y2="167.73"/><line class="cls-6" x1="1143.75" y1="238.93" x2="1178.56" y2="286.98"/><line class="cls-6" x1="1099.06" y1="310.24" x2="1157.73" y2="391.28"/><line class="cls-6" x1="1091.37" y1="218.39" x2="1150.03" y2="299.42"/><line class="cls-6" x1="1098.89" y1="55.03" x2="1157.56" y2="136.06"/><line class="cls-8" x1="1029.25" y1="120.54" x2="994.44" y2="168.59"/><line class="cls-8" x1="988.66" y1="239.78" x2="953.85" y2="287.83"/><line class="cls-8" x1="1033.35" y1="311.1" x2="974.68" y2="392.13"/><line class="cls-8" x1="1041.05" y1="219.24" x2="982.38" y2="300.28"/><line class="cls-8" x1="1033.52" y1="55.88" x2="974.85" y2="136.92"/><path class="cls-9" d="M1076.9,528.18l6-1.4a62.61,62.61,0,0,0,2.22,15.58c1.09,3.93,2.55,8.17,1,12-1,2.52-.15,5.51-2,7.55s-3.84,9.24-4.17,9.17c-1.74-.34.19.13.56,1.86.65,3.06-2.06,6-5.09,6.78s-6.22-.12-9.19-1.09a34.21,34.21,0,0,1-10.31-4.85c-3-2.3-5.45-5.69-5.78-9.49a10.52,10.52,0,0,1,16-9.86l-1.23-23.61c2.59,1.64,5.43,1,8.2-.33S1073.91,528.88,1076.9,528.18Z"/><path class="cls-9" d="M994.69,375.31c-12.07,1.65-23.63,3-34.54,4.28a73,73,0,0,0,12.52-43.87c-.82-24.53-19.32-41.55-10.86-66.52,1.67-4.92,4.09-9.61,5-14.72,1.19-6.89-.49-13.9-2.18-20.67q-3.17-12.62-6.44-25.2c-.8-3.06-3.29-7-6.09-5.48a5.23,5.23,0,0,0-1.45,1.33,269,269,0,0,0-25.8,35.95c-3.65,6.09-6.31,13.91-10.6,19.46-4.59,5.93-7.41,3.5-15.22,3.55-9.19.06-12.25,3-17.32-4.77-4.47-6.84-10.07-13.84-13.17-21.44-2.27-5.55-3.11-12-7.3-16.27-3.75.86-6.29,4.39-7.73,8s-2.13,7.44-4,10.78c-1.34,2.33-3,11.5-3.27,14.17-1.25,10.42-1.39,9.29-.41,17.51,1.55,13.17-3.26,20.68-8.55,32.57a75.12,75.12,0,0,0-6.13,36c2.27,31.09,20.9,55.91,47.51,65.35l-7.52,50.28c-.41,30.86,9.6,45.51,37.88,61.3,27.77,15.51,56.28,18.45,81.8,19.6,10.94.49,24.28-.58,33.78-7.09,8.29-5.69,16.52-1.12,24.6,0,28.85,4,33.22-.25,46.62-4.51,10.86-3.46,22.17-9.94,33.42-29.14a54.43,54.43,0,0,0,5.08-11.55C1151,428.83,1067.15,365.42,994.69,375.31Z"/><path class="cls-10" d="M868.37,317.52a5.57,5.57,0,0,1-1.55-6.71"/><path class="cls-10" d="M863.85,313.74a4,4,0,0,1-2.79-5.11"/><path class="cls-10" d="M856.92,312a5.58,5.58,0,0,1-3.61-4.68"/><path class="cls-10" d="M852.17,311.74a9.22,9.22,0,0,1-6-4.42"/><path class="cls-10" d="M848.65,314.14a5.27,5.27,0,0,1-7.12-1.82"/><path class="cls-10" d="M844.51,317.93a6.26,6.26,0,0,1-7.4-1.5"/><path class="cls-10" d="M893.62,314.08c.41-1.27,1.25-2.36,1.74-3.6s.55-2.84-.44-3.74"/><path class="cls-10" d="M904.72,301.37a6,6,0,0,1-2.93,6.45"/><path class="cls-10" d="M908.32,307.92a5.09,5.09,0,0,0,4.06-5.95"/><path class="cls-10" d="M913.61,309.6a4,4,0,0,0,4-1.56,11.76,11.76,0,0,0,1.85-4.07"/><path class="cls-10" d="M916.81,311.84a3.29,3.29,0,0,0,4.1-.45,9.6,9.6,0,0,0,2.23-3.84"/><path class="cls-10" d="M919.69,315.33a4.44,4.44,0,0,0,3.61,2.47,4.08,4.08,0,0,0,3.8-2.08"/><path class="cls-9" d="M1120.2,434.32c14.47,2.63,25,15.35,31.6,28.49s10.78,27.63,19.42,39.54c9,12.41,22.26,21.12,36.12,27.66,17.45,8.24,37.62,13.46,56,7.59-2.83-1.19-1.22.51-3.89-1-22.14-12.55-43.5-28.49-55.42-51-4.44-8.37-7.44-17.41-11.32-26.06-9-20-23-38-41.24-50.1s-41-18-62.62-14.35l-5.88,1"/><path class="cls-11" d="M1098.25,587.74a28.26,28.26,0,0,1-9.83-1.54,19.62,19.62,0,0,1-9.59-7.75,15.12,15.12,0,0,1-2.26-11.71c1-4.13,4.62-7.66,9.21-9,3.86-1.11,7.51-.41,10.07,1.91,6.54-21.22-1.09-31.49-4.68-34.93-3.37-3.21-7.73-5.17-12-7.07-1.89-.85-3.85-1.74-5.71-2.72-19.31-10.29-29.22-35.49-22.09-56.18l.4.14c-7.07,20.5,2.75,45.47,21.89,55.67,1.84,1,3.79,1.86,5.68,2.71,4.25,1.91,8.65,3.89,12.06,7.15,4.23,4,6.66,9.64,7.2,16.62a52,52,0,0,1-2.5,19.05l-.1.32-.25-.23c-2.45-2.4-6.06-3.14-9.91-2-4.45,1.28-8,4.69-8.92,8.68-1.58,6.52,2.4,15.63,11.59,19,3.88,1.41,8.41,1.82,14.27,1.3a34.09,34.09,0,0,0,14.06-4.25c4.54-2.69,7.27-6.37,7.9-10.64.56-3.76-.61-7.54-1.74-11.2-1.09-3.48-2.2-7.08-1.87-10.72s2.08-7,3.76-10.17q.35-.63.66-1.26c9.18-17.75,11.49-37,6.36-52.69l.4-.13c5.16,15.84,2.84,35.16-6.39,53-.21.42-.43.84-.66,1.27-1.66,3.17-3.39,6.45-3.71,10s.77,7.13,1.84,10.57c1.15,3.7,2.34,7.52,1.77,11.38-.66,4.4-3.46,8.18-8.1,10.94a34.5,34.5,0,0,1-14.24,4.3C1101.23,587.67,1099.7,587.74,1098.25,587.74Z"/><path class="cls-11" d="M1098.25,588.2a28.78,28.78,0,0,1-10-1.57,20.05,20.05,0,0,1-9.81-7.93,15.58,15.58,0,0,1-2.33-12.07c1.05-4.29,4.79-7.94,9.53-9.31a11,11,0,0,1,10,1.55c6.11-20.53-1.27-30.46-4.76-33.8-3.3-3.15-7.63-5.1-11.81-7-1.91-.86-3.87-1.75-5.74-2.74-19.5-10.39-29.51-35.84-22.31-56.73l.15-.43,1.26.43-.15.43c-7,20.3,2.72,45,21.68,55.12,1.82,1,3.76,1.85,5.64,2.7,4.3,1.93,8.73,3.93,12.2,7.24,4.31,4.13,6.78,9.82,7.34,16.92a52.32,52.32,0,0,1-2.53,19.21l-.32,1-.77-.76c-2.34-2.28-5.79-3-9.47-1.92a12.13,12.13,0,0,0-8.6,8.35c-1.54,6.33,2.34,15.17,11.3,18.43,3.81,1.39,8.28,1.79,14.07,1.27a33.66,33.66,0,0,0,13.87-4.18c4.41-2.62,7.07-6.19,7.68-10.32.55-3.66-.61-7.39-1.73-11s-2.23-7.17-1.88-10.91,2.1-7.08,3.81-10.33l.66-1.26c9.12-17.64,11.42-36.72,6.33-52.34l-.15-.44,1.27-.41.14.43c5.21,16,2.87,35.42-6.41,53.37l-.66,1.27c-1.65,3.13-3.35,6.37-3.67,9.84s.77,7,1.83,10.38c1.16,3.75,2.36,7.63,1.78,11.59-.68,4.54-3.55,8.43-8.32,11.26a34.88,34.88,0,0,1-14.43,4.37C1101.26,588.13,1099.69,588.2,1098.25,588.2Z"/><path class="cls-9" d="M1051.62,458.84c-7.11,20.61,2.75,45.67,22,55.92,6,3.19,12.8,5.15,17.7,9.83,9.09,8.69,8.4,23.46,4.64,35.46-5.88-5.74-17.24-1.24-19.18,6.74s4,16.41,11.72,19.21c4.55,1.66,9.53,1.75,14.36,1.32,9.61-.86,20.74-5.53,22.15-15.07,1.1-7.39-4.29-14.5-3.61-21.94.37-4.06,2.52-7.72,4.4-11.34,8.36-16.19,12-35.54,6.37-52.86"/><path class="cls-11" d="M1098.25,588a28.54,28.54,0,0,1-9.92-1.56c-9.53-3.47-13.65-12.95-12-19.75,1-4.22,4.7-7.81,9.38-9.16,3.8-1.09,7.41-.47,10,1.71,6.3-20.84-1.18-30.92-4.73-34.31-3.33-3.18-7.67-5.14-11.87-7-1.9-.85-3.86-1.73-5.72-2.73-19.42-10.34-29.38-35.67-22.21-56.47l.86.3c-7,20.39,2.74,45.23,21.78,55.37,1.83,1,3.78,1.85,5.66,2.7,4.27,1.92,8.69,3.91,12.14,7.2,3.7,3.54,11.58,14.13,4.76,35.92l-.23.71-.53-.52c-2.39-2.33-5.91-3-9.67-2-4.36,1.25-7.8,4.59-8.75,8.5-1.55,6.41,2.37,15.38,11.44,18.68,3.84,1.39,8.34,1.8,14.16,1.28,14.63-1.31,20.86-8.72,21.74-14.68.55-3.71-.56-7.29-1.74-11.08-1.09-3.51-2.21-7.13-1.87-10.83s2.09-7,3.79-10.26c.22-.42.44-.83.65-1.25,9.15-17.69,11.46-36.83,6.34-52.51l.87-.28c5.19,15.91,2.86,35.3-6.4,53.21q-.32.63-.66,1.26c-1.65,3.15-3.36,6.41-3.69,9.92s.78,7,1.84,10.47c1.16,3.72,2.35,7.57,1.77,11.48-1.49,10.06-13.08,14.61-22.56,15.46C1101.25,587.92,1099.7,588,1098.25,588Z"/><path class="cls-12" d="M864.2,250c-3.05-4.62-5.55-7.85-6.05-13.37-1.31,4.11-2.45,6.34-2.22,10.65a56.86,56.86,0,0,0,.87,6,39.9,39.9,0,0,1,.09,15.09c2.68-1.56,5.22-1.2,8.13-2.27,1.65-.61,7.59-1.26,8.55-2.54C875.14,261.4,865.73,252.29,864.2,250Z"/><path class="cls-12" d="M940.32,244.78c3.47-5.1,6-10.78,8.44-16.43,1.67-3.79,2.38-5.46,4-9.26.52,4.79,2,7.47,1.92,12.29-.05,3.48-.41,7-.39,10.46,0,3.29.37,6.59.17,9.89-.32,5-2,9.9-3.56,14.69-.16.48-1.88,1.59-2.31,1.88s.52-.32,0-.37c-6.82-.74-15.41-4.43-20.19-9.4-.23-.24-1.37-1.57.7-2.87a35.16,35.16,0,0,0,4.25-3A39.37,39.37,0,0,0,940.32,244.78Z"/><ellipse class="cls-13" cx="856.44" cy="331.48" rx="16.05" ry="20.43"/><ellipse class="cls-13" cx="906.27" cy="327.94" rx="17.31" ry="20.85"/><circle cx="906.06" cy="334.19" r="15.43"/><circle cx="856.44" cy="337.11" r="14.59"/><ellipse class="cls-13" cx="903.97" cy="336.49" rx="3.96" ry="5"/><ellipse class="cls-13" cx="910.02" cy="328.36" rx="2.08" ry="3.13"/><ellipse class="cls-13" cx="914.19" cy="332.73" rx="0.83" ry="1.25"/><ellipse class="cls-13" cx="853.1" cy="338.78" rx="3.13" ry="4.8"/><ellipse class="cls-13" cx="859.77" cy="330.23" rx="1.46" ry="2.5"/><circle class="cls-13" cx="863.53" cy="334.61" r="1.04"/><path class="cls-12" d="M923.26,373.46c1.41,14.74-18.87,19.73-31.33,20.5s-39.69-5.8-38.81-21.35,28.38-14.45,39.27-14.46S921.84,358.72,923.26,373.46Z"/><path d="M862.53,367.23a19.53,19.53,0,0,1,7-2.13c2.47-.1,5.15.93,6.28,3.13-1.38,2.16-4.85,2.37-5.93,4.7a7.33,7.33,0,0,1-.86,1.93c-1,1.07-2.81.41-3.8-.64s-1.68-2.47-3-3.11c-.91-.46-2.14-.56-2.6-1.47-.56-1.13.66-2.41,1.9-2.69s2.56,0,3.75-.45"/><path d="M890.08,367.72l-.1-.18a174.46,174.46,0,0,1,20.71-9.75l.08.19A176.45,176.45,0,0,0,890.08,367.72Z"/><path d="M892.33,373.82l-.07-.19a97.86,97.86,0,0,1,22.19-5.27l0,.21A97.93,97.93,0,0,0,892.33,373.82Z"/><path d="M911.16,383.62a86.43,86.43,0,0,1-19.82-2.3l0-.2a86.72,86.72,0,0,0,20.81,2.28v.21Z"/><path class="cls-14" d="M959.39,321.68h0c-1.49.28-2.64-.38-2.84-2.51-.94-9.86-4.72-16.07-13.47-20.69-1.9-1-1.92-2.18-1.22-3.43h0c.69-1.25,1.46-1.89,3.68-.75,10.27,5.24,14.53,12.54,15.89,23.9C961.73,320.66,960.88,321.4,959.39,321.68Z"/><path class="cls-14" d="M871.63,252.13h0c-.91.41-1.48.62-2.91-1.27-4.91-6.52-8-12.91-8.68-21-.2-2.35.78-1.82,1.87-1.5h0c1.09.32,1.92.93,2.13,3.21.71,7.87,3.21,11.89,8.09,17.89C873.55,251.17,872.54,251.73,871.63,252.13Z"/><path class="cls-14" d="M924.58,249.79h0c.69,1,1.68,1.54,3.41.13a51,51,0,0,0,16.29-23c.73-2.15.09-3.3-1.22-3.57h0c-1.31-.26-2.63.52-3.23,2.45-2.56,8.14-8,15-14.39,20.36C923.92,247.41,923.89,248.75,924.58,249.79Z"/><path class="cls-14" d="M1074.09,412c-18.7-15.61-32-23.6-57.31-20.54-2.7.32-3.37-.64-3.58-2.82-.45.08-.3,0,0,0-.22-2.18-.31-2.57,2.59-2.92,27.3-3.31,41.74,5.13,62,21.83,2.16,1.78,1.86,2.44.58,4.09h0C1077.13,413.26,1076.07,413.64,1074.09,412Z"/><path class="cls-12" d="M1090.12,399.3a16.88,16.88,0,0,1,20.9-11.65"/><path class="cls-12" d="M1098.15,402.36c4.44-3.47,9.07-6.9,14.45-8.58a25.09,25.09,0,0,1,14.49-.14"/><path class="cls-12" d="M1117.29,406.42c3.64-1.06,6.54-3.76,9.85-5.63a23.57,23.57,0,0,1,20.88-1"/><path class="cls-12" d="M1129.75,412.91c3.18-.72,6-2.52,9-3.85a32.34,32.34,0,0,1,31.81,3.56"/><path class="cls-12" d="M1150.88,424.2l7.51-1.52a39.55,39.55,0,0,1,7.34-1c7.94-.11,15.13,4.46,21.54,9.15"/><path class="cls-12" d="M1162,433.59c4.13.64,8.35-.07,12.53.1a29.76,29.76,0,0,1,20.66,9.77"/><path class="cls-12" d="M1172.06,444.93c5.86,1.18,11.76,2.38,17.31,4.6s10.79,5.57,14.38,10.35"/><path class="cls-12" d="M1179,455.94a69.11,69.11,0,0,1,30,15"/><path class="cls-12" d="M1186.62,468.78c2.22,1.83,5.44,1.49,8.25,2.09,7.34,1.58,11.76,9.63,19,11.79"/><path class="cls-12" d="M1193.77,481.86c2.1,1.41,4.89,1.1,7.27,1.95a12.4,12.4,0,0,1,4,2.55c2.49,2.22,4.59,4.84,7.07,7.06s5.49,4.09,8.81,4.34"/><path class="cls-12" d="M1202.5,496.44a54.1,54.1,0,0,1,10.12,5.14c3.33,2.16,6.42,4.68,9.9,6.59s7.47,3.2,11.39,2.59"/><path class="cls-12" d="M1218.48,514.45a94.7,94.7,0,0,0,19.91,7.24c3.62.87,7.62,1.48,10.89-.29"/><path class="cls-12" d="M1226.3,525.36a30.49,30.49,0,0,0,15.23,3.63,52.15,52.15,0,0,0,15.53-2.8"/><path class="cls-12" d="M1240.81,531.56c-.17.43.38.77.82.91a58.52,58.52,0,0,0,11.92,2.81,19.49,19.49,0,0,0,11.85-2.3"/><path class="cls-12" d="M1245.76,537.33c4.79,2.58,10.62,1.77,16,.88,2.67-.44,5.77-1.22,6.77-3.73"/><path class="cls-12" d="M1113,424.08c3.47.6,6.62,2.34,9.7,4.06,4.06,2.26,8.22,4.61,11.12,8.24,4.39,5.48,5.2,13.1,4.12,20"/><path class="cls-12" d="M1144.16,437.39a43.87,43.87,0,0,1,7.61,45.42"/><path class="cls-12" d="M1159.8,461.22c4.21,5.52,3.76,13.18,2.86,20.06-.78,5.92-1.93,12.19-6,16.54"/><path class="cls-12" d="M1169.37,473.85c1.56,3.38,3.15,6.85,3.49,10.57a25.52,25.52,0,0,1,0,4.37,70.62,70.62,0,0,1-6.68,25.25"/><path class="cls-12" d="M1179.19,486.6a17.91,17.91,0,0,1,2.89,10.6,54.3,54.3,0,0,1-1.68,11l-2.22,9.86c-.34,1.51-.78,3.17-2.06,4"/><path class="cls-12" d="M1188.35,499.64c1.49,7.11,3,14.38,2.13,21.59-.35,2.9-1.07,5.76-1.06,8.68s.89,6,3.15,7.85"/><path class="cls-12" d="M1197.91,507.79a26.45,26.45,0,0,1,4.88,15.42c0,3.72-.85,7.45-.44,11.15a17.18,17.18,0,0,0,6.07,11.24"/><path class="cls-12" d="M1210.7,519.47c-.17,3.75,2.06,7.22,2.36,11s-1.4,7.69-.28,11.32c1,3.06,3.71,5.19,6.48,6.8"/><path class="cls-12" d="M1220.72,525.82c2.18,3.3,4.39,6.65,5.63,10.4.72,2.17,1.13,4.5,2.4,6.39,1.72,2.57,4.71,3.92,7.54,5.14"/><path class="cls-12" d="M1233.19,533.52a16,16,0,0,0,10.92,14.3"/><path class="cls-12" d="M1239,534.39a37.07,37.07,0,0,0,5,6.92,12.51,12.51,0,0,0,7.39,3.93"/><path class="cls-12" d="M1136,428.46c5.23,4,8.5,10.19,9.66,16.65a42.79,42.79,0,0,1-1.5,19.48"/><path class="cls-12" d="M1144.58,419a15.34,15.34,0,0,1,6.57-3.38c7-2.14,15-3.09,21.46.38,2.24,1.19,4.28,2.9,6.77,3.4"/><path class="cls-12" d="M1105.81,411.62a26.58,26.58,0,0,1,3-5.14,11.26,11.26,0,0,1,3-3c2.78-1.69,6.4-1.32,9.32-2.75"/><path class="cls-12" d="M1110.12,414.28c1,.88,2.56.65,3.91.62,5.18-.13,9.7,3.41,13.25,7.17,1.69,1.79,3.35,3.83,3.61,6.27"/><path class="cls-12" d="M1106.31,409a17.07,17.07,0,0,1,2-5.73,11.45,11.45,0,0,1,5.92-4.38,34.36,34.36,0,0,1,7.34-1.47"/><path class="cls-12" d="M1130,413c1.46-3.67,4.82-6.32,8.47-7.83s7.63-2,11.55-2.49"/><path class="cls-12" d="M1114.36,404.78a20.06,20.06,0,0,1,17.29-8.58"/><path class="cls-12" d="M1111.42,419.77c2.33.59,4.85-.85,7.15-.13a8,8,0,0,1,2.75,1.83,25.3,25.3,0,0,1,5.81,6.5"/><path class="cls-12" d="M1115.63,410.48l7-.61c2.59-.23,5.38-.54,7.29-2.3"/><path class="cls-12" d="M1125.77,414.92a11.58,11.58,0,0,0,6.32,2.16,26.68,26.68,0,0,1,4.1.11c3.28.64,5.43,3.72,7.21,6.55"/><path class="cls-12" d="M1133,422.91a11.88,11.88,0,0,1,7,4.25,35.8,35.8,0,0,1,4.36,7.1"/><path class="cls-12" d="M1146,425.8a9.66,9.66,0,0,1,7.74,1.15,28.73,28.73,0,0,1,6.08,5.26"/><path class="cls-12" d="M1151.63,432.18a16.67,16.67,0,0,0-1.36,5.56,5.89,5.89,0,0,0,2.32,5"/><path class="cls-12" d="M1158.43,443.36c1.6,1.75,1.41,4.42,1.32,6.79a43.38,43.38,0,0,0,1,10.84"/><path class="cls-12" d="M1165.65,439.16a13,13,0,0,1,11.59,8.48"/><path class="cls-12" d="M1163.36,431.14a43.26,43.26,0,0,1,12.8,1.57"/><path class="cls-12" d="M1170.85,449.73a9.32,9.32,0,0,1,5.47,4.16,28.14,28.14,0,0,1,2.79,6.44l1.08,3.18"/><path class="cls-12" d="M1169.81,455.79l1.92,6.63a17.2,17.2,0,0,0,2.9,6.44c1.72,2,4.37,3.23,5.71,5.53"/><path class="cls-12" d="M1164.87,456.42a37.34,37.34,0,0,0,6,15.36"/><path class="cls-12" d="M1179.66,464.45c3.15-.81,6.26,1.51,8.17,4.14a20.49,20.49,0,0,1,3.48,8"/><path class="cls-12" d="M1182.41,469.37a7.69,7.69,0,0,1,2.39,4.35,26.87,26.87,0,0,1,.19,3.48c.2,4.05,1.83,7.86,3.45,11.57"/><path class="cls-12" d="M1175.59,474.05a17.91,17.91,0,0,0,4.35,11.84"/><path class="cls-12" d="M1182.86,488.31a7,7,0,0,1,3.08,4.76,21.08,21.08,0,0,1,.08,5.83l-.66,8.18"/><path class="cls-12" d="M1190,480a16.31,16.31,0,0,1,4.28,9.26,48.48,48.48,0,0,1,.06,10.36"/><path class="cls-12" d="M1198.26,488.82a22.11,22.11,0,0,0,13.49,7.3"/><path class="cls-12" d="M1194,479.13a91.73,91.73,0,0,0,13.53,5.59"/><path class="cls-12" d="M1190.14,466a20.75,20.75,0,0,1,13.66,7.75"/><path class="cls-12" d="M1176.87,442.22a10.36,10.36,0,0,0,6.46,1.76,12.8,12.8,0,0,1,2.76-.12,8.19,8.19,0,0,1,2.29.84l4,2"/><path class="cls-12" d="M1175.18,432.29c-.3.66.77,1,1.49,1l4.67-.41"/><path class="cls-12" d="M1200.21,497.45a8.25,8.25,0,0,1,4.7,3.56,52.09,52.09,0,0,1,2.86,5.31,30.43,30.43,0,0,0,3.56,5.29c1.17,1.41,2.89,2.83,4.64,2.27"/><path class="cls-12" d="M1198,501.17c.23,2.08-.86,4-1.73,5.93a31.15,31.15,0,0,0-2,5.69c-.28,1.13-.32,2.63.73,3.12"/><path class="cls-12" d="M1200.59,504.14c2.54,1.79,3.87,4.87,4.47,7.92s.6,6.18,1.17,9.23a4.19,4.19,0,0,0,1.53,2.93"/><path class="cls-12" d="M1212.87,515.9c.62,3.59,3.44,6.48,4.14,10.06.38,1.92.45,4.43,2.31,5.07"/><path class="cls-12" d="M1218.59,522.76a14,14,0,0,0,9.9-.09"/><path class="cls-12" d="M1212.64,505.4a8.17,8.17,0,0,0,4.35,4.54,21.11,21.11,0,0,0,6.23,1.61"/><path class="cls-12" d="M1220.15,530.58c2.08,1.58,1.82,4.72,1.39,7.29s-.58,5.75,1.59,7.2"/><path class="cls-12" d="M1227.17,529.32a6.71,6.71,0,0,0,4.34,3.07,19.77,19.77,0,0,0,5.44.35"/><path class="cls-12" d="M1186.72,510.64c-.62,2.94-2,5.67-2.69,8.61s-.35,6.4,1.91,8.4"/><path class="cls-12" d="M1197,518.17a28,28,0,0,0,.63,18.31"/><path class="cls-12" d="M1207.84,525.36a20.82,20.82,0,0,0,1.56,10.14"/><path class="cls-12" d="M1210.77,497.79l7.48,1.16"/><path class="cls-12" d="M1187.88,455.06a12.45,12.45,0,0,1,7.11,3.7"/><path class="cls-12" d="M1086.68,398.69A9.25,9.25,0,0,1,1087.8,388"/><path class="cls-12" d="M1100.6,397.24a15.08,15.08,0,0,1,9.85-5.69"/><path class="cls-12" d="M1159.09,438.21a14.31,14.31,0,0,1,10.83,14.6"/><path class="cls-15" d="M1217.58,517.14a18.93,18.93,0,0,0,2.94,4.79,6.36,6.36,0,0,0,5,2.24"/><path class="cls-16" d="M1217.89,523.76c1.46,2.26,1.47,5.31,3.18,7.4,1.51,1.84,4,2.5,6.33,3.06"/><path class="cls-16" d="M1227.24,525.31a12,12,0,0,0,10.63,8.25"/><path class="cls-16" d="M1227.65,520.55a13.28,13.28,0,0,0,10.87,3.78"/><path class="cls-16" d="M1237.25,528.53c1.68,1.38,2.53,3.48,3.69,5.32s3,3.59,5.14,3.46"/><path class="cls-16" d="M1212.82,515.63a8.42,8.42,0,0,0,4.52,12.82"/><path class="cls-16" d="M1207.84,522.21c-.81,2.74-1.61,5.68-.76,8.42a7.43,7.43,0,0,0,5.08,4.87"/><path class="cls-16" d="M1216.49,531.3a7.43,7.43,0,0,0,.71,6.17,14.71,14.71,0,0,0,4.69,4.17"/><path class="cls-16" d="M1230.28,535.1a15.1,15.1,0,0,0,.46,5.24,5.1,5.1,0,0,0,3.6,3.55"/><path class="cls-16" d="M1245,532.33c4.21-.41,9-1.13,11.35-4.63"/><path class="cls-16" d="M1227.57,515.26a6.48,6.48,0,0,0,5.72,2.76,17.59,17.59,0,0,0,6.39-1.7"/><path class="cls-16" d="M1221.87,513.57a9.78,9.78,0,0,0,12.06-.65"/><path class="cls-16" d="M1203.46,522.6a7.05,7.05,0,0,0,4,11.36"/><path class="cls-16" d="M1254.37,535.89a9.44,9.44,0,0,0,9.92,5.17"/><path class="cls-17" d="M871.13,357.85c2.4-.16,4.39-2.07,5.37-4.26a20,20,0,0,0,1.28-7l.51-8.49"/><path class="cls-14" d="M1040.58,498.64c-25.62-13.87-58.9-12.34-80.82-31.54-8.63-7.55-14.58-17.64-20.16-27.66s-11.05-20.3-19-28.56-18.94-14.39-30.39-13.74c-3.57.2-7.33,1.18-9.7,3.86-5.23,5.92-.69,14.93.4,22.75,1.22,8.71-2.33,17.43-2.14,26.22.2,9.37,4.59,18.08,8.94,26.39,9.6,18.37,20.36,37.54,38.36,47.82,4,2.26,7.56,6.41,12.09,6.46,3.4,0,7.32-.38,10.48.79,5.62,2.07,10.43,2.08,16,4.21a62.74,62.74,0,0,0,33.22,3.71c4.88-.69,9-3,13.81-4,6.15-1.25,11.42-5.29,17.49-6.86,13.77-3.56,35.3,10.63,47,1.29C1068.06,517.56,1053.41,505.59,1040.58,498.64Z"/><path class="cls-9" d="M920.08,490.51c2.35,8.95,10.3,15.06,16.19,22.18,7.59,9.17,8.7,22.91,9.24,34.79.14,3.19.61,6.4-2.51,7.09-11.25,2.5-10.53,1.41-15.84,6.67-4.87,4.83-3.06,17,2,21.62s12.39,5.82,19.24,5.76,14.21-1.52,18.35-6.87,3.7-13.11,2.32-19.85c-2.22-10.88-1.94-22.35-4.39-33.18s-7.58-21.39-4-31.88c2.9-8.35,8.53-15.56,11.22-24a37.24,37.24,0,0,0-4.06-31c-2.79-4.35-8.82-4.11-13.95-3.44s-9.82,3.13-14.3,5.7a39.55,39.55,0,0,0-7.66,5.32,34.32,34.32,0,0,0-5.64,7.41C919.42,468.47,916.66,477.46,920.08,490.51Z"/><path class="cls-11" d="M948,588.83c-8.33,0-14.71-2-19-5.82-2.84-2.58-4.82-7.73-4.93-12.8-.09-3.93.95-7.17,2.91-9.12,4.38-4.33,4.74-4.41,10.83-5.64,1.35-.28,3-.62,5.12-1.08,2.67-.6,2.54-3.13,2.38-6.06,0-.27,0-.55,0-.82-.55-12.06-1.75-25.68-9.19-34.67-1.57-1.89-3.31-3.75-5-5.54-4.67-5-9.5-10.1-11.23-16.71-3.55-13.54-.38-22.64,6.29-33.79a35.28,35.28,0,0,1,5.67-7.45,39.58,39.58,0,0,1,7.71-5.35c4.39-2.52,9.13-5.05,14.37-5.73,5.43-.71,11.35-.84,14.15,3.54a37.31,37.31,0,0,1,4.09,31.13,74.31,74.31,0,0,1-5.77,12.47,78.79,78.79,0,0,0-5.45,11.52c-2.74,7.92-.5,15.74,1.88,24,.73,2.53,1.48,5.14,2.07,7.74A134.17,134.17,0,0,1,967.25,546a146.61,146.61,0,0,0,2,15.84c1.17,5.77,2.21,14.12-2.36,20-3.52,4.54-9.75,6.88-18.52,7Zm-27.71-98.37c1.71,6.51,6.5,11.6,11.13,16.53,1.69,1.8,3.45,3.66,5,5.57,7.52,9.09,8.74,22.79,9.28,34.91,0,.27,0,.55,0,.82.15,2.86.31,5.81-2.71,6.48-2.08.47-3.77.81-5.13,1.08-6.09,1.24-6.33,1.29-10.61,5.54-1.89,1.86-2.88,5-2.79,8.81.1,5,2,10,4.79,12.5,4.25,3.86,10.67,5.78,19.1,5.71a33.77,33.77,0,0,0,10.1-1.44,16.3,16.3,0,0,0,8.09-5.35c4.47-5.76,3.44-14,2.28-19.68a150.11,150.11,0,0,1-2-15.89,133,133,0,0,0-2.35-17.29c-.58-2.58-1.33-5.19-2.06-7.72-2.39-8.34-4.66-16.22-1.87-24.27A80.12,80.12,0,0,1,966,485.19a73.34,73.34,0,0,0,5.74-12.39,36.93,36.93,0,0,0-4-30.79c-2.68-4.18-8.45-4-13.74-3.35s-9.86,3.18-14.23,5.68a40,40,0,0,0-7.62,5.29,34.3,34.3,0,0,0-5.6,7.37C919.91,468.05,916.77,477.06,920.28,490.46Z"/><path class="cls-14" d="M885.67,365.16c-4.2-2.77-8.42-2.21-14-2.35-1.83-.05-2.75-.38-3.22-1.22h0c-.47-.83.34-.94,2.35-.9,6.14.12,10.89-.18,16.07,2.66,1.69.93,1.65,1.25,1.2,1.82h0C887.64,365.74,887,366.06,885.67,365.16Z"/><path class="cls-14" d="M849.67,299c.11-.12.08-.13,0,0,1-2.8,3.76-4.83,4.42-6.68,2.52-7,2.84-6.17,8.47-9.76a2.7,2.7,0,0,0,.84-4c.23-.1.16-.08,0,0-.93-1.35-1.09-2.78-3.18-.87-7.86,7.21-12.44,7.87-13.59,20.92C846.33,302.12,848.66,301.82,849.67,299Z"/><path class="cls-14" d="M956.14,444.24h0c-.92-.59-3.87,0-6.07.81-8.48,3.05-11.39,8.77-15.56,14.52-1.08,1.49-.83,2.31.26,2.44h0c1.1.12,1.49.94,3.17-1.37,6.49-8.93,9.55-7.74,18.51-13.77C958.77,445.31,957.05,444.83,956.14,444.24Z"/><path class="cls-14" d="M1082.45,503.18h0c-1,1.57-1.75,2.68-4.88,1.37-12.62-5.32-17.75-10.61-19.47-24.26-.42-3.38.56-3.47,2.34-4h0c1.79-.5,3.49-.15,3.81,2.64,1.3,11.26,6,16,16.71,19.55C1083.62,499.39,1083.43,501.6,1082.45,503.18Z"/><path class="cls-18" d="M1065.6,551a20.36,20.36,0,0,0-13,14.75,10.56,10.56,0,0,0,.46,6.76,9.27,9.27,0,0,0,6.23,4.67,20.7,20.7,0,0,0,8,.05c3.18-.49,6.76-1.61,8-4.57,1-2.31.18-5,1.09-7.38,1.27-3.25,5.28-4.51,7.27-7.37,2.44-3.48,1.29-8.23.06-12.3q-2.45-8-4.88-16c-5.34,2.74-10.76,3.44-16.59,4.22C1062.29,535.25,1066.9,550.53,1065.6,551Z"/><path class="cls-9" d="M894.27,544.47a4.53,4.53,0,0,1-1,2.16c-.89.87-2.27.89-3.5,1-8.63,1.05-14,10.83-13.31,19.5a12,12,0,0,0,2,6.26,12.35,12.35,0,0,0,5.29,3.74c7.53,3.23,16,3.3,24.19,3.2,3,0,6.48-.3,8.31-2.71a9.44,9.44,0,0,0,1.43-5.21c1-18-5.26-35.72-5-53.74a6.4,6.4,0,0,0-.48-3.14,6.06,6.06,0,0,0-1.76-1.77c-6.14-4.66-12.31-10.44-19-14.12-1.6,4.77,4,15.12,4.62,20.7A64,64,0,0,1,894.27,544.47Z"/><line class="cls-19" x1="1511.5" y1="406.81" x2="1511.5" y2="443.55"/><line class="cls-20" x1="1490.71" y1="409.71" x2="1490.71" y2="443.55"/><line class="cls-21" x1="1475.5" y1="425.34" x2="1475.5" y2="452.81"/><line class="cls-19" x1="791.5" y1="513.09" x2="791.5" y2="540.82"/><line class="cls-21" x1="750.78" y1="430.07" x2="750.78" y2="450.81"/><path class="cls-22" d="M1862.25,796.17c-4.55,2.25-9.82-.92-13.8-4.06a275.69,275.69,0,0,1-28.23-25.55,45,45,0,0,0,2.91,11.38q-6.41-7.11-12.67-14.33c1,14,8.84,26.22,19.41,35.75-12.08-9-23.59-18.6-32.93-30.32a77.92,77.92,0,0,0,21.29,37.49,113.33,113.33,0,0,1-12-11.44c-7.71-8.61-13.77-19.08-15.25-30.55a70.71,70.71,0,0,0,26.21,54.57,54.25,54.25,0,0,1-34.23-33.45c-.57-4.64-.81-9.34-1-14-1.49,3.7-.81,7.9.31,11.72.23.76.47,1.53.73,2.28a60.81,60.81,0,0,0,3.9,16c-5.43-11.92-8.58-24.56-7.24-37.52.69-6.7,2.58-13.22,3.41-19.9,1.14-9.16.28-18.45-1.27-27.54a182.32,182.32,0,0,0-23.49-63.22c-1.19-2-3.54-5.12-5.56-8.4,5.74,24.6,8,52.17,6.25,82.87-1.41,24.89-5.12,47-10.9,66.69,2.47,69.3-19.18,135.1-2.92,203.73,2.17,9.15-1.39,11.09-9.87,13.49-12.84,3.64-37,5.91-50.76,6.94-5.24.39-8.9-1-10.91-3.79a19.24,19.24,0,0,0,2.48-.71c9.2-3.32,10.07-6.94,4.46-16.46a55.51,55.51,0,0,1-6.32-17.15c3-29.59,6.59-60,9.27-90.28q-4.39,3.27-9,6.28c1.82,26.26-5.45,58.59-.26,84-.86,8.66-1.67,17.26-2.39,25.75-.3,3.61.3,6.5,1.77,8.57-13.4,3.1-33.73-4.14-45.86-.22-9,2.89-18.33,7.13-17.42-5.54,2.72-37.51,16.84-57.09-14.81-80.27-36.47,8.59-77.56,12-121.69,12.3-1.07,23.54-2.48,48.33,8.15,66.63,4,6.94.33,14.35-9.75,13.87-15.65-.76-34.77,5.2-48.75,4.07-9-.74-13-5.76-11.72-14.65,3.69-24.85,3.07-49.34,1.61-73.92a296.33,296.33,0,0,1-60.72-15.77c-3.43,30.13-7.29,54.13,6.25,95.1,3.63,11-3.07,14.08-12.64,13.54-14.52-.84-35.28-1.18-49.33-2.68-9.26-1-12.52-.18-12.15-12,1.89-59,4.71-101.5-23.56-155.83-39.64-44.87-59.94-107-52.79-183,6.67-71,32.91-119.28,72.74-150.81-49.73-25.84-80.72-83.92-78.74-144.63,1.17-35.93,13.76-70.34,34.45-97.1-23.6,9.4-51.32,17.19-63.13,21.27-11.6,4-40-10.54-61.61-18.25-14.09-5-25.86,0-26.08-9.71-.56-24.61,73.26-63.75,96.36-68.51,18.46-3.8,75.29,23.41,88.53,43.28a122.44,122.44,0,0,1,83.62-19.81,164.61,164.61,0,0,1,20.27,3.75c9.47-26.16,50.2-58.73,68.13-66.66,22.45-9.93,127.32-20.68,134.74,7.61,3.53,13.42-20.23,27-37.64,41.74-19.28,16.33-33,33.6-43.16,42.2-8.38,7.13-30.41,11.74-53.6,12.48,32.52,30.71,50.8,75,48.46,122.38-1.47,29.66-10.11,56.39-24.68,78.53q15.24-.14,30.94.49c121.29,4.63,221,52.05,251.73,158.86,2.18-2.78,8.54,9.75,9.81,12a185.33,185.33,0,0,1,17.43,41.1c1.64,5.69,3,11.47,5.08,17,1.92,5.19,4.43,10.14,6.51,15.27,2,4.91,3.59,10,5.9,14.75,4.33,9,11,16.56,18.17,23.5C1827.7,771.93,1845,784.09,1862.25,796.17Z"/><ellipse class="cls-13" cx="1268.74" cy="367.78" rx="47.91" ry="35.2" transform="translate(857.21 1623.01) rotate(-88.01)"/><ellipse class="cls-13" cx="1391.49" cy="354.43" rx="50.84" ry="38.13" transform="translate(989.05 1732.8) rotate(-88.01)"/><ellipse class="cls-23" cx="1392.11" cy="364.72" rx="40.57" ry="37.15" transform="translate(979.36 1743.36) rotate(-88.01)"/><ellipse class="cls-23" cx="1267.39" cy="378.5" rx="37.15" ry="34.22" transform="translate(845.2 1632.01) rotate(-88.01)"/><ellipse class="cls-13" cx="1268.52" cy="388.32" rx="12.71" ry="10.27" transform="translate(836.47 1642.62) rotate(-88.01)"/><circle class="cls-13" cx="1279.93" cy="355.45" r="4.89"/><circle class="cls-13" cx="1263.15" cy="359.76" r="3.91"/><ellipse class="cls-13" cx="1388.74" cy="377.32" rx="15.15" ry="11.73" transform="translate(963.51 1752.15) rotate(-88.01)"/><circle class="cls-13" cx="1397.83" cy="340.95" r="4.89"/><circle class="cls-13" cx="1379.43" cy="349.61" r="3.42"/><path class="cls-24" d="M1229.55,253.15c-10.92-4.05-21.6-10.5-33.23-9.7-16.42,1.12-28.34,16.1-43.78,21.81-8,2.95-16.67,3.32-25.18,3.65,2,5,8,7.3,13.45,7.38s10.77-1.45,16.2-1.44c9.48,0,18.48,4.66,28,4.8,16.7.26,31.06-13.32,47.75-13.88,4-.14,22.91,2.2,19.39-5.49C1250.1,255.88,1233.81,254.73,1229.55,253.15Z"/><path class="cls-24" d="M1451.39,209.67c13.45-5.5,28-7.52,42.23-10.54s28.64-7.29,39.93-16.43c3-2.45,6-5.33,9.81-6.13s8.63,1.77,8.35,5.66c-.32,4.58-6.26,5.84-10.49,7.62-9.19,3.87-13.22,14.32-18.09,23-6,10.65-15.12,20.27-27,23.31-6.4,1.64-13.12,1.25-19.72,1.48a104.12,104.12,0,0,0-34.91,7.39c-9.58,3.85-30.06,4.8-20.47-10.6C1428.06,223.22,1439.27,214.63,1451.39,209.67Z"/><path class="cls-10" d="M1425.66,329.49a11.6,11.6,0,0,0,15.17,3.18"/><path class="cls-10" d="M1420,319.23a9.16,9.16,0,0,0,13.23-1.29"/><path class="cls-10" d="M1411.57,309.07a10.34,10.34,0,0,0,12.18-10.43"/><path class="cls-10" d="M1399.27,303.22a14.13,14.13,0,0,0,9.62-13.82"/><path class="cls-10" d="M1382.84,303.75c6.44-1.83,10.55-9.49,8.52-15.87"/><path class="cls-10" d="M1369.9,311.77a18.31,18.31,0,0,0,2.28-16"/><path class="cls-10" d="M1361,323.55a18.26,18.26,0,0,0-4.69-13.14"/><path class="cls-10" d="M1297.6,337.91a29.51,29.51,0,0,1-1.15-18.56"/><path class="cls-10" d="M1286.38,325.11a23.06,23.06,0,0,1-5.67-17.92"/><path class="cls-10" d="M1270.22,318.7a16.37,16.37,0,0,1-3.33-14.92"/><path class="cls-10" d="M1260.78,321c-3.58.67-7.27-1.35-9.44-4.28s-3-6.61-3.52-10.22"/><path class="cls-10" d="M1250.82,326.19a26,26,0,0,1-9.7-1.48,15.17,15.17,0,0,1-8.81-10.2"/><path class="cls-10" d="M1241.83,336a14.85,14.85,0,0,1-18.88-1.71"/><path class="cls-10" d="M1237.54,346.16c-5.73,1.92-12.34,3.76-17.54.67"/><path class="cls-10" d="M1428.55,341.26a10.13,10.13,0,0,0,14.36,1.13"/><path d="M1360.71,456.4c-.2,4.5-2,9.31-7.1,9.24s-8.34-5.46-8-10.18,3.65-9.4,8.87-9.09S1360.92,451.9,1360.71,456.4Z"/><path d="M1701.57,547.62c-1.75-.47-3.45-1.41-3.81-3.07-39.7-38.13-90.5-60.53-145.31-66l-50.51-5c-5.38-.53-10.3.21-15.69-.2-10-.76-17.75,9.89-18.14,19.91s4.25,19.46,8,28.77a171.28,171.28,0,0,1,8.92,30c1.35,6.72,2.32,13.59,4.94,19.92,8.11,19.57,31,31.87,33.85,52.86.85,6.39-.34,12.88.11,19.31.7,10,5.31,19.24,8.72,28.67,4.83,13.33,7.33,27.37,9.23,41.42,1.78,13.13,4.66,28.66,16.78,34,9.23,4.09,21,.54,29.29,6.31,2.69,1.88,4.7,4.56,7.12,6.78a26.48,26.48,0,0,0,25.79,5.49c11.92-20.21,1.3-47.36,10.84-68.8,6-13.6,19.16-22.53,28.23-34.34A68.2,68.2,0,0,0,1673.83,624c.22-9.9-1.67-20.05,1.05-29.56,2.82-9.85,10.16-17.61,16.57-25.6,4.24-5.29,10.93-10.8,12.91-17.17C1704.22,551.6,1701.7,547.65,1701.57,547.62Z"/><path d="M1220.68,789.28c4,1.21,6.39,1.87,9.88-.37s6.37-5.29,9.59-7.9a46.14,46.14,0,0,1,29.16-10.16,4.86,4.86,0,0,1,2.45.46c1.35.77,1.74,2.49,2.2,4,3.1,10.11,15.09,15.5,25.55,14s19.41-8.37,26.63-16.11,13.24-16.56,20.94-23.81c7-6.63,15.33-11.8,22.28-18.52s12.66-15.62,12.36-25.27c-.22-7-3.67-13.7-8.41-18.91s-10.71-9.15-16.8-12.7a90.73,90.73,0,0,0-11.2-5.71C1340,666,1334,664.43,1330.23,660c-5.63-6.76-3.61-16.7-3-25.48a64.74,64.74,0,0,0-1.34-17.89c-.81-3.71-2-7.5-4.72-10.19-5.3-5.32-14-4.46-21.14-6.77-3.87-1.25-7.33-3.47-10.85-5.49a117.38,117.38,0,0,0-24.75-10.6c-2.91-.86-6-1.61-8.94-.83a28.15,28.15,0,0,0-5.53,2.67,24.36,24.36,0,0,1-16.81,2c-13.43,23.29-20.42,50.52-23.42,77.24s-1.83,53.74.85,80.48C1212.14,761.29,1214.6,774.24,1220.68,789.28Z"/><path class="cls-10" d="M1469.18,506.57l0,.59"/><path class="cls-24" d="M1379.53,452.5c-.13,6.61-4.19,10.92-3.5,17.31.56,5.14,3.83,8.75,3.26,14-.8,7.46-6.32,12.45-13.14,15.87-24,12.06-52.59,11-74.54-4.95-5-3.62-8.36-7.7-8.95-13.75-.34-3.44,1.1-6.07,1.82-9.61,1.53-7.5-1.72-13.16-1.25-21.06,2.16-35.66,27-15,50.41-15.5C1354.41,434.37,1380.19,420.1,1379.53,452.5Z"/><path d="M1310.06,452.49c-.17,3.07,1.12,8.06-3.29,8.22s-6.92-5.08-6.78-8.44,3.47-8.15,7.45-7.68S1310.23,449.43,1310.06,452.49Z"/><path d="M1352.62,452c.13,3.2-.59,9.25-5,7.9s-5-3.52-5.55-10.09,7.17-6.27,10-5.58S1352.49,448.83,1352.62,452Z"/><path class="cls-13" d="M1469.14,402.42h0c2,.91,3.29,1.48,5.09-2.13,14.3-28.74,9.1-44-5.45-70.67-1.83-3.35-3.29-2.92-5.21-2h0c-1.92.94-3.59,2.27-1.87,5.46,13.69,25.34,19.12,36.43,5.45,63.81C1465.44,400.36,1467.14,401.5,1469.14,402.42Z"/><path class="cls-13" d="M1188.56,230.21c-33.38,3.79-17.57,16.59-40,26.14-4.33,1.85-5.55.68-6.88-1.57h0c-1.34-2.24-2-4.29,2.12-6,21.16-8.75,4.33-22.17,46.22-28.28,8.08-1.19,7.27,1.15,6.38,4.87h0C1195.52,229.1,1195,229.48,1188.56,230.21Z"/><path class="cls-13" d="M1425.09,207.51c18.37-24.18,39.38-22.71,67.73-20.25,5.52.48,6.88-1.87,7.21-5.47h0c.34-3.61.13-6.33-5.83-6.9-30.56-2.92-54.42-4.66-75.24,20.6-4,4.93-3.91,6.77-2,11h0C1418.77,210.71,1421.52,212.22,1425.09,207.51Z"/><path class="cls-13" d="M1366.24,445.22c-5-9.38-21.58-3.47-31.49-3.19-1.48,0-3-.5-3-2.43h0c0-1.93.87-2.28,2.71-2.34,12.38-.43,28.1-5.95,35.82,5.14,1.14,1.65.62,2.28-.74,3.53.13.2.14.17,0,0C1368.2,447.17,1367,446.61,1366.24,445.22Z"/><rect class="cls-25" x="4.27" y="1.05" width="520" height="385" rx="12"/><rect class="cls-26" x="459.27" y="0.05" width="7" height="386"/><rect class="cls-27" x="394.27" y="0.05" width="7" height="386"/><rect class="cls-27" x="323.27" y="0.05" width="7" height="386"/><rect class="cls-27" x="256.27" y="0.05" width="7" height="386"/><rect class="cls-27" x="187.27" y="0.05" width="7" height="386"/><rect class="cls-27" x="119.27" y="0.05" width="7" height="386"/><rect class="cls-27" x="57.27" y="0.05" width="7" height="386"/><rect class="cls-28" x="230.27" y="180.05" width="134.31" height="205" rx="12"/><rect class="cls-13" x="107.27" y="37.05" width="115.66" height="111" rx="6.98"/><rect class="cls-28" x="116.58" y="46.37" width="97.03" height="90.82" rx="9.71"/><rect class="cls-13" x="158.6" y="45.59" width="10.87" height="101.69"/><rect class="cls-13" x="158.89" y="42.1" width="10.87" height="101.69" transform="translate(257.26 -71.38) rotate(90)"/><rect class="cls-13" x="362.13" y="37.36" width="115.66" height="111" rx="6.98"/><rect class="cls-28" x="371.44" y="46.68" width="97.03" height="90.82" rx="9.71"/><rect class="cls-13" x="413.46" y="45.9" width="10.87" height="101.69"/><rect class="cls-13" x="413.75" y="42.41" width="10.87" height="101.69" transform="translate(512.43 -325.93) rotate(90)"/><rect class="cls-13" x="365.27" y="181.52" width="134" height="204.53" rx="12"/><rect class="cls-27" x="375.85" y="189.46" width="112.84" height="186.89" rx="12"/><rect class="cls-13" x="428.74" y="172.71" width="8.82" height="223.04" rx="4.41" transform="translate(200.15 -178.5) rotate(30)"/><rect class="cls-13" x="429.35" y="171.22" width="8.82" height="223.04" rx="4.41" transform="translate(-83.26 254.76) rotate(-30)"/><rect class="cls-13" x="96.73" y="180.72" width="134" height="204.53" rx="12"/><rect class="cls-27" x="107.31" y="188.65" width="112.84" height="186.89" rx="12"/><rect class="cls-13" x="160.2" y="171.9" width="8.82" height="223.04" rx="4.41" transform="translate(163.76 -44.33) rotate(30)"/><rect class="cls-13" x="160.81" y="170.41" width="8.82" height="223.04" rx="4.41" transform="translate(-118.83 120.38) rotate(-30)"/><rect class="cls-29" x="-1.23" y="-3.14" width="542" height="19" rx="9.5"/><rect class="cls-30" x="20.27" y="40.05" width="4" height="76" rx="2"/><rect class="cls-30" x="38.27" y="156.05" width="4" height="76" rx="2"/><rect class="cls-30" x="80.27" y="82.05" width="4" height="76" rx="2"/><rect class="cls-30" x="237.27" y="96.05" width="4" height="76" rx="2"/><rect class="cls-30" x="276.27" y="33.05" width="4" height="76" rx="2"/><rect class="cls-30" x="339.27" y="67.05" width="4" height="76" rx="2"/><rect class="cls-30" x="505.27" y="29.05" width="4" height="76" rx="2"/><rect class="cls-30" x="24.27" y="297.05" width="4" height="76" rx="2"/><rect class="cls-30" x="488.27" y="124.05" width="4" height="48" rx="2"/><rect class="cls-30" x="297.27" y="119.05" width="4" height="48" rx="2"/><rect class="cls-30" x="512.27" y="282.05" width="4" height="48" rx="2"/><rect class="cls-30" x="84.27" y="297.05" width="4" height="48" rx="2"/><path class="cls-31" d="M1057.11,843.9c-110.82-7.47-282.31-5.25-394.65-1.37-25.72.89-36-7.45-41.58-39.43-7.81-44.89-14.92-81.57-.8-127.17,10.06-32.49,23-39.88,45-38.31,96.06,6.88,289.64,2.43,390.24-1.76,23-1,36.34,8.2,43.37,39.49,9.86,43.93,6.81,86.29.14,130C1094.09,836.52,1082.48,845.61,1057.11,843.9Z"/><path class="cls-32" d="M1062.45,852.09c-1.89,0-3.84-.07-5.87-.21h0c-70.95-4.78-211.67-7.65-393.85-1.35-30.61,1.05-43.63-11-49.73-46.06l-.73-4.17c-7.56-43.31-14.08-80.71.17-126.74,10.4-33.6,25.32-45.93,53.22-43.92,93.5,6.7,284.06,2.61,389.34-1.77,28.63-1.2,44,12.48,51.5,45.73,10.77,47.95,6.17,94.13.25,133C1101.88,838.52,1088.89,852.09,1062.45,852.09Zm-4.8-16.17c19.47,1.3,28.89-3,33.28-31.75,10.16-66.61,5.68-101.61,0-127.06-6.5-28.92-17.4-34-35.22-33.26-105.65,4.4-297,8.49-391.15,1.75-17.68-1.27-27.7,3.3-36.8,32.69-13.11,42.34-7.19,76.28.31,119.25l.73,4.19c5,28.88,12.75,33.52,33.42,32.81,119.84-4.15,286.67-6,395.47,1.38Z"/><path class="cls-33" d="M675.43,633.27c-14.61-1.19-32.9-2-44.75,11.21-2.79,3.12-2.74,3.86-.07,3.95-.29.55-.28.52,0,0,2.66.09,3-2.88,5.68-4.9,11.35-8.61,27.18-7.67,39.58-6.69,2.93.24,4.9.64,4.45-1.85h0C679.87,632.5,678.87,633.56,675.43,633.27Z"/><path class="cls-33" d="M1067.42,682.68c-3.73-21.38-76.8-10.25-95.67-10-3,0-8.69-2.26-8-7.42h0c.65-5.16,3.29-6.92,8.22-7.1,30.46-1.14,96.59-14.8,109.2,19.94,2,5.62-.38,7.59-4.84,9.48.15.64.14.63,0,0A6.46,6.46,0,0,1,1067.42,682.68Z"/><text class="cls-34" transform="translate(721.32 784.02)">Start</text><text class="cls-35" transform="translate(735.11 772.84)">Start</text><path class="cls-33" d="M641.28,759c3,17.07,3,52.88,21.47,58.3,1.35.39,1.92.62,1.92,2.28a25.24,25.24,0,0,1-.21,5.58c-.41,1.57-.72,2.42-2.54,2.12-24.95-4.19-27.79-46.7-30-67.62-.16-1.52.35-1.92,1.79-2.26a28.3,28.3,0,0,1,5.19-.25A2.1,2.1,0,0,1,641.28,759Z"/><path class="cls-33" d="M1091,820.9c-2.84,16.78-5,17.83-22.24,22.24-3.46.89-3.38.62-4.3,2.88-.65.08-.62.09,0,0-.92,2.25-1.07,1.93,2.42,1.45,17.43-2.41,25.74-7.59,27.3-25.57.31-3.59,1.34-3.34-.6-4,.16-.78.14-.74,0,0C1091.68,817.14,1091.6,817.55,1091,820.9Z"/><polygon class="cls-6" points="727.76 195.82 794.38 305.81 481.53 305.81 548.15 195.82 481.53 195.82 554.06 76.07 481.5 76.07 637.93 -182.19 794.35 76.07 721.85 76.07 794.38 195.82 727.76 195.82"/><polygon class="cls-1" points="794.38 305.81 727.76 195.82 794.38 195.82 721.85 76.07 794.35 76.07 637.93 -182.19 637.93 305.81 794.38 305.81"/><rect class="cls-7" x="604.96" y="305.91" width="69.41" height="86.01"/><line class="cls-6" x1="673.17" y1="4.53" x2="707.8" y2="50.01"/><line class="cls-6" x1="713.55" y1="117.41" x2="748.18" y2="162.89"/><line class="cls-6" x1="669.09" y1="184.91" x2="727.46" y2="261.62"/><line class="cls-6" x1="661.43" y1="97.96" x2="719.8" y2="174.67"/><line class="cls-6" x1="668.92" y1="-56.68" x2="727.29" y2="20.03"/><line class="cls-8" x1="599.64" y1="5.34" x2="565.01" y2="50.82"/><line class="cls-8" x1="559.26" y1="118.22" x2="524.63" y2="163.7"/><line class="cls-8" x1="603.72" y1="185.72" x2="545.35" y2="262.43"/><line class="cls-8" x1="611.38" y1="98.77" x2="553.01" y2="175.48"/><line class="cls-8" x1="603.89" y1="-55.87" x2="545.52" y2="20.84"/><text class="cls-36" transform="translate(426.42 133.49)">Rescue farm animals</text><text class="cls-37" transform="translate(438.76 122.06)">Rescue farm animals</text><path class="cls-38" d="M682.87,549.49a81.92,81.92,0,0,0-11.36-7.93,118.88,118.88,0,0,0,11.26,8Z"/><path class="cls-38" d="M650.6,522.94c-2-6.29-1.13-13.49-1.37-19.68-1.4-36.69,10.33-62.7,45.69-68.47s56.7,25,53.3,55.34c-2.5,22.37-26.45,59.28-47,69.68.5,1.18,2,1.6,2.84,2.46a140.82,140.82,0,0,0,27.06,4.65,128.16,128.16,0,0,0,17.3-.3c-1.66,2.63-2.76,7.42-1.62,10.06,2.28,5.26-.95,11.38,6,13.15,11.8,3,27.09-.91,38.85.7,6.89,1,8.31-1,13-4.51,3.74-2.76,1.95-7.77-.88-10.22-3.56-3.07-5.4-5.78-10-7.35-7.46-2.53-16.06-4-23.7-6.57,48.93-14.59,73-53.12,75.45-100.9,2.5-48.28-5.91-79.48-47.32-108,11.2-4.75,21.07-12.37,27.6-23.06a48.37,48.37,0,0,0,6.68-33.14c-3.46-21.39-12-41.54-29.09-55.21,8.48-1.56,15.61-9.47,15.47-17.37-.21-11.34,3.16-29-11.17-21.55-9.41,4.9-20.31,9.21-21.69,19.79-.61,4.69,1.25,7.64,2.23,11.76a62.41,62.41,0,0,0-17.5-2.36,68.66,68.66,0,0,0-21.83,3.89c.79-4.07-.25-6.48,0-10.91,1-16.07-8.84-18.72-20-19.79-9-.87-14.23-4.05-19.37-3-1.07.23-1,.49-1.26,1.57-2.08,7.61,1.81,14.63,3,23.12,1.79,12.71,3.87,20.05,18.63,21.07C717.7,261.6,712,276.19,711.59,295.44c-.06,2.7,2.82,14.12,4.18,18.07.18.52.64,2.91.9,3.47,2.09,4.61,4.25,18.8,5.15,21.76,2.84,9.39-8.16,22.49-10.91,24.57-14,10.52-22.18,20.57-32.71,31.2-18.78,19-34,42.42-38.44,68C635.87,485,640.41,503.66,650.6,522.94ZM795.37,354.22l1.27-.43A1,1,0,0,1,795.37,354.22Z"/><path class="cls-39" d="M625.72,509.72c-.08-3.68-1.56-7.17-2.2-10.8s-.18-7.88,2.72-10.15"/><path class="cls-40" d="M456.71,429.22c-6.33,16.31-5,17.17,7.51,3.54,11.51-12.51,16.42-28.44,26.85-40.63.5-.58-.65.7-.46.17,1.34-.32,4.12-3.22,5.43-5.48,6.8-11.76,13.74-19.43,28.16-21.07h.1c1.1.35,2.93.24,6-.23,6.49-1,25.59,1.54,34.61,14.71,7.91,11.55,11.9,19.31,15.11,58.6,1,11.72-3.08,47.61,9.66,67.07,14.6,22.28,47.25,27.65,67.44,29.75,4.13.43,6.55.52,8,.26,3-.55,2-2.61,3.47-6.35.75-1.9-3.82-4.67-5.24-5.48-4.11-2.37-6.17-6.61-12.22-5.33l-.1,0c-18.33,4-41.06-23.16-42.89-39.38a27.7,27.7,0,0,1,.25-6.72c7.3-39.3,11.38-66.78-6.1-104.85-1-2.25-1.66-3.72-2.29-4.74a26.77,26.77,0,0,0-6.09-12.81c-3.64-4.14-4.86-5.42-8.48-8.1-.59-.45-2.36.25-1.47.8,1.32.81-26-16.52-53.42-9.69-1.65.41-2.88.8-3.82,1.13-1.65-.09-4,.93-7.77,2.87-20.45,10.46-29.12,21.58-41.37,38.37-1.91,2.62-2.52,4.06-2.42,5a3.55,3.55,0,0,0-2.22,2.22c-3.9,8.55-8.27,28-11.25,38.33C460.79,424.37,458,425.93,456.71,429.22Z"/><path class="cls-39" d="M631.06,505.83a17,17,0,0,0,10.55,12.6"/><path class="cls-39" d="M641.5,518.72l.22-.57a16.6,16.6,0,0,1-10.36-12.37l-.59.11A17.24,17.24,0,0,0,641.5,518.72Z"/><path class="cls-39" d="M647.48,518.7a18,18,0,0,1-5.87-15.08"/><path class="cls-39" d="M647.28,518.93l.4-.45a17.67,17.67,0,0,1-5.77-14.82l-.6-.07A18.29,18.29,0,0,0,647.28,518.93Z"/><path class="cls-39" d="M631.84,513.78a23.54,23.54,0,0,1-3.4-15.11"/><path class="cls-39" d="M622.82,507.56c-2.53-.81-3.39-3.92-3.66-6.56a52.68,52.68,0,0,1,.36-13.45"/><path class="cls-39" d="M611.58,476.24a21.17,21.17,0,0,0,1.23,22.48C614.22,492.45,607.86,481.47,611.58,476.24Z"/><path class="cls-39" d="M604.07,483.23c-.07-4.74-.11-9.56,1.26-14.1s4.39-8.82,8.81-10.54"/><path class="cls-39" d="M600.34,467.78a24.23,24.23,0,0,1,15.48-19.43"/><path class="cls-39" d="M599.5,455.62a24.22,24.22,0,0,1,19.42-21.73"/><path class="cls-39" d="M599.5,440.1l3.81-8.75a16.29,16.29,0,0,1,3-5.12c4-4,10.84-2.86,15.88-5.45"/><path class="cls-39" d="M601.34,427a66.2,66.2,0,0,1,4.35-11.31c1.49-3,3.43-6.11,6.53-7.41s6.65-.63,9.45-2.31"/><path class="cls-39" d="M600.82,411.36c2.52-4,2.6-9.05,3.64-13.68s3.87-9.63,8.58-10.24"/><path class="cls-39" d="M596.43,390.55a22.68,22.68,0,0,1,13.7-18.24"/><path class="cls-39" d="M602.79,393.46c-.87-1.26.05-2.95.94-4.19q4.89-6.76,9.79-13.54a2.14,2.14,0,0,1,2.1.5"/><path class="cls-39" d="M607.33,415.46c-1.46-.7-1.18-2.85-.56-4.34A31.36,31.36,0,0,1,615.71,399c.66-.54,1.88-.92,2.15-.12"/><path class="cls-39" d="M597.23,379.62a41.49,41.49,0,0,1,9.45-15.15"/><path class="cls-39" d="M594,375.6l3.17-8.42a29,29,0,0,0,2.14-7.82,9.86,9.86,0,0,0-2.27-7.55"/><path class="cls-39" d="M588.21,367.46c1.59-4.41,3.2-8.92,3.35-13.61s-1.41-9.69-5.13-12.56"/><path class="cls-39" d="M585.88,355.7c0-4.24-.07-8.54-1.26-12.6s-3.72-7.94-7.53-9.78l-1.15,1.51"/><path class="cls-39" d="M565.65,344.41a21.78,21.78,0,0,0-21.57-23.62"/><path class="cls-39" d="M555.57,340.81c-.79-5.12-5.26-9.09-10.19-10.66S535.11,329,530,329.74"/><path class="cls-39" d="M542.81,342c.44-3.48-2.16-6.82-5.39-8.18s-6.92-1.1-10.35-.36-6.75,1.93-10.23,2.41"/><path class="cls-39" d="M533.5,342.46l-5.58-.79a38.52,38.52,0,0,0-10.49-.51c-3.48.48-7,2.07-8.95,5"/><path class="cls-39" d="M551.69,336.93c-3.39.57-6.32-2.19-8.8-4.57s-6-4.73-9.1-3.28"/><path class="cls-39" d="M577.72,348.14c1.54-1.62,1.3-4.34.07-6.2s-3.2-3.08-5.11-4.23l-11-6.66"/><path class="cls-39" d="M535.85,341.6a65.09,65.09,0,0,0-10.51-3.68l-8.77-2.51c-3.13-.9-7.19-1.5-9.05,1.18"/><path class="cls-39" d="M524.52,347.84a64.06,64.06,0,0,0-12.6-2.37c-2.93-.15-5.88.1-8.79-.21-2.49-.28-5-1-7.45-.73s-5.11,1.74-5.59,4.2"/><path class="cls-39" d="M511.24,355.35c-3-2.65-6.33-5.42-10.33-5.9a18,18,0,0,0-6.43.72,78.57,78.57,0,0,0-9.23,2.94"/><path class="cls-39" d="M501.32,361.43c-3.32-3.65-9.09-3.44-13.89-2.33S478,362,475.15,365.84"/><path class="cls-39" d="M492.2,371.24c-3.51-2.35-8.22-2.25-12.19-.78s-7.35,4.15-10.66,6.78"/><path class="cls-39" d="M483.89,379.62l-6.07-.19c-3-.09-6.13-.17-8.94.91-4.12,1.58-6.93,5.34-9.5,8.92"/><path class="cls-39" d="M463.51,406.09c3.34-6.32,7.39-13.23,14.28-15.14-1.9,1.89-6.3-.82-8.8.14C464.53,392.82,464.57,401.42,463.51,406.09Z"/><path class="cls-39" d="M474.54,410.84c-4.1.39-8.29.8-12.07,2.44s-7.15,4.76-8,8.79"/><path class="cls-39" d="M467.87,423c-4.73,1.24-9.71,2.63-13.15,6.12-2.81,2.85-4.23,6.76-5.46,10.56"/><path class="cls-39" d="M461.25,434.59c-6.54.64-11.81,7.42-10.8,13.91"/><path class="cls-39" d="M465,416c.54,1.06-.61,2.17-1.61,2.81l-12.3,7.88"/><path class="cls-39" d="M461.47,429a23.77,23.77,0,0,1,4.1,9.74c.14.83-.55,2.1-1.12,1.48"/><path class="cls-39" d="M467.61,419.39a28.32,28.32,0,0,1,3.37,8c.56,2.87.11,6.09-1.85,8.25l-.76-3.22"/><path class="cls-39" d="M475.28,411.12a20.7,20.7,0,0,1,2.94,14.81"/><path class="cls-39" d="M480.86,401.74a17.27,17.27,0,0,1,2.71,17.05"/><path class="cls-39" d="M645.36,529a7.69,7.69,0,0,1-9.84,9.88"/><path class="cls-39" d="M638.09,539.65a8,8,0,0,0,7.55-10.73l-.56.21a7.39,7.39,0,0,1-9.46,9.49l-.2.57A7.85,7.85,0,0,0,638.09,539.65Z"/><path class="cls-39" d="M652.34,530.2a22.58,22.58,0,0,1,.15,7.1,7.61,7.61,0,0,1-4,5.6c-1.81.8-3.88.6-5.84.38"/><path class="cls-39" d="M645.37,543.77a8,8,0,0,0,3.27-.6,7.76,7.76,0,0,0,4.14-5.81,22.57,22.57,0,0,0-.14-7.2l-.6.08a22.23,22.23,0,0,1,.15,7,7.2,7.2,0,0,1-3.8,5.38c-1.78.79-3.85.56-5.68.36l-.06.6A25.24,25.24,0,0,0,645.37,543.77Z"/><path class="cls-39" d="M636.78,526.77c.84,1.85-.24,4-1.29,5.68-1.62,2.68-3.72,5.66-6.84,5.86-2.74.18-6-1.78-7.93.2"/><path class="cls-39" d="M625,525.66a9.71,9.71,0,0,1-6.27,5.19,28.65,28.65,0,0,1-8.32.9c-1.3,0-3-.36-3.1-1.65"/><path class="cls-39" d="M619,517.94c-2.19,2.49-4.63,5-7.79,6-4.09,1.29-8.48-.17-12.52-1.62"/><path class="cls-39" d="M605.44,514.76c-1.64,2.49-5,3.42-7.94,3s-5.66-1.83-8.29-3.26a10.63,10.63,0,0,1-2.66-1.82"/><path class="cls-39" d="M596.35,506.25c-2.76,1.57-6.35,1-9-.72s-4.59-4.35-6.27-7"/><path class="cls-39" d="M590.93,496.64c-1.87.78-3.9-.62-5.31-2.06a32.84,32.84,0,0,1-6.85-10.3"/><path class="cls-39" d="M584.2,473.7c-3.76-.08-9.67,1.34-12.59-1a34.67,34.67,0,0,0,13,11.31"/><path class="cls-39" d="M588.62,469.77a17.45,17.45,0,0,1-16.4-12"/><path class="cls-39" d="M584.75,459a19.06,19.06,0,0,1-12.61-8.95"/><path class="cls-39" d="M584,446.66a29.62,29.62,0,0,0-14.16-3"/><path class="cls-39" d="M582.9,438.05a17.88,17.88,0,0,0-15.25-11.48"/><path class="cls-39" d="M585.2,423.86a27.42,27.42,0,0,0-13.61-9.36c-3.09-.94-6.92-1.13-9.06,1.3"/><path class="cls-39" d="M584.63,413.23c-3.86-7.05-13.76-10-20.83-6.14"/><path class="cls-39" d="M581.44,402.68a13.88,13.88,0,0,0-19.87-6.11"/><path class="cls-39" d="M576.83,390.23a16.46,16.46,0,0,0-19.68-3.06"/><path class="cls-39" d="M573.5,381.74c-2.1-4.77-7.71-7.31-12.91-7s-10,3-14,6.31"/><path class="cls-39" d="M564.78,371.47a23.93,23.93,0,0,0-24.82,1.8"/><path class="cls-39" d="M552.31,363.22C544,360.61,534,365,530.37,373"/><path class="cls-39" d="M535.15,360.89c-4-1.09-8.43.58-11.61,3.3s-5.39,6.4-7.54,10"/><path class="cls-39" d="M513.29,363.87A44,44,0,0,0,507,382.82"/><path class="cls-39" d="M502.65,370.15a60.37,60.37,0,0,0-2.24,19.28"/><path class="cls-39" d="M496.15,378.65a23,23,0,0,0-6.21,26.21"/><path class="cls-39" d="M485.08,393.83c-2.62,2.82-2.55,7.22-1.62,10.95S486,412.15,486,416"/><path class="cls-39" d="M765.43,472.33c3.38,0,8.24-1.46,9.85-3.06l.06-.07,0-.08a43.15,43.15,0,0,1,1.62-5.29,32.36,32.36,0,0,0,2-7.69,48.09,48.09,0,0,0-.39-9.2c-.17-1.54-.33-3-.41-4.44-.07-1.19-.1-2.24-.14-3.23a49.64,49.64,0,0,0-.8-8.32,91.77,91.77,0,0,0-2.6-9.52c-.68-2.19-1.32-4.26-1.82-6.17l-.05-.11c-1.72-2.25-3.53-4.4-5.28-6.48s-3.48-4.15-5.16-6.34l-.09-.08c-1.56-.92-3.3-1.88-5.14-2.9a90.88,90.88,0,0,1-9.68-5.81,26.1,26.1,0,0,1-4.61-4.51,29.64,29.64,0,0,0-3.75-3.84l-.38.46a29.73,29.73,0,0,1,3.67,3.77,26.53,26.53,0,0,0,4.71,4.6,89.88,89.88,0,0,0,9.75,5.86c1.82,1,3.54,1.95,5.07,2.86,1.68,2.19,3.44,4.29,5.15,6.32s3.52,4.19,5.22,6.41c.5,1.91,1.14,4,1.81,6.14a91.29,91.29,0,0,1,2.59,9.45,49.32,49.32,0,0,1,.79,8.23c0,1,.07,2,.14,3.24.08,1.46.25,3,.4,4.48a46.93,46.93,0,0,1,.4,9.08,31.89,31.89,0,0,1-2,7.53,46.77,46.77,0,0,0-1.62,5.28c-2,1.93-9.33,3.69-11.68,2.42a85.9,85.9,0,0,1-5.37-7.95c-.88-1.41-1.79-2.88-2.74-4.3-.55-1.69-1.06-3.5-1.56-5.26a87.71,87.71,0,0,0-2.73-8.57c-1-2.42-1.54-3.68-2.26-5.28-.54-1.18-1.14-2.51-2-4.6-2.19-5.15-9-13.07-15.06-14.31A72.53,72.53,0,0,0,719.74,420c-2.19-.08-4.26-.16-6.26-.36a70.72,70.72,0,0,1-9.67-1.73c-1.44-.33-2.93-.67-4.58-1l-.11.59c1.63.33,3.12.67,4.56,1a71.2,71.2,0,0,0,9.74,1.74c2,.2,4.1.28,6.29.37a71,71,0,0,1,11.53,1.07c5.88,1.2,12.48,8.93,14.62,13.95.9,2.1,1.5,3.44,2,4.62.71,1.59,1.28,2.84,2.25,5.26,1,2.62,1.89,5.61,2.71,8.51.5,1.77,1,3.6,1.58,5.32l0,.08c.95,1.42,1.87,2.89,2.75,4.31a87.56,87.56,0,0,0,5.45,8.05l.09.08A5.57,5.57,0,0,0,765.43,472.33Z"/><path class="cls-39" d="M805.68,431.3c.09-6.64.91-15.88,4.27-22.22,3.91-7.39,11.34-13.93,22.06-19.45a10.41,10.41,0,0,0,1-.54l.17.16V389h.29l.06.23c.08.28,0,.31-1.23,1-10.61,5.46-17.94,11.92-21.8,19.19-6.33,11.95-3.62,34.64-3.59,34.86v.07c0,.11-.95,11.24,1.76,14.9a31.11,31.11,0,0,1,2.18,3.81c1.69,3.25,3.79,7.29,6.24,7.86a3,3,0,0,0,2.51-.65c5.69-4.17,8.46-8.7,8.46-13.87,0-1.93-.15-3.57-.3-5.16-.36-3.87-.64-6.93,1.54-11.28,3.06-6.13,6.07-9.94,11.48-9.94H841a15.77,15.77,0,0,0,4.38-.42,3,3,0,0,0,.13.58,16.59,16.59,0,0,1-4.53.44c-5.25-.09-8.07,3.45-11.15,9.61-2.1,4.19-1.83,7.18-1.48,10.95.15,1.61.3,3.27.3,5.22,0,5.37-2.84,10.07-8.7,14.36a3.88,3.88,0,0,1-2.28.83,3.55,3.55,0,0,1-.73-.08c-2.71-.64-4.8-4.64-6.63-8.17a33.37,33.37,0,0,0-2.14-3.74c-2.79-3.78-1.94-14.48-1.87-15.27A107.55,107.55,0,0,1,805.68,431.3Z"/><path class="cls-39" d="M833.18,389.31v0Z"/><path class="cls-40" d="M649,515.05c3.52,15.77,12.84,20.74,22.56,26.51a70,70,0,0,1,11.36,7.93l-.1.08a10.38,10.38,0,0,0-3.7,8.55c.3,4.08-3,13.47-4.12,17-1.71,5.43-1.53,11.45,3.27,13,15.09,4.78,30.16.84,45.22,1.8,4.8.3,6.14-2,9.44-4.76,2.12-1.76,4.11-4.81,2.11-7.5-3.11-4.17-6.12-7.2-11.39-8.79a49.07,49.07,0,0,1-14.84-7.55c-1-.75-2-1.52-3-2.29,18.65-9.21,42.45-46.45,45.66-69.92,4.36-31.89-22.92-61-52.48-57.15s-49.61,16.36-51.35,63.59A76.51,76.51,0,0,0,649,515.05Z"/><path class="cls-39" d="M678.13,588.36c-5.13-1.63-5.16-8-3.47-13.35.15-.49.35-1.09.57-1.78,1.33-4.07,3.79-11.64,3.54-15.08a10.72,10.72,0,0,1,3.64-8.67,70,70,0,0,0-11.06-7.66l-1.12-.67c-9.34-5.53-18.17-10.75-21.58-26h0a76.93,76.93,0,0,1-1.4-19.62c.82-22.36,5.84-38.15,15.33-48.27,8.06-8.59,19.25-13.41,36.28-15.61,13.58-1.75,27.4,3.32,37.94,13.93a52.29,52.29,0,0,1,14.88,43.56c-1.53,11.16-7.91,26.28-17.09,40.43s-19.54,25-28.3,29.51c1,.75,1.82,1.39,2.65,2a48.4,48.4,0,0,0,14.74,7.5c5.28,1.59,8.33,4.58,11.55,8.9,2.08,2.79.14,6-2.16,7.91-.61.52-1.15,1-1.68,1.49-2.21,2-3.95,3.59-8,3.34a139.28,139.28,0,0,0-16.23.23c-3.61.2-7.27.39-11,.39A59.22,59.22,0,0,1,678.13,588.36Zm45.33,1.21c3.76.23,5.34-1.2,7.52-3.19.53-.48,1.08-1,1.71-1.5s4.41-3.93,2.06-7.08c-3.15-4.23-6.13-7.15-11.24-8.69a48.67,48.67,0,0,1-14.92-7.59c-1-.68-1.92-1.41-3.05-2.3l-.38-.29.43-.22c8.76-4.33,19.15-15.08,28.5-29.51,9.12-14.08,15.48-29.1,17-40.19a51.63,51.63,0,0,0-14.71-43c-10.4-10.48-24-15.49-37.43-13.76-29.4,3.8-49.34,16-51.09,63.3A76.66,76.66,0,0,0,649.24,515h0c3.36,15,12.07,20.19,21.29,25.65l1.13.67a68.68,68.68,0,0,1,11.41,8l.23.26-.34.27a10.17,10.17,0,0,0-3.59,8.3c.26,3.57-2.13,10.92-3.56,15.32-.23.68-.42,1.28-.57,1.77-1.61,5.11-1.64,11.1,3.07,12.6,9.61,3,19.39,2.52,28.85,2,3.61-.19,7.31-.39,11-.39C719.94,589.41,721.71,589.45,723.46,589.57Z"/><ellipse class="cls-13" cx="768.83" cy="291.71" rx="15.41" ry="19.64"/><ellipse class="cls-13" cx="810.52" cy="286.87" rx="11.78" ry="16.61"/><path class="cls-13" d="M798.43,286.87c0-9.32,5.42-16.91,12.09-16.91s12.08,7.59,12.08,16.91-5.42,16.92-12.08,16.92S798.43,296.2,798.43,286.87Zm.61,0c0,9,5.15,16.32,11.48,16.32S822,295.87,822,286.87s-5.15-16.31-11.48-16.31S799,277.88,799,286.87Z"/><ellipse class="cls-23" cx="810.22" cy="290.39" rx="11.48" ry="14.09"/><ellipse class="cls-23" cx="769.13" cy="295.63" rx="15.1" ry="15.71"/><path d="M772.15,272.37v-.6c-2.83,0-5.13-2.85-5.13-6.34h-.61C766.41,269.26,769,272.37,772.15,272.37Z"/><path d="M764.3,273v-.61c-3.5,0-6.35-2.57-6.35-5.74h-.6C757.35,270.13,760.47,273,764.3,273Z"/><path d="M777.59,275.39v-.6a.2.2,0,0,1,.16.07,22.24,22.24,0,0,1-.46-5.81h-.61C776.68,273.26,777,275.39,777.59,275.39Z"/><path class="cls-10" d="M754,272.68c0,2,2.16,3.62,4.83,3.62"/><path class="cls-10" d="M750.4,276.3c0,2.67,2.43,4.83,5.44,4.83"/><path class="cls-10" d="M747.38,282.34c0,2,3,3.63,6.65,3.63"/><path class="cls-39" d="M814.5,324.8c-1.5,14.6-14.39,16.35-25.36,16.35s-21.34-3.21-21.27-14.58,12.42-15.8,23.32-17.77S816,310.2,814.5,324.8Z"/><path d="M805.56,315.67c1.18,3-2.43,5.63-5.33,6.41s-7-.62-7.73-4,3.21-4.2,5.78-4.54S804.38,312.7,805.56,315.67Z"/><path d="M801.15,276c.91,0,.91-6.14.91-8.16h-.61c0,4.48-.28,7.31-.48,7.64a.22.22,0,0,1,.18-.09Z"/><path d="M806,271.16c1.38,0,2.11-3.49,2.11-6.94h-.6c0,3.87-.9,6.34-1.51,6.34Z"/><path d="M811.42,270c1.39,0,2.12-3.5,2.12-6.95h-.61c0,3.87-.89,6.34-1.51,6.34Z"/><path d="M815.05,271.16c2.5,0,4.53-2.3,4.53-5.13H819c0,2.5-1.77,4.53-3.93,4.53Z"/><path d="M818.07,273.58c2.83,0,5.14-1.76,5.14-3.93h-.61c0,1.84-2,3.33-4.53,3.33Z"/><path class="cls-39" d="M793.9,297.45c0,6,3.25,10.87,7.25,10.87"/><path class="cls-39" d="M736.51,232.2c0-11-7.84-19.94-17.52-19.94"/><path class="cls-39" d="M797.53,228c0-8.69,4.86-15.71,10.87-15.71"/><path class="cls-39" d="M808.45,201c3.69-.65,8.54-1.69,10.21-5.46l-.42-.51"/><path class="cls-39" d="M815.8,202.39a13.41,13.41,0,0,0,7.74-3.58c.79-.75,1.53-1.83,1.16-2.85"/><path class="cls-39" d="M807.63,202.15a4.23,4.23,0,0,0,1.2-5"/><path class="cls-39" d="M816.48,203.41a7.28,7.28,0,0,0,9.57-.63"/><path class="cls-39" d="M816.83,206.42a6.69,6.69,0,0,0,8.28,2"/><path class="cls-39" d="M817.3,209.7a11.19,11.19,0,0,0,9.07,4.14"/><path class="cls-39" d="M817.13,212.62a17,17,0,0,0,2.35,5.81A5.76,5.76,0,0,0,824.9,221"/><path class="cls-39" d="M817.23,218.43a10,10,0,0,0,6.53,7"/><path class="cls-39" d="M818.1,225.86a7.72,7.72,0,0,0,2.25,3.94,9.09,9.09,0,0,1,1.54,1.56c1.11,1.74.05,4-1,5.79"/><path class="cls-39" d="M817.77,228.87v.25c0,3.39,2,6.58,2,10,0,1-.39,2.4-1.43,2.44"/><path class="cls-39" d="M815.41,233.81c-.62,1.87,0,4-.58,5.87a4.73,4.73,0,0,1-3,3"/><path class="cls-39" d="M812.11,237.22a4,4,0,0,1-.75,3.24,11.87,11.87,0,0,1-2.48,2.37,7.06,7.06,0,0,1-2.35,1.4"/><path class="cls-39" d="M808.52,239.71a6.23,6.23,0,0,1-4.28,3.8"/><path class="cls-39" d="M817,210.91a7.77,7.77,0,0,0,6.27,4.83"/><path class="cls-39" d="M805.89,203.41a2.4,2.4,0,0,0,.44-3.5"/><path class="cls-39" d="M801,206.38a4.06,4.06,0,0,0,1.85-4.26"/><path class="cls-39" d="M798.23,207.38a1.69,1.69,0,0,0,1.22-1.94"/><path class="cls-39" d="M809.65,200.85a6.66,6.66,0,0,0,2.77-3.39"/><path class="cls-39" d="M814,200.83a5.93,5.93,0,0,0,5.82-3.31"/><path class="cls-39" d="M729.72,205.34a18.52,18.52,0,0,1-4.32-1.83,6.28,6.28,0,0,1-2.84-3.61"/><path class="cls-39" d="M721.37,204.28a8,8,0,0,1-7.33-5.84"/><path class="cls-39" d="M711.94,202.75c-2.78-.88-4.44-3.64-5.85-6.19"/><path class="cls-39" d="M711.17,202.86a9.83,9.83,0,0,1-8-3"/><path class="cls-39" d="M709.81,204.12a6.45,6.45,0,0,0-5.78-.35,19,19,0,0,0-5,3.23"/><path class="cls-39" d="M708.82,206.22a6.21,6.21,0,0,0-4.81,1.37c-2.24,1.88-2.91,5.14-5.08,7.09"/><path class="cls-39" d="M709.11,208.92a3,3,0,0,0-3.27,1.28,13.58,13.58,0,0,0-1.51,3.44,16.6,16.6,0,0,1-3,5.14"/><path class="cls-39" d="M709.88,212.52c-1.61-.46-3.24,1-3.76,2.55s-.3,3.32-.37,5-.56,3.52-2,4.39"/><path class="cls-39" d="M710.87,217.37c-1-.76-2.49.29-2.76,1.51s.2,2.47.32,3.71a7,7,0,0,1-1.76,5.36"/><path class="cls-39" d="M712.28,222.4c-.63-.14-1.11.54-1.38,1.12a9.51,9.51,0,0,0-1.21,3.87c0,1.08.35,2.14.28,3.22s-.8,2.26-1.88,2.23"/><path class="cls-39" d="M713.52,230.49c-.81-.17-1.51.56-1.93,1.27a8.65,8.65,0,0,0-1.15,3.38,8.66,8.66,0,0,1-.66,3.45c-.85,1.45-3,2.32-2.81,4"/><path class="cls-39" d="M714.6,236.58c-2,1.31-2.23,4-2.23,6.37s0,5-1.75,6.59"/><path class="cls-39" d="M714.46,240.07c-1.39.26-2.2,1.84-2.17,3.26a13.56,13.56,0,0,0,1.16,4.08,5.6,5.6,0,0,1,.23,4.15"/><path class="cls-39" d="M720.57,245.38a11.64,11.64,0,0,1,.27,2.28c0,2.45-2.3,5.45-3.34,7.63-.07.15-.17.31-.33.34s-.34-.17-.23-.29"/><path class="cls-39" d="M718.76,244.2c-1.31.17-1.8,1.83-1.72,3.15s.37,2.78-.42,3.84"/><path class="cls-39" d="M723.94,247.15a8.34,8.34,0,0,0-.87,2c-.32,1.33,0,2.74-.16,4.1s-1.43,2.79-2.73,2.36"/><path class="cls-39" d="M726.21,248.23a3.1,3.1,0,0,1-1.64,4.39"/><path class="cls-39" d="M796.07,208.93a2.78,2.78,0,0,0,1.25-2.7"/><path class="cls-39" d="M800,206.61a2.73,2.73,0,0,0,1.39-3.13"/><path class="cls-39" d="M803.92,204.69a4.88,4.88,0,0,0,.87-3.66"/><path class="cls-39" d="M809,201a3.2,3.2,0,0,0,1-4.37"/><path class="cls-39" d="M812.06,200.17a3.27,3.27,0,0,0,2.13-3"/><path class="cls-39" d="M816.59,199.42a2.09,2.09,0,0,1-1.7,2c1.49.54,4.72.77,6-.21-1.65,1.1-2.76,3-4.73,2.69.31,1.16,2.52,3,3.64,3.43a11.55,11.55,0,0,0,3.56.54"/><path class="cls-39" d="M817.33,208a7.3,7.3,0,0,0,4.74,2.65"/><path class="cls-39" d="M816.07,203.29l3.7.44a3.29,3.29,0,0,0,1.79-.12,1.16,1.16,0,0,0,.66-1.47"/><path class="cls-39" d="M817.16,212.18a5.76,5.76,0,0,0,4.05,4.69"/><path class="cls-39" d="M817.08,216.6a8.86,8.86,0,0,0,3.36,5"/><path class="cls-39" d="M817.41,223a19.73,19.73,0,0,0,3.54,3.65"/><path class="cls-39" d="M817.77,227.83a12,12,0,0,1,2.94,5.33"/><path class="cls-39" d="M817.21,230.52c-1.35,2.55,1,5.63.55,8.47"/><path class="cls-39" d="M814,235.88l-.86,4.28"/><path class="cls-39" d="M798.31,207.22l-1.49,1.48"/><path class="cls-39" d="M809.77,238.86a3,3,0,0,1-1.1,3.45"/><path class="cls-39" d="M724.34,204.82c-1.49-1.07-2.92-.29-4.32-.84-2-.78-2.93-3.26-4-5"/><path class="cls-39" d="M709.46,197.42a3.4,3.4,0,0,0,1.45,3.22,10,10,0,0,0,3.39,1.45C713.23,201.34,710.06,198.58,709.46,197.42Z"/><path class="cls-39" d="M724.43,205a6,6,0,0,1-4.36-3.88"/><path class="cls-39" d="M710.81,202.24a3.83,3.83,0,0,1-4.3-2.64"/><path class="cls-39" d="M710.23,203.78c-2,.26-3.67-1.65-5.65-1.61-.64,0-1.27.23-1.91.27a1.7,1.7,0,0,1-1.66-.73"/><path class="cls-39" d="M708.75,205.33a9.93,9.93,0,0,0-2.06-.54,5.28,5.28,0,0,0-5.16,2.66"/><path class="cls-39" d="M709.06,208.24a2.91,2.91,0,0,0-3.09.12,8.4,8.4,0,0,0-2.26,2.34"/><path class="cls-39" d="M709.1,211.59a1.33,1.33,0,0,0-1.58-.15,3.54,3.54,0,0,0-1.18,1.22,21,21,0,0,0-2.39,4.79"/><path class="cls-39" d="M710.13,215.16a3.87,3.87,0,0,0-2.4,2,6.39,6.39,0,0,0-.17,1.64,4.57,4.57,0,0,1-1.72,3.17"/><path class="cls-39" d="M711.42,219.7a3.64,3.64,0,0,0-1.67,3.83,4.32,4.32,0,0,1,.22,1.16.84.84,0,0,1-.67.85"/><path class="cls-39" d="M712.56,226.7a4.62,4.62,0,0,0-.93,3c.08.54.35,1.12.09,1.6-.41.73-1.88.8-1.74,1.63"/><path class="cls-39" d="M713.63,234.31a4.71,4.71,0,0,0-1.78,3,34.13,34.13,0,0,1-.73,3.51"/><path class="cls-39" d="M715.5,239.28a10.05,10.05,0,0,0-2.54,5.24"/><path class="cls-39" d="M717.53,242a2.51,2.51,0,0,0-1.68,1.75,7.3,7.3,0,0,0-.18,2.51"/><path class="cls-39" d="M720,245a3.57,3.57,0,0,0-1.81,4.64"/><path class="cls-39" d="M722.16,246.94a7.32,7.32,0,0,0-1.07,5.2"/><path class="cls-39" d="M725.13,247.68a10.15,10.15,0,0,0-1.31,4"/><path class="cls-39" d="M727.27,248.61a2.68,2.68,0,0,1-.24,3.19"/><path class="cls-39" d="M710.14,213.66a6.5,6.5,0,0,0-2.89,3.79l-.91-.3"/><path class="cls-39" d="M816,232.59a11.53,11.53,0,0,0,.27,5.34"/><path class="cls-39" d="M721,204.43a3,3,0,0,1-2.07-3.89"/><path class="cls-39" d="M733.33,205.94a6,6,0,0,1-5.21-2.89"/><path class="cls-39" d="M735.58,206.05a4.2,4.2,0,0,1-2.8-2.35"/><path class="cls-39" d="M738,206.5a1.86,1.86,0,0,1-1-1.45"/><ellipse class="cls-41" cx="772.76" cy="295.33" rx="4.83" ry="6.95"/><ellipse class="cls-41" cx="765.2" cy="288.08" rx="2.11" ry="3.32"/><ellipse class="cls-41" cx="812.63" cy="291.71" rx="4.23" ry="5.74"/><ellipse class="cls-41" cx="806.59" cy="283.85" rx="1.81" ry="2.72"/><ellipse class="cls-13" cx="759.77" cy="290.8" rx="1.21" ry="2.11"/><ellipse class="cls-13" cx="802.97" cy="288.08" rx="0.91" ry="1.81"/><path class="cls-42" d="M812.6,259.93h0c-1,.28-1.36-.06-1.79-1.23-2.46-6.78-6.31-9.82-13-12.48-1.15-.47-1.3-1.15-.78-2.07h0c.53-.91,1.08-1.11,2.23-.54,6.6,3.25,11.34,7.33,14.14,14.2C813.92,259,813.6,259.65,812.6,259.93Z"/><path class="cls-42" d="M650.73,458.26c.85.36-.21.31,0,0,1.56.67,2.72.4,3.37-1.95,5-18.45,10.13-24.83,27.09-33.53,2.16-1.11,2-2,1.13-3.47-.44-.71.38-.11,0,0-.88-1.43-1.63-2-3.88-.76-17.65,9.46-23.21,17.22-29.06,36.23C648.64,457.21,649.17,457.59,650.73,458.26Z"/><path class="cls-42" d="M792.41,219.22h0c-.59-.3-.72-.49-.27-1.19,4.14-6.36,9.16-9.52,16.28-11.71.78-.24,1.05-.18,1.38.37h0c.34.55.32,1-.43,1.23-6.78,2.2-11.57,4.68-15.6,10.84C793.33,219.44,793,219.52,792.41,219.22Z"/><path class="cls-42" d="M718.82,207.36c10.44.21,16.22,0,20.41,10.13.52,1.27.36,1.2-.42,1.32.06.21.06.2,0,0-.77.11-1,.07-1.36-1.07-3.2-9-9.4-8.72-18.34-8.55-1.13,0-1.52-.09-1.51-1h0C717.61,207.26,717.5,207.34,718.82,207.36Z"/><path class="cls-42" d="M725.17,313.63h0c0-1.74-1-3.31-1.67-4.67-4.32-9.16-2.85-16.62.12-25.74.44-1.35-.07-2.12-1-2.4h0c-.93-.28-1.59-.54-2.17,1.26-3.94,12.16-4.85,19.84,2.08,30.9C723.55,314.62,725.14,315.36,725.17,313.63Z"/><path class="cls-42" d="M784.12,316.73a18.18,18.18,0,0,1,9.19-4.76c1.34-.21,1.79-.56,1.43-1.16h0c-.37-.6-.91-.67-2.27-.4a25.77,25.77,0,0,0-10.54,5.2c-.88.74-1.06,1.18-.25,1.59-.1.09-.08.06,0,0A2.07,2.07,0,0,0,784.12,316.73Z"/><path class="cls-39" d="M627.42,517.29a17,17,0,0,1-5.92-1.76,13.94,13.94,0,0,1-6.25-6.13,10.43,10.43,0,0,1-.35-8.62,18.49,18.49,0,0,1,3.55-4.82"/><path class="cls-39" d="M613.9,511.65c-4.73-1.87-7.07-6.76-10-10.61-3.89-5.18-5-10.74-2.77-16.93a50.58,50.58,0,0,1,5.05-9.35"/><path class="cls-39" d="M648.3,525.51c-1.73-.29-2.87-1.9-3.81-3.38L640.6,516c-2-3.19-4.14-6.77-3.49-10.49"/><path class="cls-39" d="M641.86,525.79a40.87,40.87,0,0,1-8.54-7c-1.67-1.81-3.27-4-3.05-6.5"/><path class="cls-39" d="M633.26,525.09l-5-5.69a15.37,15.37,0,0,1-2.25-3c-1.63-3.25-.66-7.17.61-10.57"/><path class="cls-39" d="M621.81,516.89a11.91,11.91,0,0,1-3.26-4.63c-1.61-3.91-1.49-8.28-1.34-12.51"/><path class="cls-39" d="M616,514.13a18.29,18.29,0,0,1-2-10.32,36.36,36.36,0,0,1,1.44-6.34l2.12-7.31"/><path class="cls-39" d="M610.18,507.08c-3.52-6.3-1.1-14.23-2.59-21.29"/><path class="cls-39" d="M601,498.17c.38-6.63,3.8-12.64,7.14-18.38l3.74-6.45"/><path class="cls-39" d="M600.49,472.65a29,29,0,0,0-1.91,12.94"/><path class="cls-39" d="M595.92,477.4A27.58,27.58,0,0,1,597,455.49a5.92,5.92,0,0,1,2.65-3c1.43-.62,3.07-.16,4.56.31"/><path class="cls-39" d="M593,458.09a14.33,14.33,0,0,1-.85-7.74c.78-4.63,3.78-8.55,6.87-12.08"/><path class="cls-39" d="M592.45,442.79c-1.21-3.23-2.42-6.81-1.19-10,1-2.71,3.59-4.53,6.17-5.86"/><path class="cls-39" d="M590.93,425.17a35.55,35.55,0,0,1,1-12.95,8.6,8.6,0,0,1,1.22-2.89,8.84,8.84,0,0,1,1.91-1.8,52.53,52.53,0,0,1,6.64-4.28"/><path class="cls-39" d="M599.39,421.76a7.7,7.7,0,0,1,.43-6.75,22.69,22.69,0,0,1,4.42-5.41"/><path class="cls-39" d="M610.18,402.06a23.65,23.65,0,0,1,2-7.48,8,8,0,0,1,5.95-4.52"/><path class="cls-39" d="M591.46,403.29a10.23,10.23,0,0,1,5.44-12.43"/><path class="cls-39" d="M588,391.41a5.41,5.41,0,0,1-2.61-5.47,10.47,10.47,0,0,1,2.94-5.64,20,20,0,0,1,8.29-5.43"/><path class="cls-39" d="M592.19,388.48a9.84,9.84,0,0,1,6.24-11.34"/><path class="cls-39" d="M595.36,401.39a18.35,18.35,0,0,1,6-10.89"/><path class="cls-39" d="M653.48,527.77a5.82,5.82,0,0,0-4.14,2.59,17.35,17.35,0,0,0-2.1,4.56"/><path class="cls-39" d="M657.12,533a8.12,8.12,0,0,0,.76,10.87"/><path class="cls-39" d="M642.77,526.72c-.51,1.31-2.44,1.27-3.43,2.27a3.82,3.82,0,0,0-.82,1.69,22.33,22.33,0,0,0-.83,6"/><path class="cls-39" d="M630.86,525.83a10.07,10.07,0,0,0-6.94,8.31"/><path class="cls-39" d="M623.06,522.47,618.31,526a5.45,5.45,0,0,0-1.48,1.43,2.75,2.75,0,0,0-.39,1.7"/><path class="cls-39" d="M610.65,513.83a7.2,7.2,0,0,1-4.51,4.06,17.91,17.91,0,0,1-6.19.75"/><path class="cls-39" d="M609.05,509.68a9.38,9.38,0,0,1-14.43.34"/><path class="cls-39" d="M605.58,506.51a3,3,0,0,1-2.89,1,7.53,7.53,0,0,1-2.88-1.38c-2.81-1.94-5.45-4.4-6.6-7.62"/><path class="cls-39" d="M590.68,499.6a7.08,7.08,0,0,1-3.54,1.42,6.69,6.69,0,0,1-5.6-3.1,19.83,19.83,0,0,1-2.5-6.17"/><path class="cls-39" d="M597.74,495.41A8.86,8.86,0,0,1,594.07,484"/><path class="cls-39" d="M590.13,486.84a.71.71,0,0,1,.23,1,9.43,9.43,0,0,1-2.1-11.17"/><path class="cls-39" d="M593.68,479.46a11.33,11.33,0,0,1-3-4.59,27,27,0,0,1-2.29-7.11,10.09,10.09,0,0,1,1.5-7.17"/><path class="cls-39" d="M587.84,456.44a8.76,8.76,0,0,1-6-10.37"/><path class="cls-39" d="M587.59,442.24c-3.33.21-6.72.42-9.93-.48s-6.23-3.14-7.15-6.34"/><path class="cls-39" d="M586,427.76c-2.13,1-4.73.49-6.85-.59s-4-2.63-6.08-3.71-4.7-1.66-6.85-.66"/><path class="cls-39" d="M585.68,473c-1.62-1.8-3.5-3.71-5.92-3.9-1.56-.12-3.1.51-4.67.46a10.89,10.89,0,0,1-4.58-1.63"/><path class="cls-39" d="M588.81,450.62a6.17,6.17,0,0,0-1.07-4.56,18.18,18.18,0,0,0-3.29-3.5"/><path class="cls-39" d="M587,434.8a3.61,3.61,0,0,0-1.92-3.29,12.27,12.27,0,0,0-3.63-.73c-1.22-.22-2.54-.89-2.78-2.11"/><path class="cls-39" d="M586.54,418.69a5,5,0,0,0-.89-3.53c-1.32-1.4-3.58-.84-5.5-.85-2.81,0-5.39-1.48-7.83-2.9"/><path class="cls-39" d="M586.85,409.47a8.4,8.4,0,0,0-5.46-5.18,24.61,24.61,0,0,0-7.71-1"/><path class="cls-39" d="M589.09,401.4a18.16,18.16,0,0,0-4.45-5.56c-1.91-1.42-4.61-2-6.72-.95"/><path class="cls-39" d="M576,392c-2.15.53-4.23-1.15-6.44-1.23a4.66,4.66,0,0,0-4.3,2.65"/><path class="cls-39" d="M581.87,389.8a17.76,17.76,0,0,0-.17-3,7.74,7.74,0,0,0-3.69-5.35,6.59,6.59,0,0,0-6.41-.08"/><path class="cls-39" d="M588.13,373.37a36.36,36.36,0,0,1,8.19-8.51"/><path class="cls-39" d="M599.28,371.81a12.25,12.25,0,0,1,2.36-7.05,17.51,17.51,0,0,1,3.62-3.52"/><path class="cls-39" d="M583.57,379.05a16.11,16.11,0,0,0,5.49-11.84c0-1.6-.38-3.46-1.82-4.15"/><path class="cls-39" d="M578.46,356.1c3,3.15,3.35,7.88,3.55,12.22a20.23,20.23,0,0,1-.24,5.44,6.83,6.83,0,0,1-2.92,4.43c-.31-2.93-3.83-5.37-6.73-5.95s-5.88.09-8.73.85"/><path class="cls-39" d="M577.19,367.65l.44,1.18-4.13-4.26a6.24,6.24,0,0,0-2-1.54,5.76,5.76,0,0,0-2.26-.3,28.07,28.07,0,0,0-8.47,1.52"/><path class="cls-39" d="M571.48,360.14c.76.44,1.79-.25,2-1.11a3.39,3.39,0,0,0-.69-2.48,11.26,11.26,0,0,0-3.66-3.54,18.89,18.89,0,0,0-7.23-2.19c-2.61-.36-5.24-.54-7.87-.73a12.33,12.33,0,0,0-4.33.21c-2.51.73-4.26,2.95-5.83,5"/><path class="cls-39" d="M573.69,353.78c.77-1,0-2.48-.69-3.54l-3-4.47c-1.26-1.84-3-3.92-5.23-3.52"/><path class="cls-39" d="M561.54,361.73c-1.68-.76-2.72-2.51-4.34-3.39a9.28,9.28,0,0,0-5.23-.61,87,87,0,0,0-9.5,1.4"/><path class="cls-39" d="M578.89,353.18a7,7,0,0,0-.58-7.16"/><path class="cls-39" d="M540.31,355.21,533,356.74a2.47,2.47,0,0,0-1.3.56,2.27,2.27,0,0,0-.43,1.64,16.74,16.74,0,0,0,.47,3.52"/><path class="cls-39" d="M542.81,348.14c-1.58-.56-3.31-1.13-4.89-.59a7.39,7.39,0,0,0-1.7.93l-6.3,4.21"/><path class="cls-39" d="M557.11,345.37c-1-1.22-2.1-2.39-3.22-3.53a3.91,3.91,0,0,0-1.39-1,4.18,4.18,0,0,0-2.11,0l-8.46,1.3"/><path class="cls-39" d="M562.92,347.65a47,47,0,0,0-2.41-5.26,9.86,9.86,0,0,0-2.2-3,3.72,3.72,0,0,0-3.48-.82"/><path class="cls-39" d="M526.17,353.93l-4.46.65a2.23,2.23,0,0,0-2.12,1.52l-2.92,5.33"/><path class="cls-39" d="M522.75,362c-1.4.89-3,1.44-4.37,2.36a9.74,9.74,0,0,0-4.21,7.75"/><path class="cls-39" d="M508.47,366c-1.53,1.21-3.74,1.73-4.59,3.48a6.36,6.36,0,0,0-.46,2.29l-.5,7.08"/><path class="cls-39" d="M509.24,360.37c-3.68,2.23-7.74,5-8.38,9.26"/><path class="cls-39" d="M532.54,349.61a2.29,2.29,0,0,0-1.45-1.89,5.83,5.83,0,0,0-2.46-.37,29.58,29.58,0,0,0-9.54,1.7"/><path class="cls-39" d="M536.07,346.12a6.12,6.12,0,0,0-8.32-1.32"/><path class="cls-39" d="M517.67,356.59a31.83,31.83,0,0,1-2.55-3.1,6.51,6.51,0,0,0-7.58-1.23"/><path class="cls-39" d="M510.79,358.19a12.58,12.58,0,0,0-5.55-1.26,5.11,5.11,0,0,0-4.54,3"/><path class="cls-39" d="M499.48,368.58a8.73,8.73,0,0,0-10.43-.83"/><path class="cls-39" d="M494.68,372.54l1.51,5.6a4.74,4.74,0,0,1,.23,2.2,1.62,1.62,0,0,1-1.56,1.34"/><path class="cls-39" d="M492.05,376.4a47.5,47.5,0,0,0-6.82-1.1,2.22,2.22,0,0,0-1.09.09,2.32,2.32,0,0,0-.89.87l-1.8,2.57"/><path class="cls-39" d="M487.41,380.48a25.11,25.11,0,0,1-.5,4.82,5.64,5.64,0,0,1-1.12,2.67,2.27,2.27,0,0,1-2.62.7"/><path class="cls-39" d="M484.68,383.65a9.58,9.58,0,0,0-9,7.76"/><path class="cls-39" d="M480.67,393.31l.89,3.28a1.57,1.57,0,0,1,.07.8,1.47,1.47,0,0,1-.41.58l-3.11,3.25"/><path class="cls-39" d="M476,395.34a10.68,10.68,0,0,0-5.87,10.51"/><path class="cls-39" d="M475.37,404.56c-.2,1.61.74,3.11,1.13,4.69s-.29,3.74-1.91,3.77"/><path class="cls-39" d="M475.35,400c-2.29,2.15-2.5,5.65-2.55,8.78"/><path class="cls-39" d="M468.25,404.21c-1.2.88-2.95.82-4,1.86-1.21,1.19-1,3.29-2.14,4.55"/><path class="cls-39" d="M470,414.68a10.27,10.27,0,0,1,1.07,9.95"/><path class="cls-39" d="M468.09,419.18a12.62,12.62,0,0,0-3.57,2.39,4.29,4.29,0,0,0-1.21,4"/><path class="cls-39" d="M463.57,429.45a23.55,23.55,0,0,1,2.58,12.11"/><path class="cls-39" d="M461.3,435.45a21.34,21.34,0,0,1-1.49,8.21c-.35.88-.89,1.85-1.82,2"/><path class="cls-39" d="M591.65,359.44a9.53,9.53,0,0,0,4.81-5.92,22.85,22.85,0,0,0,.72-7.78c0-1.38-.23-2.95-1.33-3.79"/><path class="cls-39" d="M599.42,375.28c2.5-.41,4.23-2.64,5.7-4.7l5.06-7.06"/><path class="cls-42" d="M783,545.71h0c.4,1.31,1.14,2.13,3.18,1.64,16.92-4.13,29.49-12.05,34.35-29.34.58-2.09-.06-2.53-1.35-3h0c-1.29-.47-2.51-.31-3.09,1.6-4.87,15.85-15.64,22.27-31.3,26.18C782.86,543.26,782.57,544.39,783,545.71Z"/><path class="cls-43" d="M725.11,452.27c-.53.18-.38.06,0,0-1.06,1.88-.27,2.68,2.38,3.87,9.11,4.08,10.19,9.35,11.37,18.69.34,2.71,1.37,3.77,3.36,3.24.38.32.24.27,0,0,2-.53,1.53-1.41,1.13-4.43C742,463.27,739.78,456.9,729.88,452,727,450.56,726.17,450.39,725.11,452.27Z"/><path class="cls-44" d="M412.22,597.87C490.13,647.12,502.79,725,498.2,818c6,73.18-2.25,141.2,10.33,214.8,2.45,14.33-9.94,17.32-21.3,18.8-3.46.45-11.61.35-15.21-.46-11.81-2.67-19.39-6-19.6-19.49-.43-27.41,1.33-56.28-.33-84-2.37,3.77-4.79,8.28-7.43,11.87-14.56,19.87-30,38.59-49.55,53.47-20.31,15.49-42.24,24.73-65.8,33.76.61.68,1.19,1.53,1.75,2.3a218.25,218.25,0,0,1-67.37,23.83c-5.65-5.07-10-10.76-16.61-14.85-20.67-12.82-39.72-21.94-64.54-25.63-32.56-4.84-65.09-4.92-98.1,2.25C-23.14,1000.82-84.75,948.12-62.65,826.8c30.06-165,146.26-216.86,295-253.85,13.46-3.35,2.83-6,15.73-9.15-30.74-33.32-30.18-62.38-30.22-108.82,0-32.78,14.11-59.92,27.78-89.45-19.49-20.34-20.81-60.87-11.33-82,12.32-27.5,24.87-37.28,37.53-61,2.07-3.87,2.57-22.88,10-19.23,16.68,8.14,19.3,25.23,29.65,40.11,13.36,19.2,22.23,40.7,24.7,64.5,11.27-.83,22.62-2.8,33.89-2.56,19.59.42,38.29,3.49,57.28,7.93-.17-3.7-1.79-6.73-1.21-10.58,3.74-24.68,15.08-42.1,32.05-59.87,3.69-3.86,4.16-21.39,11.68-16.91,10.34,6.15,7.26,20.49,11,30.92,6,16.82,14.21,36.85,19.47,53,2.41,7.4,2.37,10.56,1.06,16.28-2.44,10.68-9.34,15.07-16.11,22,24.27,36.34,42.2,68.71,38.76,114.71C517.63,549.46,499.06,584.38,412.22,597.87Z"/><path d="M389,414a22,22,0,0,1-3.95-20.49l1.47.48a20.41,20.41,0,0,0,3.67,19Z"/><path d="M378,399.3a17.64,17.64,0,0,1-8.6-19.89l1.49.42a16.06,16.06,0,0,0,7.83,18.1Z"/><path d="M359.71,392a18.78,18.78,0,0,1-14.39-15.6l1.54-.2A17.2,17.2,0,0,0,360,390.46Z"/><path d="M337.13,396.32a8.55,8.55,0,0,1-5.6-2.28,18.65,18.65,0,0,1-4.2-6.44,14,14,0,0,1-1.62-6.94l1.55.15a12.64,12.64,0,0,0,1.49,6.16,17.32,17.32,0,0,0,3.81,5.92,6.36,6.36,0,0,0,6.08,1.64l.5,1.46A6.1,6.1,0,0,1,337.13,396.32Z"/><path d="M322,408.56a10.83,10.83,0,0,1-6.29-2,20.75,20.75,0,0,1-2.93-2.75c-1.4-1.5-2.75-3.13-2.69-5.18l1.55,0c0,1.46,1.1,2.81,2.27,4.07a19.18,19.18,0,0,0,2.71,2.55,9.32,9.32,0,0,0,8.6,1.1l.56,1.44A10.34,10.34,0,0,1,322,408.56Z"/><path d="M313.5,417.58a13.11,13.11,0,0,1-3.94-.59,13.6,13.6,0,0,1-8.58-8.31l1.46-.52a11.8,11.8,0,0,0,18,5.69l.9,1.25A13.5,13.5,0,0,1,313.5,417.58Z"/><path d="M463.48,408.08l-1.43-.59a12,12,0,0,0-.82-10.68l1.32-.81A13.62,13.62,0,0,1,463.48,408.08Z"/><path d="M473,401l-1.16-1a29.36,29.36,0,0,0,5.05-7.49,12.34,12.34,0,0,0,.67-8.56l1.47-.48a13.82,13.82,0,0,1-.72,9.64A30.41,30.41,0,0,1,473,401Z"/><path d="M483.56,398.34l-.5-1.47a11.77,11.77,0,0,0,7.49-13l1.52-.31A13.22,13.22,0,0,1,483.56,398.34Z"/><path d="M495.25,403.15h-.16l0-1.55a10,10,0,0,0,9.72-8.23l1.53.23A11.56,11.56,0,0,1,495.25,403.15Z"/><path d="M508.08,410.72a11.59,11.59,0,0,1-5.57-1.39l.74-1.36a10.45,10.45,0,0,0,11-.8l.93,1.23A11.88,11.88,0,0,1,508.08,410.72Z"/><path d="M514.44,419.93a7.8,7.8,0,0,1-4.68-1.5l.47-.61a7.28,7.28,0,0,0,8.74-.23l.5.6A7.87,7.87,0,0,1,514.44,419.93Z"/><path class="cls-45" d="M488.41,515.18c13.45,24.51-14.76,53.31-40.17,57.05s-60.61-3.42-64-31.36,18.53-43.63,42.38-50.57S475,490.67,488.41,515.18Z"/><ellipse class="cls-13" cx="481.9" cy="437.61" rx="31.74" ry="40.26"/><ellipse class="cls-13" cx="355.32" cy="437.22" rx="40.65" ry="47.61"/><circle cx="357.26" cy="448.45" r="37.16"/><circle cx="481.9" cy="446.13" r="31.74"/><ellipse class="cls-13" cx="377.38" cy="453.09" rx="9.29" ry="15.48"/><ellipse class="cls-13" cx="490.42" cy="448.45" rx="6.97" ry="11.61"/><circle class="cls-46" cx="350.29" cy="433.74" r="5.42"/><circle class="cls-13" cx="473.77" cy="429.48" r="4.26"/><ellipse class="cls-13" cx="341.77" cy="455.42" rx="3.87" ry="6.19"/><ellipse class="cls-13" cx="469.51" cy="446.13" rx="3.1" ry="4.65"/><circle cx="420.74" cy="518.13" r="8.52"/><circle cx="465.64" cy="515.03" r="6.97"/><path class="cls-45" d="M274.94,316.78a23.65,23.65,0,0,1-4-9.56c-2.46-12.27,2.06-24.77,6.74-36.38,1.9-4.71,3.88-9.48,7-13.52s7.46-7.34,12.49-8.08l9.17,28c2.26,6.88,4.52,14.37,2.17,21.22"/><path class="cls-45" d="M452,313A35.58,35.58,0,0,1,467.47,267a57,57,0,0,0,4.18,20.33c3.52,8.63,9.27,16.88,9,26.19-.18,6.28-3.13,12.11-6.22,17.57"/><path class="cls-45" d="M327.65,1047.84c-6.94-8.52-17.16-13.94-27-19.17a173.14,173.14,0,0,1-15.36-8.81c-32.37-21.65-44.91-61.47-55-100.39C220.81,883,210.1,841.73,179,817.75c-29.39-22.65-74.28-25.79-120.09-8.4l-.55-1.45c46.31-17.58,91.76-14.35,121.58,8.63,31.53,24.3,42.3,65.87,51.81,102.55,10,38.64,22.44,78.15,54.35,99.5a173.09,173.09,0,0,0,15.22,8.72c10,5.31,20.39,10.79,27.53,19.57Z"/><path class="cls-45" d="M452.7,950c-7.64-9.17-12.24-21.53-14.07-37.79-.8-7.09-1-14.34-1.27-21.34-.21-6.26-.43-12.73-1-19.05-1.46-15.14-5.27-30.16-8.95-44.69l1.5-.38c3.69,14.58,7.51,29.66,9,44.92.62,6.37.84,12.87,1.05,19.15.23,7,.47,14.18,1.26,21.22,1.8,16,6.28,28,13.72,37Z"/><path class="cls-47" d="M-4.41,777.22c5.1-25.81,25.68-46.57,49.87-56.81,3.69-1.56,5.24-4.51,4.77-8.47-.19-1.57-.44-4-.83-5.69-1-4.35-4.7-5.65-9.47-3.48C8.75,717-14.51,739.06-22.5,772.53c-1.22,5.11,1.62,5.72,4.9,7.38A22.23,22.23,0,0,0-12,781.17C-8.77,781.58-5.19,781.16-4.41,777.22Z"/><path class="cls-47" d="M288.52,388.09c7.34-18.19,17.65-28.84,36.13-35.71,2.83-1.05,3.34-2.69,3.94-5.31a8.77,8.77,0,0,0,.26-3.8c-.82-2.58-1.49-4.61-5.12-3.35-23.77,8.2-38.26,23.08-47.12,46.52-1.36,3.58.46,4.12,2.94,5.41a6.86,6.86,0,0,0,3.52.21C285.78,391.79,287.4,390.87,288.52,388.09Z"/><path class="cls-47" d="M116.15,844.78c16.61-6.1,34.11,1.2,46.27,15.21,1.85,2.14,4,2.15,6.23.29.88-.74,2.24-1.84,3.17-2.8,2.34-2.41,2.18-5.65-.31-8.35-16.28-17.66-35.22-26.45-57.12-19.55-3.34,1-3,3.4-3.15,6.47a22.09,22.09,0,0,0,.64,4.58C112.46,843.22,113.61,845.72,116.15,844.78Z"/><path class="cls-47" d="M287.3,243h0c-.91-4.13-6.88-3.39-12-1.42-10.95,4.23-15,15.28-18.72,25.07-1.72,4.55-.17,6.4,2.46,8h0c2.63,1.63,6.25,2.28,8-1.28,3.78-7.65,4.22-18.58,13.32-22.85C284.62,248.58,288.2,247.14,287.3,243Z"/><path class="cls-47" d="M465.23,256.06h0c-.21-2.73-4.1-2.72-7.53-1.85-7.39,1.88-11,8.69-14.24,14.72-1.5,2.79-.68,4.11.86,5.36h0c1.53,1.26,3.79,1.95,5.24-.2,3.11-4.64,4.37-11.66,10.57-13.7C463,259.44,465.44,258.79,465.23,256.06Z"/><path class="cls-44" d="M395.56,520.51h0c-1.6-.42-2.2-1.2-.61-3.36,5.21-7,10.73-13,20.58-17.51,3-1.36,5-1.18,6.12-.18h0c1.09,1,1.31,2.51-1.76,3.71-10,3.9-13.73,8.64-18.9,15.48A5,5,0,0,1,395.56,520.51Z"/><path class="cls-47" d="M465,728.28h0c-2.16-.1-3.87.11-4-4.18-1-33.48.58-44.73-29.6-59.51-3.87-1.89-.74-4,.71-5.46h0c1.45-1.43,4.49-2,8-.08,27.73,15.25,27.85,35.52,28.55,65.31C468.82,728.17,467.18,728.37,465,728.28Z"/></svg>