<svg id="Layer_1" data-name="Layer 1" xmlns="http://www.w3.org/2000/svg" xmlns:xlink="http://www.w3.org/1999/xlink" viewBox="0 0 1600 900"><defs><style>.cls-1{fill:url(#linear-gradient);}.cls-2{fill:#c1272d;}.cls-3{fill:#993226;}.cls-4{fill:#911d22;}.cls-5{fill:#300500;}.cls-13,.cls-6{fill:#fff;}.cls-7{fill:#611417;}.cls-8{fill:#cd5257;}.cls-9{font-size:88px;font-family:MeriendaOne-Regular, Merienda One;}.cls-10{font-size:55px;}.cls-11{fill:#d98f9d;}.cls-12{fill:#e8bcc4;}.cls-13{stroke:#fff;}.cls-13,.cls-14,.cls-18{stroke-miterlimit:10;}.cls-14,.cls-21{fill:none;}.cls-14,.cls-18{stroke:#000;}.cls-15{fill:#f0d2d8;}.cls-16{fill:#001300;}.cls-17{fill:#ffece9;}.cls-19{fill:#ff95bd;}.cls-20{fill:#ffbfd7;}.cls-22{fill:#ccc;}.cls-23{fill:#bfb1af;}.cls-24{fill:#807675;}</style><linearGradient id="linear-gradient" x1="-13.69" y1="597.11" x2="1584.54" y2="597.11" gradientTransform="matrix(0, -0.57, 1.34, 0, 0.11, 895.83)" gradientUnits="userSpaceOnUse"><stop offset="0" stop-color="#009245"/><stop offset="0.53" stop-color="#f15a24" stop-opacity="0.8"/><stop offset="0.77" stop-color="#fcee21" stop-opacity="0.7"/><stop offset="0.98" stop-color="#3fa9f5"/></linearGradient></defs><rect class="cls-1" x="1.5" y="-0.5" width="1598.89" height="904.08"/><path d="M1599.89,0V903.07H2V0H1599.89m1-1H1V904.07H1600.89V-1Z"/><rect class="cls-2" x="-8.03" y="278.43" width="550.04" height="407.24" rx="12"/><rect class="cls-3" x="473.25" y="277.37" width="7.4" height="408.3"/><rect class="cls-4" x="404.5" y="277.37" width="7.4" height="408.3"/><rect class="cls-4" x="329.4" y="277.37" width="7.4" height="408.3"/><rect class="cls-4" x="258.53" y="277.37" width="7.4" height="408.3"/><rect class="cls-4" x="185.54" y="277.37" width="7.4" height="408.3"/><rect class="cls-4" x="113.61" y="277.37" width="7.4" height="408.3"/><rect class="cls-4" x="48.03" y="277.37" width="7.4" height="408.3"/><rect class="cls-5" x="231.02" y="467.77" width="142.07" height="216.84" rx="12"/><rect class="cls-6" x="100.92" y="316.51" width="122.34" height="117.41" rx="6.98"/><rect class="cls-5" x="110.77" y="326.36" width="102.63" height="96.06" rx="9.71"/><rect class="cls-6" x="155.22" y="325.54" width="11.49" height="107.56"/><rect class="cls-6" x="155.52" y="321.85" width="11.49" height="107.56" transform="translate(536.89 214.36) rotate(90)"/><rect class="cls-6" x="370.5" y="316.84" width="122.34" height="117.41" rx="6.98"/><rect class="cls-5" x="380.36" y="326.69" width="102.63" height="96.06" rx="9.71"/><rect class="cls-6" x="424.8" y="325.87" width="11.49" height="107.56"/><rect class="cls-6" x="425.1" y="322.18" width="11.49" height="107.56" transform="translate(806.81 -54.89) rotate(90)"/><rect class="cls-6" x="373.82" y="469.33" width="141.74" height="216.34" rx="12"/><rect class="cls-4" x="385.01" y="477.72" width="119.36" height="197.69" rx="12"/><rect class="cls-6" x="440.96" y="460.01" width="9.33" height="235.92" rx="4.41" transform="translate(348.69 -145.38) rotate(30)"/><rect class="cls-6" x="441.61" y="458.43" width="9.33" height="235.92" rx="4.41" transform="translate(-228.41 300.36) rotate(-30)"/><rect class="cls-6" x="89.77" y="468.48" width="141.74" height="216.34" rx="12"/><rect class="cls-4" x="100.96" y="476.87" width="119.36" height="197.69" rx="12"/><rect class="cls-6" x="156.91" y="459.15" width="9.33" height="235.92" rx="4.41" transform="translate(310.2 -3.47) rotate(30)"/><rect class="cls-6" x="157.56" y="457.58" width="9.33" height="235.92" rx="4.41" transform="translate(-266.04 158.22) rotate(-30)"/><rect class="cls-7" x="-13.85" y="274" width="573.31" height="20.1" rx="9.5"/><rect class="cls-8" x="8.89" y="319.68" width="4.23" height="80.39" rx="2"/><rect class="cls-8" x="27.93" y="442.38" width="4.23" height="80.39" rx="2"/><rect class="cls-8" x="72.36" y="364.11" width="4.23" height="80.39" rx="2"/><rect class="cls-8" x="238.43" y="378.92" width="4.23" height="80.39" rx="2"/><rect class="cls-8" x="279.68" y="312.28" width="4.23" height="80.39" rx="2"/><rect class="cls-8" x="346.32" y="348.24" width="4.23" height="80.39" rx="2"/><rect class="cls-8" x="521.91" y="308.05" width="4.23" height="80.39" rx="2"/><rect class="cls-8" x="13.13" y="591.53" width="4.23" height="80.39" rx="2"/><rect class="cls-8" x="503.93" y="408.54" width="4.23" height="50.77" rx="2"/><rect class="cls-8" x="301.89" y="403.25" width="4.23" height="50.77" rx="2"/><rect class="cls-8" x="529.31" y="575.66" width="4.23" height="50.77" rx="2"/><rect class="cls-8" x="76.59" y="591.53" width="4.23" height="50.77" rx="2"/><text class="cls-9" transform="translate(592.44 125.42)">YAYY!! You saved us!<tspan class="cls-10"><tspan x="166.67" y="126">Thank you so much!</tspan><tspan x="95.99" y="192">We are forever grateful! </tspan></tspan></text><path class="cls-11" d="M911.35,868.28c-3.71,1.27-9.52,1.84-13.39,1.88-6.6.05-11.37-2.83-12.47-10.59-1-7-2.53-17.39-5.1-23.72-2.84-7,.37-10.78,5.78-12.52a60.06,60.06,0,0,1,11.69-2.22c5.8-.45,10,2.33,10.7,9.73.65,6.71,5.14,16.29,8.15,22.59C920,860.38,917.66,866.11,911.35,868.28Z"/><path class="cls-11" d="M635.76,819.89a22.67,22.67,0,0,1-4.89-.34,56.19,56.19,0,0,1-14.37-4.67c-6.29-.34-12.56-.45-18.29-3.31-9.75-4.88-15.15-11.76-19.4-21.62,2.16-.62,4.3-1.19,6.45-1.77a32.44,32.44,0,0,0,15.54,17.38c1.84,1,3.9,1.32,5.81,2-5.15-7.67-9.45-14.32-5-23.59,3.19-6.62,11-8.71,17.88-9.38a18.56,18.56,0,0,1,10.21,1.89c7,4,9.51,11.2,10.15,18.24.48,5.35-1,8.51-3.39,12.3-2.14,3.42-4.85,3.52-7.88,5.5,1.45,0,1.82.55,3.46.53,5.39-.08,10.06.5,14.78-3.49,4.13-3.5,5.89-9.85,7.34-15.1,2.21.43,4.31,1.07,6.53,1.59-2.53,7.27-3.91,13.58-10,19C646.77,818.45,641.14,819.54,635.76,819.89Zm-15.25-38.78a1.56,1.56,0,0,0-.91,0c-4.88,1.28-9.83.76-12.41,6.47s1,12,5.42,16.33a35.45,35.45,0,0,0,5.44,4.14c2.17-.4,4.88-.64,6.82-1.45,2.63-1.11,4.7-1.26,6.4-3.74s2.24-4.41,2-7.94c-.33-4.65-1.85-9.76-6.46-12.57C625.17,781.35,622.6,781.13,620.51,781.11Z"/><path class="cls-12" d="M717.05,515.52c-.36.21-.71.42-1,.64a45.74,45.74,0,0,1-6.84,2.94,39.07,39.07,0,0,1,8.19,5.82A37.52,37.52,0,0,1,717.05,515.52Z"/><path class="cls-12" d="M1026.91,577a12,12,0,0,1-3-2.4c-.17-.23-.37-.44-.56-.65a23,23,0,0,1-2,6A27.76,27.76,0,0,1,1026.91,577Z"/><path class="cls-12" d="M1031.59,580.42a23.06,23.06,0,0,0-4.68-3.41,27.76,27.76,0,0,0-5.56,2.91,23,23,0,0,0,2-6c-4.74-5.35-14.69-6.79-18.22-2.1-15.68,20.86-48.74,63.39-70,78.67-6.79-10.07-16-19.47-28.17-28.28,46.61-9.37,56.42-27.3,59.68-72.74,1.73-24.12-10.47-41.92-20.21-62.58,3.51-3.87,7.42-5.64,9.41-11.16,1.07-3,1-4.69.53-9-1-9.35-.72-20.76,3.18-30.09,2.42-5.79,9.64-12.79,5.48-18.82-3-4.39-8,4.24-11.71,6-17.06,8.23-30.48,19.06-38.15,37-1.19,2.79.09,4-.18,6.63-10.26-2.84-20.59-5.22-31.24-5.89-6.12-.38-12,.68-18.08,1C861.49,445.88,853,433,839.2,423c-10.71-7.77-21.05-16.19-34.33-15.61-6,.25,1.53,9.12,2.56,11.49,6.3,14.48,6.62,21.43,2.7,37.94-3,12.71-1.65,29.6,8,40.78-6.49,15.28-14,31.61-14.38,47.86-.6,23,2.84,39.52,15.85,58.25-6,1.66-2.68,3.26-9.83,5.12-7.92,2.06-15.69,4.18-23.25,6.43C767.64,584,759,539.37,734.12,515.13c-5.42-5.28-11.63-2.87-17.07.39a37.52,37.52,0,0,0,.3,9.4,39.07,39.07,0,0,0-8.19-5.82,33.12,33.12,0,0,0-5,2.2c-5.5,3.39-12.43,6.48-5.9,15,25.84,33.65,36.4,62.21,54.53,90.53-51.16,20.42-89,52.28-101,118.67-11.87,65.6,20.4,92.38,78.32,112,17.72-2.51,35.35-3.58,52.73-1,13.25,2,23.5,7.38,34.88,13.61,3.63,2,5.82,5.35,9,7.88a156.25,156.25,0,0,0,36.14-12.95,11.49,11.49,0,0,0-.92-1.2c8.44-3.76,16.75-7.2,24.63-11.68a32,32,0,0,1,8.35-6.42c.58-.43,1.18-.83,1.77-1.23.63-.77,1.29-1.54,2-2.29,2.16-2.36,4.59-4.44,6.72-6.84,4.49-5.07,8.51-10.5,13.55-15l.09-.08c.82-1.14,1.73-2.16,2.78-3.52,1.56-2,2.91-3.71,4.45-5.53l1.26-2.79c4.87-10.54,10.37-20.78,15.19-31.34q1.9-4.87,3.53-9.86a47.75,47.75,0,0,1,2.07-5.25c.13-1.07.3-2.14.5-3.2q.36-3,.81-6a12.2,12.2,0,0,1,.6-1.95,44.37,44.37,0,0,1,1.78-5.13c.21-1.58.5-3.24.89-5,.9-21.87.4-41.47-4.12-59.19,31.25-24.77,51.1-59.16,83.06-84.9C1039.17,590.74,1036.75,586.54,1031.59,580.42Z"/><path d="M894.44,521.77a15.11,15.11,0,0,1-2.25-11.36l.78.28a14,14,0,0,0,2.1,10.54Z"/><path d="M888.5,513.53c-3.76-3-5.12-6.25-4.72-11.06l.79.24c-.36,4.38.87,7.31,4.3,10.07C888.74,513,888.62,513.28,888.5,513.53Z"/><path d="M878.78,509.41c-4.25-1.69-6.42-4.26-7.69-8.63l.81-.12c1.16,4,3.14,6.37,7,7.92C878.88,508.86,878.83,509.14,878.78,509.41Z"/><path d="M867,511.8a4.74,4.74,0,0,1-3-1.27,11.4,11.4,0,0,1-2.21-3.4,10,10,0,0,1-.9-3.77l.81.05a8.59,8.59,0,0,0,.84,3.36,9.87,9.87,0,0,0,2,3.15,3.6,3.6,0,0,0,3.18.91c.11.26.18.53.28.8A3.47,3.47,0,0,1,867,511.8Z"/><path d="M859.11,518.69a6.25,6.25,0,0,1-3.29-1,9,9,0,0,1-1.57-1.44,5,5,0,0,1-1.45-2.77h.82a3.86,3.86,0,0,0,1.18,2.13,7.3,7.3,0,0,0,1.48,1.37,5.45,5.45,0,0,0,4.51.54l.3.8A6.39,6.39,0,0,1,859.11,518.69Z"/><path d="M854.71,523.73a5,5,0,0,1-2.09-.3,8.08,8.08,0,0,1-4.57-4.3c.25-.11.51-.22.77-.31,1,1.77,2,3.16,4.06,3.76s3.67,0,5.45-.93c.17.21.32.45.48.68A8.09,8.09,0,0,1,854.71,523.73Z"/><path d="M934.09,519.66l-.78-.35a8.63,8.63,0,0,0-.54-6l.7-.43A9.87,9.87,0,0,1,934.09,519.66Z"/><path d="M939.07,515.9c-.21-.21-.43-.4-.63-.59a17.86,17.86,0,0,0,2.59-4.1,8.47,8.47,0,0,0,.37-4.73c.26-.07.52-.16.79-.22a9.61,9.61,0,0,1-.38,5.29A18.68,18.68,0,0,1,939.07,515.9Z"/><path d="M944.71,514.59c-.1-.27-.19-.55-.28-.82,2.9-1.62,4-3.7,3.91-7l.81-.13C949.26,510.41,948,512.76,944.71,514.59Z"/><path d="M951.06,517.37s0,.11-.1,0a1.48,1.48,0,0,1,0-.78,5.78,5.78,0,0,0,5.15-4.32l.84.15A6.61,6.61,0,0,1,951.06,517.37Z"/><path d="M958.2,521.53a7.82,7.82,0,0,1-3.1-.71c.14-.25.25-.49.39-.73a6.67,6.67,0,0,0,5.92-.39c.17.22.36.43.51.66A7.54,7.54,0,0,1,958.2,521.53Z"/><path d="M961.71,526.44a5.25,5.25,0,0,1-2.56-.77l.25-.34a4.49,4.49,0,0,0,4.7-.1c.09.11.19.21.28.33A5.06,5.06,0,0,1,961.71,526.44Z"/><path class="cls-11" d="M947,578.43c5.95,13.84-7.09,26.92-20.85,29.37s-30.33-1.55-32.8-16.51,8.39-23.49,21.66-26.7S941,564.59,947,578.43Z"/><path class="cls-6" d="M961,535.9c.14,10.32-5.5,20.83-16.74,20.8s-16.47-10.86-16.63-21,4.88-21.11,16.12-20.86S960.84,525.58,961,535.9Z"/><path class="cls-6" d="M897.71,534.65c.14,12.73-7.05,24.88-20.74,24.83s-20.92-12.31-21-25,6.69-25.38,20.51-25.4S897.57,521.91,897.71,534.65Z"/><path d="M858.89,540.59c-.06-11.06,7.46-19.91,18.78-19.85s19.17,8.92,19.26,20-7.73,19.45-18.94,19.4S859,551.65,858.89,540.59Z"/><path d="M960.92,540.44c0,9.63-7.07,16.55-16.66,16.52s-16.42-7.14-16.49-16.67,6.77-16.44,16.3-16.33S960.93,530.82,960.92,540.44Z"/><path class="cls-6" d="M873.74,540.94c0-2.74.79-6.91,4.72-6.88s4.85,4.25,4.89,7-.82,6.9-4.75,6.86S873.77,543.68,873.74,540.94Z"/><path class="cls-6" d="M940.24,540.32c0-2.61.86-6.39,4.09-6.4s4,3.75,4,6.37-.86,6.42-4.09,6.43S940.22,542.94,940.24,540.32Z"/><path class="cls-13" d="M869.39,529.4a2.69,2.69,0,0,1,2.72-2.89,2.8,2.8,0,0,1,2.81,2.9,2.7,2.7,0,0,1-2.73,2.89A2.79,2.79,0,0,1,869.39,529.4Z"/><path class="cls-6" d="M935.69,529.54a2.08,2.08,0,0,1,2.21-2.18,2.29,2.29,0,0,1,2.29,2.3,2.11,2.11,0,0,1-2.25,2.17A2.25,2.25,0,0,1,935.69,529.54Z"/><path class="cls-6" d="M868.76,540.29c0,1.32-.39,3.24-2,3.25s-2-1.92-2-3.24.39-3.25,2-3.25S868.75,539,868.76,540.29Z"/><path class="cls-6" d="M936.28,538.56c0,1-.41,2.36-1.63,2.34s-1.63-1.37-1.63-2.41.39-2.39,1.61-2.37S936.28,537.51,936.28,538.56Z"/><path d="M916,579a4.25,4.25,0,0,1-4.4,4.42,4.3,4.3,0,0,1-4.36-4.51,4.24,4.24,0,0,1,4.39-4.42A4.31,4.31,0,0,1,916,579Z"/><path d="M939.12,577.46a3.62,3.62,0,1,1-3.61-3.63A3.53,3.53,0,0,1,939.12,577.46Z"/><path class="cls-11" d="M833.49,470.82c-1-1.61-2-2.89-2.33-4.84-1-7,.25-13.78.08-20.91-.07-2.89-.67-6.24-.72-9.23s.59-5.27,2.85-7.3a91.89,91.89,0,0,1,13.7,17.15c2.72,4.51,3.77,7.87,3.68,13"/><path class="cls-11" d="M929.57,466.76c-.85-6.19-.69-10.83,3.12-16.2s9.49-8.67,15.75-10.7c-1.94,3.77-3.81,8.3-3.84,12.45-.05,5.55,1.74,10.27,1,15.62-.53,3.61-2.58,6.24-4.29,9.33"/><path class="cls-11" d="M817.17,870.51a249.09,249.09,0,0,1-25.77-1.58A528.28,528.28,0,0,1,730,857.74a155.12,155.12,0,0,1,52.37-.91C795.63,858.81,805.87,863.84,817.17,870.51Z"/><path class="cls-14" d="M730,857.75l-.29.09"/><path class="cls-11" d="M861.05,864.41c-4.29-4.45-9.17-7.23-14.51-10.33-2.79-1.61-5.62-2.51-8.19-4.78-17.09-15.14-22.79-32.57-29.81-54.23C802,774.8,798.7,755.14,780,740.72c-17.68-13.62-42.5-11.32-63.15-4.78-.43-.19-.57-.42-.29-.78,20.9-6.66,46-8.84,63.92,4.88,18.92,14.51,22.23,34.43,28.87,54.79,7,21.45,12.55,38.76,29.49,53.78,2.55,2.25,5.34,3.13,8.11,4.74,5.43,3.14,10.4,6,14.76,10.53A6.42,6.42,0,0,0,861.05,864.41Z"/><path class="cls-11" d="M919.91,779.64c.19,3.7.19,7.89.67,11.32a46.72,46.72,0,0,0,6.4,18.72l.41-.92a45.83,45.83,0,0,1-6-17.9c-.47-3.4-.47-7.57-.65-11.25-.16-3.31-.15-6.85-.55-10.24a208.16,208.16,0,0,0-4.69-24.06l-.81.2a204.19,204.19,0,0,1,4.67,24C919.77,772.83,919.75,776.34,919.91,779.64Z"/><path class="cls-15" d="M682.49,718.55c5.13-14.41,13.45-23.21,26.78-30.55,2-1.13,2.6-2.33,2.56-4.61a7.73,7.73,0,0,0-.47-3c-1.09-2.23-2.6-3.09-5.1-1.73C690,687.5,679.25,698.39,673,716c-1,2.69.74,2.88,2.51,4.09a6.35,6.35,0,0,0,2.89.66C680.42,720.76,681.71,720.75,682.49,718.55Z"/><path class="cls-15" d="M841.35,508.19c4.35-9.21,9.77-15.4,18.71-20.35,1.36-.76,1.66-1.62,2-3a3.65,3.65,0,0,0,.09-2c-.6-1.37-.94-2.59-2.72-1.65-11.69,6.17-19,14.48-24.31,26.51-.82,1.84.18,2.08,1.49,2.87a2.54,2.54,0,0,0,1.84,0A3.69,3.69,0,0,0,841.35,508.19Z"/><path class="cls-15" d="M747.43,755.06c10.38-1.75,17.28,1.2,24.9,8.22,1.16,1.08,2.07,1,3.36.12a7,7,0,0,0,1.67-1.49c1-1.47,1.18-3.1-.23-4.42-9.24-8.68-17.86-12.64-30.56-10.49-1.94.33-1.54,1.92-1.78,3.43a7.73,7.73,0,0,0,.34,2.35C745.5,754.15,745.84,755.33,747.43,755.06Z"/><path class="cls-15" d="M825.26,426.43h0a3.6,3.6,0,0,0-5.87,1.79c-1.84,5.47-.12,11.45.31,16.75.19,2.46.95,3.34,2.69,4.25.57.29.1.37,0,0,1.74.9,3.74.77,3.87-1.54.27-5-2.14-10.23-.46-15.29C826.58,430.05,827.38,428.29,825.26,426.43Z"/><path class="cls-15" d="M951.68,432.81h0c.77-2-1.57-2.59-3.81-2.32-4.83.59-10.71,4.19-14.16,7.51-1.6,1.54-2.31,2.18-1.54,3.79.25.52-.37.27,0,0,.77,1.6,2,1.41,3.42.14,3.06-2.73,7-6.33,11.25-7.25C948.79,434.26,950.91,434.83,951.68,432.81Z"/><path class="cls-12" d="M898.27,580c-.19-.06-.07.29,0,0-1.1-.39-1.07-.84-.23-1.93A32.4,32.4,0,0,1,908.72,569c1.25-.63,2.34-1,3.29-.12.25.23.22-.33,0,0,1,.88.16,1.51-1,2a27.62,27.62,0,0,0-9.85,8.08A2.42,2.42,0,0,1,898.27,580Z"/><path class="cls-16" d="M903,586.79c7.24,1.48,13.29,2.94,20.53,4.82,7.78,2,12.68-4.92,18.14-8.61-1.77,8-8.3,23.5-19.19,21.63C912.75,603,909.52,591.8,903,586.79Z"/><rect class="cls-12" x="904.44" y="730.42" width="20" height="84.88" rx="10" transform="translate(-80.3 106.52) rotate(-6.39)"/><path class="cls-15" d="M889.12,828.93h0c-.08-2.59-.07-3.35,1.41-3.51,11.6-1.23,15-1.39,19.77-26.59.62-3.23,1.23-1.77,2,.33,0-.56,0-.5,0,0a11.43,11.43,0,0,1,.39,7c-5,19.94-12,24.52-21.91,25.85C889.54,832.17,889.19,831.52,889.12,828.93Z"/><path class="cls-11" d="M752.35,627.89c3.27,7.72,6.59,15.67,6.83,24.06.08,2.77-.18,5.55-.2,8.33a47.49,47.49,0,0,0,3.33,17.82"/><path class="cls-11" d="M786.9,615.25c.09,2.84,2.73,4.81,5,6.51a50.82,50.82,0,0,1,10.69,10.68c4.33,6,7.12,13,11.79,18.68"/><path class="cls-11" d="M934.05,650.36l-5.9,1.37c-5.2,1.2-11,2.78-13.76,7.33"/><path class="cls-11" d="M947.3,681a16.07,16.07,0,0,1,.79,13.07c-.83,2.14-2.13,4.14-2.5,6.41-.55,3.4.73,7.76-2.11,9.73"/><path class="cls-11" d="M690.66,524l-.12.12Z"/><path class="cls-11" d="M731.31,508.21Z"/><path class="cls-11" d="M690.54,524.15Z"/><path class="cls-11" d="M712.91,513.26a26,26,0,0,0,.44,4.66A8.84,8.84,0,0,0,712.91,513.26Z"/><path class="cls-11" d="M736.35,515.92a19.47,19.47,0,0,0-5-7.71c-5.52-3.19-4.21-6.58-10-5.29a37.4,37.4,0,0,0-8.17,3.41c-.14,2.28-.3,4.64-.27,6.93a8.84,8.84,0,0,1,.44,4.66c-2.76-2.76-6.13-4.6-9.43-6.54a39.72,39.72,0,0,1-7.38,3.32c-5.08,1.36-8.33,6.44-5.88,9.33s2.6,10.24,8.66,9.57c7.11-.78,20-9,29.8-12.6C732.21,519.84,737,517.72,736.35,515.92Z"/><path class="cls-11" d="M1041.12,583.35a106.11,106.11,0,0,0-9.95-10.77,26.25,26.25,0,0,0-6.82,3.34,22.86,22.86,0,0,0,2.27-7.88c-2.25-2.28-4.47-4.65-6.55-7.15-2.48-3-4.62-1.52-6.5.51a72.86,72.86,0,0,0-5.69,6.59c-1.58,2.3-1.39,4.33,1.16,6.19,7.22,5.26,12.66,13.4,18.72,19.69,2.14,2.23,4.33,1.64,6-.24a23.28,23.28,0,0,1,5.28-4.61C1041.25,587.82,1043,585.86,1041.12,583.35Z"/><path class="cls-17" d="M1443.53,858l-1,.19c0-.61-.12-1.2-.15-1.81,0-.42.05-.85.06-1.27a1.3,1.3,0,0,1,.14.26A7.58,7.58,0,0,0,1443.53,858Z"/><path class="cls-17" d="M1520.77,714.81a53.33,53.33,0,0,1-10.06-13c-1.43-2.6-2.16-5.43-3.34-8.2s-2.5-5.58-3.59-8.46c-1.18-3.09-1.84-6.24-2.86-9.45a136.85,136.85,0,0,0-9.77-23c-.7-1.33-2.63-6.86-5.32-6.38-13.7-43.93-44.78-68.06-87.9-80.62-19.19,22.06-40,43.26-63.63,60.38-4,2.94-5.65,1.72-8.07-1.49-4.42-5.84-7-12.78-10-19.35-1.64-3.6-1.85-6.26,1.24-9.22,12.88-12.35,26.47-24.38,38.8-37.41-3.36-.23-6.8-.47-10.18-.6-5.72-.21-11.47-.32-17.14-.28,7.84-13.66,12.8-27.93,13.42-43.82,1-25.38-8.62-49.72-25.88-68.24,10.86-.3,23.48-3.44,32.48-8.55,10.86-6.18,16-21.29,26.94-24.61,9.86-3,35.61-38.62,27.36-36.35-17.4,4.81-63,4.63-85.63,11.3-18.07,5.33-30.67,24.41-39.14,37.39-3-.09-7.77-1-11.44-1.28a75.19,75.19,0,0,0-46,12.3c-15.36-8.13-23.38-29.1-49.4-22.19-32.56,8.66-14.61,27.69-51.85,10.76-14.72-6.7-5.5,10.56-3.41,16.57,3.2,9.21,29.51,24.59,43.51,22.94a150,150,0,0,0,40.52-10.32,87.61,87.61,0,0,0-18.53,52.35c-.75,32.42,14.83,64.24,43.68,80.36a129.73,129.73,0,0,0-20.54,22.45c2.55,1.12,6.07,1.95,8.42,3.08,4.75,2.27,3.39,3.18,3.57,8,.33,8.55,5.39,16.94,5.8,25.66.24,4.92.06,6.23-5.85,5.38a209.29,209.29,0,0,1-27.39-6.24,191,191,0,0,0-4.28,25.3c-2.82,33.68,3.64,67,23.47,94.7a24.8,24.8,0,0,1,5.41,4,120.58,120.58,0,0,1,10.41,12.18,26.55,26.55,0,0,1,2.11,3.55,35.53,35.53,0,0,1,6.93,4.73,21.68,21.68,0,0,1,2.61,3c4,2.16,8,4.15,12.12,6.14,3.42,1.66,6.82,3.53,10.16,5.25-1.74,18.34-5.06,35.27-14.6,51.43-2.62,4.43-.74,7.51,5.64,9,7.26,1.66,22.05,3,29.37,3.16,6.44.11,8.93-1.12,9.38-6.07a237.73,237.73,0,0,1,8.53-46.54,20.58,20.58,0,0,0,2.18.39s0,0,0,0l.26,0c.6.09,1.2.27,1.81.31,10.49.73,21,.67,31.51.94a30.7,30.7,0,0,1,5.56.82c19.69-.47,39.27-2.07,58.6-6,.09-.08.36-.06.32-.21,8.58,16.64,18.84,35.11,18.49,54.36-.1,5.82,7,6.71,13,5.35,5.36-1.22,19-3.4,23.91-6.73,5.37-3.66,5.39-5.54,2.4-10.12-10.76-16.48-20.24-34.29-23-54.08.69-.3,1.47-.61,2.21-.89.36-.35.7-.75,1.05-1.09a7.86,7.86,0,0,1,2.66-1.7,41,41,0,0,1,5.42-2.73,2.36,2.36,0,0,1,.79-.78s0-.06,0-.07c.82-.58,1.71-1.1,2.49-1.72.53-.41,1-.93,1.46-1.34a151.71,151.71,0,0,1,13.88-9.67c.63-.41,1.33-.86,1.86-1.25s1.36-1.1,1.66-1.38c1-.91,1.6-1.58,2.42-2.46.33-.37.57-.68.88-1.05l.06-.08c1.51-2.32,3-4.65,4.39-7.06.58-1,1.1-2.07,1.65-3.11-.22-.12.57-1.22.6-1.33,1.68-5.88,3-11.79,4.85-17.56.29-.9.75-1.68,1.11-2.52a33.77,33.77,0,0,1,1.61-3.38s0,0,0-.06a13.66,13.66,0,0,1,1.1-2,8.26,8.26,0,0,1,1.58-3.41,191.14,191.14,0,0,0,5.22-34.27,181.13,181.13,0,0,0-3.37-46c.73,1.3,2.3,3.35,3,4.49a115.13,115.13,0,0,1,13.08,35.25,58.09,58.09,0,0,1,.72,15.29c-.27,3.76-1.61,7.29-1.78,11.09-.35,7.36,1.3,14,3.94,20.8a47.18,47.18,0,0,1-2.17-8.86c-.07-.45-.29-.83-.4-1.27a12.72,12.72,0,0,1-.16-6.51q.18,3.9.56,7.78c4.35,9,10,14.46,19,18.57-8.87-8.69-13.3-17.94-14.54-30.29a39.85,39.85,0,0,0,8.47,16.9,69.76,69.76,0,0,0,6.68,6.42A55.82,55.82,0,0,1,1512,721.41a129.15,129.15,0,0,0,18.29,16.84c-5.68-5.9-9.21-11.77-10.78-19.86q3.5,4,7,8A33.73,33.73,0,0,1,1525,720a196.6,196.6,0,0,0,15.73,14.2c2.25,1.79,4.65,2.93,7.6,2.26C1538.78,729.65,1529.27,722.94,1520.77,714.81Zm-78.34,140.28a1.3,1.3,0,0,1,.14.26,7.58,7.58,0,0,0,1,2.63l-1,.19c0-.61-.12-1.2-.15-1.81C1442.35,855.94,1442.42,855.51,1442.43,855.09Z"/><path class="cls-17" d="M1217,650.85a196.63,196.63,0,0,1-27.38-6.3,131.41,131.41,0,0,1,15.43-35.82c2.56,1.12,6.08,1.95,8.43,3.08,4.75,2.27,3.39,3.19,3.57,8,.33,8.53,5.39,17,5.8,25.66C1223.09,650.38,1222.91,651.71,1217,650.85Z"/><path class="cls-17" d="M1397.92,565.65c-19.18,22.06-40.05,43.23-63.62,60.39-4,2.94-5.65,1.69-8.08-1.51-4.41-5.83-7-12.8-10-19.35-1.64-3.6-1.84-6.23,1.24-9.2,12.85-12.38,26.48-24.39,38.8-37.43A249.42,249.42,0,0,1,1397.92,565.65Z"/><ellipse class="cls-6" cx="1218.65" cy="498.41" rx="26.6" ry="19.54" transform="translate(678.31 1699.06) rotate(-88.01)"/><ellipse class="cls-6" cx="1286.8" cy="491" rx="28.22" ry="21.17" transform="translate(751.5 1760.01) rotate(-88.01)"/><ellipse class="cls-18" cx="1287.14" cy="496.71" rx="22.53" ry="20.63" transform="translate(746.12 1765.87) rotate(-88.01)"/><ellipse class="cls-18" cx="1217.91" cy="504.36" rx="20.63" ry="19" transform="translate(671.64 1704.05) rotate(-88.01)"/><ellipse class="cls-6" cx="1220.61" cy="506.82" rx="7.06" ry="5.7" transform="translate(671.79 1709.13) rotate(-88.01)"/><circle class="cls-6" cx="1220.92" cy="490.9" r="2.71"/><circle class="cls-6" cx="1212.24" cy="496.33" r="2.17"/><ellipse class="cls-6" cx="1287.12" cy="500.52" rx="8.41" ry="6.51" transform="translate(742.29 1769.51) rotate(-88.01)"/><circle class="cls-6" cx="1284.43" cy="483.85" r="2.71"/><circle class="cls-6" cx="1275.47" cy="491.72" r="1.9"/><path class="cls-19" d="M1198,437.49c-6.1-2.9-10.22-7.07-17.23-6.93-9.92.2-18.43,7.26-28.1,10-5,1.41-11,1.78-16.34,2,1.9,3,5,4,8.49,4.08s7.29-.7,10.62-.59c5.81.2,11.46,3.36,16.9,3.67,9.57.54,16.9-5.15,26.3-5,2.26,0,11.32,3.07,10.16-1.91C1208.17,439.89,1200.41,438.62,1198,437.49Z"/><path class="cls-19" d="M1322.25,412.2c7.72-4.37,16.89-6.53,25.41-9.27s16.92-5.66,24-11.23c1.88-1.49,3.47-3.17,5.62-3.73s5,.36,4.75,2.84c-.26,2.93-3.44,3.31-5.86,4.69-5.25,3-7.55,8.4-10.62,13.6-3.75,6.37-8.57,11.62-15.56,14.39-3.78,1.49-7.78,1.54-11.67,2.24a74.1,74.1,0,0,0-20.25,7c-5.32,2.74-16.54,5.8-12.36-4.16C1308.73,421.28,1315.3,416.13,1322.25,412.2Z"/><path class="cls-14" d="M1305.77,477.15a6.44,6.44,0,0,0,8.42,1.77"/><path class="cls-14" d="M1302.64,471.46a5.1,5.1,0,0,0,7.35-.72"/><path class="cls-14" d="M1298,465.82a5.74,5.74,0,0,0,6.76-5.79"/><path class="cls-14" d="M1291.12,462.57a7.85,7.85,0,0,0,5.34-7.68"/><path class="cls-14" d="M1282,462.86a7.23,7.23,0,0,0,4.73-8.81"/><path class="cls-14" d="M1274.82,467.31a10.21,10.21,0,0,0,1.26-8.88"/><path class="cls-14" d="M1269.86,473.86a10.19,10.19,0,0,0-2.6-7.3"/><path class="cls-14" d="M1234.67,481.83a16.41,16.41,0,0,1-.63-10.31"/><path class="cls-14" d="M1228.45,474.72a12.8,12.8,0,0,1-3.15-10"/><path class="cls-14" d="M1219.48,471.16a9,9,0,0,1-1.85-8.28"/><path class="cls-14" d="M1214.23,472.43a5.53,5.53,0,0,1-5.23-2.37,12,12,0,0,1-2-5.67"/><path class="cls-14" d="M1208.7,475.32a14.4,14.4,0,0,1-5.38-.82,8.4,8.4,0,0,1-4.89-5.67"/><path class="cls-14" d="M1203.71,480.74a8.23,8.23,0,0,1-10.47-.95"/><path class="cls-14" d="M1201.33,486.41c-3.18,1.06-6.85,2.09-9.73.37"/><path class="cls-14" d="M1307.37,483.69a5.62,5.62,0,0,0,8,.62"/><path d="M1269.71,547.61c-.11,2.5-1.11,5.17-3.94,5.13s-4.63-3-4.43-5.65,2-5.22,4.92-5.05S1269.83,545.11,1269.71,547.61Z"/><path d="M1458.94,598.25a2.63,2.63,0,0,1-2.11-1.71c-22-21.16-50.25-33.6-80.68-36.62l-28-2.78c-3-.3-5.72.11-8.71-.12-5.56-.42-9.86,5.49-10.07,11.06s2.36,10.8,4.43,16a95.55,95.55,0,0,1,5,16.64c.75,3.73,1.28,7.55,2.74,11.06,4.5,10.86,17.23,17.69,18.79,29.35.47,3.54-.19,7.15.06,10.72.39,5.55,3,10.68,4.84,15.91a111.32,111.32,0,0,1,5.13,23c1,7.3,2.58,15.92,9.31,18.9,5.13,2.28,11.67.31,16.26,3.51a41.28,41.28,0,0,1,4,3.76,14.71,14.71,0,0,0,14.31,3.05c6.62-11.22.73-26.29,6-38.19,3.36-7.56,10.64-12.52,15.67-19.07a37.76,37.76,0,0,0,7.73-22c.12-5.5-.93-11.13.59-16.41,1.56-5.47,5.63-9.78,9.19-14.21,2.36-2.94,6.07-6,7.17-9.54C1460.41,600.46,1459,598.27,1458.94,598.25Z"/><path class="cls-14" d="M1329.93,575.46v.33"/><path class="cls-19" d="M1280.16,545.44c-.07,3.67-2.33,6.06-1.94,9.61.3,2.86,2.12,4.86,1.81,7.78-.45,4.13-3.51,6.91-7.3,8.81-13.35,6.69-29.19,6.1-41.38-2.75-2.77-2-4.64-4.28-5-7.64-.19-1.91.61-3.36,1-5.33.85-4.17-1-7.31-.69-11.69,1.19-19.8,15-8.33,28-8.61C1266.22,535.38,1280.52,527.46,1280.16,545.44Z"/><path d="M1241.59,545.44c-.09,1.7.62,4.47-1.82,4.56s-3.85-2.82-3.77-4.69,1.93-4.52,4.14-4.26S1241.69,543.74,1241.59,545.44Z"/><path d="M1265.22,545.19c.07,1.77-.33,5.13-2.8,4.38s-2.8-2-3.08-5.6,4-3.48,5.53-3.1S1265.15,543.41,1265.22,545.19Z"/><path class="cls-6" d="M1329.9,517.64h0c1.12.5,1.83.82,2.83-1.18,7.94-16,5-24.43-3-39.24-1-1.86-1.83-1.61-2.9-1.09h0c-1.06.52-2,1.26-1,3,7.6,14.07,10.61,20.22,3,35.43C1327.85,516.5,1328.79,517.13,1329.9,517.64Z"/><path class="cls-6" d="M1174.14,422c-18.53,2.1-9.75,9.2-22.2,14.51-2.4,1-3.08.37-3.82-.87h0c-.74-1.25-1.09-2.39,1.18-3.32,11.74-4.86,2.4-12.31,25.66-15.71,4.49-.65,4,.65,3.54,2.71h0C1178,421.42,1177.72,421.63,1174.14,422Z"/><path class="cls-6" d="M1305.45,409.43c10.2-13.42,21.86-12.6,37.6-11.24,3.07.27,3.82-1,4-3h0c.18-2,.07-3.52-3.24-3.83-17-1.62-30.21-2.59-41.77,11.43-2.25,2.74-2.17,3.76-1.14,6.11h0C1301.94,411.21,1303.47,412.05,1305.45,409.43Z"/><path class="cls-6" d="M1476.68,682.22h0c-1.43,0-2.66.54-2.75-2.53-.67-23.42,3.94-29.93-11.37-50.31-2-2.67,1.13-2.88,2.72-3h0c1.58-.14,4.18,1.78,6,3.88,13.58,16,7.58,29.27,8,49C1479.26,681.83,1478.1,682.2,1476.68,682.22Z"/><path class="cls-20" d="M1272.78,541.4c-2.8-5.21-12-1.92-17.48-1.77-.82,0-1.66-.28-1.66-1.35h0c0-1.07.48-1.27,1.5-1.3,6.88-.24,15.6-3.3,19.89,2.85.63.92.34,1.27-.41,2,.07.12.07.1,0,0C1273.87,542.48,1273.2,542.17,1272.78,541.4Z"/><path class="cls-21" d="M1244.26,558.75c0,5.7,4.13,10.31,9.23,10.31"/><path class="cls-16" d="M1271.49,550.47c-4.87,5.75-10,6.62-16.53,8.13-7,1.61-12.89-2.76-19.53-3.29,6.17,10.54,10.32,16.86,22.89,16.06C1269.56,570.66,1269.14,558,1271.49,550.47Z"/><path class="cls-17" d="M1443.51,513c-16.91,18-31.12,35.57-45.71,52.44-18.55,21.47-37.71,41.81-63.79,60.59-4.47,3.21-6,1.46-8.15-1.56-3.82-5.49-7.08-13.26-9.89-19.4-1.54-3.38-2.51-5.81,1.2-9.26,15.49-14.44,28-25.77,38.95-37.38,16.4-17.41,29.17-35.44,42.8-65.47,2.17-4.79,3.76-4.15,8.9-2.77,9.34,2.52,27.74,6.79,35.11,13.4C1447,507.2,1447.19,509,1443.51,513Z"/><path class="cls-17" d="M1217.12,650.76a158.07,158.07,0,0,1-27.68-6.42c-59.7-19.94-70.72-69.09-116.49-85.51-4.38-1.57-4.15-4-2.65-8,2.67-7.28,9-18.24,15.62-22.88,3.74-2.61,4.83-4.71,9.29-.51,50.77,47.81,46.59,58.15,109.68,81.14,2.74,1,5.61,2,8.62,3.08,6.07,2.12,3.52,3.22,3.22,7.78-.53,8.11,6.54,18.25,6.16,25.81C1222.67,649.47,1224.27,651.78,1217.12,650.76Z"/><path d="M1193.05,732.41c2.2.67,3.55,1,5.49-.21a65.08,65.08,0,0,0,5.32-4.38,25.63,25.63,0,0,1,16.19-5.65,2.85,2.85,0,0,1,1.36.26c.75.43,1,1.39,1.22,2.21,1.72,5.62,8.38,8.61,14.19,7.77s10.77-4.65,14.78-8.95,7.35-9.19,11.62-13.22c3.91-3.67,8.52-6.55,12.37-10.27s7-8.68,6.86-14a16.73,16.73,0,0,0-4.67-10.5,38.56,38.56,0,0,0-9.32-7,49.88,49.88,0,0,0-6.22-3.18c-3-1.22-6.31-2.11-8.37-4.59-3.12-3.75-2-9.27-1.69-14.14a36,36,0,0,0-.75-9.93,11.18,11.18,0,0,0-2.62-5.66c-2.94-2.95-7.77-2.47-11.73-3.76a31.91,31.91,0,0,1-6-3,65.17,65.17,0,0,0-13.74-5.88,9.29,9.29,0,0,0-5-.46,16.36,16.36,0,0,0-3.07,1.48,13.47,13.47,0,0,1-9.33,1.13c-7.46,12.93-11.34,28-13,42.88s-1,29.83.47,44.68C1188.31,716.87,1189.68,724.06,1193.05,732.41Z"/><path class="cls-22" d="M1098.31,528.75l-10.38,9a10.8,10.8,0,0,0-2,2.1,15.53,15.53,0,0,0-1.24,2.91,31.57,31.57,0,0,1-4.41,7.21c-2.06,2.77-4,7.37-6,10.15-3.13-1.73-8.26-1.79-10.34-4.73-1.6-2.25-.23-5.73,1.55-8.24a29.35,29.35,0,0,1,4.32-4.86c1.12-1,2.4-2.05,2.75-3.49,1.66,1.09,1.07-1.28,3.06-.92.15-.94,2.77,1.23,2.92.29a11.37,11.37,0,0,1-.59-6.61,11.86,11.86,0,0,1,2.43-4.34c1.57-2,3.21-4.17,5.42-5.4a2.24,2.24,0,0,1,2.6-.05C1091.9,523.53,1094.89,526.77,1098.31,528.75Z"/><path class="cls-22" d="M1425.85,508.77,1404.4,497c-1.81-1-3.81-2.24-4.19-4.22a43.79,43.79,0,0,0,4.37-11.67c5.07-1,10.38,1.42,14.69,4.53s8.1,7,12.77,9.51c3.53,1.91,7.64,3.14,10.17,6.24a10.73,10.73,0,0,1,1.87,9.48c-1.15,4.22-3.47,7.31-7.07,5.9C1433.61,515.45,1429.41,510.72,1425.85,508.77Z"/><path class="cls-22" d="M1242.11,855.81c-.34,1.43-1.39,2.67-2.14,4s-1.19,2.91-.29,4.24,3.09,2.07,5.06,2.48,4,.71,6.06,1c4.8.68,10.07,1.3,14.1-.63a4.12,4.12,0,0,1,1.17-.45c1.74-.28,2.77,1.51,3.66,2.76,2.35,3.26,7.66,4.29,12.33,5a3.2,3.2,0,0,0,1.69-.06,1.82,1.82,0,0,0,.84-1,16.15,16.15,0,0,0,1.71-7.2,2,2,0,0,0-.31-1.26,3.76,3.76,0,0,0-2.26-1L1254,857.23C1250.32,856.43,1245.84,856.32,1242.11,855.81Z"/><path class="cls-17" d="M1443.39,857.7c-.33.08-.66.14-1,.19-.05-.6-.1-1.2-.16-1.8,0-.42,0-.85.07-1.28l.15.26A5.59,5.59,0,0,0,1443.39,857.7Z"/><path class="cls-22" d="M1462.72,860.4c-.09-.24-.18-.48-.28-.72a17.13,17.13,0,0,1-3.9-4.47c-.28-.31-.55-.64-.81-1-2.36-.82-5-.1-7.47.59-9.12,2.59-18.61,4.75-28.32,4.3-4.53-.21-6.68-1.63-9,1.62-1.84,2.61-1.42,8.32-2.57,11.84,0,.27.07.55.09.82,1.59.45,2.89,1.5,4.48,2,3.45,1,7-.88,10.47-1.91,7.09-2.13,14.94-.49,22.43-1.09a35.6,35.6,0,0,0,15.25-4.77c.65-.39,1.34-.87,1.48-1.53a2.44,2.44,0,0,0-.23-1.34Z"/><path class="cls-23" d="M1129,675.85v.55"/><path class="cls-23" d="M1343.72,618.17c-6.36,9-3.92,21.29-6.57,32"/><path class="cls-23" d="M1333.18,579.71c-1.92,3.29-4,6.72-7.21,8.71-2,1.26-4.42,1.85-6.62,2.82-5.64,2.47-9.85,7.28-13.87,11.94"/><path class="cls-23" d="M1205.35,608.77c3.25,1.37,7,1.09,10.47.69s7.15-.89,10.53.12"/><path class="cls-24" d="M1190.34,644.36c1.39,1.51,2,3.54,2.86,5.42a23.49,23.49,0,0,0,3.65,5.69,11.36,11.36,0,0,1,1.79,2.37,15.27,15.27,0,0,1,.68,2.11,11.13,11.13,0,0,0,4.06,5.72"/></svg>