<svg id="Layer_1" data-name="Layer 1" xmlns="http://www.w3.org/2000/svg" xmlns:xlink="http://www.w3.org/1999/xlink" width="4535.43" height="2551.18" viewBox="0 0 4535.43 2551.18"><defs><style>.cls-1{fill:url(#linear-gradient);}.cls-2{fill:#aac952;}.cls-3{fill:#95bb27;}.cls-4{fill:#3b7302;}.cls-5{fill:#154001;}.cls-6{fill:#002511;}.cls-7{fill:#006837;}.cls-8{fill:#33865f;}.cls-9{fill:#7d5d3e;}.cls-10{fill:#a67c52;}.cls-11{fill:#5c9e7f;}.cls-12{fill:#fcee21;opacity:0.82;}.cls-13{fill:#66a487;}.cls-14{fill:none;}.cls-15{fill:#45775f;}.cls-16{fill:#c1272d;}.cls-17{fill:#993226;}.cls-18{fill:#911d22;}.cls-19{fill:#300500;}.cls-20,.cls-26,.cls-27,.cls-28{fill:#fff;}.cls-21{fill:#611417;}.cls-22{fill:#cd5257;}.cls-23{fill:#8c6239;}.cls-24{fill:#a08871;}.cls-25{fill:#754c24;}.cls-26{opacity:0.58;}.cls-27{opacity:0.78;}.cls-28{opacity:0.66;}</style><linearGradient id="linear-gradient" x1="-13" y1="741" x2="4535" y2="741" gradientUnits="userSpaceOnUse"><stop offset="0" stop-color="#fff"/><stop offset="0" stop-color="#29abe2"/><stop offset="1" stop-color="aqua"/></linearGradient></defs><path class="cls-1" d="M4502.23,2.91C4492,2.05,4481.84,1,4471.66,0H-13V1482H4535V5.08C4524,4.59,4513.08,3.82,4502.23,2.91Z"/><path class="cls-2" d="M4116.11,1057.28l-164.17-208.7-234.62-138.8H3437.68l-210.9-234.71-277.66-73.42-288.78,69.89L2281.56,625.11l-90,34.46S1847.4,501.08,1798,461.7s-314.5-308.13-314.5-308.13L1279.73,0s-159.22,84.66-273.94,223.47L750.63,510.92,347.13,690.09,0,1022.19v1191H1194.81L4485,2183.37l-214.61-897.7Z"/><path class="cls-3" d="M88.3,2558.3a485.44,485.44,0,0,1,172.35,5.37c16.35-1.68,32.71-3.51,49.19-4.27,29.69-1.36,60.21,2.16,90.19,6.53a634.76,634.76,0,0,1,120.75-7.57q126.44-26.85,252.86,12.77,7.64,2.63,15.33,5c102-.7,203.65-19.47,305.81-22.26,69.16-1.89,138.85,2.28,208,4.55q104.68,3.43,209.34,7.69c251.68,9.8,502.88,21.29,754.65,8.19,124.53-6.48,249-15,373.78-15.83s249.55,6.19,374.16,11.76c123.7,5.53,247.54,10.25,371.38,7.39,64.68-1.49,129.06-7.2,193.68-9.64,61.07-2.3,122.2-2.09,183.3-1.1,62.31,1,124.61,2.89,186.92,3.81,58.16.85,116.54-2.14,174.63-.17,65,2.21,130.16,10.39,195.25,12.25q92.61-28.94,193-29.26l22.14,3V971.58L4237.6,837.27l-824.93,96.3-275,202.74-479.95-15.2s-679.94-238.23-704.94-248.36-195-71-195-71l-165-96.3-210-71s-335,126.71-350,126.71-235,30.41-235,30.41-210,35.48-230,35.48-230,71-255,86.17S173,1029.87,0,1308.64v1244.7A485.47,485.47,0,0,1,88.3,2558.3Z"/><path class="cls-4" d="M4540,1997.7l-74.31-62.38s14.06,32.07-86.36-55.5-9-112.23-201.84-81.4,41.17,101.13-268.12,38.24-259.08-24.67-415.74-136.9-56.23-86.33-217.9-130.73-6-13.57-248-87.57-171-9.87-384.24-110.38-125.89-212.75-343.8-94.35-248,136.9-349.46,155.4S1914,1538.19,1782.5,1419.8s-30.13-106.07-181.76-149.24,50.63-114-217.7-44.68-137.79,150.75-349.67,63.18-149.73-98.23-303.32-51.58-86.31,94.75-237.94,51.58-160.38,8.31-172.57,1.07-217-144.13-217-144.13L-14,1371.08v881.51L4540,2551Z"/><path class="cls-5" d="M88.3,2558.3a485.44,485.44,0,0,1,172.35,5.37c16.35-1.68,32.71-3.51,49.19-4.27,29.69-1.36,60.21,2.16,90.19,6.53a634.76,634.76,0,0,1,120.75-7.57q126.44-26.85,252.86,12.77,7.64,2.63,15.33,5c102-.7,203.65-19.47,305.81-22.26,69.16-1.89,138.85,2.28,208,4.55q104.68,3.43,209.34,7.69c251.68,9.8,502.88,21.29,754.65,8.19,124.53-6.48,249-15,373.78-15.83s249.55,6.19,374.16,11.76c123.7,5.53,247.54,10.25,371.38,7.39,64.68-1.49,129.06-7.2,193.68-9.64,61.07-2.3,122.2-2.09,183.3-1.1,62.31,1,124.61,2.89,186.92,3.81,58.16.85,116.54-2.14,174.63-.17,65,2.21,130.16,10.39,195.25,12.25q92.61-28.94,193-29.26l22.14,3V1950.78s-25-111.25-96-388.25,0-403-272-257-8,28-559,25l-580,167c-121,172-287,50-514-21s-101-45-681,86-171,71-418,333-81-10-625,15-56-30-790,332.62v310.19A485.47,485.47,0,0,1,88.3,2558.3Z"/><path class="cls-6" d="M88.3,2558.3a485.44,485.44,0,0,1,172.35,5.37c16.35-1.68,32.71-3.51,49.19-4.27,29.69-1.36,60.21,2.16,90.19,6.53a634.76,634.76,0,0,1,120.75-7.57q126.44-26.85,252.86,12.77,7.64,2.63,15.33,5c102-.7,203.65-19.47,305.81-22.26,69.16-1.89,138.85,2.28,208,4.55q104.68,3.43,209.34,7.69c251.68,9.8,502.88,21.29,754.65,8.19,124.53-6.48,249-15,373.78-15.83s249.55,6.19,374.16,11.76c123.7,5.53,247.54,10.25,371.38,7.39,64.68-1.49,129.06-7.2,193.68-9.64,61.07-2.3,122.2-2.09,183.3-1.1,62.31,1,124.61,2.89,186.92,3.81,58.16.85,116.54-2.14,174.63-.17,65,2.21,130.16,10.39,195.25,12.25q92.61-28.94,193-29.26l22.14,3V2260.11s-106-45.35-126-61.35-247-61-247-61l-287-71s-96.51,71.35-242.25,96.67S3794,2287.76,3446,2187.76s-145-155-448-90,80,157-414,101-81-192-494-56-131,286-504,176-342.59-107-342.59-107,201.59-75-55.41-34,6-11.3-307.52,82.35-156.32,169.77-357.9,96.71S548,2202.76,286,2293.76s-181,0-262,91c-19.59,22-31.1,85.55-37.31,169.24A484,484,0,0,1,88.3,2558.3Z"/><polygon class="cls-7" points="3094.12 663.61 3199 845.27 2706.49 845.27 2811.37 663.61 2706.49 663.61 2820.67 465.83 2706.45 465.83 2952.71 39.31 3198.96 465.83 3084.82 465.83 3199 663.61 3094.12 663.61"/><polygon class="cls-8" points="3199 845.27 3094.12 663.61 3199 663.61 3084.82 465.83 3198.96 465.83 2952.71 39.31 2952.71 845.27 3199 845.27"/><rect class="cls-9" x="2900.8" y="845.42" width="109.27" height="142.05"/><polygon class="cls-7" points="2353.65 767.78 2478 976.94 1894.05 976.94 2018.4 767.78 1894.05 767.78 2029.43 540.08 1894 540.08 2185.98 49 2477.95 540.08 2342.62 540.08 2478 767.78 2353.65 767.78"/><polygon class="cls-8" points="2478 976.94 2353.65 767.78 2478 767.78 2342.62 540.08 2477.95 540.08 2185.98 49 2185.98 976.94 2478 976.94"/><rect class="cls-9" x="2124.44" y="977.12" width="129.56" height="163.55"/><rect class="cls-10" x="3630.96" y="888.86" width="121.64" height="172.14"/><polygon class="cls-8" points="3384.22 910.1 3577.71 608.28 3430.15 608.28 3602.99 325.48 3493.08 325.48 3691.49 16 3889.89 325.48 3778.36 325.48 3951.2 608.28 3805.5 608.28 3999 910.1 3384.22 910.1"/><polygon class="cls-11" points="3691.78 16.45 3691.78 910.1 3999 910.1 3805.5 608.28 3951.2 608.28 3778.36 325.48 3889.89 325.48 3691.78 16.45"/><rect class="cls-10" x="2700.2" y="2098.64" width="169.49" height="210.36"/><polygon class="cls-8" points="2356.42 2124.59 2626.01 1755.78 2420.41 1755.78 2661.24 1410.18 2508.09 1410.18 2784.55 1032 3060.98 1410.18 2905.57 1410.18 3146.4 1755.78 2943.4 1755.78 3213 2124.59 2356.42 2124.59"/><polygon class="cls-11" points="2784.94 1032.54 2784.94 2124.59 3213 2124.59 2943.4 1755.78 3146.4 1755.78 2905.57 1410.18 3060.98 1410.18 2784.94 1032.54"/><polygon class="cls-7" points="4235.84 1848.47 4411.65 2170.73 3586.07 2170.73 3761.88 1848.47 3586.07 1848.47 3777.47 1497.63 3586 1497.63 3998.79 741 4411.58 1497.63 4220.25 1497.63 4411.65 1848.47 4235.84 1848.47"/><polygon class="cls-8" points="4411.65 2170.73 4235.84 1848.47 4411.65 1848.47 4220.25 1497.63 4411.58 1497.63 3998.79 741 3998.79 2170.73 4411.65 2170.73"/><rect class="cls-9" x="3911.79" y="2171.01" width="183.17" height="251.99"/><path class="cls-12" d="M4541.17,261.89c-1.8-18.06-3.54-36.13-4.42-54.26a515.18,515.18,0,0,1,3.12-83.76c2-17.06,4.5-34,7.31-50.93a46.15,46.15,0,0,1-5.33-19.58,36.81,36.81,0,0,1,2.73-14.76,46.85,46.85,0,0,1-2.73-13.73,33.25,33.25,0,0,1,.71-8.06,48.28,48.28,0,0,1-.71-6.18,32.35,32.35,0,0,1,.25-5.27c-13.35-.45-26.68-1.34-39.87-2.45C4482.31,1.24,4462.45-1,4442.56-3c-14-1.36-27.87-2.72-41.75-4.87-7-1.09-14-2.35-21-3.6a42.72,42.72,0,0,1-18.13,4.23A40.6,40.6,0,0,1,4346-10.29a41.57,41.57,0,0,1-10.19,4.44c-9,2.47-17.35,1.48-25.56-1.42l1.1.47c-2.55-1-5.16-2-7.73-3a217.49,217.49,0,0,1-23,3.61,77.67,77.67,0,0,1-23.26-1.29A285.93,285.93,0,0,0,4239,93.5c0,158.23,128.27,286.5,286.5,286.5q9.33,0,18.51-.61c-2.18-34.58-2.39-69.26-5-103.82A31.87,31.87,0,0,1,4541.17,261.89Z"/><polygon class="cls-7" points="1901.65 1586.55 2044 1816.3 1375.51 1816.3 1517.86 1586.55 1375.51 1586.55 1530.49 1336.43 1375.45 1336.43 1709.7 797 2043.94 1336.43 1889.02 1336.43 2044 1586.55 1901.65 1586.55"/><polygon class="cls-8" points="2044 1816.3 1901.65 1586.55 2044 1586.55 1889.02 1336.43 2043.94 1336.43 1709.7 797 1709.7 1816.3 2044 1816.3"/><rect class="cls-9" x="1639.25" y="1816.5" width="148.31" height="179.65"/><line class="cls-7" x1="1775" y1="1170" x2="1849" y2="1265"/><line class="cls-7" x1="1861.29" y1="1405.77" x2="1935.29" y2="1500.77"/><line class="cls-7" x1="1766.29" y1="1546.77" x2="1891" y2="1707"/><line class="cls-7" x1="1749.93" y1="1365.15" x2="1874.64" y2="1525.38"/><line class="cls-7" x1="1765.93" y1="1042.15" x2="1890.64" y2="1202.38"/><line class="cls-13" x1="1617.89" y1="1171.69" x2="1543.89" y2="1266.69"/><line class="cls-13" x1="1531.61" y1="1407.46" x2="1457.61" y2="1502.46"/><line class="cls-13" x1="1626.61" y1="1548.46" x2="1501.89" y2="1708.69"/><line class="cls-13" x1="1642.96" y1="1366.85" x2="1518.25" y2="1527.08"/><line class="cls-13" x1="1626.96" y1="1043.85" x2="1502.25" y2="1204.08"/><line class="cls-7" x1="2261.06" y1="416.64" x2="2326.83" y2="507.7"/><line class="cls-7" x1="2337.75" y1="642.63" x2="2403.51" y2="733.69"/><line class="cls-7" x1="2253.32" y1="777.79" x2="2364.15" y2="931.38"/><line class="cls-7" x1="2238.78" y1="603.7" x2="2349.62" y2="757.29"/><line class="cls-7" x1="2253" y1="294.09" x2="2363.84" y2="447.68"/><line class="cls-13" x1="2121.44" y1="418.26" x2="2055.68" y2="509.32"/><line class="cls-13" x1="2044.76" y1="644.25" x2="1979" y2="735.32"/><line class="cls-13" x1="2129.19" y1="779.41" x2="2018.36" y2="933"/><line class="cls-13" x1="2143.73" y1="605.32" x2="2032.89" y2="758.91"/><line class="cls-13" x1="2129.51" y1="295.71" x2="2018.67" y2="449.3"/><line class="cls-7" x1="3017.82" y1="341.14" x2="3072.84" y2="424.71"/><line class="cls-7" x1="3081.98" y1="548.53" x2="3137" y2="632.1"/><line class="cls-7" x1="3011.34" y1="672.56" x2="3104.07" y2="813.51"/><line class="cls-7" x1="2999.18" y1="512.81" x2="3091.91" y2="653.75"/><line class="cls-7" x1="3011.08" y1="228.68" x2="3103.81" y2="369.63"/><line class="cls-13" x1="2901.01" y1="342.63" x2="2845.99" y2="426.19"/><line class="cls-13" x1="2836.85" y1="550.02" x2="2781.83" y2="633.59"/><line class="cls-13" x1="2907.49" y1="674.05" x2="2814.76" y2="815"/><line class="cls-13" x1="2919.65" y1="514.29" x2="2826.92" y2="655.24"/><line class="cls-13" x1="2907.75" y1="230.17" x2="2815.02" y2="371.11"/><line class="cls-7" x1="4099.32" y1="1297.8" x2="4193.35" y2="1441.74"/><line class="cls-7" x1="4208.97" y1="1655.02" x2="4303" y2="1798.96"/><line class="cls-7" x1="4088.25" y1="1868.66" x2="4246.72" y2="2111.44"/><line class="cls-7" x1="4067.46" y1="1593.48" x2="4225.94" y2="1836.26"/><line class="cls-7" x1="4087.79" y1="1104.09" x2="4246.27" y2="1346.86"/><line class="cls-13" x1="3899.68" y1="1300.36" x2="3805.65" y2="1444.3"/><line class="cls-13" x1="3790.03" y1="1657.59" x2="3696" y2="1801.53"/><line class="cls-13" x1="3910.75" y1="1871.22" x2="3752.28" y2="2114"/><line class="cls-13" x1="3931.54" y1="1596.05" x2="3773.06" y2="1838.82"/><line class="cls-13" x1="3911.21" y1="1106.65" x2="3752.73" y2="1349.43"/><line class="cls-14" x1="2546.49" y1="1416.51" x2="2483.49" y2="1540.51"/><line class="cls-14" x1="2546.49" y1="1416.51" x2="2483.49" y2="1540.51"/><line class="cls-11" x1="2716" y1="1243" x2="2653" y2="1344"/><line class="cls-11" x1="2696.99" y1="1469.51" x2="2614" y2="1602"/><line class="cls-11" x1="2708.68" y1="1894.52" x2="2601.31" y2="2080.5"/><line class="cls-11" x1="2697.99" y1="1573.51" x2="2612" y2="1711"/><line class="cls-11" x1="2636.99" y1="1888.51" x2="2555" y2="2019"/><line class="cls-15" x1="2831.49" y1="1238.76" x2="2894.49" y2="1339.76"/><line class="cls-15" x1="2850.5" y1="1465.27" x2="2933.49" y2="1597.76"/><line class="cls-15" x1="2838.81" y1="1890.28" x2="2946.19" y2="2076.26"/><line class="cls-15" x1="2849.5" y1="1569.27" x2="2935.49" y2="1706.76"/><line class="cls-15" x1="2910.5" y1="1884.27" x2="2992.49" y2="2014.76"/><line class="cls-11" x1="3638.47" y1="181.02" x2="3580.77" y2="261.45"/><line class="cls-11" x1="3621.07" y1="361.41" x2="3545.04" y2="466.92"/><line class="cls-11" x1="3631.77" y1="699.88" x2="3533.42" y2="848"/><line class="cls-11" x1="3621.98" y1="444.23" x2="3543.21" y2="553.73"/><line class="cls-11" x1="3566.11" y1="695.1" x2="3491" y2="799.02"/><line class="cls-15" x1="3744.27" y1="177.64" x2="3801.97" y2="258.07"/><line class="cls-15" x1="3761.68" y1="358.03" x2="3837.7" y2="463.54"/><line class="cls-15" x1="3750.97" y1="696.51" x2="3849.33" y2="844.62"/><line class="cls-15" x1="3760.76" y1="440.86" x2="3839.53" y2="550.35"/><line class="cls-15" x1="3816.64" y1="691.72" x2="3891.74" y2="795.64"/><rect class="cls-16" x="381.43" y="319.63" width="574.79" height="425.56" rx="12"/><rect class="cls-17" x="884.37" y="318.53" width="7.74" height="426.67"/><rect class="cls-18" x="812.53" y="318.53" width="7.74" height="426.67"/><rect class="cls-18" x="734.04" y="318.53" width="7.74" height="426.67"/><rect class="cls-18" x="659.99" y="318.53" width="7.74" height="426.67"/><rect class="cls-18" x="583.72" y="318.53" width="7.74" height="426.67"/><rect class="cls-18" x="508.55" y="318.53" width="7.74" height="426.67"/><rect class="cls-18" x="440.02" y="318.53" width="7.74" height="426.67"/><rect class="cls-19" x="631.25" y="517.49" width="148.46" height="226.6" rx="12"/><rect class="cls-20" x="495.29" y="359.42" width="127.84" height="122.7" rx="6.98"/><rect class="cls-19" x="505.58" y="369.72" width="107.25" height="100.39" rx="9.71"/><rect class="cls-20" x="552.03" y="368.86" width="12.01" height="112.4"/><rect class="cls-20" x="552.34" y="365" width="12.01" height="112.4" transform="translate(979.55 -137.15) rotate(90)"/><rect class="cls-20" x="777" y="359.77" width="127.84" height="122.7" rx="6.98"/><rect class="cls-19" x="787.3" y="370.06" width="107.25" height="100.39" rx="9.71"/><rect class="cls-20" x="833.75" y="369.21" width="12.01" height="112.4"/><rect class="cls-20" x="834.06" y="365.34" width="12.01" height="112.4" transform="translate(1261.61 -418.52) rotate(90)"/><rect class="cls-20" x="780.47" y="519.12" width="148.12" height="226.08" rx="12"/><rect class="cls-18" x="792.16" y="527.89" width="124.73" height="206.59" rx="12"/><rect class="cls-20" x="850.63" y="509.38" width="9.74" height="246.54" rx="4.41" transform="translate(430.94 -342.99) rotate(30)"/><rect class="cls-20" x="851.3" y="507.73" width="9.74" height="246.54" rx="4.41" transform="translate(-200.79 512.63) rotate(-30)"/><rect class="cls-20" x="483.64" y="518.23" width="148.12" height="226.08" rx="12"/><rect class="cls-18" x="495.33" y="527" width="124.73" height="206.59" rx="12"/><rect class="cls-20" x="553.8" y="508.48" width="9.74" height="246.54" rx="4.41" transform="translate(390.72 -194.7) rotate(30)"/><rect class="cls-20" x="554.47" y="506.84" width="9.74" height="246.54" rx="4.41" transform="translate(-240.12 364.09) rotate(-30)"/><rect class="cls-21" x="375.35" y="315" width="599.11" height="21" rx="9.5"/><rect class="cls-22" x="399.12" y="362.74" width="4.42" height="84.01" rx="2"/><rect class="cls-22" x="419.02" y="490.96" width="4.42" height="84.01" rx="2"/><rect class="cls-22" x="465.44" y="409.17" width="4.42" height="84.01" rx="2"/><rect class="cls-22" x="638.98" y="424.64" width="4.42" height="84.01" rx="2"/><rect class="cls-22" x="682.09" y="355" width="4.42" height="84.01" rx="2"/><rect class="cls-22" x="751.73" y="392.59" width="4.42" height="84.01" rx="2"/><rect class="cls-22" x="935.22" y="350.58" width="4.42" height="84.01" rx="2"/><rect class="cls-22" x="403.54" y="646.82" width="4.42" height="84.01" rx="2"/><rect class="cls-22" x="916.43" y="455.59" width="4.42" height="53.06" rx="2"/><rect class="cls-22" x="705.31" y="450.06" width="4.42" height="53.06" rx="2"/><rect class="cls-22" x="942.96" y="630.24" width="4.42" height="53.06" rx="2"/><rect class="cls-22" x="469.86" y="646.82" width="4.42" height="53.06" rx="2"/><polygon class="cls-7" points="752.38 1901.69 922 2187.93 125.49 2187.93 295.1 1901.69 125.49 1901.69 310.15 1590.06 125.42 1590.06 523.68 918 921.93 1590.06 737.34 1590.06 922 1901.69 752.38 1901.69"/><polygon class="cls-8" points="922 2187.93 752.38 1901.69 922 1901.69 737.34 1590.06 921.93 1590.06 523.68 918 523.68 2187.93 922 2187.93"/><rect class="cls-9" x="439.74" y="2188.17" width="176.72" height="223.83"/><line class="cls-7" x1="606.16" y1="1438.38" x2="684.11" y2="1558.23"/><line class="cls-7" x1="697.05" y1="1735.83" x2="775" y2="1855.68"/><line class="cls-7" x1="596.98" y1="1913.72" x2="728.35" y2="2115.87"/><line class="cls-7" x1="579.75" y1="1684.59" x2="711.12" y2="1886.74"/><line class="cls-7" x1="596.61" y1="1277.09" x2="727.97" y2="1479.24"/><line class="cls-13" x1="440.67" y1="1440.52" x2="362.72" y2="1560.37"/><line class="cls-13" x1="349.78" y1="1737.96" x2="271.83" y2="1857.82"/><line class="cls-13" x1="449.85" y1="1915.85" x2="318.48" y2="2118"/><line class="cls-13" x1="467.08" y1="1686.72" x2="335.71" y2="1888.87"/><line class="cls-13" x1="450.23" y1="1279.22" x2="318.86" y2="1481.37"/><line class="cls-23" x1="2826.54" y1="2143.68" x2="2826.54" y2="2254.75"/><line class="cls-24" x1="2778.9" y1="2152.46" x2="2778.9" y2="2254.74"/><line class="cls-25" x1="2744.04" y1="2199.69" x2="2744.04" y2="2282.74"/><line class="cls-23" x1="3733.16" y1="930.92" x2="3733.16" y2="1041.99"/><line class="cls-24" x1="3683.52" y1="924.7" x2="3683.52" y2="1026.98"/><line class="cls-25" x1="3650.66" y1="962.93" x2="3650.66" y2="1045.98"/><rect class="cls-10" x="1172.05" y="987.54" width="125.25" height="179.38"/><polygon class="cls-8" points="918 1009.68 1117.22 695.18 965.29 695.18 1143.25 400.49 1030.08 400.49 1234.38 78 1438.66 400.49 1323.82 400.49 1501.78 695.18 1351.77 695.18 1551 1009.68 918 1009.68"/><polygon class="cls-11" points="1234.67 78.46 1234.67 1009.68 1551 1009.68 1351.77 695.18 1501.78 695.18 1323.82 400.49 1438.66 400.49 1234.67 78.46"/><line class="cls-11" x1="1184.62" y1="282.11" x2="1127.35" y2="364.83"/><line class="cls-11" x1="1167.34" y1="467.62" x2="1091.89" y2="576.12"/><line class="cls-11" x1="1177.97" y1="815.68" x2="1080.35" y2="968"/><line class="cls-11" x1="1168.25" y1="552.79" x2="1090.07" y2="665.39"/><line class="cls-11" x1="1112.79" y1="810.76" x2="1038.25" y2="917.63"/><line class="cls-15" x1="1289.63" y1="278.64" x2="1346.9" y2="361.35"/><line class="cls-15" x1="1306.9" y1="464.14" x2="1382.36" y2="572.65"/><line class="cls-15" x1="1296.28" y1="812.21" x2="1393.9" y2="964.53"/><line class="cls-15" x1="1305.99" y1="549.32" x2="1384.18" y2="661.92"/><line class="cls-15" x1="1361.45" y1="807.29" x2="1436" y2="914.16"/><line class="cls-23" x1="1271.21" y1="1021.9" x2="1271.21" y2="1132.97"/><line class="cls-24" x1="1229.57" y1="1015.67" x2="1229.57" y2="1117.96"/><line class="cls-25" x1="1194.71" y1="1062.9" x2="1194.71" y2="1145.96"/><path class="cls-26" d="M1783.2,123.5c-3.51,44.18-51.81,101.14-104,104.39S1581.55,177.7,1582,120.7,1638.22,21.05,1690,19,1786.72,79.31,1783.2,123.5Z"/><path class="cls-26" d="M1741.19,86.24c-4.93,35.84,20.88,59,57.07,59.7s69.67-14.09,60.88-49-24.82-59.4-57.41-61.86S1746.12,50.4,1741.19,86.24Z"/><path class="cls-26" d="M1656.43,208.79c-3.12-49,42.52-84.38,83.71-86.45s110.25,33,101.64,66.87S1782.4,262,1749.24,273.8,1659.56,257.74,1656.43,208.79Z"/><path class="cls-26" d="M1800.61,142.54c-1.3,39.87,41.54,71.7,76.82,90s85.67-33.58,83.66-74.45S1917,58.86,1874.21,68.77,1801.9,102.66,1800.61,142.54Z"/><path class="cls-26" d="M1938.09,110.42c5.85,20.63,15.89,49,40.76,52.76s29.84-38.74,25-59.71-18.66-34.31-42-31.27S1932.24,89.78,1938.09,110.42Z"/><path class="cls-26" d="M1823,207.39c5.15-22.65,44.45-26.32,67.52-18.93s38.65,26.94,27.79,53.38-40.52,35.5-60.51,23S1817.84,230,1823,207.39Z"/><path class="cls-26" d="M1890.06,189.83c8.64-33.17,30.78-53.5,66.06-52s68.77,46.72,56.67,83-48.2,34.64-82.7,32.76S1881.42,223,1890.06,189.83Z"/><path class="cls-27" d="M2489.09,158c-.82,29.76-21.38,40.15-47.77,34.66s-38-16.36-35.55-40.76,17.61-35.69,42.27-34.42S2489.92,128.26,2489.09,158Z"/><path class="cls-27" d="M2552.46,182.57c-1.73-23.44-21.35-49.16-48.13-49.63s-59.28,21.21-53.06,48,35.45,57,60.49,57.76S2554.19,206,2552.46,182.57Z"/><path class="cls-27" d="M2475,118.61c-6.42,15.68,11,27.57,27.2,27.11s31.52-12.9,31.19-28.16-12.24-24.39-26.62-24.64S2481.37,102.93,2475,118.61Z"/><path class="cls-27" d="M2516.56,165.76c3.18,22.51,13.11,50.62,41.6,50.53s42.11-24.24,37.81-47-18.8-59.2-41.8-61.51S2513.38,143.24,2516.56,165.76Z"/><path class="cls-27" d="M2568.07,196.28c-1.2,14.22,7.21,25.84,20.78,31.19s27.49-3,30.17-18.64-7.42-33-23.27-35S2569.27,182.06,2568.07,196.28Z"/><path class="cls-27" d="M2572.05,150.5c2.61,15.57,18.71,35.16,35.63,37s27.2-18.08,28.69-35-28.5-42.28-45.13-36.87S2569.44,134.92,2572.05,150.5Z"/><path class="cls-28" d="M439.81,115.45c-3.5,35.16-24.5,46.86-56.26,39.88s-48.4-32.68-46.1-61.93S359.81,45.67,391.15,51,443.31,80.28,439.81,115.45Z"/><path class="cls-28" d="M406.15,119.53c-.95,24.93,8.91,50,35.22,54.15s46.31-27.19,46.79-52.1S476.42,78.22,449.68,78,407.11,94.6,406.15,119.53Z"/><path class="cls-28" d="M509.14,69.9c.7,24.64-17.31,59.32-45.53,63s-36.28-35.3-35.26-56.85S446.58,27,470.17,28,508.44,45.25,509.14,69.9Z"/><path class="cls-28" d="M633.56,129.09c-4.45-54.46-54.11-89.59-98.86-81.78s-87.11,50.44-91.42,97.63,47.43,57.36,95.07,59.34S638,183.56,633.56,129.09Z"/><path class="cls-28" d="M667.31,78.66c.88,27.51-17.48,73.53-49,71.64s-59.13-34.24-62.14-68.88,22.63-53.15,54.56-52.31S666.43,51.14,667.31,78.66Z"/><path class="cls-28" d="M572.54,168.4c-2.31,21.74,13.15,34,35.15,37.64s33.49-5.23,35.4-28.2-7.94-49.58-31.93-48.87S574.86,146.65,572.54,168.4Z"/><path class="cls-26" d="M4010.8,167.93c17.77,30.38,66.74,56.55,99,43.36s40.33-64.7,19.86-105.12S4060.79,52,4029.23,65.88,3993,137.55,4010.8,167.93Z"/><path class="cls-26" d="M4022.6,129c15.65,24,8.5,48.17-12.8,59.42s-46.49,10.67-53.63-16.76-6.29-49.62,12.24-61.05S4007,104.93,4022.6,129Z"/><path class="cls-26" d="M4116.55,191C4101,155.2,4061.3,143.56,4036,154.32s-53.93,56.23-36.8,77.75,61.19,34.15,85.12,32.68S4132.05,226.7,4116.55,191Z"/><path class="cls-26" d="M4007.19,186.64c14.92,28,.7,63.34-13.8,86.87s-62.94,1.55-76.23-28.11-9-83.7,20-89.37S3992.27,158.67,4007.19,186.64Z"/><path class="cls-26" d="M3913.93,204.63c3.83,16.42,7.91,39.56-5.56,49.63s-31.51-18.69-36.09-35-1.06-29.95,13.93-34.73S3910.09,188.21,3913.93,204.63Z"/><path class="cls-26" d="M4016.87,239.42c-11.09-14.59-35.8-5.52-46.92,6.59s-13.45,30.63,2.39,46.22,36.72,13.21,44.21-1.58S4028,254,4016.87,239.42Z"/><path class="cls-26" d="M3970.7,246.85c-16.91-21-37.31-28.92-57.77-17.34s-24.38,53.66-4.29,75.9,41,10.32,60.87-1.26S3987.62,267.88,3970.7,246.85Z"/></svg>