<svg id="Layer_1" data-name="Layer 1" xmlns="http://www.w3.org/2000/svg" xmlns:xlink="http://www.w3.org/1999/xlink" width="4535.43" height="2551.18" viewBox="0 0 4535.43 2551.18"><defs><style>.cls-1{fill:url(#linear-gradient);}.cls-2{fill:#aac952;}.cls-3{fill:#95bb27;}.cls-4{fill:#3b7302;}.cls-5{fill:#154001;}.cls-6{fill:#002511;}.cls-7{fill:#006837;}.cls-8{fill:#33865f;}.cls-9{fill:#7d5d3e;}.cls-10{fill:#a67c52;}.cls-11{fill:#5c9e7f;}.cls-12{fill:#fcee21;opacity:0.82;}.cls-13{fill:#d98f9d;}.cls-14{fill:#e8bcc4;}.cls-15,.cls-16,.cls-34,.cls-50,.cls-51,.cls-52{fill:#fff;}.cls-16{stroke:#fff;}.cls-16,.cls-17,.cls-20,.cls-27,.cls-29,.cls-34{stroke-miterlimit:10;}.cls-17,.cls-30{fill:none;}.cls-17,.cls-20,.cls-34{stroke:#000;}.cls-18{fill:#f0d2d8;}.cls-19{fill:#ffece9;}.cls-21{fill:#ff95bd;}.cls-22{fill:#ccc;}.cls-23{fill:#c46e2a;}.cls-24{fill:#935320;}.cls-25,.cls-29{fill:#7d3309;}.cls-26{fill:#d08b55;}.cls-27,.cls-28{fill:#f3e2d4;}.cls-27{stroke:#f3e2d4;}.cls-29{stroke:#935320;}.cls-31{fill:#8f5b48;}.cls-32{fill:#73321a;}.cls-33{fill:#844c36;}.cls-35{fill:#ab8476;}.cls-36{fill:#9d6f5f;}.cls-37{fill:#66a487;}.cls-38{fill:#45775f;}.cls-39{fill:#c1272d;}.cls-40{fill:#8cc63f;}.cls-41{fill:#3f8524;}.cls-42{fill:#993226;}.cls-43{fill:#911d22;}.cls-44{fill:#300500;}.cls-45{fill:#611417;}.cls-46{fill:#cd5257;}.cls-47{fill:#8c6239;}.cls-48{fill:#a08871;}.cls-49{fill:#754c24;}.cls-50{opacity:0.58;}.cls-51{opacity:0.78;}.cls-52{opacity:0.66;}</style><linearGradient id="linear-gradient" x1="-13" y1="741" x2="4535" y2="741" gradientUnits="userSpaceOnUse"><stop offset="0" stop-color="#fff"/><stop offset="0" stop-color="#29abe2"/><stop offset="1" stop-color="aqua"/></linearGradient></defs><path class="cls-1" d="M4502.23,2.91C4492,2.05,4481.84,1,4471.66,0H-13V1482H4535V5.08C4524,4.59,4513.08,3.82,4502.23,2.91Z"/><path class="cls-2" d="M4116.11,1057.28l-164.17-208.7-234.62-138.8H3437.68l-210.9-234.71-277.66-73.42-288.78,69.89L2281.56,625.11l-90,34.46S1847.4,501.08,1798,461.7s-314.5-308.13-314.5-308.13L1279.73,0s-159.22,84.66-273.94,223.47L750.63,510.92,347.13,690.09,0,1022.19v1191H1194.81L4485,2183.37l-214.61-897.7Z"/><path class="cls-3" d="M88.3,2558.3a485.44,485.44,0,0,1,172.35,5.37c16.35-1.68,32.71-3.51,49.19-4.27,29.69-1.36,60.21,2.16,90.19,6.53a634.76,634.76,0,0,1,120.75-7.57q126.44-26.85,252.86,12.77,7.64,2.63,15.33,5c102-.7,203.65-19.47,305.81-22.26,69.16-1.89,138.85,2.28,208,4.55q104.68,3.43,209.34,7.69c251.68,9.8,502.88,21.29,754.65,8.19,124.53-6.48,249-15,373.78-15.83s249.55,6.19,374.16,11.76c123.7,5.53,247.54,10.25,371.38,7.39,64.68-1.49,129.06-7.2,193.68-9.64,61.07-2.3,122.2-2.09,183.3-1.1,62.31,1,124.61,2.89,186.92,3.81,58.16.85,116.54-2.14,174.63-.17,65,2.21,130.16,10.39,195.25,12.25q92.61-28.94,193-29.26l22.14,3V971.58L4237.6,837.27l-824.93,96.3-275,202.74-479.95-15.2s-679.94-238.23-704.94-248.36-195-71-195-71l-165-96.3-210-71s-335,126.71-350,126.71-235,30.41-235,30.41-210,35.48-230,35.48-230,71-255,86.17S173,1029.87,0,1308.64v1244.7A485.47,485.47,0,0,1,88.3,2558.3Z"/><path class="cls-4" d="M4540,1997.7l-74.31-62.38s14.06,32.07-86.36-55.5-9-112.23-201.84-81.4,41.17,101.13-268.12,38.24-259.08-24.67-415.74-136.9-56.23-86.33-217.9-130.73-6-13.57-248-87.57-171-9.87-384.24-110.38-125.89-212.75-343.8-94.35-248,136.9-349.46,155.4S1914,1538.19,1782.5,1419.8s-30.13-106.07-181.76-149.24,50.63-114-217.7-44.68-137.79,150.75-349.67,63.18-149.73-98.23-303.32-51.58-86.31,94.75-237.94,51.58-160.38,8.31-172.57,1.07-217-144.13-217-144.13L-14,1371.08v881.51L4540,2551Z"/><path class="cls-5" d="M88.3,2558.3a485.44,485.44,0,0,1,172.35,5.37c16.35-1.68,32.71-3.51,49.19-4.27,29.69-1.36,60.21,2.16,90.19,6.53a634.76,634.76,0,0,1,120.75-7.57q126.44-26.85,252.86,12.77,7.64,2.63,15.33,5c102-.7,203.65-19.47,305.81-22.26,69.16-1.89,138.85,2.28,208,4.55q104.68,3.43,209.34,7.69c251.68,9.8,502.88,21.29,754.65,8.19,124.53-6.48,249-15,373.78-15.83s249.55,6.19,374.16,11.76c123.7,5.53,247.54,10.25,371.38,7.39,64.68-1.49,129.06-7.2,193.68-9.64,61.07-2.3,122.2-2.09,183.3-1.1,62.31,1,124.61,2.89,186.92,3.81,58.16.85,116.54-2.14,174.63-.17,65,2.21,130.16,10.39,195.25,12.25q92.61-28.94,193-29.26l22.14,3V1950.78s-25-111.25-96-388.25,0-403-272-257-8,28-559,25l-580,167c-121,172-287,50-514-21s-101-45-681,86-171,71-418,333-81-10-625,15-56-30-790,332.62v310.19A485.47,485.47,0,0,1,88.3,2558.3Z"/><path class="cls-6" d="M88.3,2558.3a485.44,485.44,0,0,1,172.35,5.37c16.35-1.68,32.71-3.51,49.19-4.27,29.69-1.36,60.21,2.16,90.19,6.53a634.76,634.76,0,0,1,120.75-7.57q126.44-26.85,252.86,12.77,7.64,2.63,15.33,5c102-.7,203.65-19.47,305.81-22.26,69.16-1.89,138.85,2.28,208,4.55q104.68,3.43,209.34,7.69c251.68,9.8,502.88,21.29,754.65,8.19,124.53-6.48,249-15,373.78-15.83s249.55,6.19,374.16,11.76c123.7,5.53,247.54,10.25,371.38,7.39,64.68-1.49,129.06-7.2,193.68-9.64,61.07-2.3,122.2-2.09,183.3-1.1,62.31,1,124.61,2.89,186.92,3.81,58.16.85,116.54-2.14,174.63-.17,65,2.21,130.16,10.39,195.25,12.25q92.61-28.94,193-29.26l22.14,3V2260.11s-106-45.35-126-61.35-247-61-247-61l-287-71s-96.51,71.35-242.25,96.67S3794,2287.76,3446,2187.76s-145-155-448-90,80,157-414,101-81-192-494-56-131,286-504,176-342.59-107-342.59-107,201.59-75-55.41-34,6-11.3-307.52,82.35-156.32,169.77-357.9,96.71S548,2202.76,286,2293.76s-181,0-262,91c-19.59,22-31.1,85.55-37.31,169.24A484,484,0,0,1,88.3,2558.3Z"/><polygon class="cls-7" points="3094.12 663.61 3199 845.27 2706.49 845.27 2811.37 663.61 2706.49 663.61 2820.67 465.83 2706.45 465.83 2952.71 39.31 3198.96 465.83 3084.82 465.83 3199 663.61 3094.12 663.61"/><polygon class="cls-8" points="3199 845.27 3094.12 663.61 3199 663.61 3084.82 465.83 3198.96 465.83 2952.71 39.31 2952.71 845.27 3199 845.27"/><rect class="cls-9" x="2900.8" y="845.42" width="109.27" height="142.05"/><polygon class="cls-7" points="2353.65 767.78 2478 976.94 1894.05 976.94 2018.4 767.78 1894.05 767.78 2029.43 540.08 1894 540.08 2185.98 49 2477.95 540.08 2342.62 540.08 2478 767.78 2353.65 767.78"/><polygon class="cls-8" points="2478 976.94 2353.65 767.78 2478 767.78 2342.62 540.08 2477.95 540.08 2185.98 49 2185.98 976.94 2478 976.94"/><rect class="cls-9" x="2124.44" y="977.12" width="129.56" height="163.55"/><rect class="cls-10" x="3630.96" y="888.86" width="121.64" height="172.14"/><polygon class="cls-8" points="3384.22 910.1 3577.71 608.28 3430.15 608.28 3602.99 325.48 3493.08 325.48 3691.49 16 3889.89 325.48 3778.36 325.48 3951.2 608.28 3805.5 608.28 3999 910.1 3384.22 910.1"/><polygon class="cls-11" points="3691.78 16.45 3691.78 910.1 3999 910.1 3805.5 608.28 3951.2 608.28 3778.36 325.48 3889.89 325.48 3691.78 16.45"/><rect class="cls-10" x="2700.2" y="2098.64" width="169.49" height="210.36"/><polygon class="cls-8" points="2356.42 2124.59 2626.01 1755.78 2420.41 1755.78 2661.24 1410.18 2508.09 1410.18 2784.55 1032 3060.98 1410.18 2905.57 1410.18 3146.4 1755.78 2943.4 1755.78 3213 2124.59 2356.42 2124.59"/><polygon class="cls-11" points="2784.94 1032.54 2784.94 2124.59 3213 2124.59 2943.4 1755.78 3146.4 1755.78 2905.57 1410.18 3060.98 1410.18 2784.94 1032.54"/><polygon class="cls-7" points="4235.84 1848.47 4411.65 2170.73 3586.07 2170.73 3761.88 1848.47 3586.07 1848.47 3777.47 1497.63 3586 1497.63 3998.79 741 4411.58 1497.63 4220.25 1497.63 4411.65 1848.47 4235.84 1848.47"/><polygon class="cls-8" points="4411.65 2170.73 4235.84 1848.47 4411.65 1848.47 4220.25 1497.63 4411.58 1497.63 3998.79 741 3998.79 2170.73 4411.65 2170.73"/><rect class="cls-9" x="3911.79" y="2171.01" width="183.17" height="251.99"/><path class="cls-12" d="M4541.17,261.89c-1.8-18.06-3.54-36.13-4.42-54.26a515.18,515.18,0,0,1,3.12-83.76c2-17.06,4.5-34,7.31-50.93a46.15,46.15,0,0,1-5.33-19.58,36.81,36.81,0,0,1,2.73-14.76,46.85,46.85,0,0,1-2.73-13.73,33.25,33.25,0,0,1,.71-8.06,48.28,48.28,0,0,1-.71-6.18,32.35,32.35,0,0,1,.25-5.27c-13.35-.45-26.68-1.34-39.87-2.45C4482.31,1.24,4462.45-1,4442.56-3c-14-1.36-27.87-2.72-41.75-4.87-7-1.09-14-2.35-21-3.6a42.72,42.72,0,0,1-18.13,4.23A40.6,40.6,0,0,1,4346-10.29a41.57,41.57,0,0,1-10.19,4.44c-9,2.47-17.35,1.48-25.56-1.42l1.1.47c-2.55-1-5.16-2-7.73-3a217.49,217.49,0,0,1-23,3.61,77.67,77.67,0,0,1-23.26-1.29A285.93,285.93,0,0,0,4239,93.5c0,158.23,128.27,286.5,286.5,286.5q9.33,0,18.51-.61c-2.18-34.58-2.39-69.26-5-103.82A31.87,31.87,0,0,1,4541.17,261.89Z"/><path class="cls-13" d="M1990,2030.65a37.32,37.32,0,0,1-5.09-.37,44.5,44.5,0,0,1-15-5,41.83,41.83,0,0,1-19.11-3.28,35.43,35.43,0,0,1-20-22.64l6.68-1.81a28.42,28.42,0,0,0,16.12,18.12,32.16,32.16,0,0,0,6.12,2c-6.1-6.38-10.24-16.27-5.77-24.5,3.19-5.88,10.35-9.54,19.15-9.8a22.14,22.14,0,0,1,10.77,2c7.52,3.8,10.33,12.57,10.46,19.51.1,5.29-1.14,9.53-3.7,12.62a18.65,18.65,0,0,1-8.12,5.3c1.1.26,2.22.47,3.35.63,3.69.52,10.6.8,15.42-3.16,4.22-3.48,6-9.33,7.69-16.07l6.7,1.7c-1.55,6.13-3.68,14.51-10,19.71C2001.65,2028.91,1996.19,2030.65,1990,2030.65Zm-15.84-40.38h-.84c-2.36.07-10.31.72-13.28,6.19s.72,12.84,5.79,17.5a36.74,36.74,0,0,0,5.7,4.28,38.87,38.87,0,0,0,7.23-1.49c3.22-1,5.3-2.15,6.56-3.67,1.47-1.78,2.19-4.49,2.12-8.08-.09-4.7-1.89-11-6.67-13.47A14.65,14.65,0,0,0,1974.14,1990.27Z"/><path class="cls-14" d="M2271,1825.71c43.49,27.5,50.56,71,48,122.93,3.35,40.85-1.26,78.83,5.77,119.92,1.37,8-5.55,9.67-11.9,10.49a34.63,34.63,0,0,1-8.49-.25c-6.59-1.49-10.82-3.35-10.94-10.88-.24-15.3.74-31.43-.18-46.89-1.33,2.1-2.68,4.62-4.15,6.62-8.13,11.1-16.77,21.55-27.66,29.85-11.35,8.65-23.59,13.81-36.74,18.85.34.39.66.86,1,1.29a122,122,0,0,1-37.62,13.3c-3.15-2.83-5.59-6-9.27-8.29-11.54-7.16-22.18-12.25-36-14.31-18.17-2.7-36.33-2.75-54.77,1.26-60-18.92-94.45-48.34-82.11-116.07,16.78-92.13,81.66-121.07,164.7-141.73,7.51-1.87,1.58-3.33,8.78-5.1-17.16-18.61-16.85-34.84-16.87-60.76,0-18.3,7.88-33.46,15.51-49.94-10.88-11.36-11.62-34-6.32-45.81,6.87-15.36,13.88-20.81,21-34,1.15-2.15,1.43-12.77,5.61-10.73,9.31,4.54,10.77,14.08,16.55,22.39a76.41,76.41,0,0,1,13.79,36c6.3-.46,12.63-1.56,18.93-1.43a153.79,153.79,0,0,1,32,4.43c-.09-2.06-1-3.76-.67-5.91,2.09-13.78,8.42-23.5,17.89-33.42,2.06-2.15,2.32-11.94,6.52-9.44,5.78,3.43,4.06,11.44,6.13,17.26,3.35,9.39,7.93,20.57,10.87,29.59,1.35,4.13,1.33,5.89.59,9.09-1.36,6-5.21,8.41-9,12.27,13.55,20.29,23.56,38.36,21.64,64C2329.81,1798.69,2319.44,1818.18,2271,1825.71Z"/><path d="M2258,1723.06a12.27,12.27,0,0,1-2.2-11.44l.82.27a11.41,11.41,0,0,0,2.05,10.62Z"/><path d="M2251.88,1714.85a9.85,9.85,0,0,1-4.81-11.1l.84.23a9,9,0,0,0,4.36,10.11Z"/><path d="M2241.64,1710.76a10.5,10.5,0,0,1-8-8.71l.85-.11a9.6,9.6,0,0,0,7.36,8Z"/><path d="M2229,1713.19a4.77,4.77,0,0,1-3.13-1.27,10.44,10.44,0,0,1-2.35-3.6,8,8,0,0,1-.9-3.87l.86.08a7.19,7.19,0,0,0,.83,3.44,9.55,9.55,0,0,0,2.14,3.3,3.55,3.55,0,0,0,3.39.92l.28.82A3.55,3.55,0,0,1,2229,1713.19Z"/><path d="M2220.59,1720a6,6,0,0,1-3.51-1.1,11.45,11.45,0,0,1-1.64-1.54,4.28,4.28,0,0,1-1.5-2.89l.87,0a3.52,3.52,0,0,0,1.27,2.27,10.71,10.71,0,0,0,1.51,1.43,5.17,5.17,0,0,0,4.8.61l.31.81A5.76,5.76,0,0,1,2220.59,1720Z"/><path d="M2215.84,1725.06a7.47,7.47,0,0,1-2.2-.33,7.59,7.59,0,0,1-4.79-4.64l.82-.29a6.58,6.58,0,0,0,10,3.17l.51.71A7.64,7.64,0,0,1,2215.84,1725.06Z"/><path d="M2299.58,1719.75l-.8-.33a6.74,6.74,0,0,0-.46-6l.74-.45A7.63,7.63,0,0,1,2299.58,1719.75Z"/><path d="M2304.88,1715.81l-.66-.57a16.05,16.05,0,0,0,2.82-4.18,6.88,6.88,0,0,0,.38-4.78l.82-.26a7.7,7.7,0,0,1-.4,5.38A17,17,0,0,1,2304.88,1715.81Z"/><path d="M2310.79,1714.32l-.28-.82a6.58,6.58,0,0,0,4.18-7.27l.85-.17A7.4,7.4,0,0,1,2310.79,1714.32Z"/><path d="M2317.32,1717h-.1l0-.86a5.61,5.61,0,0,0,5.43-4.6l.85.13A6.44,6.44,0,0,1,2317.32,1717Z"/><path d="M2324.48,1721.23a6.5,6.5,0,0,1-3.12-.78l.42-.75a5.88,5.88,0,0,0,6.16-.45l.52.69A6.67,6.67,0,0,1,2324.48,1721.23Z"/><path d="M2328,1726.37a4.38,4.38,0,0,1-2.62-.84l.26-.34a4.1,4.1,0,0,0,4.89-.12l.27.33A4.41,4.41,0,0,1,2328,1726.37Z"/><path class="cls-13" d="M2313.49,1779.55c7.51,13.68-8.24,29.76-22.42,31.85s-33.84-1.91-35.74-17.51,10.34-24.36,23.66-28.23S2306,1765.86,2313.49,1779.55Z"/><ellipse class="cls-15" cx="2309.86" cy="1736.24" rx="17.72" ry="22.48"/><ellipse class="cls-15" cx="2239.19" cy="1736.02" rx="22.69" ry="26.58"/><circle cx="2240.27" cy="1742.29" r="20.75"/><circle cx="2309.86" cy="1741" r="17.72"/><ellipse class="cls-15" cx="2251.51" cy="1744.89" rx="5.19" ry="8.64"/><ellipse class="cls-15" cx="2314.62" cy="1742.29" rx="3.89" ry="6.48"/><circle class="cls-16" cx="2236.38" cy="1734.08" r="3.03"/><circle class="cls-15" cx="2305.32" cy="1731.7" r="2.38"/><ellipse class="cls-15" cx="2231.63" cy="1746.18" rx="2.16" ry="3.46"/><ellipse class="cls-15" cx="2302.94" cy="1741" rx="1.73" ry="2.59"/><circle cx="2275.71" cy="1781.19" r="4.75"/><circle cx="2300.78" cy="1779.46" r="3.89"/><path class="cls-13" d="M2194.31,1668.78a13.26,13.26,0,0,1-2.24-5.33c-1.37-6.86,1.15-13.83,3.76-20.32a31.68,31.68,0,0,1,3.89-7.54,11.12,11.12,0,0,1,7-4.52l5.12,15.62c1.26,3.85,2.52,8,1.21,11.85"/><path class="cls-13" d="M2293.19,1666.65a19.88,19.88,0,0,1,8.61-25.65,31.85,31.85,0,0,0,2.34,11.36c2,4.81,5.17,9.42,5,14.62-.11,3.5-1.75,6.76-3.48,9.81"/><path class="cls-13" d="M2178.05,2083.11a221.06,221.06,0,0,1-26.7-1.65c-22.07-2.64-43.92-6.14-63.8-11.62,16.38-5,37.68-3.56,54.59-1.14A79.08,79.08,0,0,1,2178.05,2083.11Z"/><path class="cls-13" d="M2288.67,2028.5c-.39,11.75-1.23,24.74.26,36.05.91,6.94-2.26,9.65-8.27,11.73a45.8,45.8,0,0,1-8.58,1.38c-7.42.44-13.94-1.71-13.11-10.16.28-2.86,1.58-6.54,2-9.53,11.21-8.2,19.82-18.86,27.71-30.17C2288.62,2028,2288.67,2028.22,2288.67,2028.5Z"/><path class="cls-17" d="M2087.55,2069.84l-.29.09"/><path class="cls-13" d="M2223.74,2076.94c-3.87-4.77-9.58-7.79-15.1-10.71a94.46,94.46,0,0,1-8.57-4.92c-18.08-12.08-25.08-34.31-30.71-56-5.27-20.34-11.24-43.4-28.61-56.79-16.41-12.64-41.47-14.39-67.05-4.69l-.31-.81c25.86-9.81,51.24-8,67.89,4.82,17.6,13.57,23.61,36.78,28.92,57.26,5.58,21.57,12.53,43.63,30.35,55.55,2.68,1.79,5.63,3.35,8.49,4.87,5.6,3,11.39,6,15.37,10.92Z"/><path class="cls-13" d="M2293.56,2022.28c-4.27-5.12-6.84-12-7.86-21.1-.44-4-.58-8-.71-11.91-.11-3.49-.23-7.11-.58-10.64-.82-8.45-2.94-16.84-5-25l.83-.21c2.07,8.14,4.2,16.56,5,25.08.35,3.56.47,7.18.59,10.69.13,3.89.26,7.92.7,11.85,1,8.9,3.51,15.65,7.66,20.64Z"/><path class="cls-18" d="M2038.35,1925.85c2.85-14.41,14.34-26,27.84-31.72a4.16,4.16,0,0,0,2.67-4.73c-.11-.88-.25-2.21-.47-3.18-.56-2.43-2.62-3.15-5.28-1.94-17.41,7.94-30.4,20.26-34.86,39-.68,2.85.91,3.19,2.74,4.12a12.4,12.4,0,0,0,3.09.7C2035.92,1928.28,2037.91,1928.05,2038.35,1925.85Z"/><path class="cls-18" d="M2201.9,1708.59c4.1-10.15,9.85-16.1,20.17-19.93,1.58-.59,1.86-1.51,2.19-3a4.79,4.79,0,0,0,.15-2.12c-.46-1.44-.83-2.57-2.86-1.87-13.27,4.58-21.36,12.89-26.31,26-.75,2,.27,2.31,1.65,3a3.75,3.75,0,0,0,2,.12A3.18,3.18,0,0,0,2201.9,1708.59Z"/><path class="cls-18" d="M2105.66,1963.57c9.28-3.41,19.05.66,25.83,8.48,1,1.2,2.23,1.21,3.48.17.49-.42,1.25-1,1.77-1.56,1.31-1.35,1.22-3.16-.17-4.67-9.09-9.86-19.67-14.76-31.89-10.91-1.87.59-1.67,1.9-1.76,3.61a12.16,12.16,0,0,0,.36,2.56C2103.6,1962.7,2104.24,1964.09,2105.66,1963.57Z"/><path class="cls-18" d="M2201.21,1627.6h0c-.5-2.31-3.84-1.9-6.68-.8-6.11,2.36-8.39,8.53-10.45,14-1,2.54-.09,3.57,1.37,4.48h0c1.47.91,3.49,1.27,4.47-.71,2.12-4.28,2.36-10.38,7.44-12.76C2199.72,1630.71,2201.72,1629.9,2201.21,1627.6Z"/><path class="cls-18" d="M2300.55,1634.88h0c-.11-1.53-2.29-1.52-4.2-1-4.13,1.05-6.13,4.85-7.95,8.21-.84,1.57-.38,2.3.48,3h0c.85.7,2.12,1.09,2.92-.11,1.74-2.59,2.44-6.51,5.91-7.65C2299.31,1636.77,2300.67,1636.41,2300.55,1634.88Z"/><path class="cls-14" d="M2261.66,1782.52h0c-.9-.23-1.23-.67-.35-1.87,2.91-3.94,6-7.29,11.49-9.78,1.68-.76,2.82-.66,3.42-.1h0c.61.56.73,1.4-1,2.07-5.61,2.18-7.67,4.83-10.55,8.65A2.8,2.8,0,0,1,2261.66,1782.52Z"/><path class="cls-18" d="M2300.44,1898.52h0c-1.2,0-2.16.06-2.23-2.33-.56-18.69.32-25-16.53-33.22-2.16-1.06-.41-2.25.4-3h0c.81-.8,2.51-1.14,4.49-.05,15.48,8.52,15.54,19.83,15.94,36.46C2302.56,1898.46,2301.64,1898.57,2300.44,1898.52Z"/><path class="cls-19" d="M3633.72,1225.3c-2.34,1.16-5-.47-7.1-2.08a143.37,143.37,0,0,1-14.51-13.14,23.09,23.09,0,0,0,1.5,5.85q-3.3-3.65-6.51-7.36c.51,7.19,4.54,13.47,10,18.37-6.21-4.6-12.12-9.56-16.92-15.59a40,40,0,0,0,10.94,19.28,58.36,58.36,0,0,1-6.19-5.88c-4-4.43-7.08-9.81-7.84-15.7a36.32,36.32,0,0,0,13.47,28,27.83,27.83,0,0,1-17.59-17.19c-.3-2.38-.42-4.8-.54-7.19a9.29,9.29,0,0,0,.16,6c.12.39.24.78.38,1.17a31.2,31.2,0,0,0,2,8.21c-2.79-6.14-4.41-12.63-3.72-19.29.35-3.44,1.32-6.8,1.75-10.23a48.45,48.45,0,0,0-.66-14.16,93.45,93.45,0,0,0-12.07-32.49c-.61-1-1.82-2.63-2.86-4.32a150.06,150.06,0,0,1,3.22,42.6,151.72,151.72,0,0,1-5.61,34.28c1.27,35.62-9.86,69.44-1.49,104.71,1.11,4.71-.72,5.71-5.08,6.94-6.6,1.87-19,3-26.09,3.56-2.7.21-4.57-.48-5.61-1.94a9,9,0,0,0,1.28-.37c4.73-1.7,5.17-3.56,2.29-8.46a28.37,28.37,0,0,1-3.25-8.81c1.53-15.21,3.39-30.84,4.76-46.41q-2.25,1.68-4.62,3.23c.93,13.5-2.81,30.12-.14,43.18-.44,4.45-.86,8.87-1.23,13.23a6.57,6.57,0,0,0,.91,4.41c-6.89,1.59-17.34-2.13-23.57-.11-4.61,1.48-9.42,3.66-9-2.85,1.4-19.28,8.66-29.35-7.61-41.26-18.75,4.41-39.87,6.18-62.55,6.32-.55,12.1-1.27,24.84,4.19,34.25,2.08,3.56.17,7.38-5,7.13-8-.39-17.87,2.67-25.06,2.09-4.63-.38-6.7-3-6-7.53,1.9-12.77,1.58-25.36.83-38a152.88,152.88,0,0,1-31.21-8.11c-1.77,15.49-3.75,27.82,3.21,48.88,1.87,5.65-1.58,7.24-6.5,7-7.46-.43-18.13-.61-25.35-1.38-4.77-.51-6.44-.09-6.25-6.18,1-30.34,2.42-52.17-12.11-80.1-20.38-23.06-30.81-55-27.14-94.08,3.44-36.49,16.92-61.31,37.39-77.52-25.56-13.28-41.48-43.13-40.47-74.34A86.78,86.78,0,0,1,3312.24,962c-12.13,4.84-26.38,8.84-32.45,10.94s-20.57-5.42-31.67-9.38c-7.24-2.59-13.29,0-13.4-5-.29-12.65,37.65-32.76,49.53-35.21,9.48-2,38.7,12,45.5,22.24a63,63,0,0,1,43-10.18,84.54,84.54,0,0,1,10.42,1.93c4.87-13.45,25.8-30.19,35-34.26,11.54-5.11,65.44-10.63,69.26,3.91,1.81,6.9-10.4,13.87-19.35,21.45-9.91,8.4-17,17.27-22.18,21.69-4.31,3.67-15.64,6-27.56,6.42a80.74,80.74,0,0,1,24.92,62.9c-.76,15.25-5.2,29-12.69,40.37,5.22,0,10.53,0,15.9.25,62.35,2.38,113.61,26.76,129.39,81.66,1.12-1.43,4.39,5,5,6.14a95,95,0,0,1,9,21.13c.84,2.93,1.54,5.9,2.6,8.75,1,2.67,2.28,5.21,3.35,7.85s1.85,5.13,3,7.58a44,44,0,0,0,9.34,12.08C3616,1212.84,3624.85,1219.09,3633.72,1225.3Z"/><ellipse class="cls-15" cx="3328.65" cy="1005.11" rx="24.63" ry="18.09" transform="translate(2208.78 4296.92) rotate(-88.01)"/><ellipse class="cls-15" cx="3391.74" cy="998.24" rx="26.13" ry="19.6" transform="translate(2276.55 4353.35) rotate(-88.01)"/><ellipse class="cls-20" cx="3392.06" cy="1003.53" rx="20.86" ry="19.1" transform="translate(2271.57 4358.78) rotate(-88.01)"/><ellipse class="cls-20" cx="3327.95" cy="1010.61" rx="19.1" ry="17.59" transform="translate(2202.61 4301.54) rotate(-88.01)"/><ellipse class="cls-15" cx="3328.53" cy="1015.66" rx="6.53" ry="5.28" transform="translate(2198.12 4306.99) rotate(-88.01)"/><circle class="cls-15" cx="3334.4" cy="998.77" r="2.51"/><circle class="cls-15" cx="3325.77" cy="1000.98" r="2.01"/><ellipse class="cls-15" cx="3390.33" cy="1010.01" rx="7.79" ry="6.03" transform="translate(2263.42 4363.3) rotate(-88.01)"/><circle class="cls-15" cx="3395" cy="991.32" r="2.51"/><circle class="cls-15" cx="3385.54" cy="995.77" r="1.76"/><path class="cls-21" d="M3308.5,946.19c-5.61-2.09-11.1-5.4-17.08-5-8.44.58-14.56,8.27-22.5,11.21-4.11,1.52-8.57,1.7-13,1.88,1.05,2.58,4.13,3.75,6.92,3.79s5.54-.75,8.32-.74c4.88,0,9.5,2.4,14.38,2.47,8.58.13,16-6.85,24.54-7.14,2.06-.07,11.78,1.13,10-2.82C3319.07,947.59,3310.69,947,3308.5,946.19Z"/><path class="cls-21" d="M3422.53,923.84c6.91-2.83,14.4-3.87,21.71-5.42s14.72-3.75,20.52-8.45c1.56-1.26,3.08-2.74,5-3.15s4.44.91,4.3,2.91c-.17,2.35-3.22,3-5.4,3.92-4.72,2-6.79,7.36-9.3,11.83-3.07,5.47-7.77,10.42-13.85,12-3.29.84-6.74.64-10.13.76a53.47,53.47,0,0,0-18,3.8c-4.92,2-15.45,2.46-10.52-5.45A33.13,33.13,0,0,1,3422.53,923.84Z"/><path class="cls-17" d="M3409.3,985.42a6,6,0,0,0,7.8,1.64"/><path class="cls-17" d="M3406.41,980.15a4.71,4.71,0,0,0,6.8-.66"/><path class="cls-17" d="M3402.06,974.93a5.3,5.3,0,0,0,6.26-5.36"/><path class="cls-17" d="M3395.74,971.92a7.24,7.24,0,0,0,4.94-7.1"/><path class="cls-17" d="M3387.29,972.19a6.69,6.69,0,0,0,4.38-8.15"/><path class="cls-17" d="M3380.64,976.31a9.37,9.37,0,0,0,1.17-8.22"/><path class="cls-17" d="M3376.06,982.37a9.41,9.41,0,0,0-2.41-6.75"/><path class="cls-17" d="M3343.48,989.75a15.14,15.14,0,0,1-.59-9.54"/><path class="cls-17" d="M3337.71,983.17a11.83,11.83,0,0,1-2.91-9.21"/><path class="cls-17" d="M3329.41,979.88a8.43,8.43,0,0,1-1.72-7.67"/><path class="cls-17" d="M3324.55,981.06a5.15,5.15,0,0,1-4.85-2.21,11.11,11.11,0,0,1-1.81-5.25"/><path class="cls-17" d="M3319.43,983.73a13.49,13.49,0,0,1-5-.76,7.8,7.8,0,0,1-4.53-5.25"/><path class="cls-17" d="M3314.81,988.74a7.62,7.62,0,0,1-9.7-.87"/><path class="cls-17" d="M3312.61,994c-3,1-6.35,1.94-9,.35"/><path class="cls-17" d="M3410.79,991.47a5.19,5.19,0,0,0,7.38.58"/><path d="M3375.92,1050.66c-.1,2.31-1,4.78-3.65,4.75s-4.28-2.81-4.11-5.23,1.88-4.84,4.56-4.68S3376,1048.35,3375.92,1050.66Z"/><path d="M3551.12,1097.54a2.41,2.41,0,0,1-1.95-1.57c-20.41-19.6-46.52-31.12-74.7-33.91l-26-2.58c-2.76-.27-5.29.11-8.06-.1-5.14-.4-9.13,5.08-9.33,10.23s2.19,10,4.11,14.79a87.76,87.76,0,0,1,4.58,15.41c.7,3.45,1.19,7,2.54,10.24,4.17,10,16,16.38,17.4,27.17.44,3.28-.18,6.62.05,9.92.36,5.15,2.73,9.89,4.49,14.74a102.31,102.31,0,0,1,4.74,21.29c.92,6.75,2.4,14.73,8.63,17.5,4.74,2.1,10.8.28,15.05,3.24a37.67,37.67,0,0,1,3.66,3.49,13.64,13.64,0,0,0,13.26,2.82c6.13-10.39.67-24.35,5.57-35.37,3.11-7,9.85-11.58,14.51-17.65a35.05,35.05,0,0,0,7.16-20.42c.11-5.08-.86-10.3.54-15.19,1.44-5.06,5.22-9,8.51-13.16,2.18-2.71,5.62-5.55,6.64-8.83C3552.49,1099.59,3551.19,1097.56,3551.12,1097.54Z"/><path d="M3304.94,1221.76c2,.62,3.29,1,5.08-.19a59.33,59.33,0,0,0,4.93-4.06,23.73,23.73,0,0,1,15-5.22,2.58,2.58,0,0,1,1.26.23c.69.4.89,1.29,1.13,2,1.59,5.2,7.75,8,13.13,7.19s10-4.3,13.69-8.28,6.81-8.51,10.76-12.24c3.62-3.4,7.88-6.07,11.45-9.52s6.51-8,6.36-13a15.56,15.56,0,0,0-4.33-9.72,35.4,35.4,0,0,0-8.63-6.52,45.89,45.89,0,0,0-5.76-2.94c-2.75-1.13-5.84-2-7.75-4.25-2.89-3.47-1.85-8.59-1.56-13.1a33.39,33.39,0,0,0-.7-9.19,10.28,10.28,0,0,0-2.42-5.24c-2.73-2.73-7.19-2.29-10.87-3.48a31.08,31.08,0,0,1-5.58-2.82,60.07,60.07,0,0,0-12.72-5.45,8.62,8.62,0,0,0-4.59-.43A15.16,15.16,0,0,0,3320,1117a12.5,12.5,0,0,1-8.64,1c-6.91,12-10.5,26-12,39.7s-.94,27.62.43,41.37C3300.55,1207.37,3301.82,1214,3304.94,1221.76Z"/><path class="cls-17" d="M3431.67,1076.45v.3"/><path class="cls-22" d="M3337.67,1330.78l12.39,3a9.61,9.61,0,0,0,2.66.38,14.21,14.21,0,0,0,2.86-.63,29.41,29.41,0,0,1,7.8-.55c3.2.06,7.7-1,10.9-.91.39,3.28,3.1,7.18,2,10.33-.84,2.41-4.2,3.25-7,3.27a27.27,27.27,0,0,1-6-.64c-1.36-.31-2.84-.71-4.12-.2-.07-1.83-1.53-.11-2.33-1.8-.79.39-.57-2.76-1.35-2.36a10.65,10.65,0,0,1-4.67,4,11,11,0,0,1-4.58.5,17.59,17.59,0,0,1-7-1.18,2.62,2.62,0,0,1-1-.73,2.69,2.69,0,0,1-.41-1.19C3337.18,1338.42,3338,1334.42,3337.67,1330.78Z"/><path class="cls-22" d="M3415,1330.76l18.28-2.53c1.53-.22,3.31-.36,4.42.72a35.43,35.43,0,0,0,2.52,9.44c-2.63,3-6.94,3.94-10.95,4s-8-.65-12-.08c-3,.43-6.05,1.57-9,.78a8.21,8.21,0,0,1-5.35-5.14c-1.17-3.22-1.13-6.26,1.68-7S3412,1331.18,3415,1330.76Z"/><path class="cls-22" d="M3505.8,1329.91a16.14,16.14,0,0,1-.74,3.72,4.31,4.31,0,0,0,.51,3.64,4.81,4.81,0,0,0,3.7,1.29c1.38,0,2.75,0,4.12-.13,3.24-.19,6.78-.51,9.08-2.79a2.69,2.69,0,0,1,.69-.57c1.09-.51,2.05.84,2.84,1.75,2.07,2.39,5.69,2.4,8.85,2.23a1.67,1.67,0,0,0,1.09-.32,1.63,1.63,0,0,0,.39-.94,17.77,17.77,0,0,0-.07-6.38,2,2,0,0,0-.41-1,2.22,2.22,0,0,0-1.64-.51l-20.43-.68C3511.25,1329.12,3508.32,1329.74,3505.8,1329.91Z"/><path class="cls-21" d="M3385.59,1048.65c-.06,3.4-2.15,5.61-1.8,8.9.29,2.64,2,4.5,1.68,7.2-.41,3.83-3.25,6.4-6.75,8.16-12.36,6.19-27,5.65-38.32-2.55-2.56-1.86-4.3-4-4.6-7.07-.18-1.77.57-3.12.94-4.94.78-3.85-.89-6.76-.64-10.82,1.1-18.33,13.85-7.71,25.91-8C3372.68,1039.33,3385.93,1032,3385.59,1048.65Z"/><path class="cls-22" d="M3535.53,1337.83c1.26.32,2.24,1.33,3.46,1.76,2.47.87,5-.75,7.48-1.63,5.07-1.79,10.68-.41,16-.92a22.73,22.73,0,0,0,10.9-4,2.22,2.22,0,0,0,1.06-1.3,2.45,2.45,0,0,0-.16-1.13l-1.18-3.68c-.66-2.07-1.54-4.38-3.55-5.22-1.69-.7-3.62-.09-5.36.5-6.52,2.2-13.3,4-20.24,3.64-3.23-.17-4.77-1.38-6.41,1.38C3536.15,1329.56,3536.6,1334.94,3535.53,1337.83Z"/><path d="M3349.88,1048.65c-.08,1.57.58,4.14-1.69,4.22s-3.56-2.61-3.48-4.34,1.78-4.18,3.83-3.94S3350,1047.07,3349.88,1048.65Z"/><path d="M3371.76,1048.42c.07,1.64-.3,4.75-2.59,4s-2.6-1.8-2.85-5.18,3.68-3.22,5.12-2.87S3371.69,1046.77,3371.76,1048.42Z"/><path class="cls-15" d="M3431.65,1022.91h0c1,.47,1.7.76,2.62-1.1,7.35-14.77,4.68-22.61-2.8-36.32-.94-1.72-1.69-1.5-2.68-1h0c-1,.48-1.84,1.17-1,2.8,7,13,9.83,18.73,2.8,32.8C3429.75,1021.85,3430.62,1022.44,3431.65,1022.91Z"/><path class="cls-15" d="M3287.43,934.39c-17.15,2-9,8.53-20.55,13.44-2.23.95-2.85.35-3.54-.81h0c-.69-1.15-1-2.2,1.09-3.07,10.88-4.5,2.22-11.39,23.76-14.54,4.15-.61,3.73.6,3.27,2.5h0C3291,933.82,3290.74,934,3287.43,934.39Z"/><path class="cls-15" d="M3409,922.73c9.44-12.43,20.24-11.68,34.81-10.41,2.84.24,3.54-1,3.71-2.82h0c.17-1.85.07-3.25-3-3.54-15.7-1.5-28-2.4-38.67,10.59-2.08,2.53-2,3.48-1.05,5.65h0C3405.76,924.37,3407.17,925.15,3409,922.73Z"/><path class="cls-15" d="M3567.54,1175.3h0c-1.31,0-2.45.49-2.54-2.35-.62-21.68,3.65-27.71-10.53-46.58-1.85-2.47,1.05-2.67,2.52-2.8h0c1.47-.13,3.87,1.66,5.52,3.6,12.58,14.84,7,27.1,7.38,45.37C3569.93,1174.93,3568.86,1175.28,3567.54,1175.3Z"/><path class="cls-15" d="M3378.76,1044.91c-2.59-4.82-11.09-1.78-16.19-1.64-.75,0-1.53-.26-1.53-1.25h0c0-1,.44-1.17,1.39-1.2,6.36-.22,14.44-3.06,18.41,2.64.59.85.32,1.17-.38,1.81.07.11.07.09,0,0C3379.77,1045.91,3379.15,1045.63,3378.76,1044.91Z"/><path class="cls-23" d="M1035.37,1261.58c-14.66,2-28.71,3.6-42,5.2a88.58,88.58,0,0,0,15.2-53.3c-1-29.81-23.47-50.49-13.19-80.82,2-6,5-11.68,6-17.89,1.45-8.36-.59-16.88-2.65-25.11q-3.84-15.32-7.82-30.61c-1-3.72-4-8.45-7.4-6.66a6.57,6.57,0,0,0-1.76,1.61,327,327,0,0,0-31.35,43.69c-4.43,7.39-7.66,16.89-12.88,23.64-5.58,7.2-9,4.24-18.49,4.31-11.17.07-14.88,3.64-21-5.79-5.43-8.32-12.23-16.82-16-26-2.75-6.75-3.77-14.57-8.87-19.77-4.55,1-7.64,5.33-9.38,9.66s-2.59,9-4.91,13.11c-1.63,2.82-3.58,14-4,17.21-1.52,12.66-1.69,11.29-.51,21.27,1.89,16-3.95,25.13-10.38,39.58a91.41,91.41,0,0,0-7.45,43.7c2.76,37.78,25.4,67.93,57.72,79.4l-9.13,61.09c-.51,37.49,11.67,55.28,46,74.47,33.74,18.85,68.38,22.42,99.38,23.81,13.29.6,29.5-.7,41-8.61,10.08-6.91,20.08-1.36,29.89,0,35,4.86,40.36-.3,56.65-5.48,13.19-4.2,26.93-12.08,40.59-35.4a65.41,65.41,0,0,0,6.18-14C1225.28,1326.61,1123.4,1249.56,1035.37,1261.58Z"/><path class="cls-17" d="M881.9,1191.37a6.8,6.8,0,0,1-1.89-8.16"/><path class="cls-17" d="M876.4,1186.77a4.82,4.82,0,0,1-3.39-6.21"/><path class="cls-17" d="M868,1184.61a6.8,6.8,0,0,1-4.39-5.69"/><path class="cls-17" d="M862.22,1184.35a11.21,11.21,0,0,1-7.29-5.37"/><path class="cls-17" d="M857.94,1187.26a6.41,6.41,0,0,1-8.66-2.21"/><path class="cls-17" d="M852.91,1191.86a7.59,7.59,0,0,1-9-1.82"/><path class="cls-17" d="M912.57,1187.19c.5-1.55,1.52-2.87,2.12-4.38s.66-3.44-.53-4.54"/><path class="cls-17" d="M926.07,1171.74a7.35,7.35,0,0,1-3.57,7.84"/><path class="cls-17" d="M930.43,1179.7a6.19,6.19,0,0,0,4.94-7.23"/><path class="cls-17" d="M936.87,1181.75a4.85,4.85,0,0,0,4.8-1.9,14.27,14.27,0,0,0,2.25-4.95"/><path class="cls-17" d="M940.75,1184.47c1.42,1.13,3.62.67,5-.55a11.72,11.72,0,0,0,2.71-4.66"/><path class="cls-17" d="M944.25,1188.71a5.38,5.38,0,0,0,4.39,3,4.94,4.94,0,0,0,4.61-2.54"/><path class="cls-23" d="M1187.86,1333.28c17.58,3.19,30.35,18.65,38.39,34.61s13.1,33.57,23.6,48c10.93,15.08,27,25.66,43.88,33.61,21.2,10,45.71,16.35,68,9.21-3.43-1.44-1.48.63-4.72-1.21-26.9-15.24-52.86-34.61-67.34-61.93-5.39-10.16-9-21.15-13.75-31.66-10.91-24.3-27.9-46.18-50.11-60.87s-49.81-21.8-76.08-17.44l-7.14,1.21"/><path class="cls-24" d="M1161.19,1519.68a34.36,34.36,0,0,1-11.94-1.88,23.81,23.81,0,0,1-11.65-9.41,18.34,18.34,0,0,1-2.75-14.23c1.22-5,5.61-9.31,11.19-10.91,4.69-1.35,9.13-.5,12.24,2.31,7.94-25.78-1.33-38.25-5.7-42.42-4.08-3.91-9.38-6.29-14.51-8.6-2.3-1-4.68-2.11-6.93-3.31-23.47-12.5-35.51-43.12-26.84-68.25l.48.17c-8.59,24.9,3.34,55.25,26.6,67.63,2.23,1.2,4.61,2.26,6.9,3.3,5.17,2.32,10.51,4.73,14.65,8.69,5.14,4.91,8.09,11.7,8.75,20.19.7,8.87-1.27,17.48-3,23.14l-.12.4-.3-.29c-3-2.91-7.37-3.82-12-2.47-5.41,1.55-9.66,5.69-10.84,10.54-1.92,7.92,2.91,19,14.08,23,4.71,1.71,10.22,2.21,17.34,1.58a41.38,41.38,0,0,0,17.08-5.17c5.51-3.26,8.83-7.73,9.6-12.93.68-4.57-.75-9.16-2.12-13.6-1.32-4.23-2.67-8.6-2.27-13s2.53-8.45,4.57-12.35c.27-.51.54-1,.8-1.53,11.15-21.57,14-44.9,7.73-64l.48-.16c6.28,19.25,3.45,42.73-7.75,64.41l-.81,1.54c-2,3.85-4.11,7.84-4.51,12.16s.94,8.65,2.24,12.83c1.39,4.5,2.84,9.14,2.14,13.83-.79,5.35-4.19,9.94-9.84,13.29a41.94,41.94,0,0,1-17.3,5.23Q1163.83,1519.68,1161.19,1519.68Z"/><path class="cls-23" d="M1104.54,1363.06c-8.63,25,3.34,55.5,26.72,68,7.27,3.87,15.55,6.25,21.5,11.94,11,10.56,10.2,28.5,5.64,43.08-7.15-7-21-1.51-23.31,8.19s4.86,19.93,14.24,23.35c5.54,2,11.59,2.11,17.45,1.59,11.68-1.05,25.19-6.71,26.91-18.31,1.33-9-5.22-17.61-4.38-26.65.45-4.94,3.06-9.38,5.34-13.79,10.16-19.66,14.6-43.16,7.74-64.21"/><path class="cls-25" d="M876.83,1109.31c-3.71-5.62-6.75-9.54-7.36-16.25-1.58,5-3,7.71-2.68,13a71.13,71.13,0,0,0,1.05,7.23c1.09,6.74,1.35,11.62.11,18.33,3.26-1.89,6.35-1.46,9.88-2.76,2-.75,9.22-1.53,10.38-3.08C890.12,1123.18,878.69,1112.12,876.83,1109.31Z"/><path class="cls-25" d="M969.31,1103c4.22-6.19,7.25-13.1,10.26-20,2-4.61,2.89-6.63,4.91-11.25.63,5.82,2.41,9.07,2.33,14.93-.06,4.23-.5,8.46-.47,12.7,0,4,.45,8,.2,12-.39,6.13-2.37,12-4.33,17.85-.19.59-2.28,1.94-2.8,2.29s.63-.39,0-.46c-8.29-.89-18.72-5.38-24.54-11.42-.27-.28-1.66-1.9.86-3.48a42.33,42.33,0,0,0,5.16-3.67A47.62,47.62,0,0,0,969.31,1103Z"/><ellipse class="cls-15" cx="867.4" cy="1208.33" rx="19.51" ry="24.83"/><ellipse class="cls-15" cx="927.94" cy="1204.03" rx="21.03" ry="25.33"/><circle cx="927.69" cy="1211.63" r="18.75"/><circle cx="867.4" cy="1215.17" r="17.73"/><ellipse class="cls-15" cx="925.15" cy="1214.41" rx="4.81" ry="6.08"/><ellipse class="cls-15" cx="932.5" cy="1204.53" rx="2.53" ry="3.8"/><ellipse class="cls-15" cx="937.57" cy="1209.85" rx="1.01" ry="1.52"/><ellipse class="cls-15" cx="863.35" cy="1217.2" rx="3.8" ry="5.83"/><ellipse class="cls-15" cx="871.45" cy="1206.81" rx="1.77" ry="3.04"/><circle class="cls-15" cx="876.01" cy="1212.13" r="1.27"/><path class="cls-25" d="M948.58,1259.33c1.72,17.91-22.92,24-38.06,24.91s-48.22-7-47.15-26,34.48-17.55,47.71-17.55S946.86,1241.42,948.58,1259.33Z"/><path d="M874.8,1251.76c2.74-1.22,5.56-2.46,8.56-2.59s6.25,1.14,7.62,3.81c-1.68,2.62-5.89,2.88-7.2,5.71a8.92,8.92,0,0,1-1,2.35c-1.18,1.29-3.41.49-4.61-.79s-2-3-3.61-3.77c-1.11-.56-2.6-.68-3.15-1.79-.69-1.37.8-2.93,2.3-3.26s3.11,0,4.56-.56"/><path d="M908.28,1252.36l-.12-.23a214.4,214.4,0,0,1,25.16-11.84l.09.24A213.91,213.91,0,0,0,908.28,1252.36Z"/><path d="M911,1259.77l-.09-.24a119.07,119.07,0,0,1,27-6.39l0,.25A119,119,0,0,0,911,1259.77Z"/><path d="M933.89,1271.67a105.56,105.56,0,0,1-24.09-2.78l.06-.25a105.54,105.54,0,0,0,25.29,2.77v.25Z"/><path class="cls-26" d="M992.48,1196.42h0c-1.81.34-3.2-.46-3.45-3.05-1.14-12-5.73-19.52-16.37-25.14-2.3-1.21-2.32-2.64-1.48-4.16h0c.84-1.53,1.78-2.3,4.48-.92,12.47,6.37,17.65,15.24,19.3,29C995.32,1195.18,994.3,1196.08,992.48,1196.42Z"/><path class="cls-26" d="M885.86,1111.93h0c-1.11.49-1.8.74-3.53-1.55-6-7.93-9.68-15.69-10.55-25.55-.25-2.85,1-2.21,2.27-1.82h0c1.33.39,2.33,1.12,2.58,3.89.87,9.56,3.9,14.45,9.84,21.75C888.19,1110.76,887,1111.43,885.86,1111.93Z"/><path class="cls-26" d="M950.19,1109.08h0c.84,1.25,2,1.87,4.15.16a62,62,0,0,0,19.79-28c.88-2.62.1-4-1.49-4.34h0c-1.59-.32-3.19.63-3.93,3-3.1,9.9-9.71,18.21-17.48,24.75C949.39,1106.19,949.35,1107.82,950.19,1109.08Z"/><path class="cls-26" d="M1131.83,1306.13c-22.71-19-38.82-28.67-69.62-25-3.28.39-4.09-.78-4.36-3.43-.53.1-.36,0,0,0-.26-2.65-.36-3.12,3.16-3.55,33.16-4,50.71,6.23,75.39,26.53,2.62,2.16,2.26,3,.7,5h0C1135.54,1307.69,1134.25,1308.15,1131.83,1306.13Z"/><path class="cls-25" d="M1151.31,1290.72a20.52,20.52,0,0,1,25.4-14.15"/><path class="cls-25" d="M1161.07,1294.44c5.39-4.21,11-8.38,17.55-10.42a30.7,30.7,0,0,1,17.61-.18"/><path class="cls-25" d="M1184.32,1299.38c4.43-1.29,8-4.58,12-6.85a28.64,28.64,0,0,1,25.37-1.19"/><path class="cls-25" d="M1199.46,1307.26c3.87-.87,7.29-3.06,10.91-4.67a39.31,39.31,0,0,1,38.65,4.32"/><path class="cls-25" d="M1225.13,1321l9.13-1.85a48,48,0,0,1,8.91-1.24c9.66-.13,18.39,5.42,26.18,11.12"/><path class="cls-25" d="M1238.69,1332.38c5,.79,10.15-.08,15.22.13a36.14,36.14,0,0,1,25.11,11.87"/><path class="cls-25" d="M1250.86,1346.16c7.13,1.44,14.29,2.89,21,5.6s13.11,6.76,17.47,12.57"/><path class="cls-25" d="M1259.31,1359.54a84.06,84.06,0,0,1,36.46,18.18"/><path class="cls-25" d="M1268.55,1375.15c2.7,2.22,6.61,1.8,10,2.53,8.92,1.92,14.28,11.7,23,14.33"/><path class="cls-25" d="M1277.25,1391c2.54,1.71,5.93,1.33,8.82,2.36a14.84,14.84,0,0,1,4.81,3.11c3,2.69,5.58,5.87,8.59,8.57s6.66,5,10.7,5.27"/><path class="cls-25" d="M1287.85,1408.74a66.39,66.39,0,0,1,12.29,6.25c4,2.63,7.81,5.69,12,8s9.08,3.89,13.84,3.14"/><path class="cls-25" d="M1307.27,1430.62a115,115,0,0,0,24.19,8.81c4.39,1.06,9.25,1.8,13.22-.35"/><path class="cls-25" d="M1316.77,1443.89a37.23,37.23,0,0,0,18.5,4.41,63.34,63.34,0,0,0,18.87-3.41"/><path class="cls-25" d="M1334.39,1451.42c-.2.52.47.93,1,1.1,4.75,1.48,9.54,3,14.49,3.41s10.14-.21,14.39-2.79"/><path class="cls-25" d="M1340.41,1458.43c5.82,3.14,12.9,2.15,19.42,1.07,3.24-.53,7-1.48,8.22-4.53"/><path class="cls-25" d="M1179.14,1320.84c4.22.72,8.06,2.84,11.8,4.93,4.92,2.75,10,5.6,13.5,10,5.33,6.66,6.32,15.92,5,24.35"/><path class="cls-25" d="M1217,1337c13.18,14.63,16.93,37.06,9.24,55.19"/><path class="cls-25" d="M1236,1366c5.11,6.7,4.56,16,3.46,24.37-.94,7.19-2.34,14.81-7.3,20.09"/><path class="cls-25" d="M1247.6,1381.3c1.9,4.11,3.83,8.33,4.24,12.84a31.39,31.39,0,0,1,0,5.31,85.9,85.9,0,0,1-8.11,30.68"/><path class="cls-25" d="M1259.53,1396.79a21.8,21.8,0,0,1,3.51,12.88,64.83,64.83,0,0,1-2,13.39l-2.7,12c-.41,1.83-.94,3.85-2.5,4.91"/><path class="cls-25" d="M1270.66,1412.63c1.81,8.64,3.62,17.47,2.58,26.24-.42,3.52-1.29,7-1.28,10.54s1.08,7.31,3.83,9.54"/><path class="cls-25" d="M1282.27,1422.54a32.06,32.06,0,0,1,5.93,18.73c0,4.53-1,9-.53,13.55a20.89,20.89,0,0,0,7.37,13.66"/><path class="cls-25" d="M1297.82,1436.73c-.22,4.55,2.5,8.77,2.86,13.31s-1.71,9.34-.34,13.75c1.16,3.72,4.5,6.31,7.87,8.27"/><path class="cls-25" d="M1310,1444.45c2.65,4,5.33,8.07,6.84,12.63.87,2.64,1.37,5.46,2.91,7.77,2.09,3.11,5.73,4.75,9.17,6.23"/><path class="cls-25" d="M1325.13,1453.8a19.39,19.39,0,0,0,13.27,17.37"/><path class="cls-25" d="M1332.19,1454.85a45.42,45.42,0,0,0,6,8.41,15.22,15.22,0,0,0,9,4.78"/><path class="cls-25" d="M1207,1326.15c6.36,4.83,10.33,12.38,11.74,20.24s.42,16-1.82,23.66"/><path class="cls-25" d="M1217.48,1314.7c2.15-2.12,5.09-3.22,8-4.1,8.54-2.6,18.2-3.75,26.07.46,2.73,1.45,5.21,3.53,8.23,4.13"/><path class="cls-25" d="M1170.38,1305.69a31.68,31.68,0,0,1,3.62-6.25,13.7,13.7,0,0,1,3.7-3.62c3.38-2.06,7.78-1.6,11.33-3.35"/><path class="cls-25" d="M1175.61,1308.92c1.25,1.08,3.11.79,4.76.76,6.29-.15,11.78,4.14,16.1,8.72,2,2.17,4.06,4.65,4.38,7.61"/><path class="cls-25" d="M1171,1302.55a20.65,20.65,0,0,1,2.38-7,14,14,0,0,1,7.19-5.32,42,42,0,0,1,8.91-1.78"/><path class="cls-25" d="M1199.74,1307.42c1.78-4.45,5.86-7.68,10.3-9.51s9.26-2.44,14-3"/><path class="cls-25" d="M1180.76,1297.39a24.39,24.39,0,0,1,21-10.43"/><path class="cls-25" d="M1177.19,1315.6c2.83.71,5.9-1,8.68-.16a9.81,9.81,0,0,1,3.35,2.22c2.66,2.36,5.36,4.78,7.07,7.9"/><path class="cls-25" d="M1182.31,1304.31l8.45-.74c3.15-.28,6.54-.66,8.86-2.8"/><path class="cls-25" d="M1194.63,1309.71a14,14,0,0,0,7.67,2.62,31.91,31.91,0,0,1,5,.14c4,.77,6.59,4.51,8.76,8"/><path class="cls-25" d="M1203.37,1319.41a14.42,14.42,0,0,1,8.48,5.17,43.16,43.16,0,0,1,5.29,8.62"/><path class="cls-25" d="M1219.19,1322.92c3.1-1,6.58-.23,9.41,1.4a35,35,0,0,1,7.38,6.39"/><path class="cls-25" d="M1226.05,1330.68a20,20,0,0,0-1.65,6.75,7.14,7.14,0,0,0,2.82,6.09"/><path class="cls-25" d="M1234.31,1344.26c1.94,2.13,1.71,5.37,1.6,8.25a52.42,52.42,0,0,0,1.17,13.16"/><path class="cls-25" d="M1243.08,1339.15a15.76,15.76,0,0,1,14.08,10.31"/><path class="cls-25" d="M1240.3,1329.41a52.25,52.25,0,0,1,15.54,1.91"/><path class="cls-25" d="M1249.4,1352a11.34,11.34,0,0,1,6.64,5.06,33.88,33.88,0,0,1,3.4,7.83l1.3,3.86"/><path class="cls-25" d="M1248.13,1359.36l2.34,8.05c.81,2.77,1.66,5.63,3.52,7.83,2.09,2.47,5.31,3.93,6.94,6.72"/><path class="cls-25" d="M1242.14,1360.13a45.15,45.15,0,0,0,7.27,18.65"/><path class="cls-25" d="M1260.1,1369.88c3.82-1,7.61,1.84,9.93,5a24.78,24.78,0,0,1,4.23,9.76"/><path class="cls-25" d="M1263.44,1375.86a9.43,9.43,0,0,1,2.91,5.28,35.1,35.1,0,0,1,.23,4.24c.24,4.91,2.23,9.54,4.18,14"/><path class="cls-25" d="M1255.16,1381.55a21.67,21.67,0,0,0,5.28,14.38"/><path class="cls-25" d="M1264,1398.87a8.56,8.56,0,0,1,3.74,5.79,25.43,25.43,0,0,1,.1,7.08l-.81,9.94"/><path class="cls-25" d="M1272.67,1388.76a19.85,19.85,0,0,1,5.2,11.24,59.52,59.52,0,0,1,.07,12.59"/><path class="cls-25" d="M1282.7,1399.48a26.83,26.83,0,0,0,16.39,8.88"/><path class="cls-25" d="M1277.51,1387.72a113.29,113.29,0,0,0,16.44,6.79"/><path class="cls-25" d="M1272.84,1371.81a25.21,25.21,0,0,1,16.59,9.42"/><path class="cls-25" d="M1256.71,1342.88a12.66,12.66,0,0,0,7.85,2.13,15.7,15.7,0,0,1,3.35-.14,9.57,9.57,0,0,1,2.79,1l4.89,2.39"/><path class="cls-25" d="M1254.66,1330.81c-.37.8.93,1.26,1.81,1.18l5.68-.5"/><path class="cls-25" d="M1285.07,1410a10,10,0,0,1,5.71,4.33,63.44,63.44,0,0,1,3.48,6.45,38,38,0,0,0,4.31,6.43c1.43,1.71,3.52,3.44,5.64,2.76"/><path class="cls-25" d="M1282.42,1414.49c.28,2.53-1.05,4.9-2.1,7.21a37.53,37.53,0,0,0-2.4,6.92c-.33,1.37-.39,3.18.89,3.78"/><path class="cls-25" d="M1285.53,1418.11c3.09,2.16,4.7,5.91,5.43,9.61s.74,7.51,1.42,11.22c.26,1.36.69,2.83,1.86,3.56"/><path class="cls-25" d="M1300.45,1432.39c.75,4.36,4.18,7.88,5,12.22.46,2.34.55,5.39,2.8,6.16"/><path class="cls-25" d="M1307.39,1440.72a16.93,16.93,0,0,0,12-.11"/><path class="cls-25" d="M1300.17,1419.64a10,10,0,0,0,5.29,5.51,25.77,25.77,0,0,0,7.56,2"/><path class="cls-25" d="M1309.3,1450.23c2.52,1.91,2.2,5.73,1.68,8.85s-.71,7,1.93,8.75"/><path class="cls-25" d="M1317.82,1448.69a8.08,8.08,0,0,0,5.27,3.73,24,24,0,0,0,6.61.43"/><path class="cls-25" d="M1268.68,1426c-.75,3.58-2.48,6.89-3.27,10.46s-.42,7.78,2.32,10.2"/><path class="cls-25" d="M1281.19,1435.15a34,34,0,0,0,.77,22.24"/><path class="cls-25" d="M1294.34,1443.89a25.24,25.24,0,0,0,1.9,12.32"/><path class="cls-25" d="M1297.89,1410.39l9.1,1.41"/><path class="cls-25" d="M1270.09,1358.47a15.11,15.11,0,0,1,8.63,4.5"/><path class="cls-25" d="M1147.13,1290a11.23,11.23,0,0,1,1.37-12.94"/><path class="cls-25" d="M1164.05,1288.23a18.36,18.36,0,0,1,12-6.93"/><path class="cls-25" d="M1235.11,1338a17.37,17.37,0,0,1,13.15,17.74"/><path class="cls-27" d="M1306.18,1433.9a22.9,22.9,0,0,0,3.56,5.82,7.74,7.74,0,0,0,6,2.72"/><path class="cls-28" d="M1306.54,1441.94c1.79,2.75,1.79,6.45,3.87,9,1.84,2.24,4.87,3,7.69,3.72"/><path class="cls-28" d="M1317.91,1443.83a14.53,14.53,0,0,0,12.91,10"/><path class="cls-28" d="M1318.4,1438a16.16,16.16,0,0,0,13.21,4.6"/><path class="cls-28" d="M1330.07,1447.74c2,1.67,3.08,4.23,4.49,6.46s3.61,4.36,6.24,4.2"/><path class="cls-28" d="M1300.39,1432.07a10.23,10.23,0,0,0,5.49,15.57"/><path class="cls-28" d="M1294.34,1440.06c-1,3.33-2,6.9-.93,10.22a9,9,0,0,0,6.18,5.92"/><path class="cls-28" d="M1304.85,1451.1a9,9,0,0,0,.86,7.5c1.35,2.18,3.56,3.65,5.7,5.06"/><path class="cls-28" d="M1321.61,1455.72a18.17,18.17,0,0,0,.55,6.37,6.21,6.21,0,0,0,4.37,4.3"/><path class="cls-28" d="M1339.47,1452.35c5.12-.49,10.92-1.36,13.8-5.62"/><path class="cls-28" d="M1318.31,1431.62c1.39,2.31,4.25,3.4,7,3.35a21.72,21.72,0,0,0,7.76-2.07"/><path class="cls-28" d="M1311.39,1429.56a11.87,11.87,0,0,0,14.64-.79"/><path class="cls-28" d="M1289,1440.53a8.57,8.57,0,0,0,4.85,13.81"/><path class="cls-28" d="M1350.87,1456.68a11.48,11.48,0,0,0,12.05,6.28"/><path class="cls-29" d="M885.25,1240.36c2.91-.19,5.34-2.51,6.53-5.17s1.38-5.65,1.55-8.56l.62-10.32"/><path class="cls-26" d="M1091.13,1411.42c-31.14-16.86-71.57-15-98.2-38.31-10.48-9.19-17.71-21.45-24.49-33.62s-13.43-24.66-23.1-34.69-23-17.48-36.92-16.7c-4.34.24-8.91,1.44-11.79,4.7-6.34,7.19-.83,18.13.49,27.64,1.48,10.58-2.83,21.16-2.6,31.85.25,11.39,5.58,22,10.86,32.06,11.67,22.32,24.74,45.61,46.61,58.1,4.83,2.75,9.19,7.79,14.69,7.85,4.12,0,8.89-.46,12.73,1,6.83,2.52,12.67,2.54,19.43,5.12,12.26,4.68,24.24,6.78,40.36,4.51,5.93-.83,10.9-3.66,16.77-4.85,7.48-1.52,13.88-6.42,21.26-8.33,16.72-4.33,42.88,12.92,57.07,1.57C1124.51,1434.4,1106.71,1419.86,1091.13,1411.42Z"/><path class="cls-23" d="M944.72,1401.55c2.85,10.87,12.51,18.29,19.68,26.94,9.21,11.14,10.56,27.83,11.21,42.27.18,3.87.75,7.77-3,8.61-13.68,3-12.8,1.71-19.26,8.11-5.91,5.86-3.71,20.66,2.45,26.26s15.05,7.07,23.38,7,17.26-1.86,22.29-8.35,4.49-15.93,2.82-24.12c-2.7-13.22-2.36-27.16-5.34-40.32s-9.21-26-4.79-38.73c3.51-10.14,10.36-18.9,13.62-29.13a45.3,45.3,0,0,0-4.93-37.62c-3.39-5.28-10.72-5-16.94-4.18s-11.94,3.8-17.38,6.93a48.5,48.5,0,0,0-9.31,6.46,41.64,41.64,0,0,0-6.85,9C943.92,1374.76,940.56,1385.69,944.72,1401.55Z"/><path class="cls-24" d="M978.63,1521c-10.12,0-17.86-2.38-23-7.07-3.45-3.14-5.86-9.39-6-15.55-.11-4.78,1.15-8.72,3.53-11.08,5.32-5.27,5.76-5.36,13.16-6.86,1.65-.34,3.7-.75,6.22-1.31,3.25-.73,3.08-3.8,2.89-7.36,0-.33,0-.67,0-1-.66-14.65-2.12-31.2-11.16-42.12-1.91-2.3-4-4.56-6.08-6.74-5.67-6-11.54-12.27-13.64-20.3-4.32-16.45-.47-27.51,7.65-41a42,42,0,0,1,6.89-9.06,48.68,48.68,0,0,1,9.35-6.5c5.35-3.07,11.1-6.13,17.47-7,6.59-.86,13.78-1,17.19,4.3a45.29,45.29,0,0,1,5,37.83c-1.69,5.31-4.39,10.31-7,15.14a95.33,95.33,0,0,0-6.62,14c-3.34,9.62-.61,19.12,2.28,29.18.89,3.07,1.8,6.25,2.52,9.41A163.32,163.32,0,0,1,1002,1469a179.35,179.35,0,0,0,2.48,19.25c1.43,7,2.69,17.16-2.87,24.32-4.28,5.52-11.84,8.36-22.49,8.45ZM945,1401.48c2.07,7.91,7.89,14.1,13.52,20.09,2.06,2.18,4.18,4.45,6.1,6.76,9.14,11,10.61,27.69,11.28,42.42,0,.33,0,.66,0,1,.19,3.47.38,7.06-3.29,7.88-2.53.56-4.58,1-6.23,1.31-7.4,1.51-7.69,1.57-12.9,6.73-2.28,2.26-3.49,6.07-3.39,10.71.13,6,2.48,12.13,5.83,15.18,5.16,4.69,13,7,23.2,6.94a41.14,41.14,0,0,0,12.27-1.75,19.77,19.77,0,0,0,9.83-6.5c5.43-7,4.18-17,2.77-23.91a178.07,178.07,0,0,1-2.48-19.3,161.94,161.94,0,0,0-2.86-21c-.71-3.15-1.62-6.32-2.5-9.38-2.92-10.14-5.67-19.72-2.28-29.49a96.81,96.81,0,0,1,6.65-14.07c2.6-4.81,5.29-9.79,7-15.06a44.8,44.8,0,0,0-4.91-37.4c-3.25-5.08-10.26-4.91-16.69-4.07s-12,3.86-17.28,6.9a47.91,47.91,0,0,0-9.27,6.43,41.72,41.72,0,0,0-6.8,8.95C944.52,1374.25,940.7,1385.21,945,1401.48Z"/><path class="cls-26" d="M902.92,1249.24c-5.1-3.36-10.23-2.67-17-2.85-2.22-.06-3.34-.46-3.91-1.47h0c-.57-1,.42-1.16,2.86-1.11,7.46.15,13.23-.21,19.52,3.24,2.05,1.13,2,1.51,1.46,2.21h0C905.31,1250,904.58,1250.34,902.92,1249.24Z"/><path class="cls-26" d="M859.17,1168.89c.14-.14.11-.16,0,0,1.22-3.4,4.57-5.87,5.38-8.12,3.05-8.49,3.45-7.5,10.29-11.86a3.27,3.27,0,0,0,1-4.82c.28-.12.19-.09,0,0-1.13-1.63-1.33-3.37-3.86-1-9.56,8.76-15.11,9.56-16.51,25.42C855.12,1172.65,858,1172.29,859.17,1168.89Z"/><path class="cls-26" d="M988.53,1345.33h0c-1.12-.72-4.7,0-7.37,1-10.3,3.7-13.84,10.66-18.9,17.65-1.32,1.81-1,2.8.31,3h0c1.33.16,1.82,1.15,3.85-1.66,7.88-10.85,11.6-9.4,22.49-16.72C991.73,1346.63,989.65,1346,988.53,1345.33Z"/><path class="cls-26" d="M1142,1416.93h0c-1.18,1.92-2.13,3.27-5.93,1.67-15.34-6.46-21.57-12.89-23.65-29.47-.52-4.11.67-4.22,2.84-4.83h0c2.17-.61,4.23-.18,4.62,3.22,1.59,13.68,7.27,19.4,20.31,23.74C1143.42,1412.34,1143.18,1415,1142,1416.93Z"/><path class="cls-30" d="M1121.53,1475a24.74,24.74,0,0,0-15.81,17.92,12.87,12.87,0,0,0,.55,8.21,11.25,11.25,0,0,0,7.58,5.67,24.79,24.79,0,0,0,9.71.06c3.87-.58,8.22-1.94,9.73-5.55,1.17-2.8.22-6.13,1.33-9,1.54-3.94,6.41-5.48,8.84-8.95,3-4.24,1.57-10,.06-14.94q-3-9.74-5.92-19.47c-6.49,3.33-13.08,4.18-20.16,5.13C1117.5,1455.9,1123.1,1474.46,1121.53,1475Z"/><path class="cls-23" d="M913.37,1467.11a5.67,5.67,0,0,1-1.26,2.62c-1.08,1-2.75,1.08-4.25,1.26-10.49,1.27-17,13.16-16.17,23.69a14.61,14.61,0,0,0,2.38,7.61,15.23,15.23,0,0,0,6.42,4.55c9.16,3.91,19.44,4,29.39,3.88,3.68,0,7.88-.36,10.1-3.29,1.34-1.77,1.61-4.11,1.74-6.33,1.26-21.86-6.39-43.4-6.11-65.29A7.69,7.69,0,0,0,935,1432a7.27,7.27,0,0,0-2.13-2.15c-7.46-5.66-15-12.68-23.11-17.16-1.95,5.8,4.81,18.38,5.62,25.15A77.92,77.92,0,0,1,913.37,1467.11Z"/><path class="cls-23" d="M1135.25,1447.31l7.28-1.7a76.09,76.09,0,0,0,2.7,18.92c1.32,4.78,3.09,9.94,1.23,14.53-1.24,3.07-.19,6.71-2.39,9.18s-4.67,11.22-5.07,11.14c-2.11-.41.24.16.69,2.27.79,3.71-2.5,7.32-6.19,8.23s-7.55-.15-11.16-1.32c-4.41-1.44-8.83-3.09-12.53-5.89s-6.62-6.91-7-11.53a12.77,12.77,0,0,1,19.41-12l-1.5-28.69c3.16,2,6.6,1.19,10-.4S1131.62,1448.16,1135.25,1447.31Z"/><path class="cls-31" d="M2530.39,1118.91a82.25,82.25,0,0,0-11.44-8,120.07,120.07,0,0,0,11.34,8.07A.39.39,0,0,1,2530.39,1118.91Z"/><path class="cls-31" d="M2497.9,1092.18c-2-6.34-1.14-13.58-1.38-19.82-1.41-36.94,10.4-63.13,46-68.93s57.09,25.13,53.67,55.72c-2.52,22.51-26.64,59.68-47.34,70.15.49,1.18,2,1.61,2.85,2.48a142.82,142.82,0,0,0,27.24,4.68,129.89,129.89,0,0,0,17.42-.3c-1.66,2.65-2.78,7.46-1.62,10.12,2.29,5.3-1,11.46,6,13.24,11.87,3,27.28-.92,39.11.71,6.94,1,8.36-1,13.09-4.54,3.76-2.78,2-7.82-.89-10.29-3.58-3.09-5.44-5.82-10.08-7.4-7.51-2.55-16.17-4.06-23.87-6.62,49.27-14.69,73.49-53.48,76-101.59,2.51-48.6-5.95-80-47.64-108.71,11.27-4.78,21.21-12.45,27.78-23.21A48.62,48.62,0,0,0,2681,864.5c-3.48-21.53-12.06-41.82-29.29-55.58,8.54-1.58,15.72-9.54,15.58-17.49-.21-11.41,3.18-29.23-11.25-21.7-9.47,4.93-20.45,9.28-21.84,19.93-.62,4.72,1.27,7.69,2.25,11.84a63.28,63.28,0,0,0-17.63-2.38,69.26,69.26,0,0,0-22,3.92c.8-4.1-.25-6.53,0-11,1-16.19-8.9-18.85-20.12-19.93-9-.88-14.33-4.08-19.51-3-1.08.23-1,.49-1.27,1.58-2.1,7.66,1.82,14.73,3,23.28,1.8,12.79,3.9,20.19,18.76,21.21-12.25,13.83-18,28.52-18.4,47.91-.06,2.71,2.83,14.21,4.21,18.19.18.52.64,2.92.9,3.49,2.1,4.65,4.28,18.93,5.18,21.91,2.87,9.46-8.21,22.64-11,24.73-14,10.6-22.33,20.72-32.93,31.42-18.91,19.1-34.26,42.71-38.71,68.45C2483.07,1054,2487.64,1072.77,2497.9,1092.18Zm145.75-169.87,1.29-.44A1,1,0,0,1,2643.65,922.31Z"/><path class="cls-32" d="M2472.85,1078.87c-.08-3.71-1.58-7.23-2.22-10.88s-.18-7.93,2.74-10.22"/><path class="cls-33" d="M2302.68,997.82c-6.36,16.42-5.06,17.28,7.57,3.56,11.59-12.6,16.53-28.63,27-40.9.5-.59-.65.7-.46.17,1.35-.32,4.15-3.25,5.46-5.52,6.85-11.84,13.84-19.56,28.36-21.21h.09c1.12.34,2.95.24,6.06-.24,6.53-1,25.77,1.56,34.85,14.81,8,11.63,12,19.44,15.2,59,1,11.79-3.09,47.93,9.74,67.52,14.69,22.43,47.57,27.84,67.89,30,4.16.43,6.6.52,8.08.26,3-.55,2-2.62,3.49-6.39.76-1.91-3.85-4.7-5.27-5.51-4.14-2.39-6.22-6.66-12.31-5.37l-.1,0c-18.45,4.07-41.34-23.32-43.18-39.65a27.6,27.6,0,0,1,.25-6.77c7.35-39.56,11.46-67.23-6.14-105.56-1.05-2.27-1.67-3.74-2.31-4.78a26.83,26.83,0,0,0-6.13-12.89c-3.66-4.17-4.89-5.46-8.53-8.16-.6-.45-2.38.25-1.48.81,1.32.82-26.15-16.64-53.79-9.76-1.66.42-2.9.81-3.85,1.14-1.66-.09-4,.94-7.82,2.89-20.58,10.53-29.31,21.73-41.65,38.63-1.93,2.64-2.54,4.09-2.44,5a3.55,3.55,0,0,0-2.23,2.23c-3.93,8.61-8.33,28.24-11.33,38.59C2306.79,992.94,2304,994.51,2302.68,997.82Z"/><path class="cls-32" d="M2478.23,1075a17,17,0,0,0,10.62,12.69"/><path class="cls-32" d="M2488.74,1087.93l.21-.58a16.72,16.72,0,0,1-10.42-12.45l-.6.11A17.36,17.36,0,0,0,2488.74,1087.93Z"/><path class="cls-32" d="M2494.76,1087.91a18.14,18.14,0,0,1-5.91-15.18"/><path class="cls-32" d="M2494.56,1088.14l.4-.46a17.79,17.79,0,0,1-5.81-14.92l-.6-.06A18.43,18.43,0,0,0,2494.56,1088.14Z"/><path class="cls-32" d="M2479,1083a23.7,23.7,0,0,1-3.42-15.21"/><path class="cls-32" d="M2469.93,1076.69c-2.55-.82-3.41-3.94-3.69-6.6a53.36,53.36,0,0,1,.37-13.54"/><path class="cls-32" d="M2458.62,1045.16a21.28,21.28,0,0,0,1.23,22.63C2461.27,1061.48,2454.87,1050.43,2458.62,1045.16Z"/><path class="cls-32" d="M2451.05,1052.2c-.07-4.77-.1-9.63,1.27-14.2s4.42-8.88,8.87-10.61"/><path class="cls-32" d="M2447.3,1036.64a24.4,24.4,0,0,1,15.58-19.56"/><path class="cls-32" d="M2446.45,1024.4a24.39,24.39,0,0,1,19.56-21.88"/><path class="cls-32" d="M2446.45,1008.77l3.84-8.81a16.27,16.27,0,0,1,3.05-5.16c4-4,10.91-2.87,16-5.48"/><path class="cls-32" d="M2448.31,995.54a66.26,66.26,0,0,1,4.37-11.39c1.51-3,3.45-6.15,6.58-7.46s6.7-.63,9.51-2.32"/><path class="cls-32" d="M2447.78,979.83c2.54-4.05,2.62-9.11,3.66-13.77s3.9-9.69,8.65-10.3"/><path class="cls-32" d="M2443.36,958.88a22.86,22.86,0,0,1,13.79-18.37"/><path class="cls-32" d="M2449.76,961.82c-.87-1.27,0-3,.95-4.22l9.85-13.64a2.17,2.17,0,0,1,2.12.5"/><path class="cls-32" d="M2454.33,984c-1.46-.71-1.18-2.87-.56-4.38a31.5,31.5,0,0,1,9-12.19c.66-.54,1.88-.92,2.16-.12"/><path class="cls-32" d="M2444.17,947.88a41.8,41.8,0,0,1,9.51-15.26"/><path class="cls-32" d="M2440.93,943.83l3.19-8.48a29.32,29.32,0,0,0,2.15-7.86,9.88,9.88,0,0,0-2.29-7.61"/><path class="cls-32" d="M2435.09,935.64c1.6-4.45,3.22-9,3.36-13.71s-1.42-9.75-5.15-12.65"/><path class="cls-32" d="M2432.74,923.8c0-4.27-.07-8.6-1.28-12.69s-3.73-8-7.57-9.85l-1.16,1.52"/><path class="cls-32" d="M2412.37,912.43a21.93,21.93,0,0,0-21.72-23.78"/><path class="cls-32" d="M2402.22,908.8c-.79-5.15-5.29-9.14-10.26-10.73s-10.33-1.17-15.49-.41"/><path class="cls-32" d="M2389.38,910c.43-3.5-2.18-6.86-5.43-8.23s-7-1.11-10.42-.37-6.8,2-10.3,2.43"/><path class="cls-32" d="M2380,910.46l-5.62-.79a38.62,38.62,0,0,0-10.56-.51c-3.5.48-7,2.08-9,5"/><path class="cls-32" d="M2398.31,904.9c-3.41.58-6.36-2.21-8.85-4.6s-6-4.77-9.17-3.3"/><path class="cls-32" d="M2424.52,916.18c1.55-1.63,1.31-4.36.08-6.24a15.25,15.25,0,0,0-5.15-4.26L2408.33,899"/><path class="cls-32" d="M2382.37,909.6a65.65,65.65,0,0,0-10.58-3.7l-8.83-2.54c-3.16-.9-7.25-1.51-9.12,1.2"/><path class="cls-32" d="M2371,915.88a64.22,64.22,0,0,0-12.69-2.38c-2.95-.15-5.91.1-8.85-.22-2.5-.27-5-1-7.5-.73s-5.14,1.76-5.63,4.23"/><path class="cls-32" d="M2357.59,923.45c-3.06-2.67-6.37-5.46-10.4-5.94a18,18,0,0,0-6.47.72,77.32,77.32,0,0,0-9.3,3"/><path class="cls-32" d="M2347.6,929.57c-3.34-3.68-9.15-3.47-14-2.36-4.68,1.09-9.5,2.95-12.37,6.8"/><path class="cls-32" d="M2338.42,939.45c-3.53-2.38-8.28-2.28-12.27-.79s-7.4,4.17-10.73,6.82"/><path class="cls-32" d="M2330.06,947.88l-6.12-.19c-3-.09-6.17-.17-9,.92-4.15,1.59-7,5.37-9.57,9"/><path class="cls-32" d="M2309.53,974.53c3.36-6.36,7.45-13.32,14.38-15.24-1.92,1.9-6.35-.83-8.86.14C2310.56,961.17,2310.6,969.83,2309.53,974.53Z"/><path class="cls-32" d="M2320.64,979.31c-4.13.4-8.34.81-12.15,2.46s-7.21,4.79-8.09,8.84"/><path class="cls-32" d="M2313.93,991.58c-4.77,1.26-9.79,2.65-13.25,6.17-2.82,2.87-4.25,6.8-5.5,10.63"/><path class="cls-32" d="M2307.25,1003.23c-6.58.64-11.88,7.46-10.87,14"/><path class="cls-32" d="M2311,984.46c.53,1.07-.62,2.18-1.63,2.82L2297,995.22"/><path class="cls-32" d="M2307.48,997.57a24,24,0,0,1,4.13,9.82c.14.83-.56,2.11-1.13,1.49"/><path class="cls-32" d="M2313.66,987.92a28.63,28.63,0,0,1,3.4,8.1c.56,2.89.11,6.12-1.87,8.3l-.76-3.24"/><path class="cls-32" d="M2321.38,979.59a20.82,20.82,0,0,1,3,14.91"/><path class="cls-32" d="M2327,970.15a17.4,17.4,0,0,1,2.73,17.17"/><path class="cls-32" d="M2492.62,1098.3a7.73,7.73,0,0,1-9.9,10"/><path class="cls-32" d="M2485.3,1109a8,8,0,0,0,7.61-10.8l-.57.21a7.43,7.43,0,0,1-9.52,9.55l-.21.57A7.78,7.78,0,0,0,2485.3,1109Z"/><path class="cls-32" d="M2499.65,1099.49a22.59,22.59,0,0,1,.15,7.15,7.63,7.63,0,0,1-4,5.63c-1.81.81-3.9.6-5.87.38"/><path class="cls-32" d="M2492.63,1113.15a8.1,8.1,0,0,0,3.29-.6,7.85,7.85,0,0,0,4.18-5.86,22.82,22.82,0,0,0-.15-7.24l-.6.08a22.24,22.24,0,0,1,.15,7,7.25,7.25,0,0,1-3.82,5.41c-1.79.8-3.88.57-5.72.36l-.07.6A23.35,23.35,0,0,0,2492.63,1113.15Z"/><path class="cls-32" d="M2484,1096c.84,1.86-.25,4-1.31,5.73-1.63,2.69-3.74,5.69-6.88,5.89-2.76.18-6.06-1.79-8,.2"/><path class="cls-32" d="M2472.09,1094.91a9.77,9.77,0,0,1-6.3,5.23,28.82,28.82,0,0,1-8.39.9c-1.3,0-3.05-.35-3.11-1.66"/><path class="cls-32" d="M2466.08,1087.14c-2.21,2.51-4.65,5-7.84,6-4.12,1.31-8.54-.17-12.6-1.62"/><path class="cls-32" d="M2452.43,1083.94c-1.65,2.51-5,3.45-8,3.07s-5.71-1.85-8.35-3.29a10.72,10.72,0,0,1-2.67-1.83"/><path class="cls-32" d="M2443.28,1075.37c-2.78,1.58-6.39,1-9.08-.72s-4.63-4.38-6.32-7.08"/><path class="cls-32" d="M2437.82,1065.7c-1.88.79-3.92-.63-5.35-2.08a33.15,33.15,0,0,1-6.89-10.37"/><path class="cls-32" d="M2431.05,1042.6c-3.79-.08-9.74,1.35-12.68-1A35,35,0,0,0,2431.5,1053"/><path class="cls-32" d="M2435.5,1038.64a17.55,17.55,0,0,1-16.51-12.06"/><path class="cls-32" d="M2431.6,1027.82a19.16,19.16,0,0,1-12.69-9"/><path class="cls-32" d="M2430.85,1015.38a29.75,29.75,0,0,0-14.25-3"/><path class="cls-32" d="M2429.74,1006.71a18,18,0,0,0-15.36-11.56"/><path class="cls-32" d="M2432.05,992.42a27.64,27.64,0,0,0-13.7-9.43c-3.11-.94-7-1.13-9.12,1.31"/><path class="cls-32" d="M2431.48,981.72c-3.88-7.1-13.86-10-21-6.18"/><path class="cls-32" d="M2428.27,971.1a14,14,0,0,0-20-6.16"/><path class="cls-32" d="M2423.62,958.56a16.58,16.58,0,0,0-19.81-3.08"/><path class="cls-32" d="M2420.28,950c-2.12-4.8-7.77-7.35-13-7s-10.05,3-14.12,6.35"/><path class="cls-32" d="M2411.49,939.68a24.08,24.08,0,0,0-25,1.8"/><path class="cls-32" d="M2398.94,931.37a18.93,18.93,0,0,0-22.1,9.83"/><path class="cls-32" d="M2381.67,929c-4.08-1.11-8.5.57-11.7,3.32s-5.42,6.43-7.59,10.06"/><path class="cls-32" d="M2359.65,932a44.36,44.36,0,0,0-6.33,19.08"/><path class="cls-32" d="M2348.94,938.35a60.58,60.58,0,0,0-2.25,19.41"/><path class="cls-32" d="M2342.4,946.9a23.13,23.13,0,0,0-6.26,26.39"/><path class="cls-32" d="M2331.25,962.19c-2.64,2.83-2.57,7.26-1.63,11s2.6,7.42,2.58,11.3"/><path class="cls-32" d="M2613.52,1041.23c3.4,0,8.28-1.48,9.91-3.09l.06-.07,0-.08a44.34,44.34,0,0,1,1.63-5.33,32.22,32.22,0,0,0,2-7.73,48,48,0,0,0-.39-9.27c-.17-1.55-.33-3-.41-4.48-.07-1.19-.1-2.24-.14-3.24a50.3,50.3,0,0,0-.8-8.38,93.21,93.21,0,0,0-2.63-9.58c-.68-2.21-1.33-4.3-1.83-6.22l0-.11c-1.73-2.26-3.55-4.43-5.31-6.53s-3.51-4.17-5.2-6.38l-.09-.07c-1.57-.93-3.32-1.9-5.18-2.92a93.67,93.67,0,0,1-9.74-5.86,26.78,26.78,0,0,1-4.64-4.53,28.73,28.73,0,0,0-3.77-3.87l-.39.46a29.56,29.56,0,0,1,3.7,3.8,26.87,26.87,0,0,0,4.74,4.63,92.63,92.63,0,0,0,9.81,5.9c1.83,1,3.57,2,5.11,2.88,1.69,2.2,3.46,4.31,5.18,6.36s3.55,4.22,5.26,6.45c.5,1.92,1.14,4,1.82,6.19a90,90,0,0,1,2.61,9.51,50,50,0,0,1,.79,8.29c0,1,.08,2.06.14,3.26.09,1.47.25,3,.41,4.5a47.69,47.69,0,0,1,.4,9.15,32,32,0,0,1-2,7.59,47.34,47.34,0,0,0-1.64,5.31c-2.06,1.94-9.39,3.71-11.76,2.44a88.46,88.46,0,0,1-5.4-8c-.89-1.42-1.81-2.9-2.76-4.32-.55-1.71-1.07-3.54-1.57-5.3a88.94,88.94,0,0,0-2.75-8.63c-1-2.44-1.55-3.71-2.28-5.32-.53-1.18-1.14-2.52-2-4.63-2.21-5.18-9-13.16-15.16-14.41a72.37,72.37,0,0,0-11.7-1.09c-2.2-.09-4.28-.17-6.3-.36a71.69,71.69,0,0,1-9.74-1.75c-1.45-.33-2.95-.68-4.61-1l-.11.6c1.65.33,3.14.67,4.59,1a71.9,71.9,0,0,0,9.81,1.76c2,.2,4.12.28,6.34.37a70.93,70.93,0,0,1,11.6,1.08c5.92,1.2,12.57,9,14.72,14,.9,2.11,1.51,3.46,2.05,4.64.72,1.6,1.29,2.87,2.27,5.3,1,2.63,1.9,5.65,2.73,8.56.5,1.79,1,3.64,1.59,5.36l0,.08c1,1.43,1.88,2.91,2.77,4.34a86.75,86.75,0,0,0,5.48,8.11l.09.08A5.69,5.69,0,0,0,2613.52,1041.23Z"/><path class="cls-32" d="M2654,999.91c.09-6.68.91-16,4.29-22.37,4-7.44,11.42-14,22.21-19.58.48-.25.93-.48,1-.54l.18.15,0-.27h.29l.07.24c.08.28,0,.31-1.24,1-10.68,5.5-18.06,12-22,19.32-6.37,12-3.64,34.87-3.61,35.1v.07c0,.11-1,11.31,1.76,15a30.74,30.74,0,0,1,2.21,3.84c1.7,3.27,3.81,7.33,6.27,7.91a3,3,0,0,0,2.54-.65c5.72-4.2,8.51-8.76,8.51-14,0-2-.15-3.6-.3-5.2-.36-3.9-.64-7,1.55-11.36,3.08-6.18,6.11-10,11.56-10h.22a15.93,15.93,0,0,0,4.41-.42,3.06,3.06,0,0,0,.14.58,16.76,16.76,0,0,1-4.56.45c-5.29-.09-8.13,3.47-11.23,9.67-2.11,4.23-1.84,7.23-1.49,11,.15,1.62.31,3.29.31,5.26,0,5.4-2.87,10.13-8.76,14.45a3.91,3.91,0,0,1-2.31.84,3.1,3.1,0,0,1-.73-.09c-2.73-.64-4.82-4.66-6.67-8.22a31.31,31.31,0,0,0-2.16-3.76c-2.81-3.81-2-14.58-1.88-15.38A106.6,106.6,0,0,1,2654,999.91Z"/><path class="cls-32" d="M2681.74,957.91l0-.28Z"/><path class="cls-33" d="M2496.24,1084.23c3.54,15.88,12.93,20.88,22.71,26.69a71,71,0,0,1,11.44,8l-.1.08a10.41,10.41,0,0,0-3.72,8.61c.3,4.1-3.05,13.56-4.16,17.09-1.71,5.47-1.54,11.53,3.3,13.06,15.19,4.82,30.36.84,45.53,1.81,4.82.31,6.18-2,9.5-4.79,2.14-1.77,4.14-4.84,2.13-7.55-3.14-4.2-6.17-7.25-11.48-8.85a49.32,49.32,0,0,1-14.93-7.6c-1.05-.76-2.07-1.53-3.06-2.3,18.77-9.28,42.74-46.78,46-70.41,4.39-32.1-23.08-61.38-52.84-57.53s-50,16.47-51.7,64A77,77,0,0,0,2496.24,1084.23Z"/><path class="cls-32" d="M2525.62,1158c-5.17-1.63-5.2-8-3.5-13.44.16-.49.35-1.1.58-1.79,1.33-4.09,3.82-11.72,3.56-15.19a10.82,10.82,0,0,1,3.66-8.72,71.35,71.35,0,0,0-11.12-7.72l-1.14-.67c-9.4-5.56-18.29-10.82-21.72-26.21h0a77.53,77.53,0,0,1-1.42-19.76c.83-22.51,5.88-38.41,15.44-48.6,8.12-8.65,19.38-13.5,36.53-15.71,13.67-1.77,27.59,3.34,38.19,14a52.65,52.65,0,0,1,15,43.85c-1.54,11.25-8,26.46-17.2,40.71s-19.68,25.17-28.5,29.71c1,.76,1.83,1.4,2.67,2a48.31,48.31,0,0,0,14.84,7.56c5.31,1.6,8.39,4.61,11.63,9,2.09,2.81.13,6-2.17,8-.62.52-1.17,1-1.7,1.49-2.22,2-4,3.62-8,3.36a141.17,141.17,0,0,0-16.34.24c-3.64.19-7.32.39-11,.39A59.35,59.35,0,0,1,2525.62,1158Zm45.64,1.22c3.79.23,5.37-1.21,7.57-3.21.54-.48,1.09-1,1.72-1.51s4.44-4,2.07-7.13c-3.17-4.25-6.16-7.2-11.32-8.75a49.21,49.21,0,0,1-15-7.64c-1-.69-1.92-1.42-3.07-2.31l-.38-.3.43-.22c8.83-4.36,19.28-15.19,28.7-29.71,9.19-14.18,15.58-29.3,17.11-40.46a52,52,0,0,0-14.82-43.34c-10.47-10.55-24.2-15.59-37.68-13.85-29.6,3.83-49.68,16.13-51.44,63.73a76.73,76.73,0,0,0,1.4,19.6h0c3.38,15.14,12.15,20.33,21.44,25.83l1.14.67a70,70,0,0,1,11.48,8l.23.27-.33.27a10.2,10.2,0,0,0-3.62,8.36c.26,3.59-2.15,11-3.59,15.42-.23.69-.42,1.29-.58,1.78-1.61,5.15-1.64,11.18,3.1,12.68,9.67,3.07,19.52,2.54,29,2,3.64-.19,7.37-.39,11.09-.39C2567.71,1159.1,2569.49,1159.14,2571.26,1159.26Z"/><ellipse class="cls-15" cx="2616.94" cy="859.37" rx="15.51" ry="19.77"/><ellipse class="cls-15" cx="2658.91" cy="854.5" rx="11.86" ry="16.73"/><path class="cls-15" d="M2646.74,854.5c0-9.39,5.46-17,12.17-17s12.16,7.64,12.16,17-5.45,17-12.16,17S2646.74,863.89,2646.74,854.5Zm.61,0c0,9.06,5.18,16.42,11.56,16.42s11.56-7.36,11.56-16.42-5.19-16.42-11.56-16.42S2647.35,845.44,2647.35,854.5Z"/><ellipse class="cls-20" cx="2658.6" cy="858.04" rx="11.56" ry="14.19"/><ellipse class="cls-20" cx="2617.24" cy="863.32" rx="15.21" ry="15.82"/><path d="M2620.28,839.9v-.61c-2.85,0-5.17-2.86-5.17-6.38h-.61C2614.5,836.76,2617.09,839.9,2620.28,839.9Z"/><path d="M2612.37,840.51v-.61c-3.52,0-6.38-2.59-6.38-5.78h-.61C2605.38,837.64,2608.52,840.51,2612.37,840.51Z"/><path d="M2625.76,842.94v-.61a.2.2,0,0,1,.16.07c-.2-.27-.47-2.46-.47-5.84h-.61C2624.84,840.79,2625.15,842.94,2625.76,842.94Z"/><path class="cls-17" d="M2602,840.21c0,2,2.18,3.65,4.87,3.65"/><path class="cls-17" d="M2598.38,843.86c0,2.68,2.45,4.86,5.48,4.86"/><path class="cls-17" d="M2595.34,849.94c0,2,3,3.65,6.69,3.65"/><path class="cls-32" d="M2662.91,892.69c-1.51,14.7-14.48,16.46-25.52,16.46s-21.49-3.23-21.42-14.69,12.51-15.9,23.48-17.88S2664.42,878,2662.91,892.69Z"/><path d="M2653.92,883.49c1.19,3-2.45,5.67-5.37,6.46s-7-.63-7.78-4,3.23-4.23,5.82-4.57S2652.73,880.5,2653.92,883.49Z"/><path d="M2649.48,843.55c.91,0,.91-6.18.91-8.21h-.61c0,4.51-.28,7.36-.48,7.69a.2.2,0,0,1,.18-.09Z"/><path d="M2654.35,838.68c1.39,0,2.12-3.51,2.12-7h-.6c0,3.9-.9,6.39-1.52,6.39Z"/><path d="M2659.82,837.47c1.4,0,2.13-3.52,2.13-7h-.61c0,3.9-.9,6.39-1.52,6.39Z"/><path d="M2663.47,838.68c2.52,0,4.56-2.31,4.56-5.17h-.61c0,2.52-1.77,4.57-4,4.57Z"/><path d="M2666.51,841.12c2.85,0,5.17-1.78,5.17-4h-.61c0,1.85-2,3.35-4.56,3.35Z"/><path class="cls-32" d="M2642.18,865.15c0,6.05,3.26,10.94,7.3,10.94"/><path class="cls-32" d="M2584.39,799.45c0-11.1-7.89-20.07-17.64-20.07"/><path class="cls-32" d="M2645.83,795.19c0-8.74,4.9-15.81,11-15.81"/><path class="cls-32" d="M2656.83,768c3.71-.65,8.6-1.7,10.27-5.5l-.41-.51"/><path class="cls-32" d="M2664.23,769.44a13.46,13.46,0,0,0,7.79-3.61c.79-.75,1.54-1.84,1.17-2.87"/><path class="cls-32" d="M2656,769.19a4.23,4.23,0,0,0,1.21-5"/><path class="cls-32" d="M2664.91,770.46a7.3,7.3,0,0,0,9.63-.63"/><path class="cls-32" d="M2665.27,773.5a6.75,6.75,0,0,0,8.33,2"/><path class="cls-32" d="M2665.74,776.8a11.27,11.27,0,0,0,9.13,4.17"/><path class="cls-32" d="M2665.56,779.74a17.17,17.17,0,0,0,2.37,5.85,5.81,5.81,0,0,0,5.46,2.57"/><path class="cls-32" d="M2665.66,785.59a10.06,10.06,0,0,0,6.58,7"/><path class="cls-32" d="M2666.54,793.07a7.84,7.84,0,0,0,2.27,4,9.59,9.59,0,0,1,1.55,1.57c1.12,1.75,0,4-1,5.82"/><path class="cls-32" d="M2666.21,796.1v.25c0,3.41,2,6.63,2,10,0,1.05-.39,2.41-1.44,2.45"/><path class="cls-32" d="M2663.84,801.07c-.63,1.89,0,4-.59,5.92a4.73,4.73,0,0,1-3,3"/><path class="cls-32" d="M2660.51,804.5a4,4,0,0,1-.76,3.27,11.77,11.77,0,0,1-2.49,2.39,7.17,7.17,0,0,1-2.37,1.41"/><path class="cls-32" d="M2656.89,807a6.22,6.22,0,0,1-4.3,3.83"/><path class="cls-32" d="M2665.45,778a7.86,7.86,0,0,0,6.31,4.86"/><path class="cls-32" d="M2654.25,770.46a2.42,2.42,0,0,0,.44-3.52"/><path class="cls-32" d="M2649.32,773.46a4.09,4.09,0,0,0,1.87-4.29"/><path class="cls-32" d="M2646.54,774.47a1.7,1.7,0,0,0,1.23-2"/><path class="cls-32" d="M2658,767.89a6.69,6.69,0,0,0,2.79-3.41"/><path class="cls-32" d="M2662.38,767.87a6,6,0,0,0,5.85-3.34"/><path class="cls-32" d="M2577.56,772.41a18.77,18.77,0,0,1-4.35-1.84,6.32,6.32,0,0,1-2.86-3.63"/><path class="cls-32" d="M2569.16,771.34a8,8,0,0,1-7.39-5.87"/><path class="cls-32" d="M2559.66,769.8c-2.8-.88-4.48-3.66-5.9-6.23"/><path class="cls-32" d="M2558.89,769.91a10,10,0,0,1-8.11-3"/><path class="cls-32" d="M2557.51,771.19a6.49,6.49,0,0,0-5.81-.36,19.14,19.14,0,0,0-5.07,3.25"/><path class="cls-32" d="M2556.52,773.29a6.27,6.27,0,0,0-4.85,1.39c-2.25,1.89-2.93,5.17-5.12,7.13"/><path class="cls-32" d="M2556.81,776a3,3,0,0,0-3.29,1.3,13.39,13.39,0,0,0-1.52,3.46,16.8,16.8,0,0,1-3.06,5.17"/><path class="cls-32" d="M2557.58,779.64c-1.62-.47-3.26,1-3.78,2.57s-.3,3.34-.37,5-.57,3.54-2,4.42"/><path class="cls-32" d="M2558.58,784.52c-1-.77-2.51.3-2.77,1.52s.19,2.49.31,3.74a7.08,7.08,0,0,1-1.77,5.4"/><path class="cls-32" d="M2560,789.59c-.63-.15-1.11.54-1.39,1.12a9.34,9.34,0,0,0-1.21,3.9c0,1.09.35,2.16.28,3.24s-.81,2.27-1.9,2.25"/><path class="cls-32" d="M2561.25,797.73c-.81-.17-1.52.56-1.95,1.28a8.69,8.69,0,0,0-1.15,3.4,8.8,8.8,0,0,1-.66,3.48c-.86,1.46-3,2.33-2.84,4"/><path class="cls-32" d="M2562.33,803.86c-2,1.32-2.24,4-2.23,6.41s0,5-1.77,6.65"/><path class="cls-32" d="M2562.2,807.38c-1.41.26-2.22,1.85-2.19,3.28a13.76,13.76,0,0,0,1.17,4.11,5.63,5.63,0,0,1,.23,4.18"/><path class="cls-32" d="M2568.35,812.72a11.93,11.93,0,0,1,.27,2.3c0,2.47-2.32,5.48-3.37,7.68a.57.57,0,0,1-.33.35c-.16,0-.34-.17-.23-.29"/><path class="cls-32" d="M2566.53,811.54c-1.32.17-1.81,1.84-1.74,3.16s.38,2.81-.42,3.87"/><path class="cls-32" d="M2571.74,814.5a8.25,8.25,0,0,0-.87,2c-.33,1.34,0,2.76-.17,4.13s-1.43,2.81-2.75,2.38"/><path class="cls-32" d="M2574,815.6a3.1,3.1,0,0,1-1.65,4.41"/><path class="cls-32" d="M2644.36,776a2.79,2.79,0,0,0,1.26-2.71"/><path class="cls-32" d="M2648.31,773.69a2.76,2.76,0,0,0,1.4-3.15"/><path class="cls-32" d="M2652.27,771.76a5,5,0,0,0,.88-3.69"/><path class="cls-32" d="M2657.39,768a3.21,3.21,0,0,0,1-4.4"/><path class="cls-32" d="M2660.46,767.21a3.31,3.31,0,0,0,2.15-3"/><path class="cls-32" d="M2665,766.45a2.08,2.08,0,0,1-1.71,2c1.5.54,4.75.78,6-.21-1.67,1.11-2.79,3-4.77,2.71.31,1.17,2.53,3,3.67,3.46a11.58,11.58,0,0,0,3.58.53"/><path class="cls-32" d="M2665.77,775.07a7.3,7.3,0,0,0,4.77,2.67"/><path class="cls-32" d="M2664.5,770.35l3.72.44a3.32,3.32,0,0,0,1.8-.12,1.15,1.15,0,0,0,.67-1.48"/><path class="cls-32" d="M2665.59,779.3a5.82,5.82,0,0,0,4.08,4.72"/><path class="cls-32" d="M2665.52,783.75a8.83,8.83,0,0,0,3.38,5"/><path class="cls-32" d="M2665.84,790.18a20.39,20.39,0,0,0,3.57,3.68"/><path class="cls-32" d="M2666.21,795.06a12.06,12.06,0,0,1,3,5.37"/><path class="cls-32" d="M2665.65,797.76c-1.37,2.57,1,5.67.55,8.53"/><path class="cls-32" d="M2662.36,803.16l-.86,4.31"/><path class="cls-32" d="M2646.62,774.3l-1.51,1.49"/><path class="cls-32" d="M2658.16,806.16a3,3,0,0,1-1.11,3.47"/><path class="cls-32" d="M2572.15,771.89c-1.51-1.08-3-.29-4.36-.85-2-.79-2.94-3.28-4-5"/><path class="cls-32" d="M2557.16,764.44a3.41,3.41,0,0,0,1.46,3.23,10.09,10.09,0,0,0,3.41,1.47C2561,768.38,2557.76,765.61,2557.16,764.44Z"/><path class="cls-32" d="M2572.24,772.06a6.08,6.08,0,0,1-4.4-3.91"/><path class="cls-32" d="M2558.52,769.29a3.87,3.87,0,0,1-4.33-2.65"/><path class="cls-32" d="M2557.93,770.84c-2,.26-3.69-1.66-5.68-1.62-.65,0-1.28.23-1.92.27a1.72,1.72,0,0,1-1.68-.74"/><path class="cls-32" d="M2556.44,772.4a10.53,10.53,0,0,0-2.07-.55,5.33,5.33,0,0,0-5.19,2.69"/><path class="cls-32" d="M2556.75,775.33a2.94,2.94,0,0,0-3.11.12,8.66,8.66,0,0,0-2.27,2.36"/><path class="cls-32" d="M2556.8,778.71a1.35,1.35,0,0,0-1.6-.16,3.57,3.57,0,0,0-1.18,1.23,21.73,21.73,0,0,0-2.41,4.82"/><path class="cls-32" d="M2557.84,782.29a4,4,0,0,0-2.43,2,7.58,7.58,0,0,0-.17,1.65,4.56,4.56,0,0,1-1.72,3.19"/><path class="cls-32" d="M2559.14,786.87a3.66,3.66,0,0,0-1.68,3.86,4.66,4.66,0,0,1,.22,1.16.86.86,0,0,1-.68.86"/><path class="cls-32" d="M2560.28,793.92a4.74,4.74,0,0,0-.94,3c.09.55.36,1.13.09,1.61-.41.75-1.89.81-1.75,1.65"/><path class="cls-32" d="M2561.36,801.58a4.73,4.73,0,0,0-1.79,3,34,34,0,0,1-.74,3.53"/><path class="cls-32" d="M2563.24,806.58a10.21,10.21,0,0,0-2.56,5.27"/><path class="cls-32" d="M2565.28,809.35a2.5,2.5,0,0,0-1.68,1.76,7.42,7.42,0,0,0-.19,2.53"/><path class="cls-32" d="M2567.74,812.32a3.57,3.57,0,0,0-1.82,4.66"/><path class="cls-32" d="M2569.94,814.29a7.43,7.43,0,0,0-1.07,5.24"/><path class="cls-32" d="M2572.93,815a10.23,10.23,0,0,0-1.31,4"/><path class="cls-32" d="M2575.09,816a2.68,2.68,0,0,1-.24,3.21"/><path class="cls-32" d="M2557.84,780.78a6.61,6.61,0,0,0-2.9,3.82l-.92-.3"/><path class="cls-32" d="M2664.46,799.85a11.57,11.57,0,0,0,.27,5.38"/><path class="cls-32" d="M2568.76,771.49a3,3,0,0,1-2.08-3.92"/><path class="cls-32" d="M2581.2,773a6,6,0,0,1-5.25-2.92"/><path class="cls-32" d="M2583.46,773.13a4.27,4.27,0,0,1-2.82-2.37"/><path class="cls-32" d="M2585.86,773.58a1.91,1.91,0,0,1-1-1.46"/><ellipse class="cls-34" cx="2620.89" cy="863.02" rx="4.87" ry="7"/><ellipse class="cls-34" cx="2613.29" cy="855.72" rx="2.13" ry="3.35"/><ellipse class="cls-34" cx="2661.04" cy="859.37" rx="4.26" ry="5.78"/><ellipse class="cls-34" cx="2654.95" cy="851.46" rx="1.82" ry="2.74"/><ellipse class="cls-15" cx="2607.81" cy="858.45" rx="1.22" ry="2.13"/><ellipse class="cls-15" cx="2651.3" cy="855.72" rx="0.91" ry="1.82"/><path class="cls-35" d="M2661,827.37c0,.21,0,.15,0,0-1,.28-1.36-.06-1.79-1.24-2.48-6.82-6.36-9.89-13.06-12.56-1.16-.47-1.31-1.16-.78-2.08-.16,0-.11,0,0,0,.53-.92,1.09-1.12,2.24-.55,6.65,3.27,11.42,7.38,14.24,14.3C2662.34,826.44,2662,827.1,2661,827.37Z"/><path class="cls-35" d="M2498,1027.06c.85.36-.21.3,0,0,1.57.67,2.74.4,3.39-2,5.07-18.57,10.2-25,27.28-33.76,2.18-1.11,2-2.05,1.14-3.49-.45-.72.38-.11,0,0-.89-1.44-1.64-2-3.91-.77-17.77,9.53-23.37,17.34-29.26,36.49C2495.92,1026,2496.46,1026.38,2498,1027.06Z"/><path class="cls-35" d="M2640.67,786.38h0c-.59-.3-.72-.49-.26-1.19,4.16-6.41,9.22-9.59,16.39-11.79.78-.25,1-.18,1.39.37h0c.34.55.32,1-.43,1.23-6.83,2.23-11.66,4.72-15.71,10.92C2641.6,786.61,2641.27,786.68,2640.67,786.38Z"/><path class="cls-35" d="M2566.58,774.45c10.52.21,16.34,0,20.55,10.19.53,1.28.37,1.21-.42,1.33h0c-.78.11-1,.07-1.37-1.07-3.22-9.1-9.46-8.79-18.47-8.62-1.13,0-1.52-.08-1.51-1h0C2565.37,774.34,2565.26,774.42,2566.58,774.45Z"/><path class="cls-35" d="M2573,881.43h0c0-1.74-1-3.33-1.69-4.69-4.34-9.22-2.86-16.74.13-25.92.44-1.36-.08-2.14-1-2.42h0c-.94-.28-1.6-.54-2.19,1.27-4,12.25-4.88,20,2.1,31.12C2571.35,882.44,2572.94,883.18,2573,881.43Z"/><path class="cls-35" d="M2632.33,884.56a18.25,18.25,0,0,1,9.26-4.79c1.34-.22,1.8-.56,1.43-1.17h0c-.37-.6-.91-.68-2.29-.4a26,26,0,0,0-10.6,5.23c-.89.75-1.08,1.2-.26,1.6h0A2.07,2.07,0,0,0,2632.33,884.56Z"/><path class="cls-32" d="M2474.56,1086.49a17.11,17.11,0,0,1-6-1.77,14.11,14.11,0,0,1-6.29-6.17,10.45,10.45,0,0,1-.35-8.68,18.37,18.37,0,0,1,3.57-4.86"/><path class="cls-32" d="M2461,1080.81c-4.76-1.89-7.12-6.8-10-10.68-3.91-5.21-5.08-10.82-2.78-17a50.42,50.42,0,0,1,5.07-9.43"/><path class="cls-32" d="M2495.59,1094.76c-1.74-.28-2.89-1.91-3.84-3.4l-3.92-6.15c-2-3.21-4.17-6.82-3.52-10.56"/><path class="cls-32" d="M2489.1,1095.05a41.14,41.14,0,0,1-8.6-7.07c-1.68-1.82-3.29-4.07-3.07-6.54"/><path class="cls-32" d="M2480.44,1094.34l-5.06-5.73a15.31,15.31,0,0,1-2.27-3c-1.64-3.27-.67-7.21.62-10.64"/><path class="cls-32" d="M2468.91,1086.08a12,12,0,0,1-3.28-4.66c-1.62-3.93-1.5-8.34-1.35-12.59"/><path class="cls-32" d="M2463.07,1083.3a18.51,18.51,0,0,1-2-10.39,37,37,0,0,1,1.45-6.38l2.14-7.35"/><path class="cls-32" d="M2457.21,1076.21c-3.55-6.34-1.11-14.33-2.61-21.44"/><path class="cls-32" d="M2448,1067.24c.39-6.67,3.83-12.73,7.19-18.51l3.77-6.49"/><path class="cls-32" d="M2447.45,1041.54a29.27,29.27,0,0,0-1.92,13"/><path class="cls-32" d="M2442.84,1046.33a27.84,27.84,0,0,1,1.12-22.07,6,6,0,0,1,2.67-3c1.44-.62,3.1-.16,4.6.31"/><path class="cls-32" d="M2439.92,1026.88a14.4,14.4,0,0,1-.86-7.79c.79-4.66,3.81-8.61,6.92-12.16"/><path class="cls-32" d="M2439.35,1011.48c-1.21-3.25-2.43-6.86-1.2-10.11,1-2.73,3.62-4.56,6.22-5.89"/><path class="cls-32" d="M2437.82,993.74a35.76,35.76,0,0,1,1-13,8.69,8.69,0,0,1,1.23-2.92A9.44,9.44,0,0,1,2442,976a53.93,53.93,0,0,1,6.68-4.31"/><path class="cls-32" d="M2446.34,990.31a7.74,7.74,0,0,1,.44-6.8,23,23,0,0,1,4.44-5.45"/><path class="cls-32" d="M2457.2,970.47a24,24,0,0,1,2.05-7.53,8.13,8.13,0,0,1,6-4.55"/><path class="cls-32" d="M2438.35,971.71a10.33,10.33,0,0,1,5.48-12.52"/><path class="cls-32" d="M2434.86,959.75a5.46,5.46,0,0,1-2.62-5.51,10.54,10.54,0,0,1,3-5.68,20.18,20.18,0,0,1,8.35-5.46"/><path class="cls-32" d="M2439.09,956.8a9.91,9.91,0,0,1,6.28-11.42"/><path class="cls-32" d="M2442.28,969.8a18.49,18.49,0,0,1,6.1-11"/><path class="cls-32" d="M2500.8,1097a5.89,5.89,0,0,0-4.17,2.6,17.39,17.39,0,0,0-2.11,4.59"/><path class="cls-32" d="M2504.46,1102.27a8.2,8.2,0,0,0,.77,11"/><path class="cls-32" d="M2490,1096c-.52,1.31-2.46,1.27-3.46,2.28a3.82,3.82,0,0,0-.83,1.7,22.62,22.62,0,0,0-.83,6.07"/><path class="cls-32" d="M2478,1095.08a10.15,10.15,0,0,0-7,8.37"/><path class="cls-32" d="M2470.17,1091.7l-4.78,3.58a5.38,5.38,0,0,0-1.49,1.44,2.86,2.86,0,0,0-.4,1.71"/><path class="cls-32" d="M2457.68,1083a7.25,7.25,0,0,1-4.54,4.09,18.2,18.2,0,0,1-6.24.76"/><path class="cls-32" d="M2456.07,1078.83a9.46,9.46,0,0,1-14.54.34"/><path class="cls-32" d="M2452.57,1075.64a3,3,0,0,1-2.91,1,7.71,7.71,0,0,1-2.9-1.39c-2.82-2-5.48-4.43-6.64-7.67"/><path class="cls-32" d="M2437.57,1068.68a7.05,7.05,0,0,1-3.56,1.42,6.71,6.71,0,0,1-5.64-3.12,19.7,19.7,0,0,1-2.52-6.2"/><path class="cls-32" d="M2444.68,1064.46A8.91,8.91,0,0,1,2441,1053"/><path class="cls-32" d="M2437,1055.83a.71.71,0,0,1,.23,1,9.49,9.49,0,0,1-2.12-11.24"/><path class="cls-32" d="M2440.59,1048.4a11.47,11.47,0,0,1-3-4.62,27,27,0,0,1-2.3-7.16,10.17,10.17,0,0,1,1.5-7.22"/><path class="cls-32" d="M2434.71,1025.23a8.83,8.83,0,0,1-6.07-10.44"/><path class="cls-32" d="M2434.46,1010.93c-3.35.21-6.77.42-10-.49s-6.28-3.16-7.21-6.38"/><path class="cls-32" d="M2432.87,996.35c-2.15,1-4.76.49-6.89-.59s-4-2.65-6.13-3.74-4.73-1.68-6.9-.66"/><path class="cls-32" d="M2432.54,1041.88c-1.63-1.82-3.53-3.74-6-3.93-1.57-.13-3.12.51-4.7.46a10.89,10.89,0,0,1-4.62-1.64"/><path class="cls-32" d="M2435.69,1019.37a6.23,6.23,0,0,0-1.08-4.6,19,19,0,0,0-3.31-3.52"/><path class="cls-32" d="M2433.88,1003.44a3.68,3.68,0,0,0-1.94-3.32,12.33,12.33,0,0,0-3.65-.73c-1.23-.22-2.56-.9-2.8-2.12"/><path class="cls-32" d="M2433.4,987.21a5.06,5.06,0,0,0-.9-3.55c-1.32-1.4-3.6-.85-5.53-.86-2.83,0-5.43-1.48-7.88-2.91"/><path class="cls-32" d="M2433.72,977.93a8.46,8.46,0,0,0-5.5-5.21,25,25,0,0,0-7.76-1"/><path class="cls-32" d="M2436,969.81a18.14,18.14,0,0,0-4.48-5.6c-1.93-1.43-4.64-2.07-6.77-1"/><path class="cls-32" d="M2422.75,960.35c-2.17.52-4.26-1.16-6.49-1.24a4.66,4.66,0,0,0-4.32,2.67"/><path class="cls-32" d="M2428.7,958.12a17.06,17.06,0,0,0-.17-3,7.85,7.85,0,0,0-3.71-5.38,6.68,6.68,0,0,0-6.46-.08"/><path class="cls-32" d="M2435,941.59a36.69,36.69,0,0,1,8.25-8.57"/><path class="cls-32" d="M2446.23,940a12.32,12.32,0,0,1,2.37-7.1,17.51,17.51,0,0,1,3.65-3.54"/><path class="cls-32" d="M2430.41,947.31a16.25,16.25,0,0,0,5.53-11.93c0-1.6-.38-3.48-1.83-4.17"/><path class="cls-32" d="M2425.26,924.2c3,3.17,3.38,7.94,3.58,12.3a20.41,20.41,0,0,1-.24,5.47,6.88,6.88,0,0,1-2.94,4.47c-.31-3-3.86-5.4-6.77-6s-5.92.09-8.79.85"/><path class="cls-32" d="M2424,935.83l.45,1.19-4.16-4.29a6.17,6.17,0,0,0-2-1.55,5.48,5.48,0,0,0-2.28-.3,27.79,27.79,0,0,0-8.52,1.53"/><path class="cls-32" d="M2418.24,928.26c.77.45,1.8-.25,2-1.11a3.43,3.43,0,0,0-.69-2.5,11.38,11.38,0,0,0-3.68-3.56,19,19,0,0,0-7.29-2.2c-2.62-.37-5.27-.56-7.91-.74a12.09,12.09,0,0,0-4.37.21c-2.53.74-4.28,3-5.87,5.07"/><path class="cls-32" d="M2420.46,921.87c.78-1,0-2.5-.69-3.58l-3.07-4.49c-1.27-1.86-3.06-3.95-5.26-3.55"/><path class="cls-32" d="M2408.23,929.86c-1.69-.76-2.74-2.52-4.37-3.4a9.24,9.24,0,0,0-5.27-.62,85.71,85.71,0,0,0-9.56,1.41"/><path class="cls-32" d="M2425.7,921.25a7,7,0,0,0-.58-7.2"/><path class="cls-32" d="M2386.86,923.3l-7.39,1.55a2.39,2.39,0,0,0-1.31.56,2.27,2.27,0,0,0-.43,1.64,15.71,15.71,0,0,0,.47,3.55"/><path class="cls-32" d="M2389.37,916.19c-1.59-.57-3.32-1.15-4.92-.6a7.13,7.13,0,0,0-1.71.94l-6.35,4.23"/><path class="cls-32" d="M2403.77,913.4q-1.55-1.85-3.24-3.56a4.1,4.1,0,0,0-1.4-1.05,4.22,4.22,0,0,0-2.12,0l-8.53,1.31"/><path class="cls-32" d="M2409.62,915.7a47.85,47.85,0,0,0-2.42-5.3,9.61,9.61,0,0,0-2.22-3,3.76,3.76,0,0,0-3.51-.83"/><path class="cls-32" d="M2372.62,922l-4.49.65a3.14,3.14,0,0,0-1.2.35,3.08,3.08,0,0,0-.94,1.19l-2.93,5.37"/><path class="cls-32" d="M2369.18,930.16c-1.41.89-3,1.45-4.4,2.38a9.76,9.76,0,0,0-4.24,7.79"/><path class="cls-32" d="M2354.8,934.17c-1.54,1.22-3.76,1.75-4.62,3.51a6,6,0,0,0-.46,2.31l-.51,7.12"/><path class="cls-32" d="M2355.57,928.5c-3.7,2.24-7.79,5-8.43,9.32"/><path class="cls-32" d="M2379,917.66a2.3,2.3,0,0,0-1.45-1.9,6,6,0,0,0-2.48-.37,29.85,29.85,0,0,0-9.6,1.71"/><path class="cls-32" d="M2382.59,914.15a6.16,6.16,0,0,0-8.37-1.33"/><path class="cls-32" d="M2364.06,924.69a32.54,32.54,0,0,1-2.57-3.12,6.55,6.55,0,0,0-7.63-1.24"/><path class="cls-32" d="M2357.14,926.3a12.62,12.62,0,0,0-5.6-1.26,5.12,5.12,0,0,0-4.56,3"/><path class="cls-32" d="M2345.75,936.76a8.77,8.77,0,0,0-10.5-.83"/><path class="cls-32" d="M2340.92,940.75l1.52,5.64a4.67,4.67,0,0,1,.22,2.22,1.61,1.61,0,0,1-1.56,1.34"/><path class="cls-32" d="M2338.27,944.64a47,47,0,0,0-6.87-1.11,1.72,1.72,0,0,0-2,1l-1.81,2.59"/><path class="cls-32" d="M2333.6,948.74a24.83,24.83,0,0,1-.51,4.86,5.75,5.75,0,0,1-1.12,2.69,2.3,2.3,0,0,1-2.65.7"/><path class="cls-32" d="M2330.85,951.93a9.68,9.68,0,0,0-9.07,7.82"/><path class="cls-32" d="M2326.81,961.66l.9,3.3a1.61,1.61,0,0,1,.07.81,1.58,1.58,0,0,1-.41.59l-3.14,3.26"/><path class="cls-32" d="M2322.14,963.7a10.75,10.75,0,0,0-5.91,10.59"/><path class="cls-32" d="M2321.47,973c-.2,1.62.75,3.13,1.14,4.72s-.29,3.77-1.92,3.8"/><path class="cls-32" d="M2321.45,968.42c-2.3,2.16-2.51,5.68-2.56,8.84"/><path class="cls-32" d="M2314.31,972.64c-1.21.88-3,.82-4,1.87-1.22,1.19-1,3.31-2.16,4.58"/><path class="cls-32" d="M2316.11,983.18a10.35,10.35,0,0,1,1.07,10"/><path class="cls-32" d="M2314.15,987.71a12.62,12.62,0,0,0-3.6,2.41,4.31,4.31,0,0,0-1.21,4"/><path class="cls-32" d="M2309.6,998.05a23.79,23.79,0,0,1,2.59,12.2"/><path class="cls-32" d="M2307.31,1004.09a21.64,21.64,0,0,1-1.5,8.27c-.35.89-.9,1.86-1.83,2"/><path class="cls-32" d="M2438.55,927.56a9.54,9.54,0,0,0,4.84-6,23.14,23.14,0,0,0,.73-7.83c0-1.4-.23-3-1.34-3.82"/><path class="cls-32" d="M2446.37,943.51c2.51-.41,4.26-2.66,5.74-4.73l5.09-7.11"/><path class="cls-35" d="M2631.17,1115.1h0c.39,1.32,1.14,2.15,3.2,1.65,17-4.16,29.68-12.12,34.58-29.54.59-2.1-.06-2.54-1.36-3h0c-1.3-.47-2.52-.31-3.11,1.61-4.91,16-15.75,22.42-31.52,26.36C2631.06,1112.63,2630.77,1113.77,2631.17,1115.1Z"/><path class="cls-36" d="M2572.92,1021c-.54.18-.39.07,0,0-1.07,1.9-.27,2.7,2.39,3.9,9.17,4.11,10.26,9.41,11.45,18.81.34,2.74,1.38,3.81,3.38,3.27.39.32.24.28,0,0,2-.53,1.55-1.42,1.14-4.45-1.4-10.45-3.59-16.86-13.56-21.81C2574.82,1019.3,2574,1019.13,2572.92,1021Z"/><polygon class="cls-7" points="1901.65 1586.55 2044 1816.3 1375.51 1816.3 1517.86 1586.55 1375.51 1586.55 1530.49 1336.43 1375.45 1336.43 1709.7 797 2043.94 1336.43 1889.02 1336.43 2044 1586.55 1901.65 1586.55"/><polygon class="cls-8" points="2044 1816.3 1901.65 1586.55 2044 1586.55 1889.02 1336.43 2043.94 1336.43 1709.7 797 1709.7 1816.3 2044 1816.3"/><rect class="cls-9" x="1639.25" y="1816.5" width="148.31" height="179.65"/><line class="cls-7" x1="1775" y1="1170" x2="1849" y2="1265"/><line class="cls-7" x1="1861.29" y1="1405.77" x2="1935.29" y2="1500.77"/><line class="cls-7" x1="1766.29" y1="1546.77" x2="1891" y2="1707"/><line class="cls-7" x1="1749.93" y1="1365.15" x2="1874.64" y2="1525.38"/><line class="cls-7" x1="1765.93" y1="1042.15" x2="1890.64" y2="1202.38"/><line class="cls-37" x1="1617.89" y1="1171.69" x2="1543.89" y2="1266.69"/><line class="cls-37" x1="1531.61" y1="1407.46" x2="1457.61" y2="1502.46"/><line class="cls-37" x1="1626.61" y1="1548.46" x2="1501.89" y2="1708.69"/><line class="cls-37" x1="1642.96" y1="1366.85" x2="1518.25" y2="1527.08"/><line class="cls-37" x1="1626.96" y1="1043.85" x2="1502.25" y2="1204.08"/><line class="cls-7" x1="2261.06" y1="416.64" x2="2326.83" y2="507.7"/><line class="cls-7" x1="2337.75" y1="642.63" x2="2403.51" y2="733.69"/><line class="cls-7" x1="2253.32" y1="777.79" x2="2364.15" y2="931.38"/><line class="cls-7" x1="2238.78" y1="603.7" x2="2349.62" y2="757.29"/><line class="cls-7" x1="2253" y1="294.09" x2="2363.84" y2="447.68"/><line class="cls-37" x1="2121.44" y1="418.26" x2="2055.68" y2="509.32"/><line class="cls-37" x1="2044.76" y1="644.25" x2="1979" y2="735.32"/><line class="cls-37" x1="2129.19" y1="779.41" x2="2018.36" y2="933"/><line class="cls-37" x1="2143.73" y1="605.32" x2="2032.89" y2="758.91"/><line class="cls-37" x1="2129.51" y1="295.71" x2="2018.67" y2="449.3"/><line class="cls-7" x1="3017.82" y1="341.14" x2="3072.84" y2="424.71"/><line class="cls-7" x1="3081.98" y1="548.53" x2="3137" y2="632.1"/><line class="cls-7" x1="3011.34" y1="672.56" x2="3104.07" y2="813.51"/><line class="cls-7" x1="2999.18" y1="512.81" x2="3091.91" y2="653.75"/><line class="cls-7" x1="3011.08" y1="228.68" x2="3103.81" y2="369.63"/><line class="cls-37" x1="2901.01" y1="342.63" x2="2845.99" y2="426.19"/><line class="cls-37" x1="2836.85" y1="550.02" x2="2781.83" y2="633.59"/><line class="cls-37" x1="2907.49" y1="674.05" x2="2814.76" y2="815"/><line class="cls-37" x1="2919.65" y1="514.29" x2="2826.92" y2="655.24"/><line class="cls-37" x1="2907.75" y1="230.17" x2="2815.02" y2="371.11"/><line class="cls-7" x1="4099.32" y1="1297.8" x2="4193.35" y2="1441.74"/><line class="cls-7" x1="4208.97" y1="1655.02" x2="4303" y2="1798.96"/><line class="cls-7" x1="4088.25" y1="1868.66" x2="4246.72" y2="2111.44"/><line class="cls-7" x1="4067.46" y1="1593.48" x2="4225.94" y2="1836.26"/><line class="cls-7" x1="4087.79" y1="1104.09" x2="4246.27" y2="1346.86"/><line class="cls-37" x1="3899.68" y1="1300.36" x2="3805.65" y2="1444.3"/><line class="cls-37" x1="3790.03" y1="1657.59" x2="3696" y2="1801.53"/><line class="cls-37" x1="3910.75" y1="1871.22" x2="3752.28" y2="2114"/><line class="cls-37" x1="3931.54" y1="1596.05" x2="3773.06" y2="1838.82"/><line class="cls-37" x1="3911.21" y1="1106.65" x2="3752.73" y2="1349.43"/><line class="cls-30" x1="2546.49" y1="1416.51" x2="2483.49" y2="1540.51"/><line class="cls-30" x1="2546.49" y1="1416.51" x2="2483.49" y2="1540.51"/><line class="cls-11" x1="2716" y1="1243" x2="2653" y2="1344"/><line class="cls-11" x1="2696.99" y1="1469.51" x2="2614" y2="1602"/><line class="cls-11" x1="2708.68" y1="1894.52" x2="2601.31" y2="2080.5"/><line class="cls-11" x1="2697.99" y1="1573.51" x2="2612" y2="1711"/><line class="cls-11" x1="2636.99" y1="1888.51" x2="2555" y2="2019"/><line class="cls-38" x1="2831.49" y1="1238.76" x2="2894.49" y2="1339.76"/><line class="cls-38" x1="2850.5" y1="1465.27" x2="2933.49" y2="1597.76"/><line class="cls-38" x1="2838.81" y1="1890.28" x2="2946.19" y2="2076.26"/><line class="cls-38" x1="2849.5" y1="1569.27" x2="2935.49" y2="1706.76"/><line class="cls-38" x1="2910.5" y1="1884.27" x2="2992.49" y2="2014.76"/><line class="cls-11" x1="3638.47" y1="181.02" x2="3580.77" y2="261.45"/><line class="cls-11" x1="3621.07" y1="361.41" x2="3545.04" y2="466.92"/><line class="cls-11" x1="3631.77" y1="699.88" x2="3533.42" y2="848"/><line class="cls-11" x1="3621.98" y1="444.23" x2="3543.21" y2="553.73"/><line class="cls-11" x1="3566.11" y1="695.1" x2="3491" y2="799.02"/><line class="cls-38" x1="3744.27" y1="177.64" x2="3801.97" y2="258.07"/><line class="cls-38" x1="3761.68" y1="358.03" x2="3837.7" y2="463.54"/><line class="cls-38" x1="3750.97" y1="696.51" x2="3849.33" y2="844.62"/><line class="cls-38" x1="3760.76" y1="440.86" x2="3839.53" y2="550.35"/><line class="cls-38" x1="3816.64" y1="691.72" x2="3891.74" y2="795.64"/><path class="cls-14" d="M192.15,127.26c-3.25,43.08-28,70.73-67.84,69.49S60,166.83,57.07,127.9,81.27,59,123.7,59.6,195.4,84.19,192.15,127.26Z"/><path class="cls-15" d="M125,106.17c.44,12-5.59,26.16-19.23,26.1s-21-13.46-20.66-25.46,7.66-22.72,20.54-24.87S124.55,94.18,125,106.17Z"/><path class="cls-15" d="M175.35,108.45c.12,11.27-4.49,24.56-18,24.3s-19.09-13-19.15-24.88,6.57-24.07,19.23-24.55S175.22,97.19,175.35,108.45Z"/><path class="cls-13" d="M165.31,162.3c1.33,17.59-15.88,22.41-31.13,23.69s-35.07-4.54-35-22.17,18.55-25.8,33.5-24.74S164,144.72,165.31,162.3Z"/><path d="M127.77,159.59c.1,3.26-1.11,6.16-5,6.06a5.82,5.82,0,0,1-5.69-6.74c.41-3.38,3.2-6.2,6.55-5.78S127.66,156.34,127.77,159.59Z"/><path d="M151.48,159.3c.25,3-.63,4.25-3.9,5a5.51,5.51,0,0,1-6.84-5,6,6,0,0,1,5.84-6.27C150,153.06,151.23,156.31,151.48,159.3Z"/><path class="cls-14" d="M53.87,58.84c-.39-5-15-14.28-12.77-17.22,5.51-7.34,29.75-1.59,37.95,1.63,12.24,4.8,23,13.07,18.9,23.9S85.82,81,74.14,81.44,55.06,73.87,53.87,58.84Z"/><path class="cls-14" d="M199.18,63.55C195.43,75.69,188.82,80.15,179.4,81s-16.23-2.87-17.87-14,9.73-17.19,19.87-19.35c7.21-1.53,29.68-.35,32.26,5.64C214.7,55.66,200.26,60.05,199.18,63.55Z"/><ellipse cx="106.27" cy="112.3" rx="17.44" ry="19.27"/><ellipse cx="157.67" cy="112.3" rx="17.44" ry="19.27"/><circle class="cls-15" cx="109.02" cy="116.89" r="7.34"/><circle class="cls-15" cx="158.59" cy="116.89" r="7.34"/><circle class="cls-15" cx="157.67" cy="101.28" r="2.75"/><circle class="cls-15" cx="146.65" cy="108.63" r="2.75"/><circle class="cls-15" cx="104.43" cy="101.28" r="2.75"/><circle class="cls-15" cx="97.09" cy="110.46" r="2.75"/><path class="cls-39" d="M134.15,375.92c-4.35-10-11.78-16.93-20.63-23.09s-18.09-10.05-26.81-16.64c-20.52-15.48-42-35-35.85-62.41,1.63-7.28,2.72-13.35,7.23-19.77,5.69-8.11,19.15-14.92,28.84-14.22,12.93.93,24.86,7.44,33.24,15.78,7.38,7.35,7.33,16.47,9.91,25.43-1.14-19.79,9.78-38.55,30.19-42.83s39.56,8,45.65,27.72c4.8,15.51-1.13,30.65-9.73,43.72s-20.92,22.76-32.05,33.76S142.62,365.72,135.68,380C134.62,378.71,134.81,377.46,134.15,375.92Z"/><path d="M215.48,99a1.5,1.5,0,0,0,0-3,1.5,1.5,0,0,0,0,3Z"/><path d="M215.4,140a1.5,1.5,0,0,0,0-3,1.5,1.5,0,0,0,0,3Z"/><path d="M229.62,282.77a1.5,1.5,0,0,0,0-3,1.5,1.5,0,0,0,0,3Z"/><path d="M229.91,321.76a1.5,1.5,0,0,0,0-3,1.5,1.5,0,0,0,0,3Z"/><path class="cls-40" d="M133.71,441.72a38.93,38.93,0,0,0-.31-21.11c-3,1-3.48,4.21-3.49,6.86q0,7.23-.07,14.46c-13.43-4-28.16-.29-41.27,3.94-4,1.3-6.3,3.44-9.33,5.94-2.86,2.35-8.18,3.86-10.43,6.61-3.53,4.33-7.83,8-11,12.41s-7.68,8.78-7.51,14l6.72.92-7,15.76a47.19,47.19,0,0,1,10.28.64,18.75,18.75,0,0,0,1.8,22c-.89-1.28,1.48-2.35,3.27-2.5s4.21-1,3.56-2.36l.64,24.1,9.27-2.14c-1.92,6,.45,12.89,6,17.34,3.21.73,6.87-.35,8.69-2.56l2.86,12.81c.92,4.13,3,9.22,8.15,9.74,3,.31,6.13-1.57,6.59-4l-.27,2.08,2-4.57a31.11,31.11,0,0,0,8,21.58l6-4.93a68.44,68.44,0,0,0,7.45,12.4l2.31-1.83c2.36,8.3,6.21,16.77,12.64,23.57-.43-2.39,1.72-4.48,2.65-6.74,1.14-2.76.47-5.78.25-8.7a27.26,27.26,0,0,1,2.45-13.35,10.87,10.87,0,0,0,4.59,2.29A18,18,0,0,0,162,581.78l10.65,5.4,6.63-22.44c.7-2.39,1.25-5.28-.92-7a18.75,18.75,0,0,0,12,3c0-2,1.28-3.88,1.91-5.83s.32-4.47-1.9-5.46l5.21-.81a15,15,0,0,0-2.86-11,14.84,14.84,0,0,0,8.11,1.07,35.91,35.91,0,0,0-2.7-19.7,14.3,14.3,0,0,1,9.45-.38c.55-5.29,1-11-2.62-15.54a6.87,6.87,0,0,1,4.86-1.39A13.57,13.57,0,0,0,205,490.9a28,28,0,0,1,7.09-2.64c-1.7-3.78-2.68-8-4-11.86s-3.53-7.78-7.54-10.18a12.59,12.59,0,0,1,6.17-1.67c-10.52-9.35-21.61-19-36.13-23.55A55.79,55.79,0,0,0,133.71,441.72Z"/><path class="cls-41" d="M133.75,475.85c4.39,10.93,2.71,23.19,2.16,35a172.78,172.78,0,0,0,3.94,45.52"/><path class="cls-41" d="M150.58,481.17c4.09,2.47,9.3,2.25,13.61,4.31,5.9,2.81,9.23,9.41,15,12.47,4.81,2.54,11.83,3.35,13,8.65"/><path class="cls-41" d="M156.36,506.43c3.34-.74,6.79,1.11,9.09,3.64s3.77,5.7,5.57,8.61a41.55,41.55,0,0,0,10.57,11.5"/><path class="cls-41" d="M158.39,535.26a58.14,58.14,0,0,1,17.24,24.2"/><path class="cls-41" d="M114.21,473.07a31.12,31.12,0,0,0-18-.68c-1.23,3.71-4.37,6.41-7.38,8.92L72.56,494.89"/><path class="cls-41" d="M118,493.59a22.07,22.07,0,0,0-16.34,12.1c-.83,1.74-1.45,3.63-2.71,5.09-1.87,2.17-4.81,3-7.18,4.64s-4.24,4.89-2.62,7.25"/><path class="cls-41" d="M118.64,520.05a76.57,76.57,0,0,0-14,24.53"/><path class="cls-41" d="M121.72,548.45l-3.31,17.95c-.48,2.57-.93,5.33.14,7.72"/><path class="cls-41" d="M147.92,463.05c4.63-.39,9.56-.73,13.65,1.48a47.67,47.67,0,0,1,4.33,3c7.16,4.94,16.74,5.72,23.38,11.34"/><path class="cls-41" d="M152.56,556.39l6.65,5.07a12.22,12.22,0,0,0,4.41,11.14"/><path class="cls-41" d="M113.86,459.59c-2.39-3.2-6.71-4.47-10.7-4.2s-7.75,1.86-11.43,3.43l-8.23,3.49"/><path class="cls-41" d="M133.8,563.89A59.11,59.11,0,0,0,135.24,585"/><path class="cls-41" d="M144,570.37c3.33,1.75,3.85,6.25,3.72,10s-.3,8.09,2.48,10.63"/><path class="cls-41" d="M158.75,452.49a69.1,69.1,0,0,1,21.91,6.74"/><path d="M230.2,516a8.88,8.88,0,0,1,.25-1.92,50.63,50.63,0,0,0,8.29.58,48,48,0,0,0,10.11-1.15q-.54,4.07-4.13,4.44c-.74.11-1.9.22-3.45.32q-.08.93-1.06,8.12a86.9,86.9,0,0,0-1,9.9,10.89,10.89,0,0,0,.45,3.78,7.17,7.17,0,0,1-3.71-1.88,4.25,4.25,0,0,1-1-2.89,72.32,72.32,0,0,1,.82-7.51c.54-3.85.87-6.94,1-9.29-1.73.08-3.43.13-5.09.13C230.69,518.61,230.2,517.73,230.2,516Z"/><path d="M254.37,528.19a47.87,47.87,0,0,0-.8,7.52,11.38,11.38,0,0,0,.37,3.82,5.52,5.52,0,0,1-3.36-1.93,6.84,6.84,0,0,1-.86-3.79,40.56,40.56,0,0,1,.51-4.87,40.74,40.74,0,0,0,.51-5.47,17.82,17.82,0,0,0-.19-3c.47,0,.9-.06,1.31-.06a4.05,4.05,0,0,1,2.58.62,2.71,2.71,0,0,1,.72,2.13C255.16,523.47,254.89,525.15,254.37,528.19Zm1.27-10.61a10.65,10.65,0,0,1-1.57.13c-2.2,0-3.3-.77-3.3-2.3a7.72,7.72,0,0,1,.48-2.28,12,12,0,0,1,1.57-.12c2.2,0,3.3.76,3.3,2.3A7.67,7.67,0,0,1,255.64,517.58Z"/><path d="M273.27,535.66a31.22,31.22,0,0,0,.19,3.39c-.68.05-1.13.07-1.34.07a4.25,4.25,0,0,1-2.6-.63,2.18,2.18,0,0,1-.8-1.84,35.71,35.71,0,0,1,.69-5,35.1,35.1,0,0,0,.69-5.76c0-1.32-.43-2-1.28-2a2.3,2.3,0,0,0-1.54.85,9.19,9.19,0,0,0-1.56,2.3,15.32,15.32,0,0,0-1.24,3.73,20.46,20.46,0,0,0-.49,4.37,36,36,0,0,0,.19,3.88c-.68.05-1.13.07-1.34.07a4.25,4.25,0,0,1-2.6-.63,2.49,2.49,0,0,1-.8-2.09q0-.36.66-4.77a50,50,0,0,0,.66-7,19.29,19.29,0,0,0-.55-4.72,5.18,5.18,0,0,1,4.23,5.5,19,19,0,0,1-.23,2.59,14.76,14.76,0,0,1,3-5.31c1.29-1.41,2.53-2.11,3.74-2.11a2.84,2.84,0,0,1,2.62,1.34,7.49,7.49,0,0,1,.82,3.88A13.63,13.63,0,0,1,277.2,522a4.51,4.51,0,0,1,2.88-1.44,3.14,3.14,0,0,1,2.77,1.17,5.4,5.4,0,0,1,.82,3.17,35.05,35.05,0,0,1-.63,5.61,35.64,35.64,0,0,0-.62,5.27,5.15,5.15,0,0,0,.42,2.4,3.34,3.34,0,0,0,1.4,1.29c-.27,0-.67,0-1.18,0a6.59,6.59,0,0,1-3.82-.83,3.36,3.36,0,0,1-1.14-2.91,31,31,0,0,1,.64-4.62,30.77,30.77,0,0,0,.64-5.14c0-1.41-.43-2.11-1.28-2.11a2.91,2.91,0,0,0-2.06,1.39,12.53,12.53,0,0,0-1.94,4.19A21.39,21.39,0,0,0,273.27,535.66Z"/><path d="M295.16,531.18a12.58,12.58,0,0,1-3-.35q0,.31,0,1a6.7,6.7,0,0,0,1,4,2.88,2.88,0,0,0,2.37,1.35,4.63,4.63,0,0,0,2.62-.84,7.54,7.54,0,0,0,2.18-2.3c.76.17,1.15.57,1.15,1.18q-2.82,4.32-7.27,4.32a6.34,6.34,0,0,1-4.7-2.06,7.89,7.89,0,0,1-2-5.74,13.33,13.33,0,0,1,1.06-5.24,10,10,0,0,1,3.36-4.19,8.38,8.38,0,0,1,5.1-1.71,5.74,5.74,0,0,1,4.12,1.28,4.49,4.49,0,0,1,1.31,3.36,5.1,5.1,0,0,1-2.1,4.48A8.72,8.72,0,0,1,295.16,531.18Zm1.34-8.61a3.22,3.22,0,0,0-2.75,2,13.2,13.2,0,0,0-1.47,4.9h.48a5.35,5.35,0,0,0,4.11-1.44,5,5,0,0,0,1.33-3.46,2.33,2.33,0,0,0-.44-1.42A1.45,1.45,0,0,0,296.5,522.57Z"/><rect class="cls-39" x="381.43" y="319.63" width="574.79" height="425.56" rx="12"/><rect class="cls-42" x="884.37" y="318.53" width="7.74" height="426.67"/><rect class="cls-43" x="812.53" y="318.53" width="7.74" height="426.67"/><rect class="cls-43" x="734.04" y="318.53" width="7.74" height="426.67"/><rect class="cls-43" x="659.99" y="318.53" width="7.74" height="426.67"/><rect class="cls-43" x="583.72" y="318.53" width="7.74" height="426.67"/><rect class="cls-43" x="508.55" y="318.53" width="7.74" height="426.67"/><rect class="cls-43" x="440.02" y="318.53" width="7.74" height="426.67"/><rect class="cls-44" x="631.25" y="517.49" width="148.46" height="226.6" rx="12"/><rect class="cls-15" x="495.29" y="359.42" width="127.84" height="122.7" rx="6.98"/><rect class="cls-44" x="505.58" y="369.72" width="107.25" height="100.39" rx="9.71"/><rect class="cls-15" x="552.03" y="368.86" width="12.01" height="112.4"/><rect class="cls-15" x="552.34" y="365" width="12.01" height="112.4" transform="translate(979.55 -137.15) rotate(90)"/><rect class="cls-15" x="777" y="359.77" width="127.84" height="122.7" rx="6.98"/><rect class="cls-44" x="787.3" y="370.06" width="107.25" height="100.39" rx="9.71"/><rect class="cls-15" x="833.75" y="369.21" width="12.01" height="112.4"/><rect class="cls-15" x="834.06" y="365.34" width="12.01" height="112.4" transform="translate(1261.61 -418.52) rotate(90)"/><rect class="cls-15" x="780.47" y="519.12" width="148.12" height="226.08" rx="12"/><rect class="cls-43" x="792.16" y="527.89" width="124.73" height="206.59" rx="12"/><rect class="cls-15" x="850.63" y="509.38" width="9.74" height="246.54" rx="4.41" transform="matrix(0.87, 0.5, -0.5, 0.87, 430.94, -342.99)"/><rect class="cls-15" x="851.3" y="507.73" width="9.74" height="246.54" rx="4.41" transform="translate(-200.79 512.63) rotate(-30)"/><rect class="cls-15" x="483.64" y="518.23" width="148.12" height="226.08" rx="12"/><rect class="cls-43" x="495.33" y="527" width="124.73" height="206.59" rx="12"/><rect class="cls-15" x="553.8" y="508.48" width="9.74" height="246.54" rx="4.41" transform="translate(390.72 -194.7) rotate(30)"/><rect class="cls-15" x="554.47" y="506.84" width="9.74" height="246.54" rx="4.41" transform="matrix(0.87, -0.5, 0.5, 0.87, -240.12, 364.09)"/><rect class="cls-45" x="375.35" y="315" width="599.11" height="21" rx="9.5"/><rect class="cls-46" x="399.12" y="362.74" width="4.42" height="84.01" rx="2"/><rect class="cls-46" x="419.02" y="490.96" width="4.42" height="84.01" rx="2"/><rect class="cls-46" x="465.44" y="409.17" width="4.42" height="84.01" rx="2"/><rect class="cls-46" x="638.98" y="424.64" width="4.42" height="84.01" rx="2"/><rect class="cls-46" x="682.09" y="355" width="4.42" height="84.01" rx="2"/><rect class="cls-46" x="751.73" y="392.59" width="4.42" height="84.01" rx="2"/><rect class="cls-46" x="935.22" y="350.58" width="4.42" height="84.01" rx="2"/><rect class="cls-46" x="403.54" y="646.82" width="4.42" height="84.01" rx="2"/><rect class="cls-46" x="916.43" y="455.59" width="4.42" height="53.06" rx="2"/><rect class="cls-46" x="705.31" y="450.06" width="4.42" height="53.06" rx="2"/><rect class="cls-46" x="942.96" y="630.24" width="4.42" height="53.06" rx="2"/><rect class="cls-46" x="469.86" y="646.82" width="4.42" height="53.06" rx="2"/><polygon class="cls-7" points="752.38 1901.69 922 2187.93 125.49 2187.93 295.1 1901.69 125.49 1901.69 310.15 1590.06 125.42 1590.06 523.68 918 921.93 1590.06 737.34 1590.06 922 1901.69 752.38 1901.69"/><polygon class="cls-8" points="922 2187.93 752.38 1901.69 922 1901.69 737.34 1590.06 921.93 1590.06 523.68 918 523.68 2187.93 922 2187.93"/><rect class="cls-9" x="439.74" y="2188.17" width="176.72" height="223.83"/><line class="cls-7" x1="606.16" y1="1438.38" x2="684.11" y2="1558.23"/><line class="cls-7" x1="697.05" y1="1735.83" x2="775" y2="1855.68"/><line class="cls-7" x1="596.98" y1="1913.72" x2="728.35" y2="2115.87"/><line class="cls-7" x1="579.75" y1="1684.59" x2="711.12" y2="1886.74"/><line class="cls-7" x1="596.61" y1="1277.09" x2="727.97" y2="1479.24"/><line class="cls-37" x1="440.67" y1="1440.52" x2="362.72" y2="1560.37"/><line class="cls-37" x1="349.78" y1="1737.96" x2="271.83" y2="1857.82"/><line class="cls-37" x1="449.85" y1="1915.85" x2="318.48" y2="2118"/><line class="cls-37" x1="467.08" y1="1686.72" x2="335.71" y2="1888.87"/><line class="cls-37" x1="450.23" y1="1279.22" x2="318.86" y2="1481.37"/><line class="cls-47" x1="2826.54" y1="2143.68" x2="2826.54" y2="2254.75"/><line class="cls-48" x1="2778.9" y1="2152.46" x2="2778.9" y2="2254.74"/><line class="cls-49" x1="2744.04" y1="2199.69" x2="2744.04" y2="2282.74"/><line class="cls-47" x1="3733.16" y1="930.92" x2="3733.16" y2="1041.99"/><line class="cls-48" x1="3683.52" y1="924.7" x2="3683.52" y2="1026.98"/><line class="cls-49" x1="3650.66" y1="962.93" x2="3650.66" y2="1045.98"/><rect class="cls-10" x="1172.05" y="987.54" width="125.25" height="179.38"/><polygon class="cls-8" points="918 1009.68 1117.22 695.18 965.29 695.18 1143.25 400.49 1030.08 400.49 1234.38 78 1438.66 400.49 1323.82 400.49 1501.78 695.18 1351.77 695.18 1551 1009.68 918 1009.68"/><polygon class="cls-11" points="1234.67 78.46 1234.67 1009.68 1551 1009.68 1351.77 695.18 1501.78 695.18 1323.82 400.49 1438.66 400.49 1234.67 78.46"/><line class="cls-11" x1="1184.62" y1="282.11" x2="1127.35" y2="364.83"/><line class="cls-11" x1="1167.34" y1="467.62" x2="1091.89" y2="576.12"/><line class="cls-11" x1="1177.97" y1="815.68" x2="1080.35" y2="968"/><line class="cls-11" x1="1168.25" y1="552.79" x2="1090.07" y2="665.39"/><line class="cls-11" x1="1112.79" y1="810.76" x2="1038.25" y2="917.63"/><line class="cls-38" x1="1289.63" y1="278.64" x2="1346.9" y2="361.35"/><line class="cls-38" x1="1306.9" y1="464.14" x2="1382.36" y2="572.65"/><line class="cls-38" x1="1296.28" y1="812.21" x2="1393.9" y2="964.53"/><line class="cls-38" x1="1305.99" y1="549.32" x2="1384.18" y2="661.92"/><line class="cls-38" x1="1361.45" y1="807.29" x2="1436" y2="914.16"/><line class="cls-47" x1="1271.21" y1="1021.9" x2="1271.21" y2="1132.97"/><line class="cls-48" x1="1229.57" y1="1015.67" x2="1229.57" y2="1117.96"/><line class="cls-49" x1="1194.71" y1="1062.9" x2="1194.71" y2="1145.96"/><path d="M281.72,110q-5.79,0-9.15-3.5a11.72,11.72,0,0,1-3.35-8.4q0-6.49,5.7-11.5t15.7-5q10,0,16.7,4.75t6.7,14.45q0,9.7-8.85,21.1T279,143.15h1.9a176.24,176.24,0,0,0,19.85-1.05q9.25-1,13.05-2.65-.39,7.61-3.8,11.75a10.83,10.83,0,0,1-8.8,4.15q-1.39,0-9.85-1a137.69,137.69,0,0,0-17-1.05,54.58,54.58,0,0,0-16.05,2.3,11.41,11.41,0,0,1,2.6-6.7,13.66,13.66,0,0,1,8.3-5.2q4.5-3.69,7.8-6.55t8-7.7a85,85,0,0,0,7.7-9,45.58,45.58,0,0,0,5.2-9.3,26.2,26.2,0,0,0,2.2-10.3,11.32,11.32,0,0,0-2.9-8.15,9,9,0,0,0-6.7-3A8.8,8.8,0,0,0,284,92.4q-2.7,2.76-2.7,7.75a14.31,14.31,0,0,0,3.9,9.5A21.22,21.22,0,0,1,281.72,110Z"/><path d="M281.69,303l-.5-3.9q8.6-1.5,13.4-6.75t4.8-10.95a9,9,0,0,0-2.2-6.25,7.44,7.44,0,0,0-5.8-2.45,8.08,8.08,0,0,0-5.9,2.25,8.57,8.57,0,0,0-2.3,6.4q0,4.15,4,8.85a17.34,17.34,0,0,1-4.1.5,11.26,11.26,0,0,1-8.4-3.15,10.49,10.49,0,0,1-3.1-7.65,13.5,13.5,0,0,1,5.5-11.05q5.51-4.35,14.85-4.35t14.65,5a15.67,15.67,0,0,1,5.3,11.85,16,16,0,0,1-3.45,9.65Q305,295.56,298,298.76a18.53,18.53,0,0,1,10.75,6.55,17.83,17.83,0,0,1,4.05,11.45q0,8.4-7.65,15.55t-20.25,7.15q-10.2,0-15.4-4.65t-5.2-10.55a13.82,13.82,0,0,1,3.55-9.75q3.56-3.84,9.85-3.85a16.87,16.87,0,0,1,4.4.7,11.75,11.75,0,0,0-5.2,10.1q0,4.8,2.75,7.35a10.23,10.23,0,0,0,7.25,2.55,11.69,11.69,0,0,0,8.25-3.6,12.81,12.81,0,0,0,3.75-9.7,15.79,15.79,0,0,0-3.7-10.5q-3.7-4.4-10.8-5A24.73,24.73,0,0,1,281.69,303Z"/><path class="cls-50" d="M1783.2,123.5c-3.51,44.18-51.81,101.14-104,104.39S1581.55,177.7,1582,120.7,1638.22,21.05,1690,19,1786.72,79.31,1783.2,123.5Z"/><path class="cls-50" d="M1741.19,86.24c-4.93,35.84,20.88,59,57.07,59.7s69.67-14.09,60.88-49-24.82-59.4-57.41-61.86S1746.12,50.4,1741.19,86.24Z"/><path class="cls-50" d="M1656.43,208.79c-3.12-49,42.52-84.38,83.71-86.45s110.25,33,101.64,66.87S1782.4,262,1749.24,273.8,1659.56,257.74,1656.43,208.79Z"/><path class="cls-50" d="M1800.61,142.54c-1.3,39.87,41.54,71.7,76.82,90s85.67-33.58,83.66-74.45S1917,58.86,1874.21,68.77,1801.9,102.66,1800.61,142.54Z"/><path class="cls-50" d="M1938.09,110.42c5.85,20.63,15.89,49,40.76,52.76s29.84-38.74,25-59.71-18.66-34.31-42-31.27S1932.24,89.78,1938.09,110.42Z"/><path class="cls-50" d="M1823,207.39c5.15-22.65,44.45-26.32,67.52-18.93s38.65,26.94,27.79,53.38-40.52,35.5-60.51,23S1817.84,230,1823,207.39Z"/><path class="cls-50" d="M1890.06,189.83c8.64-33.17,30.78-53.5,66.06-52s68.77,46.72,56.67,83-48.2,34.64-82.7,32.76S1881.42,223,1890.06,189.83Z"/><path class="cls-51" d="M2489.09,158c-.82,29.76-21.38,40.15-47.77,34.66s-38-16.36-35.55-40.76,17.61-35.69,42.27-34.42S2489.92,128.26,2489.09,158Z"/><path class="cls-51" d="M2552.46,182.57c-1.73-23.44-21.35-49.16-48.13-49.63s-59.28,21.21-53.06,48,35.45,57,60.49,57.76S2554.19,206,2552.46,182.57Z"/><path class="cls-51" d="M2475,118.61c-6.42,15.68,11,27.57,27.2,27.11s31.52-12.9,31.19-28.16-12.24-24.39-26.62-24.64S2481.37,102.93,2475,118.61Z"/><path class="cls-51" d="M2516.56,165.76c3.18,22.51,13.11,50.62,41.6,50.53s42.11-24.24,37.81-47-18.8-59.2-41.8-61.51S2513.38,143.24,2516.56,165.76Z"/><path class="cls-51" d="M2568.07,196.28c-1.2,14.22,7.21,25.84,20.78,31.19s27.49-3,30.17-18.64-7.42-33-23.27-35S2569.27,182.06,2568.07,196.28Z"/><path class="cls-51" d="M2572.05,150.5c2.61,15.57,18.71,35.16,35.63,37s27.2-18.08,28.69-35-28.5-42.28-45.13-36.87S2569.44,134.92,2572.05,150.5Z"/><path class="cls-52" d="M439.81,115.45c-3.5,35.16-24.5,46.86-56.26,39.88s-48.4-32.68-46.1-61.93S359.81,45.67,391.15,51,443.31,80.28,439.81,115.45Z"/><path class="cls-52" d="M406.15,119.53c-.95,24.93,8.91,50,35.22,54.15s46.31-27.19,46.79-52.1S476.42,78.22,449.68,78,407.11,94.6,406.15,119.53Z"/><path class="cls-52" d="M509.14,69.9c.7,24.64-17.31,59.32-45.53,63s-36.28-35.3-35.26-56.85S446.58,27,470.17,28,508.44,45.25,509.14,69.9Z"/><path class="cls-52" d="M633.56,129.09c-4.45-54.46-54.11-89.59-98.86-81.78s-87.11,50.44-91.42,97.63,47.43,57.36,95.07,59.34S638,183.56,633.56,129.09Z"/><path class="cls-52" d="M667.31,78.66c.88,27.51-17.48,73.53-49,71.64s-59.13-34.24-62.14-68.88,22.63-53.15,54.56-52.31S666.43,51.14,667.31,78.66Z"/><path class="cls-52" d="M572.54,168.4c-2.31,21.74,13.15,34,35.15,37.64s33.49-5.23,35.4-28.2-7.94-49.58-31.93-48.87S574.86,146.65,572.54,168.4Z"/><path class="cls-50" d="M4010.8,167.93c17.77,30.38,66.74,56.55,99,43.36s40.33-64.7,19.86-105.12S4060.79,52,4029.23,65.88,3993,137.55,4010.8,167.93Z"/><path class="cls-50" d="M4022.6,129c15.65,24,8.5,48.17-12.8,59.42s-46.49,10.67-53.63-16.76-6.29-49.62,12.24-61.05S4007,104.93,4022.6,129Z"/><path class="cls-50" d="M4116.55,191C4101,155.2,4061.3,143.56,4036,154.32s-53.93,56.23-36.8,77.75,61.19,34.15,85.12,32.68S4132.05,226.7,4116.55,191Z"/><path class="cls-50" d="M4007.19,186.64c14.92,28,.7,63.34-13.8,86.87s-62.94,1.55-76.23-28.11-9-83.7,20-89.37S3992.27,158.67,4007.19,186.64Z"/><path class="cls-50" d="M3913.93,204.63c3.83,16.42,7.91,39.56-5.56,49.63s-31.51-18.69-36.09-35-1.06-29.95,13.93-34.73S3910.09,188.21,3913.93,204.63Z"/><path class="cls-50" d="M4016.87,239.42c-11.09-14.59-35.8-5.52-46.92,6.59s-13.45,30.63,2.39,46.22,36.72,13.21,44.21-1.58S4028,254,4016.87,239.42Z"/><path class="cls-50" d="M3970.7,246.85c-16.91-21-37.31-28.92-57.77-17.34s-24.38,53.66-4.29,75.9,41,10.32,60.87-1.26S3987.62,267.88,3970.7,246.85Z"/></svg>