<svg xmlns="http://www.w3.org/2000/svg" width="800" height="900" viewBox="0 0 800 900"><defs><style>.cls-1{fill:#ffece9;}.cls-2{fill:#fff;}.cls-3,.cls-5{stroke:#000;stroke-miterlimit:10;}.cls-4{fill:#ff95bd;}.cls-5{fill:none;}.cls-6{fill:#ccc;}</style></defs><g id="Layer_3" data-name="Layer 3"><path class="cls-1" d="M797,656.23c-4.65,2.3-10-.94-14.11-4.15A280.48,280.48,0,0,1,754,625.94a45.29,45.29,0,0,0,3,11.64q-6.57-7.26-13-14.65c1,14.31,9,26.81,19.85,36.56-12.36-9.15-24.13-19-33.68-31A79.64,79.64,0,0,0,752,666.83a115.52,115.52,0,0,1-12.32-11.7c-7.89-8.81-14.08-19.52-15.6-31.25a72.35,72.35,0,0,0,26.8,55.82,55.5,55.5,0,0,1-35-34.22c-.59-4.74-.83-9.55-1.07-14.31-1.52,3.78-.83,8.07.32,12,.23.78.47,1.56.75,2.33a61.93,61.93,0,0,0,4,16.33c-5.55-12.2-8.77-25.12-7.4-38.38.71-6.85,2.64-13.52,3.49-20.35,1.16-9.37.28-18.87-1.31-28.17a186.35,186.35,0,0,0-24-64.67c-1.21-2-3.62-5.22-5.69-8.59,5.88,25.17,8.18,53.37,6.4,84.77-1.44,25.45-5.24,48.09-11.15,68.21,2.52,70.88-19.62,138.17-3,208.37,2.21,9.36-1.43,11.35-10.1,13.8-13.14,3.72-37.83,6-51.92,7.09-5.36.41-9.1-1-11.16-3.86a18.66,18.66,0,0,0,2.54-.74c9.41-3.39,10.3-7.09,4.56-16.83a56.55,56.55,0,0,1-6.46-17.54c3-30.27,6.74-61.36,9.47-92.34q-4.49,3.34-9.2,6.42c1.86,26.86-5.58,59.93-.27,85.92-.88,8.85-1.71,17.65-2.45,26.34-.3,3.69.3,6.64,1.81,8.77-13.71,3.16-34.5-4.24-46.91-.23-9.16,3-18.74,7.28-17.81-5.67C542,835.76,556.47,815.74,524.1,792c-37.3,8.8-79.33,12.3-124.47,12.59-1.09,24.07-2.53,49.43,8.35,68.15,4.12,7.1.33,14.68-10,14.18-16-.77-35.56,5.32-49.86,4.17-9.22-.75-13.33-5.89-12-15,3.77-25.41,3.14-50.46,1.64-75.6a303,303,0,0,1-62.1-16.13c-3.51,30.82-7.46,55.37,6.38,97.27,3.72,11.25-3.13,14.4-12.93,13.84-14.85-.85-36.08-1.2-50.44-2.74-9.48-1-12.81-.18-12.43-12.3,1.93-60.37,4.82-103.81-24.1-159.38-40.55-45.89-61.31-109.39-54-187.2,6.83-72.61,33.66-122,74.4-154.26C151.72,353.19,120,293.79,122.05,231.7c1.2-36.75,14.07-71.94,35.24-99.31C133.15,142,104.79,150,92.71,154.14c-11.86,4.1-40.93-10.78-63-18.66-14.41-5.15-26.45,0-26.67-9.94C2.45,100.37,78,60.34,101.59,55.47c18.87-3.89,77,23.94,90.54,44.26a125.27,125.27,0,0,1,85.53-20.25,164,164,0,0,1,20.73,3.84c9.68-26.76,51.34-60.08,69.69-68.19C391,5,498.3-6,505.89,22.91c3.6,13.73-20.7,27.6-38.5,42.69-19.72,16.71-33.81,34.37-44.15,43.17-8.56,7.3-31.1,12-54.82,12.77,33.26,31.41,52,76.74,49.57,125.16-1.5,30.34-10.35,57.68-25.25,80.32q15.58-.13,31.65.5C548.44,332.26,650.45,380.77,681.86,490c2.23-2.84,8.74,10,10,12.23a189.41,189.41,0,0,1,17.83,42c1.68,5.82,3.08,11.73,5.19,17.42,2,5.3,4.53,10.36,6.66,15.61,2,5,3.67,10.21,6,15.09,4.44,9.17,11.28,16.94,18.59,24C761.63,631.44,779.34,643.87,797,656.23Z"/><ellipse class="cls-2" cx="189.93" cy="218.08" rx="49" ry="36" transform="translate(-34.59 400.34) rotate(-88.01)"/><ellipse class="cls-2" cx="315.48" cy="204.42" rx="52" ry="39" transform="translate(100.25 512.63) rotate(-88.01)"/><ellipse class="cls-3" cx="316.12" cy="214.95" rx="41.5" ry="38" transform="translate(90.34 523.43) rotate(-88.01)"/><ellipse class="cls-3" cx="188.55" cy="229.04" rx="38" ry="35" transform="translate(-46.88 409.54) rotate(-88.01)"/><ellipse class="cls-2" cx="189.71" cy="239.08" rx="13" ry="10.5" transform="matrix(0.03, -1, 1, 0.03, -55.81, 420.39)"/><circle class="cls-2" cx="201.38" cy="205.47" r="5"/><circle class="cls-2" cx="184.22" cy="209.87" r="4"/><ellipse class="cls-2" cx="312.67" cy="227.84" rx="15.5" ry="12" transform="translate(74.13 532.42) rotate(-88.01)"/><circle class="cls-2" cx="321.96" cy="190.64" r="5"/><circle class="cls-2" cx="303.15" cy="199.49" r="3.5"/><path class="cls-4" d="M149.85,100.84c-11.17-4.15-22.1-10.75-34-9.93-16.8,1.15-29,16.47-44.79,22.31-8.17,3-17,3.39-25.75,3.73,2.08,5.14,8.21,7.46,13.76,7.55S70.1,123,75.65,123c9.7,0,18.91,4.78,28.61,4.92,17.07.26,31.76-13.63,48.83-14.2,4.09-.14,23.43,2.25,19.84-5.62C170.87,103.63,154.2,102.45,149.85,100.84Z"/><path class="cls-4" d="M376.75,56.36c13.75-5.63,28.65-7.69,43.19-10.78s29.29-7.45,40.84-16.8c3.1-2.51,6.13-5.46,10-6.28s8.83,1.81,8.55,5.79c-.33,4.69-6.41,6-10.74,7.8-9.39,4-13.52,14.64-18.5,23.53-6.11,10.9-15.47,20.74-27.56,23.84C416,85.14,409.14,84.74,402.39,85a106.15,106.15,0,0,0-35.7,7.56c-9.81,3.93-30.75,4.9-20.95-10.85C352.89,70.22,364.35,61.43,376.75,56.36Z"/><path d="M360.11,184.28a12.27,12.27,0,0,1-10.1-5.09l.83-.56a11.33,11.33,0,0,0,14.84,3.11l.54.84A11.51,11.51,0,0,1,360.11,184.28Z"/><path d="M350.73,171.21a9.22,9.22,0,0,1-6.4-2.43l.69-.72a8.86,8.86,0,0,0,12.77-1.25l.82.58a9.4,9.4,0,0,1-6.84,3.77C351.42,171.19,351.07,171.21,350.73,171.21Z"/><path d="M337.88,158.7a10.72,10.72,0,0,1-1.95-.18l.18-1A10.08,10.08,0,0,0,348,147.37l1,0a11.07,11.07,0,0,1-11.1,11.35Z"/><path d="M323.59,152.52l-.3-1a13.82,13.82,0,0,0,9.48-13.63l1-.05A14.87,14.87,0,0,1,323.59,152.52Z"/><path d="M306.77,153.07l-.28-1a12.83,12.83,0,0,0,8.38-15.59l.95-.31a13.85,13.85,0,0,1-9.05,16.87Z"/><path d="M293.81,161.07l-.82-.57a18.29,18.29,0,0,0,2.27-15.93l.95-.31A19.29,19.29,0,0,1,293.81,161.07Z"/><path d="M284.78,172.87l-1-.06a18.12,18.12,0,0,0-4.67-13.07l.74-.68A19.11,19.11,0,0,1,284.78,172.87Z"/><path d="M219,187.72a30.78,30.78,0,0,1-1.19-19.31l1,.26a29.71,29.71,0,0,0,1.15,18.67Z"/><path d="M207.6,174.77A24.13,24.13,0,0,1,201.68,156l1,.12a23.11,23.11,0,0,0,5.68,17.94Z"/><path d="M191.07,168.2a17.31,17.31,0,0,1-3.51-15.72l1,.28a16.26,16.26,0,0,0,3.31,14.78Z"/><path d="M180.4,170.85a11.2,11.2,0,0,1-8.66-4.71c-2.51-3.39-3.31-7.72-3.7-10.69l1-.13c.6,4.6,1.69,7.75,3.51,10.22s5.49,4.88,9.16,4.19l.18,1A8.07,8.07,0,0,1,180.4,170.85Z"/><path d="M171.6,176a27.15,27.15,0,0,1-10.11-1.56,16,16,0,0,1-9.3-10.77l1-.24a15,15,0,0,0,8.71,10.09,26.43,26.43,0,0,0,9.74,1.48Z"/><path d="M153.85,188.72a15.34,15.34,0,0,1-11.11-4.6l.73-.69a14.75,14.75,0,0,0,18.64,1.68l.59.81A15,15,0,0,1,153.85,188.72Z"/><path d="M146.45,198.82a15,15,0,0,1-7.87-2l.51-.85c5.84,3.47,13.4,1.39,20-.83l.32,1C155.28,197.49,150.75,198.82,146.45,198.82Z"/><path d="M361.36,195.13c-.3,0-.61,0-.92,0a10.36,10.36,0,0,1-7.45-3.84l.79-.61a9.84,9.84,0,0,0,14,1.1l.68.73A10.22,10.22,0,0,1,361.36,195.13Z"/><path d="M284,308.72c-.2,4.6-2,9.52-7.27,9.45s-8.52-5.59-8.16-10.41,3.73-9.62,9.07-9.3S284.21,304.12,284,308.72Z"/><path d="M632.63,402c-1.79-.47-3.52-1.43-3.9-3.14-40.6-39-92.56-61.91-148.62-67.47l-51.66-5.13c-5.5-.54-10.53.21-16-.21-10.24-.77-18.17,10.12-18.56,20.37s4.35,19.9,8.16,29.43a175,175,0,0,1,9.13,30.65c1.38,6.88,2.36,13.91,5.05,20.38,8.29,20,31.75,32.6,34.62,54.07.87,6.53-.35,13.17.11,19.75.72,10.23,5.43,19.68,8.92,29.32,4.94,13.63,7.5,28,9.44,42.36,1.82,13.44,4.77,29.32,17.16,34.82,9.44,4.18,21.49.55,30,6.46,2.75,1.91,4.81,4.66,7.28,6.93a27.08,27.08,0,0,0,26.38,5.61c12.19-20.67,1.33-48.43,11.09-70.36,6.19-13.91,19.59-23.05,28.87-35.13a69.77,69.77,0,0,0,14.24-40.63c.23-10.12-1.71-20.5,1.07-30.23,2.89-10.07,10.39-18,16.95-26.18,4.33-5.41,11.18-11,13.21-17.57C635.34,406.09,632.76,402.05,632.63,402Z"/><path d="M142.77,649.18c4,1.24,6.54,1.92,10.1-.37s6.51-5.42,9.81-8.08a47.26,47.26,0,0,1,29.82-10.4,5.21,5.21,0,0,1,2.51.47c1.39.79,1.78,2.56,2.25,4.08,3.17,10.34,15.43,15.86,26.14,14.31s19.85-8.57,27.23-16.48,13.54-16.94,21.42-24.36c7.19-6.77,15.68-12.07,22.78-18.94s12.95-16,12.64-25.85c-.22-7.2-3.75-14-8.6-19.34s-10.95-9.35-17.17-13a93.6,93.6,0,0,0-11.46-5.85c-5.49-2.25-11.62-3.9-15.42-8.46-5.76-6.91-3.7-17.08-3.12-26a66.17,66.17,0,0,0-1.38-18.3c-.83-3.79-2.08-7.67-4.82-10.42-5.43-5.44-14.31-4.56-21.62-6.93-4-1.28-7.5-3.55-11.11-5.62a119.38,119.38,0,0,0-25.31-10.83c-3-.88-6.15-1.65-9.14-.85a29.07,29.07,0,0,0-5.65,2.72,24.84,24.84,0,0,1-17.2,2.08c-13.73,23.82-20.88,51.68-23.95,79s-1.88,55,.86,82.32C134,620.56,136.55,633.81,142.77,649.18Z"/><path class="cls-5" d="M394.94,360l0,.61"/><path class="cls-6" d="M207.89,866.12,232.54,872a19.37,19.37,0,0,0,5.29.75,28.59,28.59,0,0,0,5.7-1.25c5-1.28,10.31-1.2,15.52-1.1,6.37.11,15.32-1.93,21.69-1.81.77,6.54,6.17,14.3,4,20.56-1.67,4.8-8.35,6.47-14,6.5a53.6,53.6,0,0,1-11.92-1.28c-2.71-.6-5.64-1.39-8.18-.39-.14-3.64-3.06-.22-4.65-3.59-1.57.79-1.12-5.47-2.69-4.69a21.07,21.07,0,0,1-9.29,8c-2.79,1.17-6,1.1-9.1,1-4.75-.15-9.69-.35-13.91-2.34a5.4,5.4,0,0,1-2-1.46,5.18,5.18,0,0,1-.82-2.37C206.92,881.31,208.58,873.35,207.89,866.12Z"/><path class="cls-6" d="M361.78,866.08,398.16,861c3-.42,6.58-.7,8.8,1.45a70.68,70.68,0,0,0,5,18.78c-5.23,6-13.82,7.85-21.79,7.9s-16-1.29-23.87-.16c-6,.86-12,3.13-17.84,1.55a16.32,16.32,0,0,1-10.64-10.23c-2.33-6.39-2.25-12.45,3.35-14C346.48,864.83,355.75,866.91,361.78,866.08Z"/><path class="cls-6" d="M542.45,864.38c0,2.52-.93,4.94-1.47,7.4s-.59,5.29,1,7.25,4.68,2.5,7.37,2.57,5.46-.1,8.19-.26c6.43-.38,13.48-1,18.06-5.56a5.61,5.61,0,0,1,1.37-1.12c2.18-1,4.09,1.66,5.66,3.47,4.11,4.75,11.33,4.79,17.6,4.45a3.44,3.44,0,0,0,2.17-.64,3.22,3.22,0,0,0,.79-1.87,35.14,35.14,0,0,0-.15-12.69,4.14,4.14,0,0,0-.81-2,4.41,4.41,0,0,0-3.26-1L558.31,863C553.29,862.81,547.46,864.05,542.45,864.38Z"/><path class="cls-4" d="M303.25,304.73c-.13,6.76-4.28,11.16-3.58,17.7.57,5.26,3.92,8.95,3.33,14.32-.82,7.63-6.46,12.74-13.44,16.24-24.59,12.32-53.78,11.25-76.24-5.07-5.1-3.7-8.55-7.88-9.15-14.06-.35-3.53,1.13-6.21,1.86-9.84,1.56-7.67-1.76-13.45-1.27-21.53,2.2-36.47,27.56-15.34,51.55-15.85C277.56,286.18,303.92,271.59,303.25,304.73Z"/><path class="cls-6" d="M601.61,880.15c2.5.63,4.45,2.63,6.88,3.49,4.9,1.73,10-1.49,14.88-3.23,10.09-3.58,21.25-.82,31.9-1.83A45.08,45.08,0,0,0,677,870.53a4.5,4.5,0,0,0,2.12-2.58,4.74,4.74,0,0,0-.33-2.25l-2.34-7.32c-1.32-4.12-3.06-8.73-7.06-10.39-3.37-1.4-7.21-.19-10.67,1-13,4.38-26.46,8-40.27,7.26-6.44-.35-9.49-2.75-12.75,2.74C602.84,863.68,603.73,874.4,601.61,880.15Z"/><path d="M232.19,304.72c-.17,3.13,1.15,8.24-3.36,8.41s-7.08-5.21-6.94-8.64,3.56-8.34,7.63-7.85S232.37,301.58,232.19,304.72Z"/><path d="M275.72,304.25c.14,3.28-.6,9.47-5.15,8.08s-5.16-3.59-5.68-10.32,7.34-6.41,10.19-5.7S275.59,301,275.72,304.25Z"/><path class="cls-2" d="M394.9,253.5h0c2,.93,3.37,1.52,5.21-2.18,14.62-29.39,9.3-45-5.57-72.28-1.87-3.43-3.37-3-5.34-2h0c-2,1-3.67,2.32-1.91,5.58,14,25.92,19.56,37.26,5.58,65.27C391.11,251.4,392.85,252.57,394.9,253.5Z"/><path class="cls-2" d="M107.92,77.37c-34.13,3.87-18,17-40.9,26.74-4.43,1.88-5.67.69-7-1.61h0c-1.36-2.3-2-4.39,2.17-6.12,21.64-8.94,4.43-22.67,47.28-28.93,8.27-1.21,7.43,1.19,6.52,5h0C115,76.23,114.51,76.62,107.92,77.37Z"/><path class="cls-2" d="M349.85,54.15c18.78-24.73,40.28-23.23,69.27-20.71,5.65.49,7-1.91,7.38-5.6h0c.34-3.69.13-6.47-6-7-31.25-3-55.66-4.77-76.95,21.07-4.15,5-4,6.92-2.1,11.24h0C343.38,57.43,346.19,59,349.85,54.15Z"/><path class="cls-2" d="M665.3,556.73h0c-2.62,0-4.89,1-5-4.67-1.24-43.15,7.25-55.14-21-92.69-3.69-4.92,2.09-5.31,5-5.57h0c2.93-.25,7.71,3.29,11,7.16,25,29.54,14,53.92,14.68,90.28C670.06,556,667.92,556.69,665.3,556.73Z"/><path class="cls-2" d="M289.66,297.28c-5.16-9.6-22.08-3.54-32.22-3.27-1.5,0-3.06-.5-3.06-2.48h0c0-2,.89-2.33,2.78-2.4,12.66-.43,28.74-6.08,36.63,5.26,1.18,1.69.64,2.34-.74,3.61.13.21.13.18,0,0C291.66,299.28,290.43,298.71,289.66,297.28Z"/></g></svg>