<svg id="Layer_1" data-name="Layer 1" xmlns="http://www.w3.org/2000/svg" width="400" height="400" viewBox="0 0 400 400"><defs><style>.cls-1{fill:#8f5b48;}.cls-2{fill:#73321a;}.cls-3{fill:#844c36;}.cls-4,.cls-7{fill:#fff;}.cls-5,.cls-6,.cls-7{stroke:#000;stroke-miterlimit:10;}.cls-6{fill:none;}.cls-8{fill:#ab8476;}.cls-9{fill:#9d6f5f;}</style></defs><path class="cls-1" d="M235.55,357.56a81.56,81.56,0,0,0-11.43-8,118.8,118.8,0,0,0,11.34,8.07Z"/><path class="cls-1" d="M203.06,330.83c-2-6.34-1.13-13.58-1.37-19.82-1.42-36.94,10.4-63.13,46-68.93s57.1,25.13,53.68,55.72C298.84,320.31,274.72,357.48,254,368c.49,1.18,2,1.61,2.85,2.48a142.82,142.82,0,0,0,27.24,4.68,129.89,129.89,0,0,0,17.42-.3c-1.66,2.65-2.78,7.46-1.63,10.12,2.3,5.3-.95,11.46,6,13.24,11.87,3,27.27-.92,39.11.71,6.94.95,8.36-1.05,13.09-4.54,3.76-2.78,2-7.83-.89-10.29-3.58-3.1-5.44-5.82-10.09-7.4-7.51-2.55-16.17-4.06-23.86-6.62,49.27-14.69,73.48-53.48,76-101.59,2.51-48.6-5.95-80-47.64-108.71,11.27-4.78,21.2-12.45,27.78-23.21a48.62,48.62,0,0,0,6.72-33.37c-3.48-21.53-12.05-41.82-29.28-55.58C365.37,46,372.55,38,372.4,30.08c-.21-11.42,3.19-29.23-11.24-21.7-9.47,4.93-20.45,9.28-21.84,19.93-.62,4.71,1.26,7.69,2.25,11.84a63.28,63.28,0,0,0-17.63-2.38,69,69,0,0,0-22,3.92c.8-4.1-.26-6.53,0-11,1-16.19-8.91-18.85-20.13-19.93-9-.88-14.32-4.08-19.5-3-1.08.23-1,.49-1.27,1.58-2.1,7.66,1.82,14.72,3,23.28,1.8,12.79,3.9,20.19,18.76,21.21-12.25,13.83-18,28.52-18.41,47.91-.06,2.71,2.84,14.21,4.22,18.19.18.52.64,2.92.9,3.49,2.1,4.65,4.28,18.93,5.18,21.91,2.86,9.46-8.21,22.64-11,24.73-14.05,10.6-22.34,20.72-32.94,31.42-18.91,19.1-34.25,42.71-38.7,68.45C188.24,292.63,192.81,311.42,203.06,330.83ZM348.82,161l1.28-.44A1,1,0,0,1,348.82,161Z"/><path class="cls-2" d="M178,317.52c-.09-3.71-1.58-7.23-2.22-10.88s-.18-7.93,2.74-10.22"/><path class="cls-3" d="M7.85,236.47c-6.36,16.42-5.07,17.28,7.56,3.56,11.59-12.6,16.54-28.63,27-40.9.51-.59-.65.7-.46.17,1.36-.33,4.16-3.25,5.47-5.52,6.84-11.84,13.83-19.56,28.35-21.21h.1c1.11.34,2.95.24,6-.24,6.54-1,25.77,1.56,34.85,14.81,8,11.63,12,19.44,15.21,59,1,11.79-3.09,47.93,9.73,67.52,14.7,22.43,47.57,27.84,67.9,29.95,4.16.43,6.59.52,8.07.26,3-.55,2-2.62,3.5-6.39.76-1.91-3.85-4.7-5.27-5.51-4.15-2.39-6.22-6.66-12.31-5.37l-.1,0c-18.45,4.07-41.34-23.32-43.19-39.65a27.92,27.92,0,0,1,.26-6.77c7.35-39.56,11.46-67.23-6.14-105.56-1.05-2.27-1.67-3.74-2.31-4.78A26.83,26.83,0,0,0,146,157c-3.66-4.17-4.9-5.46-8.53-8.16-.61-.45-2.38.25-1.48.81,1.32.82-26.15-16.64-53.79-9.76-1.66.41-2.9.81-3.85,1.14-1.66-.09-4,.94-7.82,2.89C50,154.42,41.23,165.62,28.9,182.52c-1.93,2.64-2.54,4.09-2.44,5a3.57,3.57,0,0,0-2.23,2.24c-3.94,8.61-8.33,28.24-11.34,38.59C12,231.59,9.14,233.16,7.85,236.47Z"/><path class="cls-2" d="M183.4,313.6A17.06,17.06,0,0,0,194,326.29"/><path class="cls-2" d="M193.91,326.57l.21-.57a16.7,16.7,0,0,1-10.42-12.45l-.6.11A17.31,17.31,0,0,0,193.91,326.57Z"/><path class="cls-2" d="M199.93,326.56A18.11,18.11,0,0,1,194,311.38"/><path class="cls-2" d="M199.72,326.79l.41-.46a17.79,17.79,0,0,1-5.81-14.92l-.6-.06A18.39,18.39,0,0,0,199.72,326.79Z"/><path class="cls-2" d="M184.18,321.6a23.64,23.64,0,0,1-3.42-15.21"/><path class="cls-2" d="M175.1,315.34c-2.55-.82-3.42-3.94-3.69-6.6a52.91,52.91,0,0,1,.37-13.54"/><path class="cls-2" d="M163.79,283.8A21.28,21.28,0,0,0,165,306.44C166.44,300.13,160,289.08,163.79,283.8Z"/><path class="cls-2" d="M156.22,290.85c-.07-4.77-.11-9.63,1.27-14.2s4.42-8.88,8.86-10.61"/><path class="cls-2" d="M152.46,275.29a24.39,24.39,0,0,1,15.59-19.56"/><path class="cls-2" d="M151.62,263.05a24.38,24.38,0,0,1,19.56-21.88"/><path class="cls-2" d="M151.62,247.42l3.83-8.81a16.49,16.49,0,0,1,3.06-5.16c4-4,10.91-2.87,16-5.48"/><path class="cls-2" d="M153.48,234.19a65.45,65.45,0,0,1,4.37-11.39c1.5-3,3.45-6.15,6.58-7.46s6.69-.63,9.51-2.32"/><path class="cls-2" d="M153,218.48c2.54-4,2.61-9.11,3.66-13.77s3.9-9.69,8.64-10.3"/><path class="cls-2" d="M148.53,197.53a22.85,22.85,0,0,1,13.79-18.37"/><path class="cls-2" d="M154.93,200.47c-.88-1.27,0-3,.95-4.22l9.85-13.64a2.17,2.17,0,0,1,2.12.5"/><path class="cls-2" d="M159.5,222.62c-1.47-.71-1.19-2.88-.56-4.38a31.57,31.57,0,0,1,9-12.19c.66-.54,1.89-.93,2.17-.12"/><path class="cls-2" d="M149.33,186.53a42,42,0,0,1,9.52-15.26"/><path class="cls-2" d="M146.09,182.48l3.19-8.48a29.05,29.05,0,0,0,2.15-7.86,9.87,9.87,0,0,0-2.28-7.61"/><path class="cls-2" d="M140.25,174.29c1.61-4.45,3.22-9,3.37-13.71s-1.42-9.75-5.16-12.65"/><path class="cls-2" d="M137.91,162.45c0-4.27-.08-8.6-1.28-12.69s-3.74-8-7.57-9.85l-1.17,1.52"/><path class="cls-2" d="M117.53,151.08A21.92,21.92,0,0,0,95.82,127.3"/><path class="cls-2" d="M107.39,147.45c-.8-5.15-5.29-9.14-10.26-10.73s-10.34-1.17-15.49-.41"/><path class="cls-2" d="M94.54,148.67c.44-3.5-2.17-6.86-5.42-8.23s-7-1.11-10.42-.37-6.81,2-10.3,2.43"/><path class="cls-2" d="M85.16,149.11l-5.61-.79A38.25,38.25,0,0,0,69,147.81c-3.5.48-7,2.08-9,5"/><path class="cls-2" d="M103.48,143.55c-3.41.57-6.36-2.21-8.86-4.6s-6-4.77-9.16-3.3"/><path class="cls-2" d="M129.69,154.83c1.55-1.63,1.31-4.36.07-6.24s-3.22-3.1-5.14-4.26l-11.13-6.71"/><path class="cls-2" d="M87.54,148.25A65.65,65.65,0,0,0,77,144.55L68.13,142c-3.16-.9-7.25-1.51-9.12,1.2"/><path class="cls-2" d="M76.12,154.53a64,64,0,0,0-12.68-2.38c-2.95-.15-5.92.1-8.85-.22-2.5-.27-5-1-7.5-.73s-5.15,1.75-5.63,4.22"/><path class="cls-2" d="M62.75,162.1c-3-2.67-6.36-5.46-10.39-5.94a18,18,0,0,0-6.47.72,77.32,77.32,0,0,0-9.3,3"/><path class="cls-2" d="M52.77,168.22c-3.34-3.68-9.15-3.47-14-2.36-4.68,1.08-9.49,2.95-12.36,6.8"/><path class="cls-2" d="M43.59,178.1c-3.54-2.38-8.28-2.28-12.28-.79s-7.39,4.17-10.73,6.82"/><path class="cls-2" d="M35.22,186.53l-6.11-.19c-3-.09-6.17-.17-9,.92-4.14,1.59-7,5.37-9.56,9"/><path class="cls-2" d="M14.7,213.18c3.36-6.36,7.44-13.32,14.38-15.24-1.92,1.89-6.35-.83-8.86.14C15.72,199.82,15.77,208.48,14.7,213.18Z"/><path class="cls-2" d="M25.8,218c-4.13.4-8.34.81-12.14,2.46s-7.21,4.79-8.09,8.84"/><path class="cls-2" d="M19.09,230.23c-4.77,1.26-9.78,2.65-13.24,6.17C3,239.27,1.6,243.2.35,247"/><path class="cls-2" d="M12.42,241.88c-6.58.64-11.88,7.46-10.87,14"/><path class="cls-2" d="M16.19,223.11c.54,1.07-.61,2.18-1.62,2.82L2.18,233.87"/><path class="cls-2" d="M12.64,236.22A23.88,23.88,0,0,1,16.77,246c.15.83-.55,2.11-1.12,1.49"/><path class="cls-2" d="M18.83,226.57a28.63,28.63,0,0,1,3.4,8.1c.55,2.89.11,6.12-1.87,8.3l-.76-3.24"/><path class="cls-2" d="M26.55,218.24a20.82,20.82,0,0,1,3,14.91"/><path class="cls-2" d="M32.16,208.8A17.4,17.4,0,0,1,34.9,226"/><path class="cls-2" d="M197.79,337a7.74,7.74,0,0,1-9.91,9.95"/><path class="cls-2" d="M190.47,347.65a8,8,0,0,0,7.61-10.8l-.57.21a7.43,7.43,0,0,1-9.52,9.55l-.21.57A7.78,7.78,0,0,0,190.47,347.65Z"/><path class="cls-2" d="M204.82,338.14a22.83,22.83,0,0,1,.15,7.14,7.65,7.65,0,0,1-4,5.64c-1.82.81-3.9.6-5.88.38"/><path class="cls-2" d="M197.8,351.8a8.1,8.1,0,0,0,3.29-.6,7.9,7.9,0,0,0,4.18-5.86,22.82,22.82,0,0,0-.15-7.24l-.61.07a22.31,22.31,0,0,1,.16,7.06,7.23,7.23,0,0,1-3.83,5.41c-1.79.8-3.87.56-5.71.36l-.07.6A23.19,23.19,0,0,0,197.8,351.8Z"/><path class="cls-2" d="M189.16,334.68c.84,1.86-.25,4-1.31,5.73-1.63,2.69-3.74,5.69-6.88,5.89-2.76.18-6.06-1.79-8,.2"/><path class="cls-2" d="M177.26,333.56a9.77,9.77,0,0,1-6.31,5.23,28.71,28.71,0,0,1-8.38.9c-1.31,0-3-.35-3.11-1.66"/><path class="cls-2" d="M171.25,325.79c-2.21,2.51-4.66,5-7.84,6-4.12,1.31-8.54-.17-12.61-1.63"/><path class="cls-2" d="M157.6,322.59c-1.66,2.51-5,3.45-8,3.07s-5.71-1.85-8.35-3.29a11,11,0,0,1-2.68-1.83"/><path class="cls-2" d="M148.44,314c-2.77,1.58-6.38,1-9.08-.72s-4.62-4.38-6.31-7.09"/><path class="cls-2" d="M143,304.35c-1.88.79-3.92-.63-5.35-2.08a33.18,33.18,0,0,1-6.9-10.37"/><path class="cls-2" d="M136.22,281.25c-3.79-.08-9.74,1.35-12.68-1a35,35,0,0,0,13.13,11.38"/><path class="cls-2" d="M140.67,277.29a17.57,17.57,0,0,1-16.52-12.06"/><path class="cls-2" d="M136.77,266.47a19.2,19.2,0,0,1-12.7-9"/><path class="cls-2" d="M136,254a29.64,29.64,0,0,0-14.25-3"/><path class="cls-2" d="M134.9,245.36a18,18,0,0,0-15.35-11.56"/><path class="cls-2" d="M137.22,231.07a27.69,27.69,0,0,0-13.7-9.43c-3.11-.94-7-1.13-9.12,1.31"/><path class="cls-2" d="M136.65,220.36c-3.88-7.09-13.86-10-21-6.17"/><path class="cls-2" d="M133.43,209.75a14,14,0,0,0-20-6.16"/><path class="cls-2" d="M128.79,197.21A16.58,16.58,0,0,0,109,194.13"/><path class="cls-2" d="M125.44,188.66c-2.11-4.8-7.76-7.35-13-7s-10,3-14.12,6.35"/><path class="cls-2" d="M116.66,178.33a24.08,24.08,0,0,0-25,1.8"/><path class="cls-2" d="M104.11,170c-8.41-2.63-18.43,1.82-22.1,9.83"/><path class="cls-2" d="M86.83,167.68c-4.07-1.11-8.49.57-11.69,3.32s-5.43,6.43-7.59,10.06"/><path class="cls-2" d="M64.82,170.67a44.36,44.36,0,0,0-6.33,19.08"/><path class="cls-2" d="M54.11,177a60.58,60.58,0,0,0-2.26,19.41"/><path class="cls-2" d="M47.57,185.55a23.11,23.11,0,0,0-6.26,26.39"/><path class="cls-2" d="M36.42,200.84c-2.64,2.83-2.57,7.26-1.63,11s2.6,7.42,2.58,11.29"/><path class="cls-2" d="M318.68,279.87c3.41,0,8.29-1.47,9.91-3.08l.07-.07,0-.08a44.34,44.34,0,0,1,1.63-5.33,32.17,32.17,0,0,0,2-7.74,48.68,48.68,0,0,0-.39-9.26c-.17-1.55-.33-3-.41-4.48-.07-1.19-.11-2.24-.14-3.24a49.36,49.36,0,0,0-.81-8.38,89.89,89.89,0,0,0-2.62-9.58c-.68-2.21-1.33-4.3-1.83-6.22l-.05-.11c-1.73-2.26-3.55-4.43-5.32-6.53s-3.5-4.17-5.19-6.38l-.09-.07c-1.57-.94-3.32-1.9-5.18-2.92a92.62,92.62,0,0,1-9.74-5.86,26.42,26.42,0,0,1-4.64-4.53,29.48,29.48,0,0,0-3.78-3.87l-.38.46a28.78,28.78,0,0,1,3.69,3.8,27,27,0,0,0,4.75,4.63,92.63,92.63,0,0,0,9.81,5.9c1.83,1,3.56,2,5.11,2.88,1.69,2.2,3.46,4.31,5.18,6.36s3.55,4.22,5.26,6.45c.5,1.92,1.14,4,1.82,6.19a89.85,89.85,0,0,1,2.6,9.51,49,49,0,0,1,.8,8.29c0,1,.07,2.06.14,3.26.08,1.47.25,3,.41,4.5a47.68,47.68,0,0,1,.39,9.15,31.55,31.55,0,0,1-2,7.59,46.67,46.67,0,0,0-1.63,5.31c-2.06,1.94-9.39,3.71-11.76,2.44a90.71,90.71,0,0,1-5.41-8c-.88-1.42-1.8-2.9-2.75-4.32-.55-1.71-1.07-3.54-1.57-5.3-.83-2.93-1.69-6-2.75-8.63-1-2.44-1.55-3.71-2.28-5.32-.53-1.18-1.14-2.53-2-4.63-2.21-5.18-9-13.17-15.16-14.41a72.37,72.37,0,0,0-11.7-1.09c-2.21-.09-4.29-.17-6.3-.37a71.48,71.48,0,0,1-9.74-1.74c-1.45-.33-2.95-.68-4.61-1l-.12.6c1.65.32,3.15.67,4.6,1a71.9,71.9,0,0,0,9.81,1.76c2,.2,4.12.28,6.33.37a71,71,0,0,1,11.61,1.08c5.92,1.2,12.56,9,14.72,14,.9,2.11,1.51,3.45,2,4.64.72,1.6,1.29,2.87,2.26,5.3a85.81,85.81,0,0,1,2.73,8.56c.51,1.79,1,3.63,1.59,5.36l0,.08c1,1.43,1.88,2.91,2.77,4.34a86.75,86.75,0,0,0,5.48,8.11l.09.08A5.65,5.65,0,0,0,318.68,279.87Z"/><path class="cls-2" d="M359.21,238.56c.09-6.68.91-16,4.29-22.37,3.94-7.44,11.42-14,22.21-19.58.48-.25.92-.48,1-.54l.17.15V196h.29l.07.24c.07.28,0,.31-1.24,1-10.68,5.5-18.07,12-21.95,19.32-6.38,12-3.65,34.87-3.62,35.1v.07c0,.11-.95,11.31,1.77,15a30.83,30.83,0,0,1,2.2,3.84c1.7,3.27,3.82,7.33,6.28,7.91a3,3,0,0,0,2.53-.65c5.73-4.2,8.52-8.76,8.52-14,0-1.95-.16-3.6-.3-5.2-.36-3.9-.65-7,1.54-11.36,3.09-6.18,6.11-10,11.56-10h.23a15.47,15.47,0,0,0,4.41-.43,3.87,3.87,0,0,0,.13.59,16.63,16.63,0,0,1-4.55.45c-5.29-.09-8.13,3.47-11.23,9.67-2.11,4.22-1.84,7.23-1.49,11,.15,1.61.3,3.28.3,5.26,0,5.4-2.86,10.13-8.76,14.45a3.93,3.93,0,0,1-2.3.84,3,3,0,0,1-.73-.09c-2.73-.64-4.83-4.66-6.68-8.22A30.1,30.1,0,0,0,361.7,267c-2.81-3.81-1.95-14.58-1.88-15.38A106.6,106.6,0,0,1,359.21,238.56Z"/><path class="cls-2" d="M386.9,196.56v0Z"/><path class="cls-3" d="M201.4,322.88c3.55,15.88,12.94,20.88,22.72,26.69a70.34,70.34,0,0,1,11.43,8l-.09.08a10.45,10.45,0,0,0-3.73,8.61c.3,4.1-3,13.56-4.15,17.09-1.72,5.47-1.54,11.53,3.3,13.06,15.19,4.82,30.36.84,45.53,1.81,4.82.3,6.18-2,9.5-4.79,2.13-1.77,4.14-4.84,2.12-7.55-3.13-4.2-6.16-7.25-11.47-8.85a49.43,49.43,0,0,1-14.93-7.6c-1.06-.76-2.07-1.53-3.06-2.31,18.77-9.27,42.74-46.77,46-70.4,4.39-32.11-23.08-61.38-52.84-57.53s-49.95,16.47-51.71,64A77.92,77.92,0,0,0,201.4,322.88Z"/><path class="cls-2" d="M230.79,396.69c-5.17-1.63-5.2-8-3.5-13.44.15-.49.35-1.1.58-1.79,1.33-4.09,3.81-11.72,3.56-15.19a10.81,10.81,0,0,1,3.66-8.72A71,71,0,0,0,224,349.83l-1.13-.67c-9.41-5.56-18.29-10.82-21.72-26.22h0a77.41,77.41,0,0,1-1.42-19.75c.83-22.52,5.88-38.41,15.44-48.6,8.11-8.65,19.38-13.5,36.53-15.71,13.66-1.77,27.59,3.34,38.19,14a52.64,52.64,0,0,1,15,43.85c-1.54,11.24-8,26.46-17.21,40.71s-19.67,25.17-28.5,29.71c1,.76,1.84,1.4,2.67,2a48.46,48.46,0,0,0,14.85,7.56c5.31,1.6,8.38,4.61,11.63,9,2.08,2.81.13,6.05-2.18,8-.62.51-1.16,1-1.69,1.49-2.22,2-4,3.61-8,3.36a141.34,141.34,0,0,0-16.35.24c-3.63.19-7.31.39-11,.39A59.66,59.66,0,0,1,230.79,396.69Zm45.64,1.22c3.78.23,5.37-1.21,7.57-3.21.53-.48,1.08-1,1.71-1.51s4.44-3.95,2.08-7.13c-3.17-4.25-6.17-7.2-11.32-8.75a49.1,49.1,0,0,1-15-7.64c-.95-.69-1.93-1.42-3.07-2.32l-.38-.29.43-.22c8.82-4.36,19.28-15.19,28.69-29.71,9.19-14.18,15.59-29.3,17.11-40.46a52,52,0,0,0-14.81-43.34c-10.47-10.55-24.21-15.6-37.68-13.85-29.61,3.83-49.68,16.13-51.44,63.73a76.73,76.73,0,0,0,1.4,19.6h0c3.38,15.14,12.15,20.33,21.44,25.83l1.13.67a70,70,0,0,1,11.49,8l.23.27-.34.27a10.19,10.19,0,0,0-3.61,8.36c.26,3.59-2.15,11-3.6,15.42-.22.69-.42,1.29-.57,1.78-1.61,5.15-1.65,11.18,3.1,12.68,9.67,3.07,19.52,2.54,29,2,3.64-.19,7.37-.39,11.09-.39C272.88,397.75,274.66,397.79,276.43,397.91Z"/><ellipse class="cls-4" cx="322.1" cy="98.02" rx="15.51" ry="19.77"/><ellipse class="cls-4" cx="364.08" cy="93.15" rx="11.86" ry="16.73"/><path class="cls-4" d="M351.91,93.15c0-9.39,5.46-17,12.17-17s12.16,7.64,12.16,17-5.46,17-12.16,17S351.91,102.54,351.91,93.15Zm.61,0c0,9.06,5.18,16.42,11.56,16.42s11.55-7.36,11.55-16.42-5.18-16.42-11.55-16.42S352.52,84.09,352.52,93.15Z"/><ellipse class="cls-5" cx="363.77" cy="96.69" rx="11.56" ry="14.19"/><ellipse class="cls-5" cx="322.41" cy="101.97" rx="15.21" ry="15.82"/><path d="M325.45,78.55v-.61c-2.85,0-5.17-2.86-5.17-6.38h-.61C319.67,75.41,322.26,78.55,325.45,78.55Z"/><path d="M317.54,79.16v-.61c-3.52,0-6.39-2.59-6.39-5.78h-.6C310.55,76.29,313.68,79.16,317.54,79.16Z"/><path d="M330.92,81.59V81a.22.22,0,0,1,.17.07c-.2-.27-.47-2.46-.47-5.85H330C330,79.44,330.32,81.59,330.92,81.59Z"/><path class="cls-6" d="M307.2,78.85c0,2,2.18,3.65,4.87,3.65"/><path class="cls-6" d="M303.55,82.5c0,2.69,2.45,4.87,5.47,4.87"/><path class="cls-6" d="M300.51,88.59c0,2,3,3.65,6.69,3.65"/><path class="cls-2" d="M368.08,131.34c-1.51,14.7-14.48,16.46-25.53,16.45s-21.48-3.22-21.41-14.68,12.51-15.9,23.47-17.89S369.59,116.63,368.08,131.34Z"/><path d="M359.09,122.14c1.18,3-2.46,5.67-5.37,6.46s-7-.63-7.79-4,3.23-4.23,5.82-4.57S357.9,119.15,359.09,122.14Z"/><path d="M354.65,82.2c.91,0,.91-6.18.91-8.21H355c0,4.51-.28,7.36-.49,7.69a.24.24,0,0,1,.19-.09Z"/><path d="M359.51,77.33c1.4,0,2.13-3.52,2.13-7H361c0,3.9-.9,6.39-1.52,6.39Z"/><path d="M365,76.12c1.4,0,2.13-3.52,2.13-7h-.61c0,3.9-.9,6.39-1.52,6.39Z"/><path d="M368.64,77.33c2.51,0,4.56-2.32,4.56-5.17h-.61c0,2.52-1.77,4.57-3.95,4.57Z"/><path d="M371.68,79.77c2.85,0,5.17-1.78,5.17-4h-.61c0,1.85-2.05,3.35-4.56,3.35Z"/><path class="cls-2" d="M347.35,103.79c0,6.06,3.26,10.95,7.3,10.95"/><path class="cls-2" d="M289.56,38.1C289.56,27,281.67,18,271.92,18"/><path class="cls-2" d="M351,33.84C351,25.1,355.89,18,362,18"/><path class="cls-2" d="M362,6.66c3.71-.65,8.59-1.7,10.27-5.5l-.42-.51"/><path class="cls-2" d="M369.4,8.09a13.46,13.46,0,0,0,7.79-3.61c.79-.75,1.54-1.84,1.16-2.87"/><path class="cls-2" d="M361.17,7.84a4.21,4.21,0,0,0,1.2-5"/><path class="cls-2" d="M370.08,9.11a7.3,7.3,0,0,0,9.63-.63"/><path class="cls-2" d="M370.43,12.15a6.75,6.75,0,0,0,8.34,2"/><path class="cls-2" d="M370.91,15.45A11.27,11.27,0,0,0,380,19.62"/><path class="cls-2" d="M370.73,18.39a17.13,17.13,0,0,0,2.37,5.85,5.8,5.8,0,0,0,5.45,2.57"/><path class="cls-2" d="M370.83,24.24a10,10,0,0,0,6.58,7"/><path class="cls-2" d="M371.71,31.72a7.75,7.75,0,0,0,2.26,4,8.85,8.85,0,0,1,1.55,1.57c1.12,1.75.06,4-1,5.82"/><path class="cls-2" d="M371.37,34.75V35c0,3.41,2.05,6.63,2,10,0,1.05-.39,2.41-1.44,2.45"/><path class="cls-2" d="M369,39.72c-.64,1.89,0,4-.59,5.92a4.76,4.76,0,0,1-3,3"/><path class="cls-2" d="M365.68,43.15a4,4,0,0,1-.76,3.27,11.77,11.77,0,0,1-2.49,2.39,7.17,7.17,0,0,1-2.37,1.41"/><path class="cls-2" d="M362.06,45.66a6.26,6.26,0,0,1-4.31,3.83"/><path class="cls-2" d="M370.62,16.67a7.86,7.86,0,0,0,6.31,4.86"/><path class="cls-2" d="M359.42,9.11a2.43,2.43,0,0,0,.44-3.52"/><path class="cls-2" d="M354.49,12.11a4.08,4.08,0,0,0,1.86-4.29"/><path class="cls-2" d="M351.71,13.12a1.71,1.71,0,0,0,1.23-2"/><path class="cls-2" d="M363.2,6.54A6.69,6.69,0,0,0,366,3.13"/><path class="cls-2" d="M367.54,6.52a6,6,0,0,0,5.86-3.34"/><path class="cls-2" d="M282.73,11.06a18.77,18.77,0,0,1-4.35-1.84,6.32,6.32,0,0,1-2.86-3.63"/><path class="cls-2" d="M274.32,10a8,8,0,0,1-7.39-5.87"/><path class="cls-2" d="M264.82,8.45c-2.79-.88-4.47-3.66-5.89-6.23"/><path class="cls-2" d="M264.05,8.56a9.91,9.91,0,0,1-8.1-3"/><path class="cls-2" d="M262.68,9.84a6.51,6.51,0,0,0-5.82-.36,19.24,19.24,0,0,0-5.06,3.25"/><path class="cls-2" d="M261.69,11.94a6.26,6.26,0,0,0-4.85,1.39c-2.25,1.89-2.93,5.17-5.12,7.13"/><path class="cls-2" d="M262,14.66a3,3,0,0,0-3.29,1.3,13.56,13.56,0,0,0-1.51,3.46,17.2,17.2,0,0,1-3.06,5.17"/><path class="cls-2" d="M262.75,18.29c-1.62-.47-3.26,1-3.78,2.57s-.3,3.34-.37,5-.57,3.54-2,4.42"/><path class="cls-2" d="M263.75,23.17c-1-.77-2.51.29-2.78,1.52s.2,2.49.32,3.74a7.08,7.08,0,0,1-1.77,5.4"/><path class="cls-2" d="M265.16,28.24c-.63-.15-1.11.54-1.39,1.12a9.64,9.64,0,0,0-1.21,3.9c0,1.09.35,2.16.29,3.24s-.81,2.27-1.9,2.25"/><path class="cls-2" d="M266.42,36.38c-.82-.17-1.53.56-1.95,1.28a8.7,8.7,0,0,0-1.16,3.4,8.63,8.63,0,0,1-.66,3.48c-.85,1.46-3,2.33-2.83,4"/><path class="cls-2" d="M267.5,42.51c-2,1.32-2.24,4.05-2.24,6.41s0,5-1.76,6.65"/><path class="cls-2" d="M267.37,46c-1.41.26-2.22,1.85-2.19,3.28a13.47,13.47,0,0,0,1.17,4.11,5.63,5.63,0,0,1,.23,4.18"/><path class="cls-2" d="M273.52,51.37a12.78,12.78,0,0,1,.27,2.3c0,2.47-2.32,5.48-3.37,7.68a.57.57,0,0,1-.33.35c-.16,0-.34-.17-.23-.29"/><path class="cls-2" d="M271.69,50.19c-1.31.17-1.81,1.84-1.73,3.16s.38,2.81-.42,3.87"/><path class="cls-2" d="M276.91,53.15a8.36,8.36,0,0,0-.87,2c-.33,1.35,0,2.77-.17,4.14s-1.44,2.81-2.75,2.38"/><path class="cls-2" d="M279.19,54.25a3.11,3.11,0,0,1-1.65,4.41"/><path class="cls-2" d="M349.53,14.67A2.78,2.78,0,0,0,350.78,12"/><path class="cls-2" d="M353.47,12.34a2.75,2.75,0,0,0,1.41-3.15"/><path class="cls-2" d="M357.43,10.4a4.88,4.88,0,0,0,.88-3.68"/><path class="cls-2" d="M362.55,6.69a3.22,3.22,0,0,0,1-4.4"/><path class="cls-2" d="M365.63,5.86a3.3,3.3,0,0,0,2.14-3"/><path class="cls-2" d="M370.19,5.1a2.09,2.09,0,0,1-1.72,2c1.5.54,4.76.78,6-.21-1.67,1.1-2.78,3-4.76,2.71.31,1.17,2.53,3,3.66,3.46a11.67,11.67,0,0,0,3.58.53"/><path class="cls-2" d="M370.94,13.72a7.3,7.3,0,0,0,4.76,2.67"/><path class="cls-2" d="M369.66,9l3.73.44a3.32,3.32,0,0,0,1.8-.12,1.15,1.15,0,0,0,.66-1.48"/><path class="cls-2" d="M370.76,18a5.82,5.82,0,0,0,4.08,4.72"/><path class="cls-2" d="M370.69,22.4a8.78,8.78,0,0,0,3.38,5"/><path class="cls-2" d="M371,28.83a20.06,20.06,0,0,0,3.57,3.68"/><path class="cls-2" d="M371.38,33.71a12.18,12.18,0,0,1,3,5.36"/><path class="cls-2" d="M370.81,36.41c-1.36,2.57,1,5.67.55,8.53"/><path class="cls-2" d="M367.53,41.81l-.87,4.31"/><path class="cls-2" d="M351.78,13l-1.5,1.49"/><path class="cls-2" d="M363.32,44.8a3,3,0,0,1-1.1,3.48"/><path class="cls-2" d="M277.31,10.54c-1.5-1.09-2.94-.29-4.35-.85-2-.79-2.95-3.28-4-5"/><path class="cls-2" d="M262.32,3.09a3.43,3.43,0,0,0,1.46,3.23,10.14,10.14,0,0,0,3.42,1.47C266.13,7,262.93,4.26,262.32,3.09Z"/><path class="cls-2" d="M277.4,10.71A6.08,6.08,0,0,1,273,6.8"/><path class="cls-2" d="M263.69,7.94a3.86,3.86,0,0,1-4.33-2.65"/><path class="cls-2" d="M263.1,9.49c-2,.26-3.69-1.66-5.69-1.62-.64,0-1.27.23-1.91.27a1.71,1.71,0,0,1-1.68-.74"/><path class="cls-2" d="M261.61,11.05a10.72,10.72,0,0,0-2.07-.55,5.32,5.32,0,0,0-5.19,2.69"/><path class="cls-2" d="M261.92,14a2.94,2.94,0,0,0-3.11.12,8.47,8.47,0,0,0-2.27,2.35"/><path class="cls-2" d="M262,17.36a1.35,1.35,0,0,0-1.6-.16,3.48,3.48,0,0,0-1.18,1.23,20.9,20.9,0,0,0-2.41,4.82"/><path class="cls-2" d="M263,20.94a4,4,0,0,0-2.42,2,7,7,0,0,0-.17,1.65,4.53,4.53,0,0,1-1.73,3.19"/><path class="cls-2" d="M264.3,25.52a3.66,3.66,0,0,0-1.68,3.86,4.59,4.59,0,0,1,.23,1.16.86.86,0,0,1-.68.86"/><path class="cls-2" d="M265.45,32.57a4.74,4.74,0,0,0-.94,3c.09.55.36,1.13.09,1.61-.41.75-1.89.81-1.75,1.65"/><path class="cls-2" d="M266.52,40.23a4.82,4.82,0,0,0-1.79,3,29.47,29.47,0,0,1-.74,3.53"/><path class="cls-2" d="M268.41,45.23a10.1,10.1,0,0,0-2.56,5.27"/><path class="cls-2" d="M270.45,48a2.54,2.54,0,0,0-1.69,1.76,7.41,7.41,0,0,0-.18,2.53"/><path class="cls-2" d="M272.91,51a3.57,3.57,0,0,0-1.82,4.67"/><path class="cls-2" d="M275.11,52.94A7.43,7.43,0,0,0,274,58.18"/><path class="cls-2" d="M278.1,53.69a10.23,10.23,0,0,0-1.31,4"/><path class="cls-2" d="M280.26,54.63a2.69,2.69,0,0,1-.24,3.21"/><path class="cls-2" d="M263,19.43a6.64,6.64,0,0,0-2.91,3.82l-.92-.3"/><path class="cls-2" d="M369.62,38.5a11.58,11.58,0,0,0,.28,5.38"/><path class="cls-2" d="M273.93,10.14a3,3,0,0,1-2.09-3.92"/><path class="cls-2" d="M286.36,11.67a6,6,0,0,1-5.24-2.92"/><path class="cls-2" d="M288.63,11.78a4.29,4.29,0,0,1-2.83-2.37"/><path class="cls-2" d="M291,12.23a1.88,1.88,0,0,1-1-1.46"/><ellipse class="cls-7" cx="326.06" cy="101.67" rx="4.87" ry="7"/><ellipse class="cls-7" cx="318.45" cy="94.37" rx="2.13" ry="3.35"/><ellipse class="cls-7" cx="366.2" cy="98.02" rx="4.26" ry="5.78"/><ellipse class="cls-7" cx="360.12" cy="90.11" rx="1.82" ry="2.74"/><ellipse class="cls-4" cx="312.98" cy="97.1" rx="1.22" ry="2.13"/><ellipse class="cls-4" cx="356.47" cy="94.37" rx="0.91" ry="1.82"/><path class="cls-8" d="M366.17,66c0,.2,0,.15,0,0-1,.28-1.37-.06-1.8-1.24C361.9,58,358,54.89,351.32,52.21c-1.16-.46-1.31-1.15-.78-2.07-.16,0-.11,0,0,0,.53-.92,1.09-1.12,2.24-.55C359.42,52.86,364.2,57,367,63.89,367.51,65.09,367.18,65.75,366.17,66Z"/><path class="cls-8" d="M203.2,265.71c.85.36-.21.3,0,0,1.57.67,2.74.4,3.39-2,5.07-18.58,10.2-25,27.27-33.76,2.18-1.11,2-2,1.15-3.49-.45-.72.37-.11,0,0-.9-1.44-1.65-2-3.91-.77-17.77,9.52-23.37,17.34-29.26,36.48C201.09,264.65,201.63,265,203.2,265.71Z"/><path class="cls-8" d="M345.84,25h0c-.59-.3-.72-.49-.27-1.2,4.17-6.4,9.23-9.58,16.39-11.79.79-.24,1.06-.17,1.39.38h0c.34.55.32,1-.43,1.23-6.83,2.23-11.65,4.72-15.71,10.92C346.77,25.26,346.43,25.33,345.84,25Z"/><path class="cls-8" d="M271.75,13.1c10.52.21,16.34,0,20.55,10.19.53,1.28.36,1.21-.42,1.33h0c-.78.11-1,.07-1.37-1.07-3.22-9.1-9.46-8.79-18.47-8.62-1.13,0-1.53-.08-1.51-1h0C270.54,13,270.43,13.07,271.75,13.1Z"/><path class="cls-8" d="M278.15,120.08h0c0-1.74-1-3.33-1.69-4.69-4.34-9.22-2.87-16.74.12-25.92.45-1.36-.07-2.14-1-2.42h0c-.94-.28-1.6-.54-2.19,1.27-4,12.24-4.88,20,2.1,31.12C276.51,121.08,278.11,121.83,278.15,120.08Z"/><path class="cls-8" d="M337.5,123.21a18.26,18.26,0,0,1,9.25-4.79c1.35-.22,1.81-.57,1.44-1.17h0c-.37-.6-.91-.68-2.29-.4a25.81,25.81,0,0,0-10.6,5.23c-.89.75-1.08,1.19-.26,1.6-.1.1-.08.07,0,0A2.07,2.07,0,0,0,337.5,123.21Z"/><path class="cls-2" d="M179.73,325.13a16.82,16.82,0,0,1-6-1.76,14.11,14.11,0,0,1-6.29-6.17,10.45,10.45,0,0,1-.35-8.68,18.37,18.37,0,0,1,3.57-4.86"/><path class="cls-2" d="M166.11,319.46c-4.76-1.89-7.11-6.8-10-10.68-3.91-5.21-5.08-10.82-2.79-17a51.06,51.06,0,0,1,5.08-9.43"/><path class="cls-2" d="M200.75,333.41c-1.74-.28-2.88-1.91-3.83-3.4L193,323.86c-2-3.21-4.17-6.82-3.52-10.56"/><path class="cls-2" d="M194.26,333.7a41.66,41.66,0,0,1-8.59-7.07c-1.69-1.82-3.3-4.07-3.07-6.55"/><path class="cls-2" d="M185.6,333l-5-5.73a14.57,14.57,0,0,1-2.27-3.05c-1.64-3.27-.67-7.21.61-10.64"/><path class="cls-2" d="M174.08,324.73a12.09,12.09,0,0,1-3.28-4.66c-1.62-3.93-1.5-8.34-1.35-12.59"/><path class="cls-2" d="M168.24,322a18.43,18.43,0,0,1-2-10.39,37,37,0,0,1,1.45-6.38l2.13-7.35"/><path class="cls-2" d="M162.37,314.86c-3.54-6.34-1.1-14.33-2.6-21.44"/><path class="cls-2" d="M153.12,305.89c.38-6.68,3.83-12.73,7.18-18.51l3.77-6.49"/><path class="cls-2" d="M152.62,280.19a29.11,29.11,0,0,0-1.92,13"/><path class="cls-2" d="M148,285a27.8,27.8,0,0,1,1.12-22.07,6,6,0,0,1,2.67-3c1.44-.62,3.1-.16,4.59.31"/><path class="cls-2" d="M145.09,265.53a14.22,14.22,0,0,1-.86-7.79c.79-4.66,3.8-8.61,6.92-12.16"/><path class="cls-2" d="M144.52,250.13c-1.22-3.25-2.44-6.86-1.2-10.11,1-2.73,3.62-4.56,6.22-5.89"/><path class="cls-2" d="M143,232.39a35.76,35.76,0,0,1,1-13,6.94,6.94,0,0,1,3.15-4.73,53.2,53.2,0,0,1,6.68-4.31"/><path class="cls-2" d="M151.51,229a7.71,7.71,0,0,1,.44-6.8,22.73,22.73,0,0,1,4.44-5.45"/><path class="cls-2" d="M162.37,209.12a23.71,23.71,0,0,1,2-7.53,8.11,8.11,0,0,1,6-4.55"/><path class="cls-2" d="M143.52,210.36A10.32,10.32,0,0,1,149,197.84"/><path class="cls-2" d="M140,198.4a5.44,5.44,0,0,1-2.62-5.51,10.47,10.47,0,0,1,3-5.68,20.3,20.3,0,0,1,8.35-5.47"/><path class="cls-2" d="M144.26,195.45A9.91,9.91,0,0,1,150.54,184"/><path class="cls-2" d="M147.45,208.45a18.47,18.47,0,0,1,6.09-11"/><path class="cls-2" d="M206,335.69a5.89,5.89,0,0,0-4.16,2.6,17.39,17.39,0,0,0-2.11,4.59"/><path class="cls-2" d="M209.63,340.92a8.2,8.2,0,0,0,.77,10.95"/><path class="cls-2" d="M195.18,334.64c-.51,1.31-2.46,1.27-3.45,2.28a3.72,3.72,0,0,0-.83,1.7,23,23,0,0,0-.84,6.07"/><path class="cls-2" d="M183.19,333.73a10.13,10.13,0,0,0-7,8.37"/><path class="cls-2" d="M175.34,330.35l-4.78,3.57a5.75,5.75,0,0,0-1.5,1.45,2.78,2.78,0,0,0-.39,1.71"/><path class="cls-2" d="M162.84,321.65a7.26,7.26,0,0,1-4.53,4.09,18.45,18.45,0,0,1-6.24.76"/><path class="cls-2" d="M161.23,317.48a9.45,9.45,0,0,1-14.53.34"/><path class="cls-2" d="M157.74,314.29a3,3,0,0,1-2.91,1,7.64,7.64,0,0,1-2.9-1.39c-2.83-1.95-5.48-4.43-6.64-7.67"/><path class="cls-2" d="M142.73,307.33a7,7,0,0,1-3.56,1.42,6.74,6.74,0,0,1-5.64-3.12,19.68,19.68,0,0,1-2.51-6.2"/><path class="cls-2" d="M149.84,303.11a8.92,8.92,0,0,1-3.69-11.45"/><path class="cls-2" d="M142.19,294.48a.72.72,0,0,1,.23,1,9.48,9.48,0,0,1-2.12-11.24"/><path class="cls-2" d="M145.76,287.05a11.6,11.6,0,0,1-3-4.62,26.9,26.9,0,0,1-2.29-7.17,10.16,10.16,0,0,1,1.5-7.21"/><path class="cls-2" d="M139.88,263.88a8.83,8.83,0,0,1-6.07-10.45"/><path class="cls-2" d="M139.62,249.57c-3.34.22-6.76.43-10-.48s-6.27-3.16-7.2-6.38"/><path class="cls-2" d="M138,235c-2.15,1-4.76.49-6.9-.6s-4-2.64-6.12-3.73-4.73-1.68-6.9-.66"/><path class="cls-2" d="M137.71,280.53c-1.64-1.82-3.53-3.74-6-3.93-1.58-.13-3.13.51-4.7.46a10.89,10.89,0,0,1-4.62-1.64"/><path class="cls-2" d="M140.86,258a6.23,6.23,0,0,0-1.08-4.6,18.75,18.75,0,0,0-3.32-3.52"/><path class="cls-2" d="M139,242.09a3.65,3.65,0,0,0-1.93-3.32,12.33,12.33,0,0,0-3.65-.73c-1.23-.22-2.56-.9-2.8-2.12"/><path class="cls-2" d="M138.57,225.86a5.06,5.06,0,0,0-.9-3.55c-1.32-1.4-3.6-.85-5.53-.86-2.84,0-5.43-1.48-7.88-2.92"/><path class="cls-2" d="M138.88,216.58a8.44,8.44,0,0,0-5.49-5.21,25,25,0,0,0-7.77-1"/><path class="cls-2" d="M141.13,208.46a18.26,18.26,0,0,0-4.47-5.6c-1.93-1.43-4.64-2.07-6.77-1"/><path class="cls-2" d="M127.92,199c-2.17.52-4.27-1.16-6.49-1.24a4.67,4.67,0,0,0-4.33,2.67"/><path class="cls-2" d="M133.87,196.77a17.07,17.07,0,0,0-.18-3,7.79,7.79,0,0,0-3.71-5.38,6.66,6.66,0,0,0-6.45-.08"/><path class="cls-2" d="M140.17,180.24a36.49,36.49,0,0,1,8.25-8.57"/><path class="cls-2" d="M151.4,178.67a12.32,12.32,0,0,1,2.37-7.1,17.51,17.51,0,0,1,3.65-3.54"/><path class="cls-2" d="M135.58,186A16.25,16.25,0,0,0,141.11,174c0-1.6-.38-3.48-1.83-4.17"/><path class="cls-2" d="M130.43,162.85c3,3.17,3.37,7.94,3.58,12.3a20.41,20.41,0,0,1-.24,5.47,6.91,6.91,0,0,1-2.94,4.47c-.31-3-3.86-5.4-6.77-6s-5.92.09-8.8.85"/><path class="cls-2" d="M129.15,174.48l.45,1.19-4.16-4.29a6.34,6.34,0,0,0-2-1.56,5.65,5.65,0,0,0-2.28-.29,27.79,27.79,0,0,0-8.52,1.53"/><path class="cls-2" d="M123.41,166.91c.77.45,1.8-.25,2-1.11a3.44,3.44,0,0,0-.7-2.5,11.31,11.31,0,0,0-3.68-3.57,19.08,19.08,0,0,0-7.28-2.19c-2.62-.37-5.27-.56-7.92-.74a12,12,0,0,0-4.36.21c-2.53.74-4.29,3-5.87,5.07"/><path class="cls-2" d="M125.63,160.52c.78-1.05,0-2.5-.69-3.58l-3.07-4.49c-1.27-1.86-3.06-3.95-5.27-3.55"/><path class="cls-2" d="M113.4,168.51c-1.69-.76-2.74-2.52-4.37-3.41a9.32,9.32,0,0,0-5.27-.61,85.71,85.71,0,0,0-9.56,1.41"/><path class="cls-2" d="M130.87,159.9a7,7,0,0,0-.58-7.2"/><path class="cls-2" d="M92,162l-7.39,1.55a2.36,2.36,0,0,0-1.31.56,2.23,2.23,0,0,0-.43,1.64,15.71,15.71,0,0,0,.47,3.55"/><path class="cls-2" d="M94.54,154.84c-1.59-.57-3.33-1.15-4.92-.6a7.13,7.13,0,0,0-1.71.94l-6.35,4.23"/><path class="cls-2" d="M108.94,152.05q-1.55-1.85-3.24-3.56a4.1,4.1,0,0,0-1.4-1.05,4.26,4.26,0,0,0-2.13,0l-8.52,1.31"/><path class="cls-2" d="M114.79,154.35a46.14,46.14,0,0,0-2.43-5.3,9.47,9.47,0,0,0-2.21-3,3.79,3.79,0,0,0-3.51-.84"/><path class="cls-2" d="M77.79,160.66l-4.49.65a2.27,2.27,0,0,0-2.14,1.54l-2.93,5.37"/><path class="cls-2" d="M74.35,168.81c-1.41.89-3,1.45-4.4,2.38A9.73,9.73,0,0,0,65.71,179"/><path class="cls-2" d="M60,172.82c-1.53,1.22-3.75,1.75-4.61,3.51a6.23,6.23,0,0,0-.47,2.31l-.5,7.12"/><path class="cls-2" d="M60.74,167.15c-3.71,2.24-7.79,5-8.43,9.32"/><path class="cls-2" d="M84.2,156.31a2.31,2.31,0,0,0-1.46-1.9,5.74,5.74,0,0,0-2.48-.37,30,30,0,0,0-9.6,1.71"/><path class="cls-2" d="M87.75,152.8a6.16,6.16,0,0,0-8.37-1.33"/><path class="cls-2" d="M69.23,163.34a32.27,32.27,0,0,1-2.57-3.12A6.55,6.55,0,0,0,59,159"/><path class="cls-2" d="M62.3,165a12.58,12.58,0,0,0-5.59-1.26,5.15,5.15,0,0,0-4.57,3"/><path class="cls-2" d="M50.92,175.41a8.79,8.79,0,0,0-10.51-.83"/><path class="cls-2" d="M46.09,179.4,47.6,185a4.56,4.56,0,0,1,.23,2.22,1.61,1.61,0,0,1-1.56,1.34"/><path class="cls-2" d="M43.44,183.29a47,47,0,0,0-6.87-1.11,2.27,2.27,0,0,0-1.1.09,2.28,2.28,0,0,0-.89.88l-1.81,2.59"/><path class="cls-2" d="M38.77,187.39a26.46,26.46,0,0,1-.51,4.86,5.86,5.86,0,0,1-1.12,2.69,2.3,2.3,0,0,1-2.65.7"/><path class="cls-2" d="M36,190.58A9.67,9.67,0,0,0,27,198.4"/><path class="cls-2" d="M32,200.31l.9,3.3a1.49,1.49,0,0,1,.06.81,1.55,1.55,0,0,1-.4.59l-3.14,3.26"/><path class="cls-2" d="M27.31,202.35a10.75,10.75,0,0,0-5.91,10.59"/><path class="cls-2" d="M26.64,211.64c-.2,1.62.75,3.13,1.14,4.72s-.29,3.77-1.92,3.8"/><path class="cls-2" d="M26.62,207.07c-2.31,2.16-2.51,5.68-2.57,8.84"/><path class="cls-2" d="M19.47,211.29c-1.21.88-3,.82-4,1.87s-1,3.31-2.15,4.58"/><path class="cls-2" d="M21.28,221.83a10.38,10.38,0,0,1,1.07,10"/><path class="cls-2" d="M19.32,226.36a12.81,12.81,0,0,0-3.61,2.41,4.3,4.3,0,0,0-1.21,4"/><path class="cls-2" d="M14.76,236.7a23.8,23.8,0,0,1,2.6,12.2"/><path class="cls-2" d="M12.48,242.74A21.47,21.47,0,0,1,11,251c-.35.89-.89,1.86-1.83,2"/><path class="cls-2" d="M143.72,166.21a9.63,9.63,0,0,0,4.84-6,23.14,23.14,0,0,0,.73-7.83c-.06-1.4-.24-3-1.34-3.82"/><path class="cls-2" d="M151.54,182.16c2.51-.41,4.26-2.66,5.74-4.73l5.09-7.11"/><path class="cls-8" d="M336.33,353.75h0c.4,1.32,1.15,2.15,3.21,1.65,17-4.16,29.68-12.12,34.57-29.54.59-2.1-.05-2.54-1.35-3h0c-1.3-.48-2.53-.31-3.12,1.61-4.9,16-15.75,22.42-31.51,26.36C336.23,351.28,335.94,352.42,336.33,353.75Z"/><path class="cls-9" d="M278.09,259.67c-.54.18-.39.06,0,0-1.07,1.9-.28,2.7,2.39,3.9,9.17,4.11,10.26,9.41,11.45,18.81.34,2.74,1.38,3.81,3.38,3.27.39.32.24.28,0,0,2-.53,1.55-1.42,1.14-4.46-1.4-10.44-3.6-16.85-13.56-21.8C280,258,279.15,257.78,278.09,259.67Z"/></svg>