<svg xmlns="http://www.w3.org/2000/svg" width="1100" height="950" viewBox="0 0 1100 950"><defs><style>.cls-1{fill:#c46e2a;}.cls-2{fill:#935320;}.cls-3,.cls-8{fill:#7d3309;}.cls-4{fill:#fff;}.cls-5{fill:#d08b55;}.cls-6,.cls-7{fill:#f3e2d4;}.cls-6{stroke:#f3e2d4;}.cls-6,.cls-8{stroke-miterlimit:10;}.cls-8{stroke:#935320;}</style></defs><g id="Layer_4" data-name="Layer 4"><path class="cls-1" d="M615.25,792.41l14.35-3.35A150.18,150.18,0,0,0,635,826.4c2.59,9.44,6.1,19.61,2.42,28.68-2.46,6.06-.37,13.24-4.71,18.11s-9.22,22.16-10,22c-4.17-.82.45.31,1.34,4.47,1.56,7.33-4.93,14.45-12.21,16.25s-14.9-.3-22-2.62c-8.7-2.83-17.43-6.09-24.73-11.61S552,888,551.18,878.91a25.21,25.21,0,0,1,38.3-23.65l-3-56.62c6.22,3.93,13,2.35,19.69-.78S608.08,794.08,615.25,792.41Z"/><path class="cls-1" d="M418.11,425.81c-28.94,3.95-56.68,7.1-82.83,10.26,20.2-29.45,31.32-65.89,30-105.19-2-58.84-46.32-99.66-26-159.53,4-11.79,9.8-23,11.92-35.31,2.86-16.5-1.18-33.32-5.24-49.56q-7.59-30.24-15.44-60.43c-1.91-7.34-7.89-16.68-14.6-13.13a12.63,12.63,0,0,0-3.48,3.17,646.27,646.27,0,0,0-61.87,86.23c-8.75,14.6-15.13,33.34-25.43,46.66-11,14.22-17.76,8.38-36.49,8.51-22,.15-29.37,7.19-41.52-11.43-10.72-16.42-24.15-33.19-31.6-51.42-5.44-13.32-7.45-28.75-17.51-39C89,57.68,82.92,66.14,79.48,74.7s-5.12,17.86-9.7,25.86c-3.21,5.58-7.06,27.58-7.83,34-3,25-3.33,22.3-1,42,3.73,31.58-7.81,49.6-20.5,78.11a180.42,180.42,0,0,0-14.7,86.25C31.2,415.46,75.88,475,139.68,497.62l-18,120.57c-1,74,23,109.13,90.83,147,66.6,37.2,135,44.25,196.17,47,26.22,1.18,58.22-1.38,81-17,19.89-13.64,39.63-2.68,59,0,69.18,9.6,79.65-.6,111.8-10.82,26-8.29,53.16-23.83,80.13-69.87a129,129,0,0,0,12.19-27.7C793,554.16,591.86,402.09,418.11,425.81Z"/><path d="M114.88,287.62A13.82,13.82,0,0,1,111,270.9l.9.45a13,13,0,0,0,3.59,15.48Z"/><path d="M104.23,278.65a10,10,0,0,1-7-12.94l.93.37a9,9,0,0,0,6.32,11.59Z"/><path d="M87.55,274.35a14,14,0,0,1-9-11.66l1-.08a13,13,0,0,0,8.33,10.8Z"/><path d="M76.22,273.86A22.61,22.61,0,0,1,61.51,263l.87-.49a21.62,21.62,0,0,0,14.05,10.36Z"/><path d="M61.75,281.33a13.75,13.75,0,0,1-3.41-.44,12.65,12.65,0,0,1-8-5.9l.88-.49a12.15,12.15,0,0,0,16.39,4.2l.53.85A12,12,0,0,1,61.75,281.33Z"/><path d="M51.59,290.18a15.42,15.42,0,0,1-11.75-5.26l.76-.64a14.51,14.51,0,0,0,17.13,3.48l.46.89A14.51,14.51,0,0,1,51.59,290.18Z"/><path d="M176.19,279.13l-.95-.31a28.34,28.34,0,0,1,2.29-4.85,33.88,33.88,0,0,0,1.91-3.81c1-2.56,1.38-6.3-.93-8.42l.68-.73c2.68,2.46,2.31,6.66,1.18,9.52a35.1,35.1,0,0,1-2,3.93A27,27,0,0,0,176.19,279.13Z"/><path d="M195.55,264.4l-.47-.88a14,14,0,0,0,6.79-14.92l1-.22A15,15,0,0,1,195.55,264.4Z"/><path d="M211,264.69l-.14-1A11.66,11.66,0,0,0,220.22,250l1-.23A12.68,12.68,0,0,1,211,264.69Z"/><path d="M225.52,269a7.48,7.48,0,0,1-2-.26l.26-1c3.42.93,7-1.13,9-3.59,2.25-2.75,3.37-6.39,4.35-9.59l1,.29c-1,3.3-2.17,7-4.53,9.93A10.92,10.92,0,0,1,225.52,269Z"/><path d="M235.18,275.38A6.59,6.59,0,0,1,231,274l.63-.78c2.64,2.12,6.74,1.12,9.18-1.06,2.63-2.37,4-5.9,5.21-9l.94.36c-1.25,3.22-2.67,6.88-5.49,9.4A9.73,9.73,0,0,1,235.18,275.38Z"/><path d="M247.49,288.42l-.62,0a11.11,11.11,0,0,1-9.07-6.2l.9-.43a10.12,10.12,0,0,0,8.24,5.63,9.27,9.27,0,0,0,8.62-4.73l.89.46A10.31,10.31,0,0,1,247.49,288.42Z"/><path class="cls-1" d="M719.08,567.33c34.71,6.3,59.91,36.81,75.78,68.32s25.86,66.26,46.58,94.82c21.57,29.75,53.37,50.64,86.61,66.33,41.84,19.76,90.22,32.28,134.3,18.19-6.78-2.84-2.93,1.24-9.32-2.39-53.09-30.09-104.33-68.31-132.92-122.23-10.64-20.07-17.83-41.76-27.14-62.49-21.52-48-55.06-91.15-98.91-120.15s-98.3-43-150.16-34.42c-4.39.73-9.69,1.66-14.08,2.37"/><path class="cls-2" d="M666.45,935.25a68.07,68.07,0,0,1-23.58-3.7,47,47,0,0,1-23-18.59c-5.72-9-7.65-18.93-5.43-28.08,2.41-9.92,11.08-18.37,22.09-21.53,9.27-2.67,18-1,24.15,4.56,15.68-50.88-2.6-75.5-11.23-83.74-8.07-7.71-18.53-12.42-28.64-17-4.55-2.05-9.25-4.16-13.69-6.53-46.32-24.67-70.08-85.1-53-134.71l.94.32c-17,49.17,6.6,109.06,52.5,133.51,4.41,2.35,9.1,4.46,13.63,6.5,10.19,4.59,20.73,9.33,28.92,17.16,10.14,9.69,16,23.1,17.27,39.85,1.38,17.5-2.51,34.5-6,45.68l-.24.77-.59-.57c-5.89-5.74-14.55-7.52-23.77-4.87-10.67,3.06-19.06,11.23-21.39,20.81-3.79,15.63,5.75,37.47,27.79,45.49,9.3,3.38,20.17,4.37,34.23,3.11C690,932.6,702,929,711.16,923.54,722,917.09,728.58,908.26,730.1,898c1.34-9-1.47-18.08-4.19-26.84-2.59-8.35-5.27-17-4.47-25.73s5-16.68,9-24.37c.53-1,1.06-2,1.58-3,22-42.56,27.56-88.62,15.25-126.36l1-.31c12.39,38,6.81,84.33-15.31,127.13-.52,1-1,2-1.58,3-4,7.61-8.13,15.48-8.91,24s1.86,17.09,4.42,25.34c2.76,8.87,5.6,18,4.23,27.29-1.56,10.55-8.28,19.63-19.42,26.24-9.31,5.52-21.44,9.18-34.14,10.32C673.6,935.07,669.92,935.25,666.45,935.25Z"/><path class="cls-2" d="M666.45,935.75A68.66,68.66,0,0,1,642.7,932a47.52,47.52,0,0,1-23.24-18.79c-5.8-9.08-7.75-19.19-5.5-28.47,2.45-10.09,11.26-18.68,22.44-21.89,9.11-2.62,17.82-1.1,24,4.16,15.2-50.14-2.83-74.38-11.33-82.5-8-7.64-18.42-12.33-28.49-16.87-4.56-2-9.26-4.17-13.72-6.55-46.53-24.78-70.4-85.48-53.22-135.32l.17-.47,1.89.65-.16.48c-16.88,48.94,6.56,108.56,52.25,132.9,4.4,2.34,9.08,4.44,13.6,6.48,10.23,4.61,20.81,9.37,29.06,17.26,10.24,9.78,16.1,23.29,17.43,40.17,1.38,17.58-2.52,34.64-6,45.86l-.49,1.56-1.17-1.14c-5.76-5.62-14.24-7.35-23.28-4.75-10.5,3-18.76,11-21,20.45-3.75,15.42,5.69,37,27.47,44.9,9.23,3.35,20,4.34,34,3.08,12.49-1.11,24.39-4.7,33.51-10.11,10.74-6.37,17.21-15.08,18.71-25.17,1.32-8.91-1.48-17.91-4.18-26.62-2.6-8.4-5.3-17.08-4.49-25.92s5-16.83,9.08-24.56c.54-1,1.06-2,1.58-3,21.94-42.44,27.48-88.36,15.21-126l-.15-.47,1.9-.62.15.47c12.44,38.12,6.85,84.6-15.33,127.52l-1.5,2.86-.09.18c-4,7.56-8.08,15.38-8.85,23.81s1.85,16.94,4.4,25.15c2.77,8.92,5.63,18.14,4.25,27.5-1.59,10.71-8.39,19.91-19.67,26.6-9.37,5.56-21.57,9.24-34.35,10.39C673.63,935.57,669.89,935.75,666.45,935.75Zm57-21.87A45.5,45.5,0,0,1,711.41,924c-9.25,5.48-21.3,9.12-33.93,10.25l-.16,0,.16,0c12.63-1.13,24.68-4.77,33.93-10.25A45.69,45.69,0,0,0,723.47,913.88ZM633.1,865.07C624,868.83,617,876.35,614.94,885a34.49,34.49,0,0,0,2.88,23.24c-3.62-7.79-4.61-16.14-2.88-23.24C617,876.35,624,868.84,633.1,865.07Zm97.79,30.21c-.06.94-.15,1.87-.29,2.81-.1.68-.23,1.35-.37,2,.14-.67.27-1.34.37-2C730.74,897.15,730.83,896.22,730.89,895.28Zm-70.42-26.9.46.45h0v0ZM722.89,840a36.6,36.6,0,0,0-.95,5.52,45.59,45.59,0,0,0,1.35,14.64,45.62,45.62,0,0,1-1.35-14.64A36.6,36.6,0,0,1,722.89,840Zm15.22-33.46q-2.61,5.93-5.62,11.76l-.85,1.64.85-1.64Q735.51,812.44,738.11,806.51ZM650,784c4.76,4.62,12.26,14.06,15.6,29.86C663.2,801.73,658,791.71,650,784Zm-23.64-14.85c7.1,3.29,14.14,6.9,20.19,11.8C640.53,776.07,633.49,772.47,626.39,769.18Zm-18.84-8.85c2.85,1.51,5.8,2.92,8.74,4.27C613.34,763.24,610.4,761.84,607.55,760.33Zm-1.19-.64Zm-57.05-93.18c2.27,37.82,23.65,74.87,57,93.17C573,741.38,551.58,704.33,549.31,666.51ZM747.92,692a136,136,0,0,1,6.28,39.93A136,136,0,0,0,747.92,692ZM554.47,626.59c-.23.67-.44,1.33-.65,2,.21-.66.42-1.32.65-2Z"/><path class="cls-1" d="M554.63,626.12c-17,49.42,6.59,109.53,52.73,134.11,14.35,7.64,30.69,12.35,42.44,23.58,21.8,20.83,20.14,56.25,11.13,85-14.1-13.76-41.35-3-46,16.17s9.59,39.34,28.1,46.08c10.92,4,22.87,4.18,34.44,3.14,23-2.06,49.73-13.24,53.12-36.13,2.62-17.72-10.3-34.76-8.66-52.6.9-9.76,6-18.51,10.55-27.22,20.06-38.81,28.82-85.2,15.27-126.75"/><path class="cls-2" d="M666.45,935.25a68.07,68.07,0,0,1-23.58-3.7,47,47,0,0,1-23-18.59c-5.72-9-7.65-18.93-5.43-28.08,2.41-9.92,11.08-18.37,22.09-21.53,9.27-2.67,18-1,24.15,4.56,15.68-50.88-2.6-75.5-11.23-83.74-8.07-7.71-18.53-12.42-28.64-17-4.55-2.05-9.25-4.16-13.69-6.53-46.32-24.67-70.08-85.1-53-134.71l.94.32c-17,49.17,6.6,109.06,52.5,133.51,4.41,2.35,9.1,4.46,13.63,6.5,10.19,4.59,20.73,9.33,28.92,17.16,10.14,9.69,16,23.1,17.27,39.85,1.38,17.5-2.51,34.5-6,45.68l-.24.77-.59-.57c-5.89-5.74-14.55-7.52-23.77-4.87-10.67,3.06-19.06,11.23-21.39,20.81-3.79,15.63,5.75,37.47,27.79,45.49,9.3,3.38,20.17,4.37,34.23,3.11C690,932.6,702,929,711.16,923.54,722,917.09,728.58,908.26,730.1,898c1.34-9-1.47-18.08-4.19-26.84-2.59-8.35-5.27-17-4.47-25.73s5-16.68,9-24.37c.53-1,1.06-2,1.58-3,22-42.56,27.56-88.62,15.25-126.36l1-.31c12.39,38,6.81,84.33-15.31,127.13-.52,1-1,2-1.58,3-4,7.61-8.13,15.48-8.91,24s1.86,17.09,4.42,25.34c2.76,8.87,5.6,18,4.23,27.29-1.56,10.55-8.28,19.63-19.42,26.24-9.31,5.52-21.44,9.18-34.14,10.32C673.6,935.07,669.92,935.25,666.45,935.25Z"/><path class="cls-3" d="M105.18,125.26c-7.33-11.09-13.32-18.83-14.52-32.07-3.14,9.87-5.87,15.21-5.31,25.55.26,4.81,1.32,9.53,2.09,14.28,2.15,13.3,2.65,22.92.22,36.17,6.42-3.73,12.51-2.87,19.48-5.45,4-1.47,18.2-3,20.5-6.07C131.4,152.64,108.84,130.8,105.18,125.26Z"/><path class="cls-3" d="M287.72,112.78C296,100.56,302,86.93,308,73.39c4-9.1,5.7-13.1,9.7-22.2,1.24,11.49,4.75,17.9,4.59,29.45-.12,8.37-1,16.72-.93,25.09,0,7.91.89,15.82.39,23.72-.76,12.09-4.66,23.74-8.53,35.23-.39,1.16-4.51,3.82-5.52,4.51s1.23-.76,0-.9c-16.35-1.76-36.95-10.61-48.43-22.54-.53-.56-3.27-3.76,1.7-6.86a86.69,86.69,0,0,0,10.19-7.25A94,94,0,0,0,287.72,112.78Z"/><ellipse class="cls-4" cx="86.56" cy="320.71" rx="38.5" ry="49"/><ellipse class="cls-4" cx="206.06" cy="312.21" rx="41.5" ry="50"/><circle cx="205.56" cy="327.21" r="37"/><circle cx="86.56" cy="334.21" r="35"/><ellipse class="cls-4" cx="200.56" cy="332.71" rx="9.5" ry="12"/><ellipse class="cls-4" cx="215.06" cy="313.21" rx="5" ry="7.5"/><ellipse class="cls-4" cx="225.06" cy="323.71" rx="2" ry="3"/><ellipse class="cls-4" cx="78.56" cy="338.21" rx="7.5" ry="11.5"/><ellipse class="cls-4" cx="94.56" cy="317.71" rx="3.5" ry="6"/><circle class="cls-4" cx="103.56" cy="328.21" r="2.5"/><path class="cls-3" d="M246.8,421.37c3.39,35.35-45.25,47.32-75.13,49.16s-95.18-13.9-93.06-51.2,68.05-34.64,94.17-34.66S243.41,386,246.8,421.37Z"/><path d="M101.17,406.44c5.41-2.42,11-4.87,16.89-5.11s12.34,2.23,15.05,7.5c-3.32,5.18-11.64,5.7-14.23,11.28-.71,1.54-.92,3.37-2.06,4.63-2.33,2.56-6.73,1-9.1-1.55s-4-5.91-7.12-7.45c-2.19-1.09-5.13-1.34-6.23-3.53-1.36-2.71,1.58-5.77,4.54-6.44s6.15-.06,9-1.09"/><path d="M167.25,407.61l-.24-.44a421.61,421.61,0,0,1,49.66-23.38l.18.47A420.58,420.58,0,0,0,167.25,407.61Z"/><path d="M172.64,422.24l-.17-.46a234.51,234.51,0,0,1,53.2-12.63l.06.5A234.46,234.46,0,0,0,172.64,422.24Z"/><path d="M217.79,445.73a208.48,208.48,0,0,1-47.54-5.5l.12-.49a208.08,208.08,0,0,0,49.92,5.48v.5Z"/><path class="cls-5" d="M333.45,297.2h0c-3.58.68-6.32-.91-6.81-6-2.25-23.64-11.31-38.54-32.31-49.61-4.54-2.4-4.59-5.22-2.93-8.23h0c1.66-3,3.51-4.53,8.84-1.81,24.63,12.57,34.84,30.07,38.1,57.33C339.05,294.76,337,296.52,333.45,297.2Z"/><path class="cls-5" d="M123,130.43h0c-2.18,1-3.56,1.47-7-3.06-11.78-15.64-19.1-31-20.81-50.43-.49-5.63,1.86-4.36,4.48-3.59h0c2.62.76,4.6,2.22,5.09,7.68,1.72,18.87,7.7,28.52,19.42,42.92C127.6,128.12,125.17,129.45,123,130.43Z"/><path class="cls-5" d="M250,124.8h0c1.67,2.47,4,3.69,8.19.31,17.53-14.24,31.77-33.43,39.06-55.22,1.73-5.16.21-7.92-2.94-8.56h0c-3.14-.64-6.29,1.24-7.75,5.86-6.12,19.53-19.16,36-34.51,48.85C248.39,119.09,248.31,122.32,250,124.8Z"/><path class="cls-5" d="M608.5,513.75c-44.84-37.44-76.63-56.6-137.43-49.26-6.46.78-8.07-1.53-8.59-6.76-1.06.19-.71.11,0,0-.52-5.24-.72-6.17,6.23-7,65.45-7.93,100.09,12.3,148.8,52.37,5.17,4.25,4.46,5.84,1.38,9.79.74.71.52.48,0,0C615.81,516.82,613.26,517.72,608.5,513.75Z"/><path class="cls-3" d="M647,483.34a40.45,40.45,0,0,1,50.13-27.94"/><path class="cls-3" d="M666.2,490.67c10.65-8.32,21.76-16.54,34.65-20.57a60.54,60.54,0,0,1,34.77-.34"/><path class="cls-3" d="M712.1,500.42c8.74-2.55,15.69-9,23.62-13.51a56.57,56.57,0,0,1,50.09-2.36"/><path class="cls-3" d="M742,516c7.63-1.73,14.38-6,21.53-9.22,24.51-10.9,54.79-7.51,76.29,8.53"/><path class="cls-3" d="M792.66,543.06l18-3.65c5.81-1.18,11.67-2.37,17.6-2.45,19.05-.26,36.28,10.7,51.66,22"/><path class="cls-3" d="M819.41,565.57c9.91,1.55,20-.17,30.05.25A71.29,71.29,0,0,1,899,589.24"/><path class="cls-3" d="M843.44,592.76c14.06,2.84,28.21,5.71,41.52,11s25.89,13.34,34.5,24.81"/><path class="cls-3" d="M860.11,619.17a165.82,165.82,0,0,1,72,35.87"/><path class="cls-3" d="M878.36,650c5.32,4.39,13,3.56,19.8,5,17.6,3.78,28.19,23.08,45.43,28.27"/><path class="cls-3" d="M895.52,681.34c5,3.38,11.72,2.62,17.42,4.65a29.61,29.61,0,0,1,9.49,6.14c6,5.32,11,11.6,17,16.93s13.14,9.8,21.11,10.39"/><path class="cls-3" d="M916.44,716.29a129.71,129.71,0,0,1,24.27,12.33c8,5.18,15.4,11.23,23.74,15.81s17.92,7.66,27.32,6.2"/><path class="cls-3" d="M954.78,759.47a226.41,226.41,0,0,0,47.74,17.38c8.67,2.09,18.27,3.55,26.11-.69"/><path class="cls-3" d="M973.52,785.65c11,6.21,23.87,8.81,36.53,8.71s25.19-2.83,37.24-6.73"/><path class="cls-3" d="M1008.31,800.52c-.39,1,.92,1.84,2,2.17,9.37,2.92,18.82,5.85,28.6,6.74s20-.43,28.41-5.51"/><path class="cls-3" d="M1020.2,814.36c11.48,6.19,25.45,4.23,38.32,2.11,6.39-1.06,13.84-2.92,16.23-8.94"/><path class="cls-3" d="M701.88,542.77c8.33,1.44,15.9,5.62,23.28,9.74,9.72,5.42,19.7,11.06,26.66,19.75,10.52,13.14,12.47,31.41,9.88,48"/><path class="cls-3" d="M776.53,574.68c26,28.87,33.44,73.15,18.25,108.92"/><path class="cls-3" d="M814.06,631.84c10.09,13.23,9,31.6,6.84,48.1-1.86,14.19-4.62,29.23-14.41,39.66"/><path class="cls-3" d="M837,662.11c3.76,8.12,7.57,16.44,8.39,25.35a64.34,64.34,0,0,1-.08,10.48,169.91,169.91,0,0,1-16,60.57"/><path class="cls-3" d="M860.56,692.69c5.14,7.3,7,16.5,6.92,25.42s-2.08,17.72-4,26.43l-5.32,23.64c-.81,3.63-1.86,7.6-4.93,9.7"/><path class="cls-3" d="M882.53,724c3.56,17.06,7.14,34.48,5.08,51.79-.82,7-2.55,13.81-2.53,20.8s2.13,14.43,7.56,18.84"/><path class="cls-3" d="M905.44,743.52a63.4,63.4,0,0,1,11.7,37c-.06,8.93-2,17.86-1,26.74a41.2,41.2,0,0,0,14.55,27"/><path class="cls-3" d="M936.12,771.53c-.42,9,4.94,17.3,5.65,26.26s-3.37,18.45-.67,27.15c2.28,7.35,8.89,12.45,15.53,16.31"/><path class="cls-3" d="M960.14,786.75c5.23,7.91,10.52,15.94,13.51,24.94,1.72,5.2,2.7,10.78,5.75,15.33,4.12,6.15,11.29,9.38,18.09,12.31"/><path class="cls-3" d="M990,805.21c.53,15.33,11.54,29.75,26.19,34.29"/><path class="cls-3" d="M1004,807.3c3.55,5.83,7.14,11.72,11.93,16.59s10.94,8.71,17.73,9.43"/><path class="cls-3" d="M756.85,553.26c12.54,9.53,20.39,24.44,23.18,39.94s.82,31.58-3.6,46.71"/><path class="cls-3" d="M777.56,530.67c4.23-4.2,10-6.36,15.74-8.1,16.86-5.13,35.93-7.4,51.47.9,5.37,2.88,10.27,7,16.24,8.17"/><path class="cls-3" d="M684.59,512.88a62.63,62.63,0,0,1,7.14-12.33,26.77,26.77,0,0,1,7.31-7.16c6.67-4.06,15.35-3.15,22.36-6.6"/><path class="cls-3" d="M694.91,519.26c2.46,2.12,6.14,1.56,9.39,1.48,12.41-.29,23.25,8.19,31.77,17.22,4,4.28,8,9.18,8.66,15"/><path class="cls-3" d="M685.77,506.69c1-4.77,2.07-9.65,4.69-13.77,3.22-5.05,8.55-8.47,14.19-10.49s11.65-2.78,17.6-3.52"/><path class="cls-3" d="M742.54,516.3c3.51-8.8,11.56-15.17,20.32-18.78s18.29-4.81,27.69-6"/><path class="cls-3" d="M705.08,496.49a48.12,48.12,0,0,1,41.47-20.58"/><path class="cls-3" d="M698,532.43c5.59,1.41,11.64-2,17.14-.31,2.54.8,4.61,2.62,6.6,4.39,5.24,4.65,10.58,9.43,14,15.58"/><path class="cls-3" d="M708.13,510.16l16.69-1.47c6.2-.54,12.9-1.3,17.47-5.53"/><path class="cls-3" d="M732.45,520.81A27.68,27.68,0,0,0,747.59,526c3.29.12,6.62-.35,9.84.27,7.88,1.52,13,8.92,17.3,15.7"/><path class="cls-3" d="M749.69,540c6.6,1,12.4,5.13,16.74,10.21s7.41,11.08,10.44,17"/><path class="cls-3" d="M780.93,546.89c6.11-2,13-.47,18.56,2.76s10.12,8,14.58,12.62"/><path class="cls-3" d="M794.47,562.19c-1.63,4.31-3.21,8.74-3.26,13.34s1.72,9.47,5.56,12"/><path class="cls-3" d="M810.77,589c3.83,4.21,3.38,10.61,3.16,16.29a103.53,103.53,0,0,0,2.31,26"/><path class="cls-3" d="M828.08,578.93a31.07,31.07,0,0,1,27.79,20.35"/><path class="cls-3" d="M822.59,559.69a103.54,103.54,0,0,1,30.68,3.77"/><path class="cls-3" d="M840.55,604.27c5.49,1.26,10,5.28,13.11,10s4.91,10.11,6.71,15.45l2.57,7.63"/><path class="cls-3" d="M838.05,618.8l4.62,15.9c1.59,5.47,3.27,11.11,7,15.46,4.12,4.87,10.47,7.75,13.69,13.25"/><path class="cls-3" d="M826.22,620.33a89.14,89.14,0,0,0,14.36,36.82"/><path class="cls-3" d="M861.67,639.57c7.55-1.93,15,3.63,19.59,9.95a48.87,48.87,0,0,1,8.36,19.27"/><path class="cls-3" d="M868.27,651.38A18.47,18.47,0,0,1,874,661.8a66.51,66.51,0,0,1,.46,8.36c.47,9.7,4.4,18.85,8.26,27.75"/><path class="cls-3" d="M851.92,662.61A42.85,42.85,0,0,0,862.35,691"/><path class="cls-3" d="M869.34,696.79c4,2.36,6.47,6.85,7.4,11.43s.56,9.32.18,14q-.79,9.81-1.58,19.61"/><path class="cls-3" d="M886.48,676.83c5.89,5.84,9,14,10.26,22.2s.69,16.56.14,24.84"/><path class="cls-3" d="M906.29,698a53,53,0,0,0,32.34,17.52"/><path class="cls-3" d="M896,674.79a223.7,223.7,0,0,0,32.44,13.4"/><path class="cls-3" d="M886.81,643.39A49.72,49.72,0,0,1,919.57,662"/><path class="cls-3" d="M855,586.28a24.91,24.91,0,0,0,15.49,4.2c2.21-.15,4.42-.59,6.61-.27a18.7,18.7,0,0,1,5.5,2l9.67,4.72"/><path class="cls-3" d="M850.93,562.45c-.73,1.58,1.84,2.49,3.57,2.34l11.21-1"/><path class="cls-3" d="M911,718.71c4.7,1.09,8.53,4.58,11.27,8.55s4.6,8.46,6.86,12.72a74.76,74.76,0,0,0,8.52,12.7c2.82,3.37,6.95,6.78,11.13,5.44"/><path class="cls-3" d="M905.73,727.63c.55,5-2.07,9.68-4.15,14.23a74,74,0,0,0-4.73,13.65c-.66,2.7-.77,6.29,1.75,7.47"/><path class="cls-3" d="M911.87,734.77c6.1,4.27,9.27,11.67,10.71,19s1.46,14.83,2.82,22.15c.49,2.67,1.35,5.58,3.65,7"/><path class="cls-3" d="M941.32,763c1.48,8.61,8.25,15.55,9.93,24.12.9,4.61,1.08,10.63,5.52,12.16"/><path class="cls-3" d="M955,779.4a33.48,33.48,0,0,0,23.76-.21"/><path class="cls-3" d="M940.77,737.78c1.63,4.9,5.78,8.65,10.43,10.88s9.82,3.14,14.93,3.87"/><path class="cls-3" d="M958.78,798.17c5,3.77,4.35,11.3,3.32,17.47s-1.39,13.8,3.81,17.26"/><path class="cls-3" d="M975.6,795.14c2.08,3.85,6.17,6.29,10.41,7.36s8.67,1,13,.84"/><path class="cls-3" d="M878.62,750.34c-1.5,7.06-4.9,13.61-6.46,20.66s-.84,15.34,4.57,20.13"/><path class="cls-3" d="M903.3,768.4a67.2,67.2,0,0,0,1.51,43.91"/><path class="cls-3" d="M929.26,785.65A49.89,49.89,0,0,0,933,810"/><path class="cls-3" d="M936.27,719.53l18,2.78"/><path class="cls-3" d="M881.39,617.06a29.82,29.82,0,0,1,17,8.88"/><path class="cls-3" d="M638.7,481.89a22.19,22.19,0,0,1,2.69-25.55"/><path class="cls-3" d="M672.09,478.41a36.13,36.13,0,0,1,23.61-13.66"/><path class="cls-3" d="M812.35,576.66c15.49,3.39,27.22,19.21,26,35"/><path class="cls-6" d="M952.62,765.93c2,4.07,4,8.2,7,11.5s7.43,5.72,11.93,5.37"/><path class="cls-7" d="M953.34,781.81c3.53,5.43,3.53,12.74,7.64,17.74,3.63,4.42,9.6,6,15.17,7.35"/><path class="cls-7" d="M975.78,785.53a28.66,28.66,0,0,0,25.49,19.78"/><path class="cls-7" d="M976.75,774.11a31.89,31.89,0,0,0,26.08,9.07"/><path class="cls-7" d="M999.78,793.25c4,3.31,6.08,8.35,8.86,12.76s7.13,8.61,12.33,8.3"/><path class="cls-7" d="M941.2,762.32A20.19,20.19,0,0,0,952,793.05"/><path class="cls-7" d="M929.25,778.09c-1.93,6.58-3.87,13.63-1.82,20.18A17.81,17.81,0,0,0,939.62,810"/><path class="cls-7" d="M950,799.9a17.72,17.72,0,0,0,1.71,14.8c2.66,4.29,7,7.2,11.23,10"/><path class="cls-7" d="M983.08,809c-.13,4.23-.25,8.56,1.09,12.58s4.47,7.7,8.63,8.49"/><path class="cls-7" d="M1018.34,802.35c10.1-1,21.54-2.69,27.23-11.09"/><path class="cls-7" d="M976.57,761.43c2.73,4.56,8.4,6.71,13.71,6.62s10.41-2,15.33-4.08"/><path class="cls-7" d="M962.91,757.38c8.41,6.22,21.22,5.53,28.9-1.58"/><path class="cls-7" d="M918.75,779a16.93,16.93,0,0,0,9.59,27.25"/><path class="cls-7" d="M1040.84,810.9a22.65,22.65,0,0,0,23.78,12.39"/><path class="cls-8" d="M121.79,383.93c5.75-.38,10.54-4.95,12.89-10.21s2.73-11.15,3.07-16.9L139,336.45"/><path class="cls-5" d="M528.15,721.57C466.7,688.3,386.9,692,334.34,645.94c-20.7-18.12-35-42.32-48.35-66.35s-26.51-48.67-45.59-68.48-45.41-34.5-72.87-33c-8.56.48-17.59,2.85-23.27,9.28-12.53,14.2-1.64,35.8,1,54.55,2.91,20.89-5.59,41.78-5.14,62.87.49,22.48,11,43.37,21.44,63.29,23,44.06,48.82,90,92,114.67,9.52,5.43,18.13,15.38,29,15.49,8.14.08,17.55-.91,25.14,1.89,13.47,5,25,5,38.34,10.1,24.19,9.24,47.85,13.37,79.66,8.9,11.7-1.64,21.52-7.23,33.1-9.58,14.76-3,27.39-12.67,42-16.44,33-8.54,84.63,25.5,112.64,3.11C594,766.93,558.91,738.23,528.15,721.57Z"/><path class="cls-1" d="M239.18,702.08c5.62,21.45,24.69,36.1,38.83,53.19,18.19,22,20.86,54.93,22.15,83.42.34,7.65,1.47,15.34-6,17-27,6-25.27,3.38-38,16-11.68,11.58-7.33,40.78,4.83,51.84s29.69,14,46.13,13.82c16.23-.13,34.07-3.65,44-16.47,10.11-13,8.86-31.44,5.56-47.61-5.32-26.09-4.65-53.61-10.53-79.58S328,742.41,336.7,717.25c6.93-20,20.45-37.31,26.89-57.5a89.33,89.33,0,0,0-9.74-74.25c-6.69-10.43-21.16-9.86-33.44-8.26s-23.55,7.51-34.3,13.68c-6.48,3.72-12.94,7.62-18.37,12.76s-9.68,11.36-13.52,17.77C237.59,649.21,231,670.77,239.18,702.08Z"/><path class="cls-2" d="M306.1,937.86c-20,0-35.25-4.7-45.45-14-6.81-6.2-11.57-18.53-11.83-30.7-.2-9.43,2.28-17.2,7-21.86,10.49-10.4,11.37-10.58,26-13.55,3.25-.66,7.3-1.48,12.28-2.59,6.41-1.42,6.08-7.49,5.71-14.51,0-.66-.07-1.32-.1-2-1.31-28.92-4.2-61.58-22-83.14-3.76-4.54-7.95-9-12-13.3-11.19-11.91-22.77-24.22-26.93-40.07-8.51-32.47-.91-54.3,15.1-81,3.23-5.39,7.69-12.29,13.6-17.88,5.51-5.21,12.15-9.19,18.47-12.82,10.55-6.06,21.9-12.1,34.48-13.75,13-1.69,27.2-2,33.93,8.49a89.51,89.51,0,0,1,9.8,74.67c-3.35,10.49-8.68,20.35-13.83,29.89-4.79,8.85-9.74,18-13.07,27.63-6.58,19-1.19,37.74,4.51,57.59,1.75,6.07,3.55,12.34,5,18.57,3.08,13.6,4.39,27.83,5.66,41.6,1.15,12.56,2.35,25.55,4.88,38,2.83,13.83,5.31,33.87-5.65,48-8.45,10.9-23.38,16.51-44.4,16.67ZM239.66,702c4.1,15.61,15.58,27.83,26.69,39.64,4.06,4.32,8.26,8.79,12,13.36,18,21.79,20.95,54.64,22.26,83.72,0,.66.07,1.31.1,2,.37,6.86.76,13.94-6.49,15.55-5,1.11-9,1.93-12.29,2.6-14.61,3-15.18,3.08-25.46,13.27-4.51,4.47-6.89,12-6.69,21.13.26,11.91,4.88,24,11.51,30,10.17,9.25,25.58,13.85,45.79,13.69a81.19,81.19,0,0,0,24.21-3.45c8.38-2.71,14.91-7,19.41-12.83,10.71-13.82,8.25-33.56,5.46-47.2-2.54-12.49-3.74-25.51-4.9-38.1-1.26-13.73-2.57-27.93-5.63-41.47-1.41-6.2-3.21-12.46-4.95-18.51-5.75-20-11.18-38.91-4.5-58.2,3.36-9.7,8.33-18.89,13.14-27.78,5.13-9.49,10.43-19.31,13.75-29.71a88.48,88.48,0,0,0-9.68-73.83c-6.43-10-20.27-9.69-33-8-12.4,1.62-23.65,7.61-34.11,13.62-6.27,3.6-12.85,7.54-18.28,12.68-5.82,5.51-10.24,12.33-13.43,17.66C238.78,648.2,231.24,669.82,239.66,702Z"/><path class="cls-5" d="M156.66,401.46c-10.06-6.64-20.18-5.28-33.55-5.63-4.38-.12-6.59-.9-7.72-2.91h0c-1.12-2,.83-2.27,5.64-2.18,14.73.3,26.12-.42,38.54,6.4,4.06,2.23,3.94,3,2.88,4.35h0C161.39,402.87,160,403.63,156.66,401.46Z"/><path class="cls-5" d="M70.32,242.86c.27-.28.21-.32,0,0,2.4-6.71,9-11.59,10.62-16,6-16.75,6.81-14.79,20.31-23.4a6.47,6.47,0,0,0,2-9.52c.56-.24.38-.18,0,0-2.22-3.23-2.63-6.66-7.62-2.08C76.78,209.13,65.81,210.7,63.05,242,62.32,250.29,67.92,249.58,70.32,242.86Z"/><path class="cls-5" d="M325.64,591.11h0c-2.2-1.42-9.27.06-14.54,1.95-20.34,7.3-27.32,21-37.31,34.82-2.59,3.57-2,5.54.62,5.84h0C277,634,278,636,282,630.44c15.54-21.42,22.89-18.55,44.38-33C332,593.69,327.85,592.53,325.64,591.11Z"/><path class="cls-5" d="M628.57,732.45h0c-2.34,3.78-4.21,6.44-11.71,3.28-30.27-12.74-42.57-25.43-46.68-58.16-1-8.12,1.32-8.33,5.61-9.53h0c4.28-1.2,8.35-.35,9.12,6.34,3.13,27,14.36,38.3,40.08,46.87C631.36,723.37,630.9,728.67,628.57,732.45Z"/><path class="cls-1" d="M177.29,831.48a10.89,10.89,0,0,1-2.48,5.18c-2.13,2.08-5.44,2.13-8.4,2.49-20.69,2.5-33.46,26-31.92,46.75.4,5.31,1.56,10.74,4.72,15s7.85,6.92,12.67,9c18.07,7.72,38.36,7.9,58,7.67,7.25-.08,15.55-.71,19.93-6.5,2.64-3.5,3.17-8.12,3.43-12.5,2.49-43.15-12.62-85.65-12.06-128.87,0-2.57.09-5.28-1.15-7.53a14.36,14.36,0,0,0-4.22-4.25c-14.73-11.16-29.53-25-45.6-33.86-3.85,11.45,9.48,36.27,11.08,49.63A153.8,153.8,0,0,1,177.29,831.48Z"/></g></svg>