<svg id="Layer_1" data-name="Layer 1" xmlns="http://www.w3.org/2000/svg" xmlns:xlink="http://www.w3.org/1999/xlink" width="1600" height="900" viewBox="0 0 1600 900"><defs><style>.cls-1{fill:url(#linear-gradient);}.cls-2{fill:#006837;}.cls-3{fill:#33865f;}.cls-4{fill:#7d5d3e;}.cls-5{fill:#66a487;}.cls-6{fill:#a67c52;}.cls-7{fill:#5c9e7f;}.cls-8{fill:#45775f;}.cls-9{fill:#8c6239;}.cls-10{fill:#a08871;}.cls-11{fill:#754c24;}.cls-12{fill:#d98f9d;}.cls-13{fill:#e8bcc4;}.cls-14,.cls-15{fill:#fff;}.cls-15{stroke:#fff;}.cls-15,.cls-16,.cls-21{stroke-miterlimit:10;}.cls-16,.cls-25{fill:none;}.cls-16,.cls-21{stroke:#000;}.cls-17{fill:#f0d2d8;}.cls-18{fill:#29abe2;}.cls-19{fill:#7fcdee;}.cls-20{fill:#ffece9;}.cls-22{fill:#ff95bd;}.cls-23{fill:#ccc;}.cls-24{fill:#ffd5e5;}</style><linearGradient id="linear-gradient" x1="-251.14" y1="-255.59" x2="1348.86" y2="-255.59" gradientTransform="translate(178.53 837.86) scale(1.13 1.51)" gradientUnits="userSpaceOnUse"><stop offset="0" stop-color="#f15a24" stop-opacity="0.7"/><stop offset="0.4" stop-color="#009245"/><stop offset="0.45" stop-color="#008240"/><stop offset="1" stop-opacity="0.7"/></linearGradient></defs><rect class="cls-1" x="-105.96" y="-225.02" width="1812.47" height="1355.74" transform="translate(180.76 -226.65) rotate(18.14)"/><polygon class="cls-2" points="247.4 308.31 311 412.29 12.34 412.29 75.94 308.31 12.34 308.31 81.58 195.12 12.31 195.12 161.64 -49 310.98 195.12 241.76 195.12 311 308.31 247.4 308.31"/><polygon class="cls-3" points="311 412.29 247.4 308.31 311 308.31 241.76 195.12 310.98 195.12 161.64 -49 161.64 412.29 311 412.29"/><rect class="cls-4" x="130.17" y="412.38" width="66.26" height="81.3"/><line class="cls-2" x1="192.57" y1="140.02" x2="221.8" y2="183.56"/><line class="cls-2" x1="226.65" y1="248.07" x2="255.88" y2="291.6"/><line class="cls-2" x1="189.13" y1="312.68" x2="238.39" y2="386.11"/><line class="cls-2" x1="182.67" y1="229.46" x2="231.93" y2="302.88"/><line class="cls-2" x1="188.99" y1="81.44" x2="238.25" y2="154.86"/><line class="cls-5" x1="130.52" y1="140.8" x2="101.29" y2="184.33"/><line class="cls-5" x1="96.44" y1="248.84" x2="67.21" y2="292.38"/><line class="cls-5" x1="133.96" y1="313.46" x2="84.7" y2="386.89"/><line class="cls-5" x1="140.42" y1="230.23" x2="91.16" y2="303.66"/><line class="cls-5" x1="134.1" y1="82.21" x2="84.84" y2="155.64"/><polygon class="cls-2" points="1549.35 527.41 1627 675.64 1262.34 675.64 1339.99 527.41 1262.34 527.41 1346.88 366.03 1262.31 366.03 1444.64 18 1626.97 366.03 1542.46 366.03 1627 527.41 1549.35 527.41"/><polygon class="cls-3" points="1627 675.64 1549.35 527.41 1627 527.41 1542.46 366.03 1626.97 366.03 1444.64 18 1444.64 675.64 1627 675.64"/><rect class="cls-4" x="1406.21" y="675.77" width="80.91" height="115.91"/><line class="cls-2" x1="1482.4" y1="287.48" x2="1518.09" y2="349.55"/><line class="cls-2" x1="1524.01" y1="441.52" x2="1559.7" y2="503.59"/><line class="cls-2" x1="1478.2" y1="533.64" x2="1538.34" y2="638.33"/><line class="cls-2" x1="1470.31" y1="414.98" x2="1530.46" y2="519.67"/><line class="cls-2" x1="1478.03" y1="203.96" x2="1538.17" y2="308.64"/><line class="cls-5" x1="1406.64" y1="288.59" x2="1370.95" y2="350.66"/><line class="cls-5" x1="1365.03" y1="442.63" x2="1329.34" y2="504.69"/><line class="cls-5" x1="1410.84" y1="534.75" x2="1350.7" y2="639.43"/><line class="cls-5" x1="1418.73" y1="416.09" x2="1358.58" y2="520.77"/><line class="cls-5" x1="1411.01" y1="205.06" x2="1350.87" y2="309.75"/><polygon class="cls-2" points="1261.05 284.3 1328 388.85 1013.59 388.85 1080.54 284.3 1013.59 284.3 1086.48 170.48 1013.56 170.48 1170.77 -75 1327.97 170.48 1255.11 170.48 1328 284.3 1261.05 284.3"/><polygon class="cls-3" points="1328 388.85 1261.05 284.3 1328 284.3 1255.11 170.48 1327.97 170.48 1170.77 -75 1170.77 388.85 1328 388.85"/><rect class="cls-4" x="1137.63" y="388.94" width="69.76" height="81.75"/><line class="cls-2" x1="1203.33" y1="115.07" x2="1234.1" y2="158.85"/><line class="cls-2" x1="1239.21" y1="223.72" x2="1269.97" y2="267.5"/><line class="cls-2" x1="1199.7" y1="288.69" x2="1251.56" y2="362.53"/><line class="cls-2" x1="1192.9" y1="205" x2="1244.76" y2="278.84"/><line class="cls-2" x1="1199.56" y1="56.16" x2="1251.41" y2="130"/><line class="cls-5" x1="1138" y1="115.85" x2="1107.23" y2="159.63"/><line class="cls-5" x1="1102.13" y1="224.5" x2="1071.36" y2="268.28"/><line class="cls-5" x1="1141.63" y1="289.47" x2="1089.77" y2="363.31"/><line class="cls-5" x1="1148.43" y1="205.78" x2="1096.57" y2="279.62"/><line class="cls-5" x1="1141.77" y1="56.94" x2="1089.92" y2="130.78"/><rect class="cls-6" x="877.26" y="449.76" width="62.65" height="96.39" transform="translate(1817.18 995.92) rotate(-180)"/><polygon class="cls-3" points="1067 461.66 967.34 292.66 1043.35 292.66 954.32 134.29 1010.93 134.29 908.74 -39 806.55 134.29 864 134.29 774.97 292.66 850.02 292.66 750.35 461.66 1067 461.66"/><polygon class="cls-7" points="908.59 -38.75 908.59 461.66 750.35 461.66 850.02 292.66 774.97 292.66 864 134.29 806.55 134.29 908.59 -38.75"/><line class="cls-7" x1="933.63" y1="70.68" x2="962.28" y2="115.13"/><line class="cls-7" x1="942.27" y1="170.37" x2="980.02" y2="228.68"/><line class="cls-7" x1="936.95" y1="357.41" x2="985.79" y2="439.26"/><line class="cls-7" x1="941.82" y1="216.14" x2="980.93" y2="276.65"/><line class="cls-7" x1="969.56" y1="354.77" x2="1006.85" y2="412.2"/><line class="cls-8" x1="881.1" y1="68.82" x2="852.45" y2="113.27"/><line class="cls-8" x1="872.46" y1="168.5" x2="834.71" y2="226.81"/><line class="cls-8" x1="877.77" y1="355.55" x2="828.94" y2="437.4"/><line class="cls-8" x1="872.91" y1="214.27" x2="833.8" y2="274.78"/><line class="cls-8" x1="845.17" y1="352.9" x2="807.88" y2="410.33"/><line class="cls-9" x1="890.31" y1="468.22" x2="890.31" y2="527.91"/><line class="cls-10" x1="911.14" y1="464.88" x2="911.14" y2="519.85"/><line class="cls-11" x1="928.58" y1="490.26" x2="928.58" y2="534.89"/><rect class="cls-6" x="313.96" y="697.94" width="87.19" height="125.22" transform="translate(715.11 1521.09) rotate(-180)"/><polygon class="cls-3" points="578 713.39 439.32 493.84 545.08 493.84 421.19 288.12 499.98 288.12 357.76 63 215.56 288.12 295.5 288.12 171.61 493.84 276.04 493.84 137.35 713.39 578 713.39"/><polygon class="cls-7" points="357.56 63.32 357.56 713.39 137.35 713.39 276.04 493.84 171.61 493.84 295.5 288.12 215.56 288.12 357.56 63.32"/><line class="cls-7" x1="392.4" y1="205.49" x2="432.27" y2="263.23"/><line class="cls-7" x1="404.43" y1="334.98" x2="456.95" y2="410.73"/><line class="cls-7" x1="397.03" y1="577.96" x2="464.99" y2="684.29"/><line class="cls-7" x1="403.79" y1="394.44" x2="458.22" y2="473.05"/><line class="cls-7" x1="442.4" y1="574.53" x2="494.29" y2="649.13"/><line class="cls-8" x1="319.3" y1="203.06" x2="279.43" y2="260.8"/><line class="cls-8" x1="307.27" y1="332.56" x2="254.75" y2="408.31"/><line class="cls-8" x1="314.67" y1="575.54" x2="246.71" y2="681.87"/><line class="cls-8" x1="307.91" y1="392.02" x2="253.48" y2="470.62"/><line class="cls-8" x1="269.3" y1="572.1" x2="217.41" y2="646.71"/><line class="cls-9" x1="332.12" y1="721.92" x2="332.12" y2="799.45"/><line class="cls-10" x1="361.11" y1="717.57" x2="361.11" y2="788.98"/><line class="cls-11" x1="385.37" y1="750.54" x2="385.37" y2="808.52"/><polygon class="cls-2" points="818.92 438.47 920 616.39 445.35 616.39 546.43 438.47 445.35 438.47 555.39 244.76 445.31 244.76 682.63 -173 919.96 244.76 809.96 244.76 920 438.47 818.92 438.47"/><polygon class="cls-3" points="920 616.39 818.92 438.47 920 438.47 809.96 244.76 919.96 244.76 682.63 -173 682.63 616.39 920 616.39"/><rect class="cls-4" x="632.61" y="616.55" width="105.31" height="139.13"/><line class="cls-2" x1="731.79" y1="150.47" x2="778.24" y2="224.97"/><line class="cls-2" x1="785.95" y1="335.37" x2="832.4" y2="409.87"/><line class="cls-2" x1="726.32" y1="445.94" x2="804.6" y2="571.6"/><line class="cls-2" x1="716.05" y1="303.52" x2="794.34" y2="429.17"/><line class="cls-2" x1="726.09" y1="50.21" x2="804.38" y2="175.87"/><line class="cls-5" x1="633.17" y1="151.8" x2="586.72" y2="226.3"/><line class="cls-5" x1="579.01" y1="336.7" x2="532.56" y2="411.2"/><line class="cls-5" x1="638.64" y1="447.27" x2="560.36" y2="572.93"/><line class="cls-5" x1="648.91" y1="304.84" x2="570.62" y2="430.5"/><line class="cls-5" x1="638.86" y1="51.54" x2="560.58" y2="177.2"/><path class="cls-12" d="M429.32,819a42.57,42.57,0,0,1-5.87-.42,51.78,51.78,0,0,1-17.33-5.75A48.22,48.22,0,0,1,384,809c-11.41-5-20.06-14.82-23.14-26.19l7.72-2.09c2.45,9.06,9.43,16.9,18.65,21a36.49,36.49,0,0,0,7.07,2.28c-7.05-7.39-11.84-18.83-6.67-28.34,3.69-6.81,12-11,22.16-11.34,5-.14,9.08.61,12.45,2.32,8.7,4.39,12,14.54,12.11,22.57.11,6.11-1.33,11-4.29,14.59a21.45,21.45,0,0,1-9.4,6.13c1.29.3,2.58.55,3.88.73,4.27.6,12.26.93,17.84-3.66,4.88-4,6.92-10.79,8.89-18.58l7.76,2c-1.8,7.08-4.26,16.78-11.57,22.79C442.83,817,436.52,819,429.32,819ZM411,772.25h-1c-2.74.08-11.93.83-15.36,7.16-3.36,6.17.82,14.85,6.69,20.23a43,43,0,0,0,6.59,5,45,45,0,0,0,8.36-1.72c3.73-1.14,6.14-2.49,7.6-4.25,1.7-2,2.52-5.2,2.45-9.34-.1-5.44-2.18-12.79-7.72-15.58A16.82,16.82,0,0,0,411,772.25Z"/><path class="cls-13" d="M759.53,579.72c50.88,34.2,55.49,88.35,51.22,144.64,1.91,46.26-1.33,92.52,5.68,138.46,1.37,8.94-6.29,11-13.8,12a31.92,31.92,0,0,1-9.6-.33c-7.54-2.14-12.33-3.85-12.62-12.59-.59-17.74.78-36.38-.1-54.3-1.56,2.37-3,5.26-4.79,7.5-9.64,12.35-19.46,24.38-31.94,33.8-13,9.8-27.25,15.51-42.1,21.63.38.43.74,1,1.09,1.46a162.61,162.61,0,0,1-43.11,15.24c-3.7-3.11-6.33-7-10.63-9.43-13.49-7.68-25.62-13.8-41.56-15.88a181.72,181.72,0,0,0-63.18,2.64c-69.59-23.31-108.7-54-94.84-134.51,18.85-109.45,96-140.88,194.83-162,8.95-1.91,4.15-4.75,11.77-6.1-17-20-18.21-39.15-18.64-65.36-.31-18.49,8.58-38.75,16.47-56.4-9-6.28-11.74-20.9-12.11-29.15-.47-10.71-13.85,3-21.38.19-1.22-.46-12.85-1.57-8.88-7.51,8.84-13.26,25.7-23.1,42.62-29.51,21.82-8.27,44.19-10.67,52.34,16.54,7-2.19,13.08-5.44,20.4-6.17,12.75-1.27,24,1.4,36.08,5.05.11-3.26-1.7-3.84,0-7.45,10.57-23.15,26.64-25.77,49.63-18,5,1.7,15.9-2.48,16.2,4.85.41,10.06-10.23,7.48-16.6,8.69-10.28,2-4.92,9.37-2.83,15.92.95,3,1.91,5.78,1.08,8.81-1.55,5.66-5,8.25-8.93,12.18,15.53,23.85,29.07,46.08,28,75.5C827.33,545.68,816.67,569.25,759.53,579.72Z"/><path d="M689.1,471.63a7,7,0,0,1-4.06-1.27,13.42,13.42,0,0,1-1.9-1.78,5,5,0,0,1-1.74-3.34l1,0a4.21,4.21,0,0,0,1.47,2.64,13.63,13.63,0,0,0,1.75,1.65,6,6,0,0,0,5.56.7l.36.94A6.76,6.76,0,0,1,689.1,471.63Z"/><path d="M690.6,465.46a8.53,8.53,0,0,1-2.55-.39,8.76,8.76,0,0,1-5.53-5.37l.94-.33A7.61,7.61,0,0,0,695.09,463l.58.82A8.82,8.82,0,0,1,690.6,465.46Z"/><path d="M821.27,473a7.47,7.47,0,0,1-3.6-.89l.48-.88a6.76,6.76,0,0,0,7.12-.52l.6.8A7.64,7.64,0,0,1,821.27,473Z"/><path d="M820.37,467a5.07,5.07,0,0,1-3-1l.3-.4a4.71,4.71,0,0,0,5.65-.15l.32.39A5.07,5.07,0,0,1,820.37,467Z"/><path class="cls-12" d="M803.56,528.49c8.69,15.83-9.53,34.43-25.94,36.84s-39.14-2.2-41.34-20.25,12-28.18,27.37-32.66S794.87,512.66,803.56,528.49Z"/><ellipse class="cls-14" cx="799.36" cy="478.39" rx="20.5" ry="26"/><ellipse class="cls-14" cx="717.61" cy="478.14" rx="26.25" ry="30.75"/><circle cx="718.86" cy="485.39" r="24"/><circle cx="799.36" cy="483.89" r="20.5"/><ellipse class="cls-14" cx="718" cy="486" rx="6" ry="10"/><ellipse class="cls-14" cx="794.5" cy="482.5" rx="4.5" ry="7.5"/><circle class="cls-15" cx="732" cy="487" r="3.5"/><circle class="cls-14" cx="806.11" cy="485.14" r="2.75"/><ellipse class="cls-14" cx="728.5" cy="474" rx="2.5" ry="4"/><ellipse class="cls-14" cx="803" cy="474" rx="2" ry="3"/><circle cx="759.86" cy="530.39" r="5.5"/><circle cx="788.86" cy="528.39" r="4.5"/><path class="cls-12" d="M667,415.44a11.19,11.19,0,0,1-3.32-4.51c-1.22-4,1.81-7.37-2.48-9.43-1.75-.84-4.1-.69-6.45-1.79a6.42,6.42,0,0,1-3.47-7c8.53-1.82,16.46-4.43,25-1.76,6.32,2,11,5.66,12.77,11.87"/><path class="cls-12" d="M779.66,393.51c-.19-5.63,1.93-10.74,7-14S797.21,376.35,803,377c-1.87,2.52-5.41,5-6.45,7.74-1.39,3.71,1,6.18,0,10.1a61.36,61.36,0,0,1-3.45,9.14"/><path class="cls-12" d="M646.89,879.64A256.85,256.85,0,0,1,616,877.73c-25.53-3.06-50.81-7.1-73.8-13.44,18.94-5.77,43.58-4.12,63.14-1.32C620.25,865.11,634.86,870.66,646.89,879.64Z"/><path class="cls-12" d="M774.84,816.47c-.45,13.59-1.42,28.61.31,41.69,1.05,8-2.61,11.17-9.57,13.57a51.78,51.78,0,0,1-9.93,1.6c-8.58.51-16.12-2-15.16-11.75.33-3.31,1.83-7.56,2.25-11,13-9.47,22.94-21.81,32-34.89C774.79,815.94,774.85,816.14,774.84,816.47Z"/><path class="cls-16" d="M542.2,864.29l-.34.1"/><path class="cls-12" d="M699.74,872.5c-4.49-5.51-11.09-9-17.47-12.39a111.91,111.91,0,0,1-9.92-5.68c-20.91-14-29-39.7-35.52-64.84-6.09-23.54-13-50.21-33.1-65.69-19-14.63-48-16.66-77.55-5.43l-.36-.94c29.91-11.35,59.27-9.27,78.52,5.57,20.37,15.7,27.32,42.55,33.46,66.24,6.46,24.95,14.49,50.47,35.11,64.25a109.64,109.64,0,0,0,9.83,5.64c6.47,3.43,13.16,7,17.78,12.64Z"/><path class="cls-12" d="M780.5,809.27c-4.93-5.92-7.91-13.9-9.09-24.4-.51-4.58-.67-9.26-.82-13.78-.13-4.05-.27-8.22-.67-12.31-.95-9.78-3.4-19.48-5.78-28.86l1-.24c2.39,9.41,4.85,19.15,5.81,29,.4,4.11.54,8.31.67,12.36.15,4.51.31,9.16.82,13.71,1.16,10.3,4.05,18.11,8.86,23.87Z"/><path class="cls-17" d="M485.28,697.72c3.3-16.67,16.59-30.08,32.21-36.69a4.8,4.8,0,0,0,3.08-5.47,37,37,0,0,0-.54-3.67c-.64-2.82-3-3.65-6.11-2.25-20.14,9.19-35.16,23.44-40.32,45.05-.79,3.3,1,3.7,3.17,4.77a14.44,14.44,0,0,0,3.58.81C482.47,700.54,484.78,700.27,485.28,697.72Z"/><path class="cls-17" d="M674.47,446.41c4.74-11.75,11.4-18.63,23.33-23.06,1.83-.68,2.16-1.74,2.54-3.43a5.56,5.56,0,0,0,.17-2.46c-.53-1.66-1-3-3.3-2.16-15.35,5.29-24.71,14.91-30.44,30-.87,2.32.31,2.67,1.9,3.5A4.4,4.4,0,0,0,671,449,3.66,3.66,0,0,0,674.47,446.41Z"/><path class="cls-17" d="M563.14,741.35c10.73-3.94,22,.77,29.89,9.82,1.19,1.39,2.58,1.4,4,.19.57-.48,1.45-1.19,2.05-1.8,1.51-1.56,1.41-3.65-.2-5.4-10.51-11.4-22.75-17.08-36.89-12.62-2.16.68-1.93,2.19-2,4.17a14.47,14.47,0,0,0,.42,3C560.77,740.35,561.5,742,563.14,741.35Z"/><path class="cls-17" d="M657.15,383.21h0c.42-2.7-3.35-3.64-6.87-3.65-7.58,0-12.61,5.7-17.13,10.74-2.09,2.33-1.59,3.81-.39,5.4h0c1.21,1.6,3.24,2.83,5.13,1.1,4.06-3.72,6.87-10.21,13.35-10.65C654.24,385.94,656.73,385.91,657.15,383.21Z"/><path class="cls-17" d="M792.6,365.32h0c.33-1.74-2.1-2.39-4.38-2.42-4.93-.08-8.32,3.56-11.36,6.77-1.41,1.49-1.12,2.45-.37,3.49h0c.74,1,2,1.86,3.3.76,2.72-2.37,4.69-6.53,8.9-6.76C790.65,367.06,792.27,367.06,792.6,365.32Z"/><path class="cls-13" d="M743.6,531.93h0c-1-.27-1.43-.78-.4-2.17,3.37-4.55,6.93-8.43,13.29-11.31,1.94-.88,3.26-.76,4-.11h0c.7.64.84,1.62-1.14,2.39-6.48,2.52-8.87,5.58-12.21,10A3.23,3.23,0,0,1,743.6,531.93Z"/><path class="cls-17" d="M795.46,672.11h0c-1.39-.06-2.5.07-2.58-2.69-.64-21.63.37-28.89-19.12-38.44-2.49-1.22-.47-2.6.46-3.52h0c.93-.93,2.9-1.32,5.19-.06,17.91,9.85,18,22.94,18.44,42.18C797.91,672,796.85,672.17,795.46,672.11Z"/><ellipse class="cls-13" cx="717.16" cy="448.74" rx="34.49" ry="11.93" transform="translate(-65.8 128.34) rotate(-9.78)"/><ellipse class="cls-13" cx="796.01" cy="450.44" rx="10.03" ry="25.39" transform="translate(120.13 1066.65) rotate(-71.86)"/><ellipse class="cls-14" cx="716.51" cy="464.51" rx="19.12" ry="3.79" transform="translate(-68.49 128.46) rotate(-9.78)"/><ellipse class="cls-14" cx="800.47" cy="465.06" rx="2.74" ry="16.39" transform="translate(180.56 1152.62) rotate(-78.12)"/><path class="cls-18" d="M736.22,506.2c-.4,1.89-3.64,5.5-4.11,6.94-1.49,4.6-4.43,16.08-9.37,10.42-3.61-4.13-4.47-9.91-9.94-11.26-4.68-1.16-10.29-2.61-11-7.58-.9-6.07,5.26.65,9.48,1.31,2.48.38,10.25,1.37,13.78.42C729.58,505.24,738.29,496.48,736.22,506.2Z"/><path class="cls-18" d="M816.33,496.76c-1.08,2.33-1.11,7-4.5,8.05-3.89,1.25-3.56,5.86-7.79,5.87-5.25,0-2,5.3-3.82,7.05-3.85,3.72-11.13-9.66-13.73-11.08-3.58-1.95-4.16-11.09-1.36-9.49,6.23,3.57,12.57,4.78,17.8,3.85C807.84,500.15,819.2,490.59,816.33,496.76Z"/><path class="cls-19" d="M726.58,516.59c.53-.81.49-2.24,2.12-3.32s2.79-1.3,2.1-.06-.15,3.51-2.24,4.95S726,517.39,726.58,516.59Z"/><path class="cls-20" d="M1343.9,707.16c-3.34.73-6-.62-8.55-2.68a220.88,220.88,0,0,1-17.56-16.34,38.66,38.66,0,0,0,1.74,7.19q-3.94-4.53-7.83-9.12c1.65,9.19,5.54,15.89,11.87,22.67a147.24,147.24,0,0,1-20.41-19.37,63.34,63.34,0,0,0,13,23.8,78.51,78.51,0,0,1-7.44-7.38,45.46,45.46,0,0,1-9.33-19.28c1.41,14.08,6.15,24.37,16,34.57-10.19-4.82-16.43-11.17-21.2-21.37q-.37-4.4-.52-8.81a14.28,14.28,0,0,0,.09,7.37c.11.5.36.94.43,1.44a53.23,53.23,0,0,0,2.32,10.08c-2.88-7.79-4.64-15.3-4.16-23.62.25-4.3,1.83-8.26,2.16-12.52a61.86,61.86,0,0,0-.66-17.23,147.21,147.21,0,0,0-14.29-40c-.68-1.32-2.44-3.65-3.25-5.13,2.76,17.4,4.08,34.58,2.93,52.23-.94,14.31-3.9,28.08-7.37,41.95-.31,42.92-11.65,85.51-4.16,128.33,1,5.71-.86,6.87-6.78,8.42-9,2.35-21.4,3.2-31,3.83-3.64.23-4.57-.56-7.24-2.42a9.61,9.61,0,0,0,1.63-.44c5.26-2.85,5.51-5,2.88-10.51a46.27,46.27,0,0,1-3.68-10.66c2.26-19,4.63-37.87,6.74-56.83q-2.82,2-5.72,3.87c-.28,17.72-2.43,35.22-1,53-.61,5.28-1.24,10.85-1.75,16.08a11.3,11.3,0,0,0,.92,5.53c-8.77.58-20-1.89-28.06-.5-6,1-11.56,3.94-10.94-3.86,1.85-23.09,9.14-31.81-9.13-50.62-25.2,5-50.77,6.56-76.46,6.55-1,14.76-.55,28,4.29,42.15,1.84,5.34-.41,8.34-6.44,8.48-9.38.21-20.64,2.59-30,1.93-6-.43-7.81-3.62-7.34-9.14,1.35-15.44,2.3-30.95,1.56-46.51a246.82,246.82,0,0,1-37.92-10.57,173.88,173.88,0,0,0,2.79,60.31c1.2,5.53-2,8.59-8.16,8.07-9.4-.79-21.08-.75-30.38-2.23-6.14-1-7.88-1.09-7.66-7.84,1.08-33.62,1-66.83-13.47-98.28-26-32.74-35.29-74.33-30.89-115.13,4.11-38.08,18.62-69.46,47-94.77-31.82-20.8-48.68-52.78-47.93-91,.43-22.66,9.12-41.35,24-58.17-10.76,2.82-17,12.06-24.73,19s-18.71,6.06-26.8,11.24c-5.27,3.38-7.29,14.52-14.38,6.63-17.95-20,1.28-61.8,27.18-65.42a110.6,110.6,0,0,1,59.67,7.71c17.61-12.16,34-17.3,55.54-16.64,4.8.14,9.48,1.83,14.56,3.17,15.91-18.48,49-19.41,68.87-12.58,24.91,8.54,62.91,48.5,43.86,72.21-9,11.25-19.45-5.92-27.5-9.14-8.9-3.56-16.69-4.74-26.46-7.23-8.1-2.07-14.45-12.56-23.29-14.36,20.48,21.56,30.64,44.46,29.43,74.42-.76,18.77-7.33,33.15-15.24,49.64,6.15,0,13.18.13,19.28.54,70.74,4.76,134.59,29.08,157,102.44,3-.5,5.14,5.81,5.91,7.32a158.91,158.91,0,0,1,10.68,26.21c1.11,3.63,1.84,7.25,3.09,10.64s2.66,6.44,4,9.61,2.09,6.33,3.69,9.29a60.42,60.42,0,0,0,11.23,14.84C1322.72,691.4,1333.28,699.21,1343.9,707.16Z"/><ellipse class="cls-14" cx="975.19" cy="433.67" rx="30.19" ry="22.11" transform="translate(508.32 1393.4) rotate(-88.03)"/><ellipse class="cls-14" cx="1052.29" cy="425.26" rx="32.03" ry="23.95" transform="translate(591.21 1462.35) rotate(-88.04)"/><ellipse class="cls-21" cx="1052.68" cy="431.74" rx="25.57" ry="23.34" transform="translate(585.92 1469.37) rotate(-88.08)"/><ellipse class="cls-21" cx="974.34" cy="440.42" rx="23.41" ry="21.5" transform="translate(501.61 1399.5) rotate(-88.09)"/><ellipse class="cls-14" cx="977.05" cy="444.61" rx="8.01" ry="6.45" transform="matrix(0.03, -1, 1, 0.03, 499.32, 1405.89)"/><ellipse class="cls-14" cx="966.21" cy="436.9" rx="3.07" ry="3.08" transform="translate(-23.08 55.12) rotate(-3.23)"/><ellipse class="cls-14" cx="971.67" cy="431.61" rx="2.46" ry="2.46"/><ellipse class="cls-14" cx="1052.26" cy="436.44" rx="9.32" ry="7.06" transform="matrix(0.03, -1, 1, 0.03, 580.05, 1473.14)"/><ellipse class="cls-14" cx="1038.27" cy="428.76" rx="3.07" ry="3.08"/><ellipse class="cls-14" cx="1043.72" cy="423.22" rx="2.15" ry="2.16"/><path class="cls-22" d="M949.76,368.6c-7.26-.38-13-3-19.33.77-8.9,5.34-11.83,16-19.85,22.08-4.16,3.16-8,3.79-9.88,9.09a10.4,10.4,0,0,1,6.69-.48c3,.53,6-1.84,8.76-3.06,4.85-2.13,10.52-1.91,15.1-4.52,8.06-4.61,12.28-12.44,21.44-15.94,2.19-.84,11.9.49,9.25-5.37C960.42,367.83,952.58,368.74,949.76,368.6Z"/><path class="cls-22" d="M1102.33,354.64c9.06.89,16.66,5.27,24.4,10.49s15.5,12.34,23.26,17.78c2.08,1.45,4.4,2.74,5.53,5s.55,5.11-2.13,5.77c-3.16.77-4.38-2.37-6.1-4.67-3.73-5-9.62-5.37-15.41-4.54-7.1,1-13.53,1.78-19.87-1.47-3.43-1.77-4.67-4.79-7.61-6.93-5.32-3.88-9.17-4-16-3.59-5.93.35-15.62-3.89-7.77-10.62A29.41,29.41,0,0,1,1102.33,354.64Z"/><path d="M1079.7,412.85a7.51,7.51,0,0,1-6.2-3.14l.51-.34a6.93,6.93,0,0,0,9.11,1.91l.33.52A7,7,0,0,1,1079.7,412.85Z"/><path d="M953,417.58a9.44,9.44,0,0,1-6.82-2.83l.45-.42a9,9,0,0,0,11.45,1l.36.5A9.18,9.18,0,0,1,953,417.58Z"/><path d="M948.48,421.81a9.23,9.23,0,0,1-4.83-1.23l.31-.53c3.58,2.14,8.23.86,12.31-.51l.19.59A26.29,26.29,0,0,1,948.48,421.81Z"/><path d="M1080.47,419.53l-.57,0a6.36,6.36,0,0,1-4.58-2.37l.49-.37a6,6,0,0,0,8.57.67l.42.45A6.26,6.26,0,0,1,1080.47,419.53Z"/><path d="M1033,489.51c-.13,2.83-1.26,5.86-4.47,5.82s-5.23-3.44-5-6.42,2.29-5.92,5.57-5.72S1033.08,486.67,1033,489.51Z"/><path d="M1243.07,547a3,3,0,0,1-2.4-1.93c-24.93-24-56.85-38.14-91.27-41.57l-31.73-3.16c-3.38-.34-6.47.13-9.85-.13-6.29-.48-11.16,6.23-11.4,12.55s2.67,12.26,5,18.13a107.8,107.8,0,0,1,5.61,18.88c.84,4.24,1.45,8.57,3.1,12.56,5.09,12.32,19.5,20.07,21.26,33.3.54,4-.21,8.12.07,12.17.44,6.3,3.34,12.12,5.48,18.06,3,8.4,4.6,17.25,5.8,26.1,1.11,8.27,2.92,18.06,10.54,21.45,5.79,2.57,13.19.34,18.39,4,1.7,1.19,3,2.88,4.48,4.28a16.59,16.59,0,0,0,16.19,3.45c7.5-12.73.82-29.84,6.82-43.34,3.8-8.57,12-14.2,17.73-21.64a43,43,0,0,0,8.74-25c.14-6.24-1.05-12.63.66-18.63,1.77-6.2,6.38-11.09,10.41-16.12,2.66-3.34,6.87-6.81,8.11-10.83C1244.74,549.49,1243.15,547,1243.07,547Z"/><path d="M941.22,701.24c2.49.77,4,1.18,6.2-.23a71.1,71.1,0,0,0,6-5,29,29,0,0,1,18.31-6.4,3.1,3.1,0,0,1,1.54.29,4,4,0,0,1,1.38,2.51c2,6.38,9.48,9.77,16.06,8.82s12.19-5.28,16.72-10.15,8.32-10.44,13.16-15c4.41-4.17,9.63-7.44,14-11.67s8-9.84,7.76-15.92a19.07,19.07,0,0,0-5.28-11.92,43.68,43.68,0,0,0-10.55-8,57,57,0,0,0-7-3.61c-3.36-1.38-7.13-2.4-9.47-5.21-3.53-4.25-2.26-10.52-1.91-16a41,41,0,0,0-.85-11.27,12.73,12.73,0,0,0-3-6.42c-3.33-3.35-8.79-2.81-13.28-4.27a36.14,36.14,0,0,1-6.82-3.46,73.36,73.36,0,0,0-15.54-6.67,10.44,10.44,0,0,0-5.62-.53,18.5,18.5,0,0,0-3.47,1.68A15.22,15.22,0,0,1,949,574.06c-8.43,14.68-12.83,31.84-14.71,48.67s-1.15,33.86.53,50.71C935.85,683.61,937.4,691.77,941.22,701.24Z"/><path class="cls-16" d="M1101.09,521.12v.37"/><path class="cls-23" d="M978.21,838.88,994,842.54a13.08,13.08,0,0,0,3.4.46,18.32,18.32,0,0,0,3.66-.76,38.87,38.87,0,0,1,10-.67c4.09.08,9.83-1.17,13.92-1.09.5,4,4,8.82,2.58,12.67-1.07,3-5.35,4-9,4a35.68,35.68,0,0,1-7.65-.8c-1.74-.37-3.62-.86-5.25-.24-.1-2.25-2-.14-3-2.22-1,.48-.72-3.37-1.73-2.89a13.33,13.33,0,0,1-6,4.89,14.55,14.55,0,0,1-5.84.61c-3-.1-6.22-.23-8.93-1.46a3.3,3.3,0,0,1-1.3-.9,3.12,3.12,0,0,1-.53-1.46C977.6,848.24,978.66,843.34,978.21,838.88Z"/><path class="cls-23" d="M1073.06,836l22.83-3.06c1.92-.25,4.13-.42,5.52.89a42.21,42.21,0,0,0,3.16,11.48c-3.28,3.67-8.67,4.78-13.67,4.81s-10-.8-15-.11c-3.74.52-7.55,1.9-11.2.93a10.13,10.13,0,0,1-6.68-6.26c-1.47-3.9-1.42-7.6,2.09-8.55C1063.45,835.23,1069.27,836.51,1073.06,836Z"/><path class="cls-23" d="M1183.72,836a23.07,23.07,0,0,1-.92,4.92c-.34,1.64-.37,3.52.62,4.81s2.92,1.66,4.59,1.7,3.41-.07,5.12-.18c4-.26,8.41-.7,11.28-3.71a3.39,3.39,0,0,1,.85-.76c1.36-.68,2.55,1.1,3.53,2.31,2.56,3.14,7.06,3.16,11,2.92a2,2,0,0,0,1.35-.42,2.28,2.28,0,0,0,.5-1.25,24.8,24.8,0,0,0-.08-8.42,2.7,2.7,0,0,0-.5-1.34,2.63,2.63,0,0,0-2-.67l-25.37-.85C1190.5,834.94,1186.85,835.77,1183.72,836Z"/><path class="cls-22" d="M1044.78,487.05c-.08,4.16-2.63,6.88-2.2,10.9.35,3.25,2.4,5.52,2.05,8.83-.51,4.69-4,7.84-8.26,10-15.1,7.59-33,6.93-46.82-3.12-3.13-2.28-5.25-4.86-5.62-8.67-.22-2.17.69-3.82,1.14-6.05,1-4.73-1.08-8.3-.78-13.27,1.35-22.47,16.92-9.45,31.66-9.77C1029,475.63,1045.19,466.63,1044.78,487.05Z"/><path class="cls-23" d="M1222,848.46c1.6.4,2.84,1.67,4.4,2.22,3.13,1.1,6.38-.95,9.51-2,6.45-2.26,13.59-.51,20.4-1.15a29,29,0,0,0,13.86-5.09,2.85,2.85,0,0,0,1.35-1.64,3,3,0,0,0-.21-1.43l-1.5-4.64c-.84-2.61-2-5.53-4.51-6.58-2.16-.89-4.61-.12-6.83.62-8.29,2.77-16.91,5.07-25.74,4.59-4.12-.23-6.07-1.75-8.16,1.73C1222.8,838,1223.38,844.82,1222,848.46Z"/><path d="M1001.14,487c-.11,1.93.7,5.08-2.07,5.18s-4.35-3.2-4.26-5.32,2.19-5.13,4.68-4.84S1001.24,485.11,1001.14,487Z"/><path d="M1027.87,486.76c.09,2-.37,5.83-3.16,5s-3.17-2.21-3.49-6.35,4.51-3.95,6.26-3.52S1027.79,484.74,1027.87,486.76Z"/><path class="cls-14" d="M1101.06,455.49h0c1.26.58,2.08.93,3.2-1.34,9-18.11,5.72-27.73-3.42-44.53-1.15-2.11-2.06-1.83-3.27-1.24h0c-1.21.59-2.26,1.43-1.18,3.44,8.6,16,12,22.95,3.43,40.21C1098.74,454.2,1099.81,454.91,1101.06,455.49Z"/><path class="cls-14" d="M920.15,367.21c-20.42,5.32-9.44,11.9-22.54,19.85-2.53,1.54-3.39.91-4.42-.37h0c-1-1.28-1.6-2.5.79-3.92,12.38-7.33.72-14.21,26.23-21.74,4.92-1.45,4.62.08,4.39,2.47h0C924.38,365.9,924.09,366.18,920.15,367.21Z"/><path class="cls-14" d="M1077.49,350.25c15.55-11.1,27.87-6.28,44.41.5,3.22,1.33,4.48.17,5.35-1.93h0c.88-2.11,1.27-3.79-2.2-5.25-17.77-7.47-31.76-13-49-1.69-3.36,2.2-3.62,3.33-3.3,6.22h0C1073.1,351,1074.46,352.42,1077.49,350.25Z"/><path class="cls-14" d="M1267.14,642.29h0c-1.61,0-3,.6-3.11-2.88-.76-26.58,4.45-34-12.87-57.1-2.27-3,1.28-3.27,3.08-3.43h0c1.79-.15,4.73,2,6.74,4.41,15.37,18.2,8.58,33.22,9,55.62C1270.06,641.84,1268.74,642.27,1267.14,642.29Z"/><path class="cls-24" d="M1036.43,482.46c-3.17-5.91-13.56-2.18-19.78-2-.93,0-1.88-.31-1.88-1.53h0c0-1.22.54-1.44,1.7-1.48,7.78-.27,17.65-3.74,22.5,3.24.72,1,.39,1.44-.46,2.22.08.13.08.11,0,0C1037.66,483.69,1036.9,483.34,1036.43,482.46Z"/><path class="cls-25" d="M1068.48,498.87a14.4,14.4,0,0,0,2.31,12.3,5.33,5.33,0,0,0,2.36-3.31,3.15,3.15,0,0,1-2.24-3.91c.19-.55.52-1,.7-1.57a3.07,3.07,0,0,0-2.94-3.83"/><path class="cls-18" d="M990.46,462.59c-.69,1.67-2.54,3.27-3,5.43-1.37,6.93-7.32,10.91-10,6a16.57,16.57,0,0,0-10.41-7.83c-4.11-1.15-8.56-3.45-9.32-6.64-.93-3.9,3.1-1.21,8.21.49,3,1,11.66,1,14,1C983,461,994,454,990.46,462.59Z"/><path class="cls-18" d="M1071.78,448.53c-2,2.85-2.34,8.93-6.74,10.12-5,1.35-6,6.35-8.77,6.31-3.38,0-6.3,5.28-8.27,5-4.18-.51-6-9-10.2-11.41-5.76-3.3-4.55-10.5-1.7-9.11,6.36,3.1,14.9,4.52,21.28,4.49C1063.35,454,1077,441,1071.78,448.53Z"/><path class="cls-18" d="M1065.47,474.23c-1.86,2.35,1.47,4.75-.8,7s-5.57-4.38-3.58-6.77.66-5.44,3.15-7.32S1067.32,471.88,1065.47,474.23Z"/><path class="cls-18" d="M971.75,481.38c-1.74,1.68,1.45,8.05-.83,7.5s-2.11-7.11-1.83-9-.44-6.21,2.56-5.12S973.49,479.69,971.75,481.38Z"/><path class="cls-18" d="M1058.12,489.38c0,1.26,2,4.68-1,5.5s-2.94-1.57-2.25-3.67-.88-5.14,1.67-5.35C1057.94,485.75,1058.07,488.12,1058.12,489.38Z"/><path class="cls-18" d="M978.6,497.27c.55,1.16-1.42,6.67-2.78,5.54s.93-3.63,0-5.18-.71-5.47,1.27-5.41S978.05,496.11,978.6,497.27Z"/><ellipse class="cls-14" cx="1053.95" cy="409.17" rx="4.5" ry="20.07" transform="matrix(0.08, -1, 1, 0.08, 559.82, 1426.06)"/><ellipse class="cls-20" cx="974.09" cy="403.52" rx="24.73" ry="9.92" transform="translate(-54.39 171.33) rotate(-9.78)"/><ellipse class="cls-14" cx="973.09" cy="418.95" rx="19" ry="4.79" transform="translate(-57.02 171.38) rotate(-9.78)"/><ellipse class="cls-20" cx="1059.23" cy="392.7" rx="12.84" ry="35.41" transform="translate(581.08 1416.2) rotate(-85.3)"/><path class="cls-19" d="M1046.32,461.19c.29,1.18,2.44,4.58,1.56,5.31s-3.43-2.9-3.69-4.19-1.76-4.61-.71-4.9S1046,460,1046.32,461.19Z"/><path class="cls-19" d="M977.82,471.82c.6.37,1.54,1.7,2.45,1.59s1.19-.67.29-1.33-2.35-3.08-3.55-3S977.22,471.45,977.82,471.82Z"/><path d="M1032.81,508.56c4.1,10-13,2.55-18.49,2.05s-17.84,6.54-17,.83,6.67-13.2,15.42-8.8S1028,496.74,1032.81,508.56Z"/><path class="cls-19" d="M799.54,510.35c-2.2.64-1.72,4.68-1,4.65s-3.53-5.57-.93-6.32,4.13-2.82,4.89-1.8S801.74,509.7,799.54,510.35Z"/><path class="cls-18" d="M721.41,535.58c-.11,1.86.15,8.21-2.15,7.3s.17-5.77-.72-7.51-2.36-4.58.45-4.94S721.51,533.71,721.41,535.58Z"/><path class="cls-18" d="M814.8,538.24c.67,1.33-1,6.58-2.72,5.55s1.06-3.54,0-5-1.08-5.24,1-5.24S814.13,536.91,814.8,538.24Z"/><path class="cls-18" d="M810.05,521.51c-.91,1.83,2.77,3.19,1.63,5.24s-5.68-2.18-4.85-4.31-.62-5.19,1.37-6.62S811,519.68,810.05,521.51Z"/><path class="cls-18" d="M715.38,549.92c-.65,1.23,1.2,1.77.59,3.73s-3.33.41-3.23-1.26-.17-5.57,2.42-5.38C716.54,547.11,716,548.69,715.38,549.92Z"/><path d="M791.87,548.74c-.84,5.86-15.13,5.92-19.87,2.4s-11.58,5.68-14.22.66,9.5-11.4,12.2-10.59S792.71,542.87,791.87,548.74Z"/><path d="M625,160.28q14.68,0,16.72-34.59a22.17,22.17,0,0,1-7.84,7.09,19.94,19.94,0,0,1-9.41,2.42q-8.45,0-14.52-6.86t-6.07-19.1q0-16.81,8.71-29.22a30.46,30.46,0,0,1,10.91-9.63,31.93,31.93,0,0,1,15.27-3.57q8.58,0,13.11,4.45a14.73,14.73,0,0,1,4.53,11q0,6.52-4,10.3a13.57,13.57,0,0,1-9.59,3.78,14.16,14.16,0,0,1-6.86-1.76,12,12,0,0,1-5-5.1,18,18,0,0,0,4.49.62,10.23,10.23,0,0,0,7.52-2.73,8.44,8.44,0,0,0,2.78-6.16,7.65,7.65,0,0,0-2.29-5.68,9,9,0,0,0-6.51-2.24q-5.55,0-10.08,5.67a38.62,38.62,0,0,0-6.82,13.73,60.57,60.57,0,0,0-2.29,16.68q0,8.63,3.39,13.51t8.23,4.88c3.22,0,6-1.58,8.4-4.75s3.57-7.45,3.57-12.85A32.68,32.68,0,0,0,641,106v-.26q1.93-.18,4-.18,5.1,0,7.08,1.72t2,5.85q0,26.85-9.59,41.89a26.66,26.66,0,0,1-8.71,8.45,23,23,0,0,1-12.14,3.25q-9.24,0-13.86-4.7a15,15,0,0,1-4.62-10.78q0-6.08,3.25-9.73a10.42,10.42,0,0,1,8.1-3.65,13.76,13.76,0,0,1,5.81,1.5,19.7,19.7,0,0,0-4.67,12.4,10.09,10.09,0,0,0,1.76,6.16Q621.17,160.29,625,160.28Z"/><path d="M677.14,121.12a13,13,0,0,0,1.54,6.73,4.83,4.83,0,0,0,4.36,2.6q4.13,0,7.87-4.84a37.77,37.77,0,0,0,6-12.41,50.86,50.86,0,0,0,2.24-14.39,93,93,0,0,0-.53-11c1.76-.12,3-.18,3.7-.18q4.49,0,6.77,1.67c1.53,1.12,2.29,3.11,2.29,6q0,1.66-2.11,13.59a115.11,115.11,0,0,0-2.11,19.1,28.52,28.52,0,0,0,2.72,12.71q-6.58-1.14-9.67-4.88T697.12,125c0-.82.11-2.4.35-4.75A26.6,26.6,0,0,1,689,133.7q-6.07,5.12-11.92,5.11a11.58,11.58,0,0,1-9.42-4.36q-3.57-4.35-3.56-12.36A43.25,43.25,0,0,1,667,106.56a32.66,32.66,0,0,1,8.58-12.76,18.44,18.44,0,0,1,12.76-5.24,19.82,19.82,0,0,1,8.27,1.94q-8.9,3.16-14.17,12.45T677.14,121.12Z"/><path d="M760.83,128.42a88,88,0,0,0,.52,9.33c-1.87.12-3.11.18-3.69.18-3.29,0-5.66-.58-7.13-1.72a6,6,0,0,1-2.2-5.06q0-3.35,1.89-13.77a96.7,96.7,0,0,0,1.89-15.84q0-5.42-3.52-5.41c-1.29,0-2.69.78-4.22,2.33a25.15,25.15,0,0,0-4.31,6.34,43.54,43.54,0,0,0-3.39,10.25,56.21,56.21,0,0,0-1.36,12,101.26,101.26,0,0,0,.52,10.69c-1.87.12-3.11.18-3.69.18-3.29,0-5.66-.58-7.13-1.72s-2.2-3.06-2.2-5.76q0-1,1.8-13.11a137.67,137.67,0,0,0,1.81-19.23,52.62,52.62,0,0,0-1.5-13q6.51,2,9.07,5.8a16.35,16.35,0,0,1,2.55,9.33,52.37,52.37,0,0,1-.62,7.13,40.78,40.78,0,0,1,8.32-14.61Q749.57,87,754.53,87c3.32,0,5.72,1.24,7.22,3.7s2.24,6,2.24,10.65a37.64,37.64,0,0,1,7.66-10.39c2.87-2.63,5.51-4,7.92-4,3.58,0,6.12,1.08,7.61,3.22s2.25,5,2.25,8.71a97.87,97.87,0,0,1-1.72,15.44A96.83,96.83,0,0,0,786,128.82q0,4.53,1.15,6.6A9.38,9.38,0,0,0,791,139c-.76.06-1.85.09-3.26.09q-7.38,0-10.51-2.29c-2.08-1.52-3.13-4.19-3.13-8a87.39,87.39,0,0,1,1.76-12.71,84.53,84.53,0,0,0,1.76-14.13q0-5.81-3.52-5.8c-1.76,0-3.65,1.27-5.67,3.83s-3.8,6.39-5.33,11.52A59.53,59.53,0,0,0,760.83,128.42Z"/><path d="M821,116.1a35.63,35.63,0,0,1-8.27-1c-.06.58-.09,1.49-.09,2.72q0,7.31,2.73,11t6.51,3.7a12.74,12.74,0,0,0,7.21-2.29,20.67,20.67,0,0,0,6-6.34c2.11.48,3.17,1.56,3.17,3.26q-7.75,11.88-20,11.88a17.53,17.53,0,0,1-12.94-5.68q-5.54-5.67-5.54-15.79a36.45,36.45,0,0,1,2.9-14.39A27.9,27.9,0,0,1,812,91.68,23.08,23.08,0,0,1,826,87q7.69,0,11.31,3.53a12.32,12.32,0,0,1,3.61,9.23q0,8.28-5.77,12.33A24,24,0,0,1,821,116.1Zm3.69-23.67q-4.49,0-7.56,5.54a36.56,36.56,0,0,0-4,13.47h1.32q7.65,0,11.31-4A13.56,13.56,0,0,0,829.38,98a6.46,6.46,0,0,0-1.19-3.91A4,4,0,0,0,824.71,92.43Z"/><path d="M928.2,130.31a29.11,29.11,0,0,1-9.9,7,31.61,31.61,0,0,1-13,2.64A23.73,23.73,0,0,1,893,136.78a24.28,24.28,0,0,1-8.5-8.44q-6.33-10.56-6.33-24.65a45.79,45.79,0,0,1,7-25.08q7-11,18.7-13.9a3.53,3.53,0,0,1,1.37.71,1.82,1.82,0,0,1,.75,1.14,33.59,33.59,0,0,0-13.73,22.53q3.69-10.38,11.13-16.24a25.35,25.35,0,0,1,16-5.85q8.54,0,14.57,7.35t6,21.25a57.29,57.29,0,0,1-5.1,24.55A38.86,38.86,0,0,1,928.2,130.31Zm-5-50q-3.39-5.55-9.24-5.55T902.9,79.89a35.27,35.27,0,0,0-8.18,13,44.54,44.54,0,0,0-3,15.84q0,11,3.65,18t11,7q6.16,0,10.87-5.41a34.65,34.65,0,0,0,7-13.42,61.1,61.1,0,0,0,2.29-16.81Q926.62,85.84,923.23,80.29Z"/><path d="M967.71,137.75a14.58,14.58,0,0,1-5.9,1.23c-2,0-3.19-.44-3.43-1.32Q957,132,955.13,120.81t-3.74-19.62q-1.9-8.4-4.54-12.72c3.23-1.52,5.81-2.29,7.75-2.29A6.46,6.46,0,0,1,959,87.5c1,.88,1.83,2.63,2.51,5.24s1.15,4.77,1.45,6.47q1.23,8.45,1.23,9.41c0,.65.23,3.27.7,7.88s.83,7.64,1.06,9.11Q981.61,95.25,981.61,85q7.21,3.69,7.22,8,0,3.51-3.65,10.42T976,120.19A122.54,122.54,0,0,0,967.71,137.75Z"/><path d="M1015.32,116.1a35.63,35.63,0,0,1-8.27-1c-.06.58-.09,1.49-.09,2.72q0,7.31,2.73,11t6.51,3.7a12.74,12.74,0,0,0,7.21-2.29,20.67,20.67,0,0,0,6-6.34c2.11.48,3.17,1.56,3.17,3.26q-7.75,11.88-20,11.88a17.53,17.53,0,0,1-12.94-5.68q-5.53-5.67-5.54-15.79a36.45,36.45,0,0,1,2.9-14.39,27.9,27.9,0,0,1,9.24-11.53,23.08,23.08,0,0,1,14-4.71q7.7,0,11.31,3.53a12.32,12.32,0,0,1,3.61,9.23q0,8.28-5.77,12.33A24,24,0,0,1,1015.32,116.1ZM1019,92.43q-4.49,0-7.56,5.54a36.56,36.56,0,0,0-4.05,13.47h1.32q7.65,0,11.31-4a13.56,13.56,0,0,0,3.65-9.51,6.46,6.46,0,0,0-1.19-3.91A4,4,0,0,0,1019,92.43Z"/><path d="M1058.09,109.15q3.17-11.43,7.61-16.85t8.27-5.41a6.49,6.49,0,0,1,5.76,2.86,12.92,12.92,0,0,1,1.94,7.39,14.08,14.08,0,0,1-2.68,8.32,8.54,8.54,0,0,1-7.35,3.78,7.72,7.72,0,0,1-2.91-.7,12.9,12.9,0,0,0,2.73-8.28c0-1.87-.76-2.81-2.29-2.81-1.11,0-2.31.77-3.6,2.33a26.28,26.28,0,0,0-3.7,6.42,50.33,50.33,0,0,0-2.95,10.48,74.32,74.32,0,0,0-1.19,13.59q0,.89.44,7.48c-1.87.12-3.08.18-3.6.18-3.35,0-5.75-.59-7.22-1.76s-2.2-3.11-2.2-5.81q0-1.76,1.85-13.55A128.43,128.43,0,0,0,1048.85,98a52.17,52.17,0,0,0-1.5-12.89q6.42,2,9,5.76a15.11,15.11,0,0,1,2.55,8.71A56.72,56.72,0,0,1,1058.09,109.15Z"/><path d="M1086.6,125.78a22.84,22.84,0,0,1,6.25-.88q6.51,0,6.51,5.46a37,37,0,0,1-1.59,7.48,22.45,22.45,0,0,1-6.24.88q-6.52,0-6.52-5.46A37.18,37.18,0,0,1,1086.6,125.78Zm18.65-49.89a37.34,37.34,0,0,1-1.58,8.62q-4.67,18-4.66,28a17.75,17.75,0,0,0,.7,6.07q-6.07-1.5-8.36-4.53t-2.29-8.36q0-5.33,2.2-16.33t2.2-15.71a44.08,44.08,0,0,0-.26-6.11,16.83,16.83,0,0,1,8.36,2.07A6.74,6.74,0,0,1,1105.25,75.89Z"/><path d="M727,177.9a12.77,12.77,0,0,1,.36-2.7A72,72,0,0,0,739,176a66.72,66.72,0,0,0,14.22-1.62q-.76,5.72-5.8,6.25c-1,.16-2.67.31-4.86.46q-.09,1.31-1.49,11.4a121.67,121.67,0,0,0-1.39,13.93,15.28,15.28,0,0,0,.63,5.31q-3.82-1-5.22-2.63a6.08,6.08,0,0,1-1.4-4.07,101.25,101.25,0,0,1,1.15-10.56q1.16-8.11,1.37-13.07-3.64.18-7.15.18Q727,181.59,727,177.9Z"/><path d="M760.25,195.72q1.62-5.85,3.89-8.62t4.23-2.76a3.31,3.31,0,0,1,3,1.46,6.59,6.59,0,0,1,1,3.78,7.23,7.23,0,0,1-1.37,4.25,4.38,4.38,0,0,1-3.76,1.94,4,4,0,0,1-1.49-.36,6.59,6.59,0,0,0,1.4-4.23q0-1.44-1.17-1.44a2.63,2.63,0,0,0-1.85,1.19,13.53,13.53,0,0,0-1.89,3.28,25.49,25.49,0,0,0-1.5,5.36,37.46,37.46,0,0,0-.61,7c0,.3.07,1.58.22,3.83-1,.05-1.57.08-1.84.08a6,6,0,0,1-3.69-.89,3.59,3.59,0,0,1-1.13-3q0-.9,1-6.93a65.44,65.44,0,0,0,.94-9.61,26.87,26.87,0,0,0-.76-6.6,8.44,8.44,0,0,1,4.59,2.95,7.72,7.72,0,0,1,1.3,4.46A28.61,28.61,0,0,1,760.25,195.72Z"/><path d="M794.09,187.49a10.3,10.3,0,0,1-1.35,4.25c-.9,1.78-2,3.76-3.29,5.92s-2.58,4.46-3.87,6.9a44.79,44.79,0,0,0-3.28,8.28,32.11,32.11,0,0,0-1.35,9,23,23,0,0,0,.31,3.87q-3.64-.68-5-2a4.29,4.29,0,0,1-1.3-3.13q0-2.46,3.6-9.76-.68-2.79-1.67-8.75t-2-10.37a23.36,23.36,0,0,0-2.32-6.58,10.17,10.17,0,0,1,4-1.17,3.31,3.31,0,0,1,2.25.68,5.48,5.48,0,0,1,1.29,2.68c.34,1.33.59,2.44.74,3.31.42,2.88.63,4.48.63,4.81s.12,1.67.36,4,.42,3.91.54,4.66q8-15.52,8-20.75Q794.09,185.28,794.09,187.49Z"/><path d="M817.76,201.84a6.71,6.71,0,0,0,.78,3.44,2.47,2.47,0,0,0,2.23,1.33q2.12,0,4-2.47a19.47,19.47,0,0,0,3.06-6.35,26.07,26.07,0,0,0,1.15-7.36,47.19,47.19,0,0,0-.27-5.64q1.35-.09,1.89-.09a5.83,5.83,0,0,1,3.46.85,3.55,3.55,0,0,1,1.17,3.06q0,.85-1.08,6.95a59,59,0,0,0-1.08,9.77,14.55,14.55,0,0,0,1.4,6.5,7.87,7.87,0,0,1-5-2.5,8.45,8.45,0,0,1-1.58-5.51q0-.63.18-2.43a13.61,13.61,0,0,1-4.32,6.89,9.57,9.57,0,0,1-6.1,2.61,5.92,5.92,0,0,1-4.81-2.23,9.71,9.71,0,0,1-1.82-6.32,22.12,22.12,0,0,1,1.46-8,16.73,16.73,0,0,1,4.39-6.52,9.4,9.4,0,0,1,6.52-2.68,10.11,10.11,0,0,1,4.23,1,13.45,13.45,0,0,0-7.24,6.37A18.71,18.71,0,0,0,817.76,201.84Z"/><path d="M854.66,184.83a7.06,7.06,0,0,1,1.3.09,1.57,1.57,0,0,1,1.26,1.67,12.23,12.23,0,0,0-7.81,5.3,15.73,15.73,0,0,0-2.9,8.92q0,5.4,3.29,5.4a4.42,4.42,0,0,0,3.55-2.16c1.86-2.62,3.17-6.69,3.92-12.24.57-4.38,1.63-7.21,3.19-8.46a8.24,8.24,0,0,1,2.79-1.49,60,60,0,0,0-.63,7.2q0,18-3.85,27t-12.53,9.05a7.66,7.66,0,0,1-5.49-1.87,5.55,5.55,0,0,1-2-4.09,5,5,0,0,1,1.4-3.65,5.25,5.25,0,0,1,3.91-1.41,5.32,5.32,0,0,1,2.12.45,3.84,3.84,0,0,0-1.71,3.46,4.13,4.13,0,0,0,.94,2.72,2.88,2.88,0,0,0,2.32,1.15,5,5,0,0,0,2.41-.56,7,7,0,0,0,2.11-2,14.6,14.6,0,0,0,1.89-3.6q1.85-5,2-13.64a14.06,14.06,0,0,1-4,6.21,8.17,8.17,0,0,1-5.4,2.34,6,6,0,0,1-5.29-2.63,11.54,11.54,0,0,1-1.82-6.73,17.88,17.88,0,0,1,2.29-8.87,14,14,0,0,1,7.11-6.56A14.46,14.46,0,0,1,854.66,184.83Z"/><path d="M874.19,201.84a6.71,6.71,0,0,0,.78,3.44,2.47,2.47,0,0,0,2.23,1.33q2.12,0,4-2.47a19.47,19.47,0,0,0,3.06-6.35,26.07,26.07,0,0,0,1.15-7.36,47.19,47.19,0,0,0-.27-5.64q1.35-.09,1.89-.09a5.83,5.83,0,0,1,3.46.85,3.55,3.55,0,0,1,1.17,3.06q0,.85-1.08,6.95a59,59,0,0,0-1.08,9.77,14.55,14.55,0,0,0,1.4,6.5,7.87,7.87,0,0,1-4.95-2.5,8.45,8.45,0,0,1-1.58-5.51q0-.63.18-2.43a13.61,13.61,0,0,1-4.32,6.89,9.57,9.57,0,0,1-6.1,2.61,5.92,5.92,0,0,1-4.81-2.23,9.71,9.71,0,0,1-1.82-6.32,22.12,22.12,0,0,1,1.46-8,16.73,16.73,0,0,1,4.39-6.52,9.4,9.4,0,0,1,6.52-2.68,10.11,10.11,0,0,1,4.23,1,13.45,13.45,0,0,0-7.24,6.37A18.71,18.71,0,0,0,874.19,201.84Z"/><path d="M904.85,195.07a66.78,66.78,0,0,0-1.12,10.57,16.05,16.05,0,0,0,.52,5.38q-3.51-.9-4.73-2.72a9.64,9.64,0,0,1-1.21-5.33,54.69,54.69,0,0,1,.72-6.84,59,59,0,0,0,.72-7.7,25.18,25.18,0,0,0-.27-4.23c.65-.06,1.27-.09,1.84-.09a5.58,5.58,0,0,1,3.62.88,3.76,3.76,0,0,1,1,3Q906,188.66,904.85,195.07Zm1.78-14.92a15.78,15.78,0,0,1-2.2.18c-3.1,0-4.64-1.08-4.64-3.24a11,11,0,0,1,.68-3.2,17.15,17.15,0,0,1,2.2-.17q4.64,0,4.64,3.24A10.85,10.85,0,0,1,906.63,180.15Z"/><path d="M929,184.38a4.32,4.32,0,0,1,3.8,1.64,7.71,7.71,0,0,1,1.15,4.46,50.54,50.54,0,0,1-.88,7.9,48.47,48.47,0,0,0-.88,7.4,7.28,7.28,0,0,0,.59,3.37,4.65,4.65,0,0,0,2,1.82c-.39,0-1,.05-1.67.05q-3.78,0-5.38-1.17c-1.06-.78-1.59-2.14-1.59-4.09a43.08,43.08,0,0,1,.9-6.51,43.53,43.53,0,0,0,.9-7.22q0-3-1.8-3a3.7,3.7,0,0,0-2.34,1.22,14.37,14.37,0,0,0-2.52,3.3,20.69,20.69,0,0,0-2,5.38,27.25,27.25,0,0,0-.81,6.55,31.45,31.45,0,0,0,.27,4.84c-1,.05-1.59.08-1.89.08a6,6,0,0,1-3.69-.89,3.58,3.58,0,0,1-1.12-3q0-.9.94-6.93a65.7,65.7,0,0,0,1-9.61,26.86,26.86,0,0,0-.77-6.6,8.44,8.44,0,0,1,4.59,2.95,7.58,7.58,0,0,1,1.31,4.37,35.19,35.19,0,0,1-.54,5.69,21.52,21.52,0,0,1,4.68-8.55Q926.35,184.38,929,184.38Z"/><path d="M947.67,201.08q-5.49-1.44-5.49-5.31c0-2,1.21-3.9,3.65-5.76,1-.78,2-1.56,3-2.34a12.48,12.48,0,0,0,2.56-2.68,5.33,5.33,0,0,0,1.06-3.11,3,3,0,0,0-1-2.45,4.06,4.06,0,0,0-2.7-.85,3.51,3.51,0,0,0-2.77,1.23,4.35,4.35,0,0,0-1.08,2.95,4.65,4.65,0,0,0,1.12,3.06,6.82,6.82,0,0,1-2.4.36,3.78,3.78,0,0,1-2.68-1.17,4.1,4.1,0,0,1-1.21-3.1,5.37,5.37,0,0,1,2.9-4.69,12.43,12.43,0,0,1,6.66-1.79,10.51,10.51,0,0,1,6.39,1.93,6.66,6.66,0,0,1,2.63,5.72,7.63,7.63,0,0,1-1.15,4.11,12,12,0,0,1-2.77,3.18c-1.08.87-2.16,1.69-3.24,2.47-2.63,1.86-4,3.68-4,5.45A7.13,7.13,0,0,0,947.67,201.08Zm-5.54,3.14a12,12,0,0,1,3.2-.44q3.33,0,3.33,2.79a19,19,0,0,1-.81,3.82,11.54,11.54,0,0,1-3.19.45c-2.23,0-3.33-.93-3.33-2.79A18.87,18.87,0,0,1,942.13,204.22Z"/></svg>