<svg id="Layer_1" data-name="Layer 1" xmlns="http://www.w3.org/2000/svg" width="180" height="160" viewBox="0 0 180 160"><defs><style>.cls-1{fill:#e8bcc4;}.cls-2{fill:#fff;}.cls-3{fill:#d98f9d;}</style></defs><path class="cls-1" d="M154.86,89.84c-3.25,43.08-28,70.73-67.84,69.49S22.72,129.4,19.77,90.48,44,21.55,86.41,22.18,158.11,46.76,154.86,89.84Z"/><path class="cls-2" d="M87.7,68.75c.43,12-5.6,26.15-19.23,26.1s-21-13.46-20.67-25.47,7.67-22.72,20.54-24.86S87.26,56.76,87.7,68.75Z"/><path class="cls-2" d="M138.05,71c.12,11.27-4.48,24.55-18,24.3S101,82.34,101,70.44s6.56-24.06,19.22-24.54S137.93,59.76,138.05,71Z"/><path class="cls-3" d="M128,124.88c1.33,17.58-15.88,22.41-31.13,23.69S61.82,144,61.93,126.4s18.55-25.8,33.49-24.74S126.68,107.29,128,124.88Z"/><path d="M90.47,122.17c.11,3.26-1.1,6.16-5,6a5.81,5.81,0,0,1-5.68-6.73c.4-3.39,3.2-6.2,6.55-5.79S90.37,118.91,90.47,122.17Z"/><path d="M114.19,121.87c.25,3-.63,4.25-3.9,5a5.49,5.49,0,0,1-6.84-5,6,6,0,0,1,5.83-6.27C112.67,115.64,113.94,118.89,114.19,121.87Z"/><path class="cls-1" d="M16.58,21.41c-.39-5-15-14.27-12.77-17.21C9.32-3.14,33.56,2.61,41.76,5.83c12.24,4.8,23,13.07,18.9,23.9S48.52,43.62,36.85,44,17.76,36.44,16.58,21.41Z"/><path class="cls-1" d="M161.88,26.12c-3.74,12.14-10.36,16.6-19.77,17.43s-16.23-2.86-17.87-14S134,12.34,144.1,10.18c7.22-1.54,29.69-.36,32.26,5.63C177.41,18.24,163,22.62,161.88,26.12Z"/><ellipse cx="68.98" cy="74.87" rx="17.44" ry="19.27"/><ellipse cx="120.38" cy="74.87" rx="17.44" ry="19.27"/><circle class="cls-2" cx="71.73" cy="79.46" r="7.34"/><circle class="cls-2" cx="121.29" cy="79.46" r="7.34"/><circle class="cls-2" cx="120.38" cy="63.86" r="2.75"/><circle class="cls-2" cx="109.36" cy="71.2" r="2.75"/><circle class="cls-2" cx="67.14" cy="63.86" r="2.75"/><circle class="cls-2" cx="59.8" cy="73.04" r="2.75"/></svg>