<svg id="Layer_1" data-name="Layer 1" xmlns="http://www.w3.org/2000/svg" width="410" height="500" viewBox="0 0 410 500"><defs><style>.cls-1{fill:#d98f9d;}.cls-2{fill:#e8bcc4;}.cls-3,.cls-4{fill:#fff;}.cls-4{stroke:#fff;}.cls-4,.cls-5{stroke-miterlimit:10;}.cls-5{fill:none;stroke:#000;}.cls-6{fill:#f0d2d8;}</style></defs><path class="cls-1" d="M62.75,433.44a35.79,35.79,0,0,1-5.09-.37,44.32,44.32,0,0,1-15-5,41.45,41.45,0,0,1-19.11-3.3A35.53,35.53,0,0,1,3.57,402l6.68-1.82a28.52,28.52,0,0,0,16.12,18.21,32.91,32.91,0,0,0,6.12,2c-6.1-6.42-10.24-16.35-5.77-24.62,3.19-5.91,10.35-9.59,19.15-9.84a21.91,21.91,0,0,1,10.77,2c7.52,3.81,10.33,12.62,10.46,19.6.1,5.31-1.15,9.57-3.7,12.67a18.65,18.65,0,0,1-8.12,5.33c1.1.26,2.22.47,3.35.63,3.69.52,10.6.8,15.42-3.18,4.22-3.48,6-9.37,7.69-16.14l6.7,1.71c-1.55,6.16-3.68,14.58-10,19.8C74.42,431.7,69,433.44,62.75,433.44ZM46.91,392.88h-.84c-2.36.07-10.31.72-13.28,6.22s.72,12.9,5.79,17.57a36.3,36.3,0,0,0,5.7,4.31,38.89,38.89,0,0,0,7.23-1.5c3.22-1,5.3-2.16,6.56-3.69,1.47-1.78,2.19-4.51,2.12-8.11-.09-4.73-1.89-11.11-6.67-13.53A14.51,14.51,0,0,0,46.91,392.88Z"/><path class="cls-2" d="M343.73,227.56c43.49,27.63,50.56,71.3,48,123.49,3.35,41.05-1.26,79.2,5.77,120.48,1.37,8-5.55,9.71-11.9,10.54a34.14,34.14,0,0,1-8.49-.26c-6.59-1.49-10.82-3.36-10.94-10.92-.24-15.38.74-31.57-.18-47.11-1.33,2.11-2.68,4.64-4.15,6.65-8.13,11.15-16.77,21.65-27.66,30-11.35,8.69-23.59,13.88-36.74,18.94.34.38.66.86,1,1.29A121.62,121.62,0,0,1,260.8,494c-3.15-2.85-5.59-6-9.27-8.33-11.54-7.2-22.18-12.31-36-14.38-18.17-2.71-36.33-2.76-54.77,1.26C100.66,453.57,66.27,424,78.61,356c16.78-92.55,81.65-121.63,164.7-142.39,7.51-1.87,1.58-3.34,8.78-5.12-17.16-18.7-16.85-35-16.87-61,0-18.38,7.88-33.61,15.51-50.17-10.88-11.41-11.62-34.14-6.32-46,6.87-15.43,13.88-20.91,21-34.2,1.15-2.17,1.43-12.83,5.61-10.79,9.31,4.57,10.77,14.15,16.55,22.5a77,77,0,0,1,13.79,36.18c6.29-.47,12.63-1.57,18.92-1.44a152.49,152.49,0,0,1,32,4.45c-.09-2.08-1-3.78-.67-5.94,2.09-13.84,8.42-23.61,17.89-33.57,2.06-2.17,2.32-12,6.52-9.49,5.78,3.45,4.06,11.49,6.13,17.34C385.43,45.71,390,56.94,393,66c1.35,4.15,1.33,5.93.59,9.14-1.36,6-5.21,8.45-9,12.32,13.55,20.39,23.56,38.54,21.64,64.34C402.58,200.41,392.21,220,343.73,227.56Z"/><path d="M330.77,124.44a12.39,12.39,0,0,1-2.2-11.5l.82.27a11.5,11.5,0,0,0,2.05,10.67Z"/><path d="M324.65,116.19A9.92,9.92,0,0,1,319.84,105l.84.24A9,9,0,0,0,325,115.42Z"/><path d="M314.41,112.08a10.52,10.52,0,0,1-8-8.75l.85-.11a9.65,9.65,0,0,0,7.36,8Z"/><path d="M301.81,114.52a4.73,4.73,0,0,1-3.13-1.28,10.48,10.48,0,0,1-2.35-3.61,8.05,8.05,0,0,1-.9-3.89l.86.08a7.21,7.21,0,0,0,.83,3.45,9.63,9.63,0,0,0,2.14,3.32,3.52,3.52,0,0,0,3.39.92l.28.83A3.55,3.55,0,0,1,301.81,114.52Z"/><path d="M293.36,121.39a6,6,0,0,1-3.51-1.11,11.51,11.51,0,0,1-1.64-1.55,4.3,4.3,0,0,1-1.5-2.9l.87,0a3.54,3.54,0,0,0,1.27,2.28,10.2,10.2,0,0,0,1.51,1.43,5.14,5.14,0,0,0,4.8.62l.31.81A5.77,5.77,0,0,1,293.36,121.39Z"/><path d="M288.61,126.45a7.12,7.12,0,0,1-2.2-.34,7.6,7.6,0,0,1-4.79-4.66l.82-.29a6.57,6.57,0,0,0,10.05,3.19l.51.7A7.52,7.52,0,0,1,288.61,126.45Z"/><path d="M372.35,121.11l-.8-.33a6.8,6.8,0,0,0-.46-6l.74-.45A7.69,7.69,0,0,1,372.35,121.11Z"/><path d="M377.65,117.15l-.66-.57a16,16,0,0,0,2.82-4.2,6.93,6.93,0,0,0,.38-4.8l.82-.27a7.78,7.78,0,0,1-.4,5.41A17,17,0,0,1,377.65,117.15Z"/><path d="M383.55,115.65l-.27-.82a6.61,6.61,0,0,0,4.18-7.3l.85-.18A7.42,7.42,0,0,1,383.55,115.65Z"/><path d="M390.08,118.35H390l0-.87a5.61,5.61,0,0,0,5.43-4.61l.85.13A6.46,6.46,0,0,1,390.08,118.35Z"/><path d="M397.25,122.59a6.49,6.49,0,0,1-3.12-.77l.42-.76a5.84,5.84,0,0,0,6.16-.46l.52.7A6.67,6.67,0,0,1,397.25,122.59Z"/><path d="M400.8,127.76a4.38,4.38,0,0,1-2.62-.84l.26-.34a4.07,4.07,0,0,0,4.89-.13l.27.33A4.36,4.36,0,0,1,400.8,127.76Z"/><path class="cls-1" d="M386.26,181.18c7.51,13.75-8.24,29.9-22.42,32S330,211.27,328.1,195.59s10.34-24.47,23.66-28.36S378.75,167.44,386.26,181.18Z"/><ellipse class="cls-3" cx="382.63" cy="137.68" rx="17.72" ry="22.58"/><ellipse class="cls-3" cx="311.96" cy="137.46" rx="22.69" ry="26.71"/><ellipse cx="313.04" cy="143.76" rx="20.75" ry="20.84"/><ellipse cx="382.63" cy="142.45" rx="17.72" ry="17.8"/><ellipse class="cls-3" cx="324.28" cy="146.36" rx="5.19" ry="8.68"/><ellipse class="cls-3" cx="387.39" cy="143.76" rx="3.89" ry="6.51"/><ellipse class="cls-4" cx="309.15" cy="135.51" rx="3.03" ry="3.04"/><ellipse class="cls-3" cx="378.09" cy="133.12" rx="2.38" ry="2.39"/><ellipse class="cls-3" cx="304.4" cy="147.67" rx="2.16" ry="3.47"/><ellipse class="cls-3" cx="375.71" cy="142.45" rx="1.73" ry="2.61"/><ellipse cx="348.48" cy="182.84" rx="4.75" ry="4.78"/><ellipse cx="373.55" cy="181.1" rx="3.89" ry="3.91"/><path class="cls-1" d="M267.08,69.91a13.38,13.38,0,0,1-2.24-5.36c-1.37-6.89,1.15-13.9,3.76-20.41a32.14,32.14,0,0,1,3.89-7.58,11.1,11.1,0,0,1,7-4.53l5.12,15.69c1.26,3.86,2.52,8.06,1.21,11.9"/><path class="cls-1" d="M366,67.76A20,20,0,0,1,374.57,42a32.16,32.16,0,0,0,2.34,11.41c2,4.84,5.17,9.46,5,14.69-.11,3.52-1.75,6.79-3.48,9.85"/><path class="cls-1" d="M250.82,486.15a221.13,221.13,0,0,1-26.7-1.66c-22.07-2.66-43.92-6.17-63.8-11.67,16.38-5,37.68-3.58,54.58-1.15A78.84,78.84,0,0,1,250.82,486.15Z"/><path class="cls-1" d="M361.44,431.29c-.39,11.8-1.23,24.85.26,36.21.91,7-2.26,9.7-8.27,11.78a45.78,45.78,0,0,1-8.58,1.39c-7.42.44-13.94-1.72-13.11-10.21.28-2.87,1.58-6.56,1.95-9.57,11.2-8.23,19.82-18.95,27.71-30.31C361.39,430.82,361.44,431,361.44,431.29Z"/><path class="cls-5" d="M160.32,472.82l-.29.08"/><path class="cls-1" d="M296.51,479.94c-3.87-4.78-9.58-7.81-15.1-10.75a97.09,97.09,0,0,1-8.57-4.94c-18.08-12.14-25.08-34.48-30.71-56.31-5.27-20.44-11.24-43.6-28.61-57.05-16.41-12.7-41.47-14.46-67.05-4.71l-.31-.82c25.86-9.85,51.24-8.05,67.89,4.84,17.6,13.63,23.61,36.95,28.92,57.52,5.58,21.67,12.53,43.83,30.35,55.81a96.3,96.3,0,0,0,8.49,4.89c5.6,3,11.39,6.06,15.37,11Z"/><path class="cls-1" d="M366.33,425c-4.27-5.14-6.84-12.08-7.86-21.2-.44-4-.58-8-.71-12-.11-3.51-.23-7.14-.58-10.68-.82-8.49-2.94-16.92-5-25.07l.83-.21c2.07,8.18,4.2,16.64,5,25.19.35,3.58.47,7.22.59,10.74.13,3.92.26,8,.7,11.91,1,8.94,3.51,15.72,7.66,20.73Z"/><path class="cls-6" d="M111.12,328.16C114,313.68,125.46,302,139,296.3a4.2,4.2,0,0,0,2.67-4.76c-.11-.88-.25-2.22-.47-3.19-.56-2.44-2.62-3.17-5.28-2-17.41,8-30.4,20.36-34.86,39.13-.68,2.87.91,3.21,2.74,4.14a12.4,12.4,0,0,0,3.09.7C108.69,330.6,110.68,330.37,111.12,328.16Z"/><path class="cls-6" d="M274.67,109.9c4.1-10.2,9.85-16.17,20.17-20,1.58-.59,1.86-1.52,2.19-3a4.84,4.84,0,0,0,.15-2.13c-.46-1.45-.83-2.59-2.86-1.89C281.05,87.48,273,95.83,268,109c-.75,2,.26,2.31,1.65,3a3.72,3.72,0,0,0,2,.12A3.18,3.18,0,0,0,274.67,109.9Z"/><path class="cls-6" d="M178.43,366.05c9.28-3.42,19,.67,25.83,8.53,1,1.2,2.23,1.21,3.48.16.49-.41,1.25-1,1.77-1.57,1.31-1.35,1.22-3.16-.17-4.68-9.09-9.91-19.67-14.83-31.89-11-1.87.6-1.67,1.91-1.76,3.63a12.25,12.25,0,0,0,.36,2.57C176.37,365.18,177,366.58,178.43,366.05Z"/><path class="cls-6" d="M274,28.53h0c-.5-2.31-3.84-1.9-6.68-.8-6.11,2.38-8.39,8.58-10.45,14.07-1,2.55-.09,3.59,1.37,4.5h0c1.47.91,3.49,1.28,4.47-.72,2.12-4.29,2.36-10.42,7.44-12.81C272.49,31.66,274.49,30.85,274,28.53Z"/><path class="cls-6" d="M373.32,35.85h0c-.11-1.53-2.29-1.53-4.2-1-4.13,1.06-6.13,4.88-7.95,8.26-.84,1.57-.38,2.3.48,3h0c.85.7,2.12,1.09,2.92-.12,1.74-2.6,2.44-6.53,5.91-7.68C372.08,37.75,373.44,37.38,373.32,35.85Z"/><path class="cls-2" d="M334.43,184.17h0c-.9-.23-1.23-.67-.35-1.88,2.91-3.95,6-7.32,11.49-9.82,1.68-.76,2.82-.66,3.42-.1h0c.61.56.73,1.41-1,2.08-5.61,2.19-7.67,4.85-10.55,8.68A2.79,2.79,0,0,1,334.43,184.17Z"/><path class="cls-6" d="M373.21,300.71h0c-1.2-.06-2.16.06-2.23-2.34-.56-18.79.32-25.09-16.53-33.38-2.16-1.06-.41-2.26.4-3.07h0c.81-.8,2.51-1.14,4.49,0,15.48,8.55,15.54,19.92,15.94,36.63C375.33,300.65,374.41,300.76,373.21,300.71Z"/></svg>