<svg id="Layer_1" data-name="Layer 1" xmlns="http://www.w3.org/2000/svg" width="555" height="558" viewBox="0 0 555 558"><defs><style>.cls-1{fill:#d98f9d;}.cls-2{fill:#e8bcc4;}.cls-3,.cls-4{fill:#fff;}.cls-4{stroke:#fff;}.cls-4,.cls-5{stroke-miterlimit:10;}.cls-5{fill:none;stroke:#000;}.cls-6{fill:#f0d2d8;}.cls-7{fill:#001300;}</style></defs><path class="cls-1" d="M392,504.36c-3.7,1.27-9.52,1.84-13.39,1.88-6.6.05-11.37-2.83-12.47-10.59-1-7-2.53-17.39-5.1-23.72-2.83-7,.37-10.78,5.79-12.52a59.82,59.82,0,0,1,11.68-2.22c5.8-.45,10,2.33,10.7,9.73.65,6.71,5.15,16.29,8.15,22.59C400.67,496.46,398.31,502.19,392,504.36Z"/><path class="cls-1" d="M116.41,456a22.71,22.71,0,0,1-4.89-.34A56.19,56.19,0,0,1,97.15,451c-6.29-.34-12.55-.45-18.29-3.31-9.75-4.88-15.15-11.76-19.39-21.62,2.15-.62,4.29-1.19,6.44-1.77a32.44,32.44,0,0,0,15.54,17.38c1.84,1,3.91,1.32,5.81,1.95-5.14-7.67-9.45-14.32-5-23.59,3.19-6.62,11-8.71,17.88-9.38a18.55,18.55,0,0,1,10.21,1.89c7,4,9.51,11.2,10.15,18.24.49,5.35-1,8.51-3.39,12.3-2.14,3.42-4.85,3.52-7.88,5.5,1.45,0,1.82.55,3.46.53,5.39-.08,10.06.5,14.78-3.49,4.13-3.5,5.9-9.85,7.35-15.1,2.2.43,4.3,1.07,6.52,1.59-2.53,7.27-3.91,13.58-10,19C127.43,454.53,121.79,455.62,116.41,456Zm-15.25-38.78a1.55,1.55,0,0,0-.91,0c-4.88,1.28-9.83.76-12.4,6.47s1,12,5.41,16.33a35.45,35.45,0,0,0,5.44,4.14c2.17-.39,4.88-.64,6.82-1.45,2.63-1.11,4.7-1.26,6.41-3.74s2.24-4.41,2-7.94c-.33-4.64-1.85-9.76-6.45-12.57C105.83,417.43,103.25,417.21,101.16,417.19Z"/><path class="cls-2" d="M197.7,151.6l-1,.64a45.74,45.74,0,0,1-6.84,2.94A38.81,38.81,0,0,1,198,161,38,38,0,0,1,197.7,151.6Z"/><path class="cls-2" d="M507.56,213.09a12,12,0,0,1-3-2.4c-.17-.23-.37-.43-.56-.65a22.6,22.6,0,0,1-2,6A27.76,27.76,0,0,1,507.56,213.09Z"/><path class="cls-2" d="M512.24,216.5a23.44,23.44,0,0,0-4.68-3.41A27.76,27.76,0,0,0,502,216a22.6,22.6,0,0,0,2-6c-4.73-5.35-14.69-6.79-18.22-2.1-15.68,20.86-48.74,63.39-70,78.67-6.79-10.07-15.95-19.47-28.17-28.28C434.18,249,444,231,447.25,185.59,449,161.47,436.78,143.67,427,123c3.51-3.87,7.42-5.64,9.41-11.16,1.07-3,1-4.69.53-9-1-9.35-.72-20.76,3.18-30.09C442.58,67,449.8,60,445.64,54c-3-4.39-8,4.24-11.71,6-17.06,8.23-30.48,19.06-38.15,37-1.19,2.79.09,4-.18,6.63-10.26-2.84-20.59-5.22-31.24-5.89-6.12-.38-12,.68-18.08,1-4.14-16.69-12.6-29.54-26.43-39.56-10.71-7.77-21.05-16.19-34.33-15.61-6,.25,1.53,9.12,2.56,11.49,6.3,14.48,6.62,21.43,2.7,37.94-3,12.71-1.65,29.6,8.05,40.78-6.49,15.28-14,31.61-14.38,47.86-.6,23,2.84,39.52,15.85,58.25-6,1.66-2.68,3.26-9.83,5.12-7.92,2.06-15.69,4.18-23.25,6.43-18.93-31.3-27.59-75.9-52.45-100.14-5.42-5.28-11.63-2.87-17.07.39a38,38,0,0,0,.3,9.4,38.81,38.81,0,0,0-8.19-5.82,33.12,33.12,0,0,0-5,2.2c-5.5,3.39-12.43,6.48-5.9,15,25.84,33.65,36.4,62.21,54.53,90.53-51.16,20.42-89,52.28-101,118.67-11.87,65.6,20.4,92.38,78.32,112,17.72-2.51,35.35-3.58,52.73-.95,13.25,2,23.5,7.38,34.88,13.61,3.63,2,5.82,5.35,9,7.88a156.25,156.25,0,0,0,36.14-13,11.49,11.49,0,0,0-.92-1.2c8.44-3.76,16.75-7.2,24.63-11.68a32,32,0,0,1,8.35-6.42c.58-.43,1.18-.83,1.77-1.23.63-.77,1.29-1.54,2-2.29,2.16-2.36,4.59-4.44,6.72-6.84,4.49-5.07,8.51-10.5,13.55-15.05l.09-.08c.82-1.14,1.73-2.16,2.78-3.52,1.56-2,2.91-3.71,4.45-5.53l1.26-2.79c4.87-10.54,10.37-20.78,15.19-31.34q1.9-4.87,3.53-9.86a47.75,47.75,0,0,1,2.07-5.25c.13-1.07.3-2.14.5-3.2q.36-3,.81-6a12.2,12.2,0,0,1,.6-1.95,44.37,44.37,0,0,1,1.78-5.13c.21-1.58.5-3.24.89-5,.9-21.87.4-41.47-4.12-59.19,31.25-24.77,51.1-59.16,83.06-84.9C519.82,226.82,517.4,222.62,512.24,216.5Z"/><path d="M375.1,157.85a15.11,15.11,0,0,1-2.26-11.36l.78.28a14,14,0,0,0,2.1,10.54Z"/><path d="M369.15,149.61c-3.76-3-5.12-6.25-4.71-11.06l.79.24c-.37,4.38.86,7.31,4.29,10.07Z"/><path d="M359.43,145.49c-4.25-1.69-6.41-4.26-7.68-8.63l.8-.12c1.16,4,3.15,6.37,7,7.92C359.54,144.94,359.49,145.22,359.43,145.49Z"/><path d="M347.6,147.88a4.71,4.71,0,0,1-3-1.27,11.09,11.09,0,0,1-2.21-3.4,9.85,9.85,0,0,1-.91-3.77l.81.05a8.76,8.76,0,0,0,.84,3.36,10,10,0,0,0,2,3.15,3.62,3.62,0,0,0,3.19.91c.1.26.18.53.28.8A3.54,3.54,0,0,1,347.6,147.88Z"/><path d="M339.76,154.77a6.39,6.39,0,0,1-3.29-1,9.42,9.42,0,0,1-1.57-1.45,5,5,0,0,1-1.45-2.77h.82a3.86,3.86,0,0,0,1.18,2.13,7.28,7.28,0,0,0,1.48,1.37,5.46,5.46,0,0,0,4.51.54c.1.26.2.53.31.8A6.45,6.45,0,0,1,339.76,154.77Z"/><path d="M335.36,159.81a4.92,4.92,0,0,1-2.08-.3,8.09,8.09,0,0,1-4.58-4.3c.26-.11.51-.22.77-.31,1,1.78,2,3.16,4.07,3.76s3.66,0,5.44-.93c.17.21.32.45.48.68A8.06,8.06,0,0,1,335.36,159.81Z"/><path d="M414.74,155.74l-.78-.35a8.64,8.64,0,0,0-.54-6l.7-.43A9.81,9.81,0,0,1,414.74,155.74Z"/><path d="M419.72,152c-.21-.21-.42-.4-.63-.59a17.53,17.53,0,0,0,2.59-4.1,8.44,8.44,0,0,0,.38-4.72c.25-.08.51-.17.78-.23a9.51,9.51,0,0,1-.38,5.29A18.68,18.68,0,0,1,419.72,152Z"/><path d="M425.36,150.67c-.1-.27-.19-.55-.28-.82,2.9-1.62,4-3.7,3.91-7l.81-.13C429.91,146.49,428.68,148.84,425.36,150.67Z"/><path d="M431.72,153.46s-.05.1-.1-.05a1.3,1.3,0,0,1,0-.78,5.79,5.79,0,0,0,5.15-4.32l.83.15A6.63,6.63,0,0,1,431.72,153.46Z"/><path d="M438.85,157.61a7.86,7.86,0,0,1-3.1-.71c.14-.25.26-.49.39-.73a6.7,6.7,0,0,0,5.93-.39c.16.22.35.43.51.66A7.57,7.57,0,0,1,438.85,157.61Z"/><path d="M442.36,162.52a5.11,5.11,0,0,1-2.55-.77l.24-.34a4.53,4.53,0,0,0,4.71-.09c.09.1.18.2.27.32A5,5,0,0,1,442.36,162.52Z"/><path class="cls-1" d="M427.63,214.51c5.95,13.84-7.1,26.92-20.85,29.38s-30.33-1.56-32.81-16.52,8.39-23.49,21.66-26.7S421.68,200.67,427.63,214.51Z"/><path class="cls-3" d="M441.64,172c.14,10.32-5.5,20.83-16.74,20.8s-16.47-10.86-16.63-21,4.88-21.1,16.13-20.86S441.5,161.66,441.64,172Z"/><path class="cls-3" d="M378.36,170.73c.15,12.73-7.05,24.88-20.73,24.83s-20.93-12.31-21-25,6.68-25.38,20.51-25.4S378.22,158,378.36,170.73Z"/><path d="M339.54,176.67c-.06-11.06,7.46-19.91,18.78-19.85s19.17,8.92,19.27,20.05-7.74,19.46-18.95,19.4S339.6,187.73,339.54,176.67Z"/><path d="M441.57,176.53c0,9.62-7.07,16.54-16.65,16.51s-16.43-7.14-16.5-16.67,6.77-16.44,16.31-16.33S441.58,166.9,441.57,176.53Z"/><path class="cls-3" d="M354.39,177c0-2.74.79-6.91,4.72-6.88s4.85,4.26,4.89,7-.82,6.9-4.75,6.86S354.43,179.77,354.39,177Z"/><path class="cls-3" d="M420.9,176.4c0-2.61.85-6.39,4.08-6.4s4,3.76,4,6.37-.86,6.42-4.09,6.43S420.88,179,420.9,176.4Z"/><path class="cls-4" d="M350,165.48a2.7,2.7,0,0,1,2.73-2.89,2.79,2.79,0,0,1,2.8,2.9,2.7,2.7,0,0,1-2.73,2.89A2.79,2.79,0,0,1,350,165.48Z"/><path class="cls-3" d="M416.34,165.62a2.09,2.09,0,0,1,2.21-2.18,2.28,2.28,0,0,1,2.29,2.3,2.11,2.11,0,0,1-2.25,2.17A2.24,2.24,0,0,1,416.34,165.62Z"/><path class="cls-3" d="M349.41,176.37c0,1.32-.39,3.24-2,3.25s-2-1.92-2-3.24.39-3.25,2-3.25S349.4,175.05,349.41,176.37Z"/><path class="cls-3" d="M416.94,174.64c0,1-.42,2.36-1.64,2.34s-1.63-1.37-1.63-2.41.4-2.38,1.62-2.37S416.93,173.59,416.94,174.64Z"/><path d="M396.61,215.07a4.25,4.25,0,0,1-4.4,4.42,4.31,4.31,0,0,1-4.36-4.51,4.25,4.25,0,0,1,4.4-4.42A4.31,4.31,0,0,1,396.61,215.07Z"/><path d="M419.77,213.54a3.61,3.61,0,1,1-3.61-3.62A3.48,3.48,0,0,1,419.77,213.54Z"/><path class="cls-1" d="M314.14,106.9c-1-1.61-2-2.89-2.33-4.84-1-7,.26-13.78.09-20.9-.07-2.9-.68-6.25-.72-9.24s.58-5.27,2.84-7.3a92.69,92.69,0,0,1,13.71,17.15c2.71,4.51,3.76,7.87,3.67,13"/><path class="cls-1" d="M410.22,102.84c-.84-6.19-.69-10.83,3.13-16.19S422.83,78,429.1,75.94c-2,3.77-3.82,8.3-3.85,12.45,0,5.55,1.75,10.27,1,15.62-.52,3.61-2.58,6.24-4.29,9.33"/><path class="cls-1" d="M297.82,506.59A249.27,249.27,0,0,1,272.05,505a528.67,528.67,0,0,1-61.42-11.19,155.17,155.17,0,0,1,52.38-.91C276.28,494.89,286.52,499.92,297.82,506.59Z"/><path class="cls-5" d="M210.6,493.84l-.28.08"/><path class="cls-1" d="M341.7,500.49c-4.29-4.45-9.17-7.23-14.51-10.33-2.79-1.61-5.62-2.51-8.18-4.78-17.1-15.14-22.8-32.57-29.82-54.23-6.58-20.27-9.84-39.93-28.56-54.35-17.68-13.62-42.5-11.32-63.14-4.78-.44-.19-.57-.42-.3-.78,20.9-6.66,46-8.84,63.93,4.88C280,390.63,283.34,410.55,290,430.91c7,21.46,12.55,38.77,29.49,53.78,2.55,2.25,5.34,3.13,8.11,4.74,5.43,3.14,10.41,6,14.76,10.53A7.81,7.81,0,0,0,341.7,500.49Z"/><path class="cls-1" d="M400.57,415.73c.18,3.69.18,7.88.66,11.31a46.88,46.88,0,0,0,6.4,18.72c.14-.3.27-.61.41-.92a46,46,0,0,1-6-17.9c-.46-3.4-.47-7.57-.65-11.25-.16-3.31-.15-6.85-.55-10.24a204,204,0,0,0-4.69-24.06l-.81.2a204.19,204.19,0,0,1,4.67,24C400.42,408.91,400.41,412.42,400.57,415.73Z"/><path class="cls-6" d="M163.14,354.63c5.13-14.41,13.45-23.21,26.78-30.55,2-1.12,2.61-2.33,2.56-4.61a7.55,7.55,0,0,0-.47-3c-1.09-2.23-2.6-3.09-5.09-1.73-16.32,8.86-27,19.75-33.32,37.33-1,2.69.75,2.89,2.51,4.09a6.25,6.25,0,0,0,2.89.66C161.08,356.85,162.36,356.83,163.14,354.63Z"/><path class="cls-6" d="M322,144.27c4.36-9.21,9.77-15.4,18.71-20.35,1.37-.76,1.66-1.62,2-3a3.84,3.84,0,0,0,.09-2c-.6-1.37-.95-2.59-2.73-1.65-11.69,6.17-19,14.48-24.31,26.51-.82,1.84.19,2.08,1.49,2.87a2.54,2.54,0,0,0,1.84,0A3.69,3.69,0,0,0,322,144.27Z"/><path class="cls-6" d="M228.08,391.14c10.38-1.75,17.29,1.2,24.9,8.22,1.17,1.08,2.07,1,3.36.12A6.86,6.86,0,0,0,258,398c1-1.47,1.19-3.1-.23-4.42-9.24-8.68-17.85-12.64-30.56-10.49-1.94.33-1.54,1.92-1.77,3.43a7.53,7.53,0,0,0,.33,2.36C226.15,390.23,226.5,391.41,228.08,391.14Z"/><path class="cls-6" d="M305.91,62.51h0A3.6,3.6,0,0,0,300,64.3c-1.83,5.48-.12,11.45.31,16.75.19,2.46.95,3.34,2.69,4.25.57.29.1.37,0,0,1.75.9,3.74.77,3.87-1.54.28-5-2.13-10.23-.46-15.29C307.23,66.13,308,64.37,305.91,62.51Z"/><path class="cls-6" d="M432.33,68.9h0c.77-2-1.57-2.6-3.81-2.33-4.83.59-10.71,4.19-14.16,7.51-1.6,1.54-2.31,2.18-1.54,3.79.25.52-.37.27,0,0,.77,1.6,2,1.41,3.42.14,3.06-2.73,7-6.33,11.25-7.25C429.45,70.34,431.56,70.92,432.33,68.9Z"/><path class="cls-2" d="M378.93,216.11c-.19-.06-.08.3,0,0-1.11-.39-1.08-.84-.23-1.93a32.37,32.37,0,0,1,10.67-9.09c1.25-.63,2.34-1,3.3-.12.25.23.21-.33,0,0,.95.88.15,1.51-1,2a27.46,27.46,0,0,0-9.85,8.09A2.44,2.44,0,0,1,378.93,216.11Z"/><path class="cls-7" d="M385.92,221.7c6.82,1.57,12.51,3.13,19.32,5.13,7.33,2.15,11.94-5.24,17.08-9.17-1.66,8.53-7.81,25-18.06,23C395.09,238.91,392.05,227,385.92,221.7Z"/><rect class="cls-2" x="385.1" y="366.5" width="20" height="84.88" rx="10" transform="translate(-43.04 46.49) rotate(-6.39)"/><path class="cls-6" d="M369.77,465h0c-.08-2.59-.07-3.35,1.41-3.51,11.61-1.23,14.95-1.39,19.78-26.59.61-3.23,1.22-1.77,2,.34,0-.57,0-.5,0,0a11.47,11.47,0,0,1,.38,7c-4.95,19.94-12,24.52-21.91,25.85C370.2,468.25,369.84,467.6,369.77,465Z"/><path class="cls-1" d="M233,264c3.27,7.72,6.6,15.67,6.83,24.06.08,2.78-.18,5.55-.2,8.33A47.66,47.66,0,0,0,243,314.18"/><path class="cls-1" d="M267.55,251.33c.1,2.84,2.74,4.81,5,6.51a50.58,50.58,0,0,1,10.69,10.68c4.34,6,7.12,13,11.79,18.68"/><path class="cls-1" d="M414.7,286.44l-5.89,1.37c-5.21,1.2-11,2.78-13.76,7.33"/><path class="cls-1" d="M428,317.12a16,16,0,0,1,.79,13.07c-.82,2.14-2.12,4.14-2.49,6.41-.56,3.4.72,7.76-2.12,9.73"/><path class="cls-1" d="M171.31,160.11l-.12.12Z"/><path class="cls-1" d="M212,144.29Z"/><path class="cls-1" d="M171.19,160.23Z"/><path class="cls-1" d="M193.57,149.34A25.15,25.15,0,0,0,194,154,8.94,8.94,0,0,0,193.57,149.34Z"/><path class="cls-1" d="M217,152a19.54,19.54,0,0,0-5-7.71c-5.52-3.19-4.2-6.58-10-5.29a37.61,37.61,0,0,0-8.17,3.41c-.14,2.28-.3,4.64-.26,6.93A8.94,8.94,0,0,1,194,154c-2.76-2.76-6.12-4.6-9.43-6.54a39.43,39.43,0,0,1-7.38,3.32c-5.08,1.36-8.33,6.44-5.88,9.33s2.6,10.24,8.67,9.57c7.1-.78,20-9,29.8-12.6C212.86,155.92,217.6,153.8,217,152Z"/><path class="cls-1" d="M521.78,219.43a107.27,107.27,0,0,0-9.95-10.77A26.32,26.32,0,0,0,505,212a22.8,22.8,0,0,0,2.27-7.88c-2.24-2.28-4.47-4.65-6.55-7.15-2.47-3-4.62-1.52-6.5.51a72.86,72.86,0,0,0-5.69,6.59c-1.58,2.3-1.39,4.34,1.16,6.19,7.22,5.26,12.66,13.41,18.72,19.7,2.14,2.22,4.34,1.63,6.05-.25a23.23,23.23,0,0,1,5.27-4.61C521.9,223.9,523.68,221.94,521.78,219.43Z"/></svg>