<svg xmlns="http://www.w3.org/2000/svg" width="900" height="1000" viewBox="0 0 900 1000"><defs><style>.cls-1{fill:#ffece9;}.cls-2{fill:#fff;}.cls-3,.cls-5{stroke:#000;stroke-miterlimit:10;}.cls-4{fill:#ff95bd;}.cls-5,.cls-7{fill:none;}.cls-6{fill:#ffbfd7;}.cls-8{fill:#001300;}.cls-9{fill:#ccc;}.cls-10{fill:#bfb1af;}.cls-11{fill:#807675;}</style></defs><g id="Layer_3" data-name="Layer 3"><path class="cls-1" d="M703.87,927.68c-.62.14-1.23.25-1.86.35-.06-1.11-.23-2.21-.27-3.32,0-.78.09-1.57.11-2.35.06.16.22.31.25.48A14.1,14.1,0,0,0,703.87,927.68Z"/><path class="cls-1" d="M846.18,663.91a98.33,98.33,0,0,1-18.55-24c-2.63-4.81-4-10-6.15-15.11s-4.6-10.28-6.61-15.59c-2.16-5.7-3.38-11.49-5.27-17.41a251.41,251.41,0,0,0-18-42.45c-1.29-2.45-4.84-12.64-9.79-11.75-25.25-80.94-82.51-125.4-161.95-148.54-35.35,40.65-73.78,79.7-117.23,111.25-7.44,5.41-10.4,3.17-14.88-2.75C479.62,486.83,474.81,474,469.3,462c-3-6.65-3.4-11.55,2.28-17C495.32,422.2,520.35,400,543.07,376c-6.2-.44-12.53-.88-18.76-1.11-10.54-.38-21.12-.59-31.58-.52,14.45-25.17,23.59-51.45,24.74-80.74,1.83-46.76-15.89-91.59-47.69-125.72,20-.56,43.26-6.34,59.84-15.76,20-11.37,29.51-39.21,49.63-45.33,18.16-5.51,65.62-71.16,50.41-67-32,8.85-116.07,8.53-157.75,20.81-33.3,9.82-56.52,45-72.11,68.88-5.45-.16-14.32-1.87-21.09-2.36-30.47-2.21-61.56,7.2-84.68,22.67-28.28-15-43.08-53.62-91-40.88C143,125,176.1,160,107.5,128.84c-27.12-12.34-10.13,19.46-6.28,30.54,5.89,17,54.36,45.28,80.15,42.25s50.82-9,74.67-19a161.42,161.42,0,0,0-34.15,96.46c-1.39,59.73,27.32,118.34,80.48,148.06a239,239,0,0,0-37.85,41.35c4.69,2.06,11.18,3.6,15.52,5.68,8.75,4.19,6.24,5.86,6.58,14.73.6,15.75,9.93,31.21,10.68,47.29.43,9.05.11,11.47-10.78,9.9-15.68-2.25-34.55-6.82-50.46-11.49-3.39,14.74-6.64,31.8-7.88,46.61-5.2,62,6.7,123.39,43.23,174.47a46.16,46.16,0,0,1,10,7.31,225.1,225.1,0,0,1,19.18,22.44,49.25,49.25,0,0,1,3.88,6.55,65.62,65.62,0,0,1,12.76,8.72,38.87,38.87,0,0,1,4.81,5.58c7.34,4,14.82,7.66,22.34,11.32,6.3,3.06,12.55,6.51,18.71,9.67-3.2,33.79-9.32,65-26.91,94.76-4.82,8.15-1.36,13.83,10.41,16.52,13.37,3.06,40.61,5.59,54.1,5.82,11.87.21,16.46-2.06,17.29-11.18,2.68-29.76,7.38-57.36,15.71-85.74,1.21.36,2.68.47,4,.72,0,0-.08,0,0,.06l.48.09c1.1.16,2.21.48,3.33.56,19.33,1.36,38.71,1.24,58.05,1.73a56.22,56.22,0,0,1,10.25,1.51c36.28-.86,72.34-3.81,108-11.05.17-.14.66-.1.59-.39,15.81,30.66,34.71,64.69,34.08,100.16-.19,10.71,13,12.35,23.84,9.86,9.89-2.26,35.08-6.27,44.06-12.4,9.89-6.75,9.94-10.21,4.43-18.65C705,889.27,687.49,856.46,682.44,820c1.27-.55,2.71-1.12,4.07-1.64.67-.63,1.29-1.37,1.94-2a14.75,14.75,0,0,1,4.9-3.13,75.91,75.91,0,0,1,10-5,4.05,4.05,0,0,1,1.45-1.43s0-.11,0-.14c1.51-1.07,3.16-2,4.6-3.16,1-.76,1.77-1.73,2.68-2.47a279.81,279.81,0,0,1,25.57-17.83c1.17-.74,2.45-1.58,3.44-2.3s2.49-2,3.06-2.54c1.83-1.68,2.93-2.91,4.44-4.54.62-.67,1-1.24,1.63-1.92l.1-.15c2.79-4.28,5.56-8.57,8.1-13,1.07-1.86,2-3.8,3-5.72-.4-.23,1.06-2.25,1.11-2.45,3.09-10.83,5.48-21.73,8.93-32.36.54-1.65,1.39-3.09,2-4.64a66.89,66.89,0,0,1,3-6.22l0-.11a26.21,26.21,0,0,1,2-3.72,15.33,15.33,0,0,1,2.93-6.29,353.2,353.2,0,0,0,9.61-63.13,333.31,333.31,0,0,0-6.22-84.79c1.36,2.4,4.26,6.17,5.44,8.28C802,578.33,810,599.34,814.42,622.49a106.79,106.79,0,0,1,1.31,28.16c-.5,6.94-3,13.43-3.28,20.43-.62,13.56,2.4,25.72,7.27,38.33a87.18,87.18,0,0,1-4-16.32c-.13-.83-.54-1.53-.74-2.35-1-4.12-1.39-7.83-.3-12q.34,7.17,1,14.33c8,16.49,18.32,26.64,35,34.21-16.35-16-24.51-33-26.79-55.81a73.17,73.17,0,0,0,15.61,31.14c3.74,4.5,8.06,7.9,12.29,11.82a102.63,102.63,0,0,1-21.76-38.37,237,237,0,0,0,33.69,31c-10.47-10.87-17-21.67-19.86-36.58q6.44,7.38,13,14.66a63.06,63.06,0,0,1-3-11.65,360.29,360.29,0,0,0,29,26.17c4.14,3.29,8.56,5.4,14,4.16C879.36,691.25,861.84,678.89,846.18,663.91ZM701.85,922.36c.06.16.22.31.25.48a14.1,14.1,0,0,0,1.77,4.84c-.62.14-1.23.25-1.86.35-.06-1.11-.23-2.21-.27-3.32C701.7,923.93,701.83,923.14,701.85,922.36Z"/><path class="cls-1" d="M286.52,546.08a360.25,360.25,0,0,1-50.44-11.6,242.53,242.53,0,0,1,28.42-66c4.72,2.06,11.2,3.6,15.54,5.67,8.75,4.19,6.23,5.89,6.58,14.74.61,15.72,9.92,31.24,10.69,47.29C297.73,545.22,297.41,547.66,286.52,546.08Z"/><path class="cls-1" d="M619.85,389.11c-35.34,40.65-73.79,79.65-117.22,111.27-7.43,5.41-10.41,3.11-14.88-2.79-8.13-10.74-12.95-23.58-18.45-35.65-3-6.63-3.39-11.49,2.28-16.95,23.69-22.81,48.79-44.94,71.5-69C569.07,378.4,594.67,382.41,619.85,389.11Z"/><ellipse class="cls-2" cx="289.57" cy="265.23" rx="49" ry="36" transform="translate(14.46 545.43) rotate(-88.01)"/><ellipse class="cls-2" cx="415.12" cy="251.58" rx="52" ry="39" transform="translate(149.31 657.72) rotate(-88.01)"/><ellipse class="cls-3" cx="415.75" cy="262.1" rx="41.5" ry="38" transform="translate(139.4 668.52) rotate(-88.01)"/><ellipse class="cls-3" cx="288.19" cy="276.19" rx="38" ry="35" transform="translate(2.17 554.63) rotate(-88.01)"/><ellipse class="cls-2" cx="293.17" cy="280.72" rx="13" ry="10.5" transform="matrix(0.03, -1, 1, 0.03, 2.46, 563.98)"/><circle class="cls-2" cx="293.75" cy="251.4" r="5"/><circle class="cls-2" cx="277.75" cy="261.4" r="4"/><ellipse class="cls-2" cx="415.7" cy="269.11" rx="15.5" ry="12" transform="translate(132.35 675.24) rotate(-88.01)"/><circle class="cls-2" cx="410.75" cy="238.4" r="5"/><circle class="cls-2" cx="394.25" cy="252.9" r="3.5"/><path class="cls-4" d="M251.58,153c-11.23-5.33-18.82-13-31.74-12.76-18.28.37-34,13.36-51.77,18.38-9.22,2.6-20.32,3.28-30.1,3.65,3.51,5.51,9.29,7.39,15.64,7.53s13.43-1.29,19.56-1.09c10.72.35,21.12,6.18,31.14,6.75,17.64,1,31.14-9.49,48.46-9.26,4.16.06,20.86,5.65,18.71-3.52C270.26,157.42,256,155.07,251.58,153Z"/><path class="cls-4" d="M480.43,106.39c14.22-8,31.13-12,46.81-17.07s31.19-10.43,44.16-20.69c3.48-2.75,6.4-5.85,10.36-6.86s9.14.65,8.74,5.22c-.47,5.39-6.32,6.11-10.78,8.65-9.67,5.51-13.92,15.47-19.57,25-6.92,11.73-15.8,21.42-28.67,26.51-7,2.75-14.34,2.84-21.5,4.13a136.07,136.07,0,0,0-37.31,12.83c-9.79,5-30.48,10.67-22.77-7.66C455.52,123.13,467.62,113.65,480.43,106.39Z"/><path class="cls-5" d="M450.06,226.07a11.86,11.86,0,0,0,15.52,3.24"/><path class="cls-5" d="M444.31,215.57a9.37,9.37,0,0,0,13.52-1.31"/><path class="cls-5" d="M435.66,205.18a10.57,10.57,0,0,0,12.45-10.66"/><path class="cls-5" d="M423.07,199.2a14.44,14.44,0,0,0,9.84-14.14"/><path class="cls-5" d="M406.26,199.74c6.59-1.87,10.8-9.7,8.72-16.23"/><path class="cls-5" d="M393,207.94a18.75,18.75,0,0,0,2.32-16.37"/><path class="cls-5" d="M383.91,220a18.73,18.73,0,0,0-4.8-13.44"/><path class="cls-5" d="M319.08,234.68a30.25,30.25,0,0,1-1.17-19"/><path class="cls-5" d="M307.61,221.59a23.58,23.58,0,0,1-5.8-18.33"/><path class="cls-5" d="M291.08,215a16.75,16.75,0,0,1-3.41-15.26"/><path class="cls-5" d="M281.43,217.37c-3.67.69-7.44-1.38-9.66-4.38s-3.12-6.75-3.61-10.45"/><path class="cls-5" d="M271.24,222.69a26.77,26.77,0,0,1-9.92-1.51,15.47,15.47,0,0,1-9-10.44"/><path class="cls-5" d="M262,232.67a15.17,15.17,0,0,1-19.3-1.74"/><path class="cls-5" d="M257.66,243.12c-5.87,2-12.63,3.85-17.94.68"/><path class="cls-5" d="M453,238.1a10.34,10.34,0,0,0,14.68,1.16"/><path d="M383.64,355.87c-.21,4.61-2.05,9.53-7.27,9.45s-8.52-5.58-8.17-10.41,3.73-9.62,9.07-9.29S383.84,351.27,383.64,355.87Z"/><path d="M732.26,449.17c-1.79-.48-3.52-1.44-3.89-3.14-40.61-39-92.57-61.91-148.63-67.48l-51.66-5.12c-5.5-.55-10.53.21-16-.21-10.23-.78-18.16,10.11-18.56,20.37s4.35,19.89,8.17,29.42a176,176,0,0,1,9.12,30.66c1.38,6.87,2.37,13.9,5.05,20.38,8.3,20,31.75,32.59,34.62,54.06.87,6.53-.35,13.18.11,19.75.72,10.23,5.43,19.68,8.93,29.33,4.93,13.62,7.49,28,9.43,42.35,1.82,13.44,4.77,29.33,17.17,34.82,9.43,4.19,21.48.56,29.95,6.46,2.76,1.92,4.81,4.67,7.28,6.94a27.13,27.13,0,0,0,26.38,5.61c12.2-20.67,1.33-48.44,11.09-70.37,6.19-13.91,19.6-23,28.87-35.12a69.73,69.73,0,0,0,14.24-40.63c.23-10.13-1.71-20.5,1.08-30.24,2.88-10.06,10.39-18,16.94-26.17,4.34-5.41,11.19-11,13.21-17.57C735,453.24,732.4,449.2,732.26,449.17Z"/><path class="cls-5" d="M494.58,407.19l0,.6"/><path class="cls-4" d="M402.89,351.88c-.14,6.77-4.29,11.17-3.59,17.71.57,5.26,3.92,9,3.34,14.32-.82,7.62-6.47,12.73-13.44,16.23-24.59,12.33-53.79,11.25-76.25-5.06-5.1-3.7-8.54-7.88-9.15-14.07-.35-3.52,1.13-6.2,1.87-9.83,1.56-7.67-1.77-13.46-1.28-21.54,2.2-36.47,27.56-15.33,51.56-15.85C377.19,333.34,403.55,318.75,402.89,351.88Z"/><path d="M331.83,351.87c-.17,3.14,1.14,8.25-3.37,8.41s-7.08-5.2-6.93-8.63,3.55-8.34,7.62-7.86S332,348.74,331.83,351.87Z"/><path d="M375.36,351.41c.13,3.28-.6,9.47-5.15,8.08s-5.17-3.6-5.68-10.32,7.33-6.41,10.18-5.7S375.22,348.13,375.36,351.41Z"/><path class="cls-2" d="M494.53,300.66h0c2.05.93,3.37,1.51,5.21-2.18,14.63-29.39,9.31-45-5.57-72.28-1.87-3.43-3.36-3-5.33-2h0c-2,1-3.67,2.33-1.91,5.59,14,25.92,19.55,37.26,5.57,65.27C490.75,298.56,492.49,299.72,494.53,300.66Z"/><path class="cls-2" d="M207.55,124.52c-34.13,3.88-18,17-40.89,26.74-4.43,1.89-5.67.69-7-1.6h0c-1.37-2.3-2-4.4,2.16-6.12,21.65-8.95,4.43-22.67,47.28-28.93,8.27-1.21,7.43,1.18,6.52,5h0C214.67,123.38,214.14,123.77,207.55,124.52Z"/><path class="cls-2" d="M449.49,101.31c18.78-24.74,40.27-23.23,69.26-20.72,5.66.49,7-1.9,7.38-5.59h0c.34-3.69.13-6.48-6-7.06C488.91,65,464.5,63.18,443.22,89c-4.15,5-4,6.93-2.1,11.25h0C443,104.58,445.83,106.13,449.49,101.31Z"/><path class="cls-2" d="M764.94,603.88h0c-2.62,0-4.89,1-5.06-4.66-1.24-43.16,7.25-55.15-21-92.7-3.7-4.92,2.08-5.3,5-5.56h0c2.92-.26,7.71,3.29,11,7.16,25,29.54,14,53.92,14.68,90.27C769.69,603.15,767.56,603.85,764.94,603.88Z"/><path class="cls-6" d="M389.29,344.44c-5.16-9.6-22.08-3.55-32.21-3.27-1.51,0-3.06-.51-3.06-2.48h0c0-2,.89-2.34,2.77-2.4,12.67-.43,28.74-6.08,36.64,5.26,1.17,1.68.63,2.33-.75,3.61.13.21.13.17,0,0C391.29,346.43,390.06,345.86,389.29,344.44Z"/><path class="cls-7" d="M336.75,376.4c0,10.5,7.6,19,17,19"/><path class="cls-8" d="M386.92,361.14c-9,10.59-18.36,12.21-30.46,15-13,3-23.75-5.09-36-6.06,11.36,19.42,19,31.06,42.19,29.59C383.36,398.35,382.58,375.09,386.92,361.14Z"/><path class="cls-1" d="M703.84,292.05c-31.15,33.21-57.33,65.55-84.21,96.63-34.19,39.54-69.49,77-117.54,111.62-8.23,5.91-11.13,2.69-15-2.87-7-10.11-13-24.43-18.23-35.75-2.84-6.22-4.62-10.69,2.21-17.06,28.53-26.59,51.64-47.47,71.77-68.86,30.21-32.08,53.73-65.3,78.84-120.62,4-8.83,6.94-7.65,16.4-5.1,17.21,4.64,51.1,12.5,64.68,24.69C710.23,281.43,710.62,284.81,703.84,292.05Z"/><path class="cls-1" d="M286.75,545.91a291,291,0,0,1-51-11.82c-110-36.73-130.29-127.29-214.62-157.55-8.07-2.89-7.65-7.26-4.88-14.81,4.92-13.41,16.56-33.59,28.78-42.14,6.89-4.82,8.9-8.68,17.11-.95C155.68,406.73,148,425.77,264.21,468.13q7.57,2.78,15.88,5.67c11.18,3.91,6.48,5.94,5.93,14.35-1,14.93,12.05,33.61,11.35,47.55C297,543.55,299.92,547.79,286.75,545.91Z"/><path d="M242.4,696.34c4,1.24,6.54,1.92,10.11-.38s6.51-5.41,9.81-8.08a47.18,47.18,0,0,1,29.82-10.39,5,5,0,0,1,2.5.47c1.39.78,1.79,2.55,2.25,4.08,3.17,10.34,15.43,15.85,26.14,14.3s19.85-8.57,27.23-16.48,13.55-16.94,21.42-24.35c7.2-6.78,15.68-12.07,22.79-18.94s12.95-16,12.64-25.85c-.23-7.2-3.75-14-8.6-19.34s-11-9.35-17.18-13a93.54,93.54,0,0,0-11.46-5.84c-5.48-2.26-11.62-3.91-15.42-8.46-5.76-6.91-3.69-17.08-3.12-26.06A66.09,66.09,0,0,0,350,519.74c-.82-3.8-2.08-7.68-4.82-10.43-5.42-5.44-14.31-4.56-21.62-6.92-4-1.28-7.5-3.55-11.1-5.62a119.72,119.72,0,0,0-25.32-10.84c-3-.88-6.14-1.65-9.14-.85a29.11,29.11,0,0,0-5.65,2.73,24.94,24.94,0,0,1-17.2,2.08c-13.73,23.82-20.88,51.67-23.95,79s-1.87,55,.87,82.32C233.67,667.71,236.18,681,242.4,696.34Z"/><path class="cls-9" d="M67.84,321.14,48.72,337.77A19.33,19.33,0,0,0,45,341.64,28.17,28.17,0,0,0,42.74,347c-1.86,4.82-5,9.08-8.13,13.27-3.8,5.12-7.33,13.59-11.13,18.71-5.77-3.18-15.22-3.3-19-8.71-2.94-4.15-.42-10.56,2.85-15.18a53.89,53.89,0,0,1,8-8.95c2.06-1.86,4.42-3.79,5.07-6.44,3.05,2,2-2.36,5.63-1.7.27-1.73,5.1,2.28,5.38.54a21,21,0,0,1-1.08-12.18c.67-2.95,2.6-5.53,4.47-8,2.89-3.78,5.92-7.68,10-10a5.31,5.31,0,0,1,2.37-.8,5.36,5.36,0,0,1,2.41.71C56,311.51,61.55,317.49,67.84,321.14Z"/><path class="cls-9" d="M671.3,284.32l-39.53-21.67c-3.32-1.82-7-4.13-7.71-7.78a80.55,80.55,0,0,0,8.05-21.48c9.34-1.91,19.13,2.6,27.06,8.34s14.93,12.86,23.53,17.51c6.5,3.53,14.07,5.78,18.74,11.51a19.76,19.76,0,0,1,3.45,17.46c-2.12,7.77-6.4,13.45-13,10.87C685.6,296.63,677.85,287.91,671.3,284.32Z"/><path class="cls-9" d="M332.78,923.68c-.62,2.65-2.56,4.92-3.94,7.36s-2.19,5.37-.53,7.82c1.76,2.61,5.69,3.82,9.31,4.57s7.44,1.3,11.18,1.83c8.83,1.26,18.55,2.4,26-1.16a7.6,7.6,0,0,1,2.16-.82c3.22-.51,5.1,2.78,6.75,5.08,4.33,6,14.11,7.9,22.71,9.15a5.75,5.75,0,0,0,3.12-.11,3.38,3.38,0,0,0,1.55-1.75,29.66,29.66,0,0,0,3.14-13.28,3.7,3.7,0,0,0-.56-2.32c-.83-1.11-2.59-1.55-4.17-1.9L354.67,926.3C347.9,924.84,339.66,924.63,332.78,923.68Z"/><path class="cls-1" d="M703.61,927.18c-.6.14-1.22.25-1.85.35-.09-1.1-.19-2.21-.3-3.32,0-.78.08-1.57.13-2.35l.27.48A10.45,10.45,0,0,0,703.61,927.18Z"/><path class="cls-9" d="M739.23,932.15c-.16-.44-.34-.88-.52-1.33a31.58,31.58,0,0,1-7.18-8.22c-.52-.59-1-1.19-1.49-1.81-4.36-1.5-9.3-.18-13.77,1.09-16.8,4.79-34.29,8.75-52.17,7.93-8.34-.38-12.31-3-16.53,3-3.39,4.81-2.61,15.32-4.73,21.81,0,.5.11,1,.16,1.51,2.93.82,5.32,2.76,8.26,3.63,6.35,1.89,12.93-1.63,19.28-3.53,13.07-3.91,27.52-.89,41.33-2A65.44,65.44,0,0,0,740,945.43c1.2-.72,2.47-1.59,2.74-2.82a4.45,4.45,0,0,0-.43-2.46Q740.76,936.16,739.23,932.15Z"/><path class="cls-10" d="M124.37,592.14v1"/><path class="cls-10" d="M520,485.87c-11.71,16.54-7.22,39.23-12.1,58.9"/><path class="cls-10" d="M500.57,415c-3.53,6.07-7.3,12.37-13.28,16.05-3.77,2.31-8.15,3.4-12.2,5.18-10.39,4.57-18.15,13.42-25.56,22"/><path class="cls-10" d="M265.06,468.55c6,2.53,12.81,2,19.28,1.28s13.18-1.64,19.41.22"/><path class="cls-11" d="M237.4,534.12c2.57,2.78,3.73,6.53,5.28,10a42.9,42.9,0,0,0,6.71,10.48,19.91,19.91,0,0,1,3.3,4.38,26.07,26.07,0,0,1,1.25,3.87,20.67,20.67,0,0,0,7.48,10.55"/></g></svg>