<svg id="Layer_1" data-name="Layer 1" xmlns="http://www.w3.org/2000/svg" width="399" height="447.93" viewBox="0 0 399 447.93"><defs><style>.cls-1{fill:#ffece9;}.cls-2{fill:#fff;}.cls-3,.cls-5{stroke:#000;stroke-miterlimit:10;}.cls-4{fill:#ff95bd;}.cls-5{fill:none;}.cls-6{fill:#ccc;}</style></defs><path class="cls-1" d="M399.5,327.61c-2.34,1.15-5.06-.47-7.11-2.09a141.47,141.47,0,0,1-14.55-13.13,23.09,23.09,0,0,0,1.5,5.85q-3.3-3.66-6.53-7.36c.52,7.18,4.56,13.47,10,18.37-6.23-4.6-12.16-9.56-17-15.59a40,40,0,0,0,11,19.27,58.42,58.42,0,0,1-6.21-5.87c-4-4.43-7.1-9.81-7.86-15.71a36.34,36.34,0,0,0,13.5,28,27.9,27.9,0,0,1-17.63-17.19c-.3-2.39-.42-4.81-.54-7.2a9.25,9.25,0,0,0,.16,6c.12.39.24.78.38,1.17a30.67,30.67,0,0,0,2,8.2c-2.8-6.13-4.42-12.62-3.73-19.29.35-3.44,1.33-6.79,1.75-10.22a48.43,48.43,0,0,0-.65-14.16,93.65,93.65,0,0,0-12.11-32.5c-.61-1-1.82-2.62-2.86-4.32a149.33,149.33,0,0,1,3.22,42.6,151.6,151.6,0,0,1-5.62,34.28c1.27,35.62-9.88,69.44-1.5,104.72,1.12,4.71-.72,5.7-5.09,6.94-6.61,1.86-19.06,3-26.15,3.56-2.71.2-4.59-.48-5.63-1.94a10,10,0,0,0,1.28-.37c4.74-1.71,5.19-3.57,2.3-8.46a28.44,28.44,0,0,1-3.26-8.82c1.54-15.21,3.4-30.83,4.78-46.4q-2.26,1.68-4.64,3.23c.94,13.5-2.81,30.11-.14,43.17-.44,4.45-.86,8.87-1.23,13.24a6.57,6.57,0,0,0,.91,4.41c-6.9,1.59-17.38-2.13-23.63-.12-4.61,1.49-9.44,3.66-9-2.85,1.41-19.28,8.68-29.34-7.63-41.26-18.79,4.42-40,6.18-62.71,6.33-.55,12.1-1.27,24.84,4.21,34.24,2.08,3.57.17,7.38-5,7.13-8.06-.39-17.91,2.68-25.12,2.1-4.64-.38-6.71-3-6-7.54,1.91-12.77,1.59-25.35.83-38a153.38,153.38,0,0,1-31.28-8.1c-1.77,15.48-3.76,27.82,3.21,48.88,1.88,5.65-1.58,7.24-6.51,7-7.48-.43-18.18-.6-25.42-1.37-4.77-.51-6.45-.1-6.26-6.18,1-30.34,2.43-52.18-12.14-80.1-20.43-23.06-30.89-55-27.2-94.08C66,229.63,79.51,204.8,100,188.6c-25.63-13.28-41.59-43.14-40.57-74.34A86.65,86.65,0,0,1,77.22,64.35c-12.16,4.83-26.45,8.83-32.54,10.93S24.06,69.86,12.94,65.9c-7.26-2.58-13.32,0-13.44-5C-.79,48.26,37.25,28.14,49.16,25.69c9.51-2,38.79,12,45.61,22.25a63.25,63.25,0,0,1,43.09-10.18,83.51,83.51,0,0,1,10.45,1.93c4.88-13.45,25.87-30.19,35.11-34.27C195,.32,249-5.21,252.85,9.33c1.81,6.9-10.43,13.87-19.4,21.46-9.94,8.39-17,17.27-22.24,21.69-4.32,3.67-15.67,6-27.62,6.42a80.59,80.59,0,0,1,25,62.9c-.75,15.24-5.21,29-12.72,40.36q7.86-.06,15.95.25c62.5,2.39,113.89,26.76,129.71,81.66,1.13-1.43,4.41,5,5.06,6.15a95,95,0,0,1,9,21.13c.85,2.92,1.55,5.89,2.62,8.75,1,2.67,2.28,5.21,3.35,7.85s1.85,5.13,3,7.58a44,44,0,0,0,9.37,12.08C381.69,315.15,390.62,321.4,399.5,327.61Z"/><ellipse class="cls-2" cx="93.67" cy="107.41" rx="24.63" ry="18.14" transform="translate(-16.95 197.27) rotate(-88)"/><ellipse class="cls-2" cx="156.92" cy="100.55" rx="26.13" ry="19.65" transform="translate(50.94 253.86) rotate(-88)"/><ellipse class="cls-3" cx="157.24" cy="105.84" rx="20.86" ry="19.14" transform="translate(45.86 259.21) rotate(-87.96)"/><ellipse class="cls-3" cx="92.97" cy="112.92" rx="19.1" ry="17.63" transform="matrix(0.04, -1, 1, 0.04, -23.2, 201.8)"/><ellipse class="cls-2" cx="93.55" cy="117.97" rx="6.53" ry="5.29" transform="translate(-27.63 207.33) rotate(-87.99)"/><ellipse class="cls-2" cx="99.43" cy="101.08" rx="2.52" ry="2.51"/><ellipse class="cls-2" cx="90.79" cy="103.29" rx="2.02" ry="2.01"/><ellipse class="cls-2" cx="155.5" cy="112.32" rx="7.79" ry="6.05" transform="translate(37.81 263.79) rotate(-87.99)"/><ellipse class="cls-2" cx="160.19" cy="93.62" rx="2.52" ry="2.51"/><ellipse class="cls-2" cx="150.7" cy="98.07" rx="1.76" ry="1.76"/><path class="cls-4" d="M73.47,48.49c-5.62-2.08-11.13-5.39-17.12-5-8.46.58-14.6,8.28-22.56,11.22-4.12,1.51-8.59,1.7-13,1.87,1.05,2.59,4.14,3.75,6.94,3.79s5.55-.74,8.34-.74c4.89,0,9.52,2.4,14.41,2.48,8.61.12,16-6.85,24.6-7.14,2.06-.07,11.81,1.13,10-2.82C84.06,49.9,75.66,49.31,73.47,48.49Z"/><path class="cls-4" d="M187.78,26.14c6.94-2.83,14.44-3.86,21.77-5.41S224.3,17,230.12,12.28c1.56-1.26,3.09-2.74,5.06-3.15s4.44.91,4.3,2.91c-.17,2.35-3.23,3-5.41,3.92-4.73,2-6.81,7.35-9.32,11.82-3.08,5.48-7.79,10.42-13.89,12-3.29.85-6.75.65-10.16.77a53.58,53.58,0,0,0-18,3.79c-4.94,2-15.49,2.47-10.56-5.45A33.34,33.34,0,0,1,187.78,26.14Z"/><path class="cls-5" d="M174.52,87.73a6,6,0,0,0,7.82,1.63"/><path class="cls-5" d="M171.63,82.46a4.73,4.73,0,0,0,6.81-.66"/><path class="cls-5" d="M167.27,77.24a5.33,5.33,0,0,0,6.27-5.37"/><path class="cls-5" d="M160.93,74.23a7.25,7.25,0,0,0,4.95-7.11"/><path class="cls-5" d="M152.46,74.5a6.7,6.7,0,0,0,4.39-8.16"/><path class="cls-5" d="M145.8,78.62A9.46,9.46,0,0,0,147,70.39"/><path class="cls-5" d="M141.2,84.68a9.41,9.41,0,0,0-2.42-6.76"/><path class="cls-5" d="M108.54,92.06a15.14,15.14,0,0,1-.59-9.54"/><path class="cls-5" d="M102.75,85.48a11.89,11.89,0,0,1-2.92-9.21"/><path class="cls-5" d="M94.43,82.18a8.39,8.39,0,0,1-1.72-7.66"/><path class="cls-5" d="M89.56,83.36a5.14,5.14,0,0,1-4.86-2.2,11.13,11.13,0,0,1-1.82-5.25"/><path class="cls-5" d="M84.43,86a13.6,13.6,0,0,1-5-.77A7.75,7.75,0,0,1,74.9,80"/><path class="cls-5" d="M79.8,91.05a7.68,7.68,0,0,1-9.73-.87"/><path class="cls-5" d="M77.59,96.3c-3,1-6.36,1.93-9,.34"/><path class="cls-5" d="M176,93.78a5.23,5.23,0,0,0,7.4.58"/><path d="M141.06,153c-.1,2.31-1,4.78-3.66,4.74s-4.3-2.8-4.12-5.23,1.88-4.83,4.57-4.67S141.16,150.65,141.06,153Z"/><path d="M316.7,199.85a2.45,2.45,0,0,1-2-1.58c-20.46-19.59-46.64-31.11-74.88-33.91l-26-2.57c-2.77-.28-5.3.1-8.08-.11-5.16-.39-9.15,5.08-9.35,10.24s2.19,10,4.11,14.79a88,88,0,0,1,4.6,15.4c.7,3.46,1.19,7,2.55,10.24,4.17,10.06,16,16.38,17.44,27.17.44,3.29-.18,6.63.05,9.93.36,5.14,2.74,9.89,4.5,14.74a102.39,102.39,0,0,1,4.75,21.28c.92,6.76,2.41,14.74,8.65,17.5,4.75,2.11,10.83.28,15.09,3.25a36.51,36.51,0,0,1,3.67,3.48,13.66,13.66,0,0,0,13.29,2.82c6.14-10.39.67-24.34,5.59-35.36,3.12-7,9.87-11.58,14.54-17.65a35.05,35.05,0,0,0,7.18-20.42c.11-5.09-.86-10.3.54-15.19,1.45-5.06,5.23-9.05,8.53-13.16,2.19-2.72,5.64-5.55,6.66-8.83C318.07,201.9,316.77,199.87,316.7,199.85Z"/><path d="M69.9,324.07c2,.62,3.3,1,5.09-.19a60,60,0,0,0,5-4.06,23.75,23.75,0,0,1,15-5.23,2.68,2.68,0,0,1,1.26.24c.7.39.9,1.28,1.14,2.05,1.59,5.2,7.77,8,13.17,7.19s10-4.31,13.71-8.28,6.83-8.52,10.8-12.24c3.62-3.41,7.9-6.07,11.48-9.52s6.52-8,6.36-13a15.5,15.5,0,0,0-4.33-9.72,36,36,0,0,0-8.65-6.53,48.91,48.91,0,0,0-5.77-2.94c-2.77-1.13-5.86-2-7.77-4.25-2.91-3.47-1.87-8.58-1.58-13.09a33,33,0,0,0-.69-9.19,10.37,10.37,0,0,0-2.43-5.24c-2.73-2.74-7.21-2.29-10.89-3.48a30.65,30.65,0,0,1-5.6-2.83,60.27,60.27,0,0,0-12.75-5.44,8.59,8.59,0,0,0-4.61-.43A14,14,0,0,0,85,219.27a12.53,12.53,0,0,1-8.67,1c-6.92,12-10.52,26-12.07,39.71s-.94,27.62.44,41.37C65.5,309.68,66.77,316.34,69.9,324.07Z"/><path class="cls-5" d="M197,178.75v.31"/><path class="cls-6" d="M102.71,433.09l12.42,3a9.73,9.73,0,0,0,2.67.38,14.86,14.86,0,0,0,2.87-.63,29.56,29.56,0,0,1,7.82-.56c3.21.06,7.72-1,10.93-.91.38,3.29,3.1,7.19,2,10.34-.84,2.41-4.21,3.25-7.06,3.26a27,27,0,0,1-6-.64c-1.36-.3-2.84-.7-4.12-.19-.07-1.83-1.54-.12-2.34-1.81-.79.4-.57-2.75-1.36-2.36a10.44,10.44,0,0,1-4.68,4,11,11,0,0,1-4.58.51,17.84,17.84,0,0,1-7-1.18,2.64,2.64,0,0,1-1-.73,2.58,2.58,0,0,1-.42-1.2C102.22,440.72,103.06,436.72,102.71,433.09Z"/><path class="cls-6" d="M180.24,433.07l18.33-2.54c1.54-.21,3.32-.35,4.43.73a35.93,35.93,0,0,0,2.53,9.44c-2.63,3-7,3.94-11,4s-8.05-.65-12-.08c-3,.43-6.06,1.57-9,.78a8.19,8.19,0,0,1-5.36-5.15c-1.18-3.21-1.13-6.25,1.69-7C172.53,432.44,177.2,433.49,180.24,433.07Z"/><path class="cls-6" d="M271.27,432.21a17,17,0,0,1-.74,3.72,4.24,4.24,0,0,0,.51,3.64c.85,1.05,2.35,1.27,3.71,1.3s2.75-.05,4.12-.13c3.25-.19,6.8-.52,9.11-2.79a2.69,2.69,0,0,1,.69-.57c1.09-.51,2.05.83,2.85,1.75,2.07,2.38,5.7,2.4,8.86,2.23a1.74,1.74,0,0,0,1.1-.32,1.65,1.65,0,0,0,.39-.94,17.54,17.54,0,0,0-.07-6.38,2,2,0,0,0-.41-1,2.18,2.18,0,0,0-1.64-.51l-20.49-.69C276.73,431.43,273.79,432.05,271.27,432.21Z"/><path class="cls-4" d="M150.76,151c-.07,3.4-2.16,5.61-1.81,8.9.29,2.64,2,4.49,1.68,7.2-.41,3.83-3.25,6.39-6.77,8.15-12.39,6.2-27.1,5.66-38.41-2.54-2.57-1.86-4.31-4-4.61-7.07-.18-1.77.57-3.12.94-4.94.78-3.86-.89-6.77-.65-10.83,1.11-18.33,13.89-7.7,26-8C137.81,141.64,151.09,134.31,150.76,151Z"/><path class="cls-6" d="M301.07,440.14c1.26.32,2.24,1.32,3.47,1.76,2.47.86,5-.76,7.5-1.63,5.08-1.8,10.7-.41,16.07-.92a22.76,22.76,0,0,0,10.92-4,2.31,2.31,0,0,0,1.07-1.3,2.33,2.33,0,0,0-.17-1.13l-1.18-3.68c-.66-2.07-1.54-4.39-3.55-5.22-1.7-.71-3.63-.1-5.38.49-6.53,2.2-13.33,4-20.29,3.65-3.24-.18-4.78-1.38-6.42,1.37C301.69,431.86,302.14,437.25,301.07,440.14Z"/><path d="M115,151c-.09,1.58.57,4.15-1.7,4.23s-3.57-2.61-3.49-4.34,1.79-4.19,3.84-4S115,149.38,115,151Z"/><path d="M136.89,150.72c.07,1.65-.3,4.76-2.6,4.06s-2.6-1.8-2.86-5.18,3.7-3.23,5.13-2.87S136.82,149.08,136.89,150.72Z"/><path class="cls-2" d="M196.93,125.22h0c1,.47,1.7.76,2.62-1.1,7.37-14.77,4.69-22.62-2.8-36.32-.95-1.73-1.7-1.5-2.69-1h0c-1,.49-1.85,1.17-1,2.81,7.05,13,9.85,18.72,2.81,32.8C195,124.16,195.9,124.75,196.93,125.22Z"/><path class="cls-2" d="M52.35,36.7c-17.2,1.95-9.05,8.53-20.61,13.44-2.23,1-2.86.34-3.54-.81h0c-.69-1.15-1-2.21,1.09-3.07,10.9-4.5,2.23-11.4,23.82-14.54,4.16-.61,3.74.59,3.28,2.5h0C55.93,36.13,55.67,36.32,52.35,36.7Z"/><path class="cls-2" d="M174.23,25c9.47-12.43,20.3-11.67,34.9-10.41,2.85.25,3.55-1,3.72-2.81h0c.17-1.85.07-3.25-3-3.55-15.75-1.49-28-2.39-38.77,10.59-2.09,2.54-2,3.48-1.06,5.66h0C171,26.68,172.39,27.45,174.23,25Z"/><path class="cls-2" d="M333.16,277.6h0c-1.32,0-2.46.5-2.54-2.34-.63-21.69,3.65-27.72-10.56-46.59-1.86-2.47,1.05-2.66,2.52-2.79h0c1.48-.13,3.89,1.65,5.54,3.6,12.61,14.84,7,27.09,7.39,45.36C335.56,277.24,334.48,277.59,333.16,277.6Z"/><path class="cls-2" d="M143.91,147.22c-2.6-4.83-11.12-1.78-16.23-1.64-.76,0-1.54-.26-1.54-1.25h0c0-1,.45-1.17,1.39-1.21,6.38-.21,14.48-3.05,18.46,2.65.59.84.32,1.17-.38,1.81.07.1.07.09,0,0C144.92,148.22,144.3,147.93,143.91,147.22Z"/></svg>