<svg id="Layer_1" data-name="Layer 1" xmlns="http://www.w3.org/2000/svg" width="160" height="150" viewBox="0 0 160 150"><defs><style>.cls-1{fill:#c1272d;}</style></defs><path class="cls-1" d="M85.43,142.26c-4.35-10-11.78-16.93-20.62-23.09s-18.1-10-26.82-16.64C17.47,87.05-4,67.52,2.15,40.12c1.63-7.28,2.72-13.35,7.23-19.77C15.07,12.24,28.53,5.43,38.21,6.13c12.94.93,24.86,7.44,33.24,15.78,7.38,7.35,7.34,16.47,9.92,25.43C80.22,27.55,91.14,8.79,111.56,4.51s39.56,8,45.65,27.72C162,47.74,156.07,62.88,147.47,76s-20.91,22.76-32,33.76S93.9,132.06,87,146.34C85.9,145.05,86.09,143.8,85.43,142.26Z"/></svg>