<svg id="Layer_1" data-name="Layer 1" xmlns="http://www.w3.org/2000/svg" xmlns:xlink="http://www.w3.org/1999/xlink" viewBox="0 0 140 90"><defs><style>.cls-1{fill:url(#linear-gradient);}.cls-2{fill:#c1272d;}.cls-3{fill:#611417;}.cls-4{fill:#da7d81;}.cls-5{filter:url(#AI_GaussianBlur_7);font-family:Merienda-Bold, Merienda;font-weight:700;}.cls-5,.cls-6{font-size:45px;}.cls-6{font-family:MeriendaOne-Regular, Merienda One;}</style><linearGradient id="linear-gradient" x1="-419.79" y1="-852.96" x2="1180.21" y2="-852.96" gradientTransform="translate(26.26 574.54) scale(1.13 1.51)" gradientUnits="userSpaceOnUse"><stop offset="0" stop-color="#f15a24" stop-opacity="0.7"/><stop offset="0.4" stop-color="#009245"/><stop offset="0.45" stop-color="#008240"/><stop offset="1" stop-opacity="0.7"/></linearGradient><filter id="AI_GaussianBlur_7" name="AI_GaussianBlur_7"><feGaussianBlur stdDeviation="7"/></filter></defs><rect class="cls-1" x="-449.27" y="-1388.21" width="1812.47" height="1355.74" transform="translate(-198.44 -177.57) rotate(18.14)"/><path class="cls-2" d="M122.14,84.22c-29.09-2.82-74.11-2-103.6-.52C11.79,84,9.09,80.89,7.63,68.83c-2-16.94-3.92-30.77-.21-48,2.64-12.25,6-15,11.81-14.45,25.22,2.6,76,.92,102.44-.66,6-.36,9.54,3.09,11.38,14.9,2.59,16.57,1.79,32.55,0,49C131.84,81.43,128.8,84.86,122.14,84.22Z"/><path class="cls-3" d="M123.61,85.29a14.36,14.36,0,0,1-1.57-.08h0C93.61,82.46,50,83.14,18.59,84.7,11,85.08,8.12,81.25,6.63,69l-.19-1.58c-1.95-16-3.63-29.9,0-46.73C9,8.83,12.48,4.71,19.33,5.41c24.58,2.53,74.63,1,102.28-.67,7-.42,10.62,4.14,12.43,15.74,2.77,17.71,1.58,34.87.05,49.31C132.91,80.89,130,85.29,123.61,85.29Zm-1.38-2.07c5.41.53,8.58-1.49,9.87-13.64,1.52-14.32,2.7-31.31,0-48.79-1.89-12.11-5.36-14.36-10.33-14C94,8.39,43.82,9.94,19.13,7.4,14.19,6.89,11,8.91,8.39,21.06c-3.55,16.5-1.89,30.2,0,46.06l.19,1.59C10.11,81,12.88,83,18.49,82.7c31.44-1.56,75.21-2.24,103.74.52Z"/><path class="cls-2" d="M123.54,87.31c-.5,0-1,0-1.54-.08h0c-18.63-1.81-55.57-2.89-103.39-.51-8,.4-11.45-4.15-13-17.38l-.19-1.57c-2-16.34-3.7-30.45,0-47.81,2.73-12.68,6.65-17.33,14-16.57,24.54,2.53,74.57,1,102.2-.67C129.1,2.27,133.14,7.43,135.1,20c2.83,18.09,1.62,35.51.07,50.17C133.89,82.19,130.48,87.31,123.54,87.31Zm-1.26-6.1c5.11.49,7.58-1.12,8.74-12,2.66-25.13,1.49-38.33,0-47.93-1.7-10.91-4.56-12.83-9.24-12.55C94,10.41,43.8,12,19.08,9.41c-4.64-.48-7.27,1.25-9.66,12.34-3.44,16-1.89,28.77.08,45l.19,1.58C11,79.2,13,81,18.47,80.69c31.46-1.57,75.25-2.25,103.81.52Z"/><path class="cls-3" d="M123.54,88.31a15.44,15.44,0,0,1-1.64-.09c-18.59-1.8-55.47-2.88-103.24-.5C10,88.16,6.22,83.2,4.56,69.47l-.19-1.58c-2-16.43-3.72-30.61.06-48.14C7.26,6.61,11.63,1.58,19.48,2.4c24.48,2.51,74.44,1,102-.68,8.06-.49,12.54,5.1,14.57,18.1,2.85,18.2,1.63,35.7.07,50.42C134.82,82.9,131,88.31,123.54,88.31Zm-52.1-4c22.25,0,39.64.82,50.65,1.88,7.37.71,10.77-3.8,12.08-16.2,1.55-14.59,2.75-31.93-.06-49.9C132.23,8.06,128.63,3.3,121.64,3.72,94,5.38,43.88,6.92,19.28,4.39,11.55,3.59,8.61,9.83,6.39,20.17c-3.71,17.2-2,31.23,0,47.48l.19,1.57c1.73,14.28,5.56,16.82,12,16.5C38.19,84.74,56,84.35,71.44,84.35Zm52.17-2.08c-.45,0-.93,0-1.43-.07h0c-28.51-2.76-72.24-2.08-103.66-.52C12.09,82,10,79.15,8.7,68.43l-.19-1.58c-2-16.3-3.54-29.18-.07-45.31C10.71,11,13.34,7.81,19.18,8.42,43.84,11,94,9.41,121.7,7.76c6-.38,8.69,3.14,10.29,13.38,1.51,9.67,2.7,23,0,48.19C131,78.87,128.89,82.27,123.61,82.27Zm-1.23-2.06c4,.38,6.46.05,7.64-11.09,2.65-25,1.49-38.13,0-47.67-1.75-11.19-4.64-11.91-8.2-11.7C94.05,11.41,43.75,13,19,10.41c-3.6-.37-6.14.23-8.58,11.55C7,37.76,8.54,50.49,10.5,66.61l.19,1.58C12,79,13.84,79.91,18.42,79.69c31.49-1.57,75.34-2.25,104,.52Z"/><path class="cls-4" d="M22,4.76C18.11,4.31,13.31,4,10.2,9c-.73,1.18-.72,1.45,0,1.49-.08.21-.07.2,0,0,.7,0,.79-1.09,1.49-1.85,3-3.25,7.13-2.89,10.39-2.52.77.09,1.29.24,1.17-.7h0C23.11,4.47,22.85,4.87,22,4.76Z"/><path class="cls-4" d="M124.84,23.4c-1-8.07-20.16-3.87-25.11-3.76a2.41,2.41,0,0,1-2.11-2.8h0c.17-1.95.86-2.61,2.16-2.68,8-.43,25.35-5.59,28.66,7.52.54,2.12-.1,2.86-1.27,3.58,0,.24,0,.23,0,0C126,26,125,24.71,124.84,23.4Z"/><text class="cls-5" transform="translate(42.99 61.63) scale(0.7 1)">No</text><text class="cls-6" transform="translate(47.61 58.41) scale(0.7 1)">No</text><path class="cls-4" d="M13,52.19c.78,6.44.78,19.94,5.64,22,.35.15.5.23.5.86a13.3,13.3,0,0,1-.06,2.1c-.1.6-.18.92-.66.8-6.55-1.58-7.3-17.61-7.89-25.51,0-.57.09-.72.47-.85a5.22,5.22,0,0,1,1.36-.09C12.72,51.48,12.93,51.72,13,52.19Z"/><path class="cls-4" d="M131.87,75.2c-1.43,6.33-2.19,6.78-8.2,8.9-1.2.43-1.16.32-1.54,1.19h0c-.38.87-.42.75.78.47,6-1.37,9-3.53,10-10.27.21-1.35.55-1.29-.09-1.5.08-.29.07-.28,0,0C132.19,73.78,132.15,73.93,131.87,75.2Z"/></svg>