<svg id="Layer_1" data-name="Layer 1" xmlns="http://www.w3.org/2000/svg" width="578" height="605" viewBox="0 0 578 605"><defs><style>.cls-1{fill:#d98f9d;}.cls-2{fill:#e8bcc4;}.cls-3,.cls-4{fill:#fff;}.cls-4{stroke:#fff;}.cls-4,.cls-5{stroke-miterlimit:10;}.cls-5{fill:none;stroke:#000;}.cls-6{fill:#f0d2d8;}</style></defs><path class="cls-1" d="M90.64,511.69a42.71,42.71,0,0,1-5.88-.42,51.49,51.49,0,0,1-17.32-5.74,48.35,48.35,0,0,1-22.1-3.8c-11.42-5-20.07-14.82-23.15-26.19l7.72-2.1c2.46,9.06,9.43,16.9,18.65,21a38,38,0,0,0,7.08,2.28c-7-7.39-11.85-18.83-6.68-28.35,3.7-6.8,12-11,22.16-11.33,5-.15,9.08.61,12.45,2.31,8.7,4.39,12,14.54,12.11,22.57.11,6.12-1.33,11-4.29,14.6A21.42,21.42,0,0,1,82,502.62c1.28.3,2.57.55,3.88.73,4.27.6,12.26.92,17.83-3.66,4.88-4,6.92-10.79,8.9-18.59l7.75,2c-1.8,7.09-4.26,16.79-11.57,22.8C104.14,509.69,97.83,511.69,90.64,511.69ZM72.32,465h-1c-2.73.08-11.92.83-15.36,7.16-3.36,6.18.83,14.86,6.69,20.24a43,43,0,0,0,6.59,5,45.91,45.91,0,0,0,8.37-1.72c3.72-1.15,6.14-2.5,7.59-4.26,1.7-2.05,2.53-5.19,2.45-9.34-.1-5.44-2.18-12.79-7.71-15.58A16.89,16.89,0,0,0,72.32,465Z"/><path class="cls-2" d="M415.67,274.64c50.31,31.8,58.49,82.09,55.53,142.19,3.88,47.26-1.46,91.19,6.67,138.72,1.58,9.26-6.42,11.18-13.76,12.14a39.55,39.55,0,0,1-9.82-.3c-7.63-1.72-12.52-3.86-12.66-12.58-.28-17.7.86-36.35-.21-54.24-1.53,2.43-3.1,5.34-4.8,7.66-9.4,12.84-19.39,24.92-32,34.53-13.12,10-27.28,16-42.49,21.81.39.44.76,1,1.12,1.49a141.52,141.52,0,0,1-43.51,15.39c-3.65-3.28-6.46-7-10.72-9.6-13.35-8.28-25.66-14.17-41.69-16.55-21-3.12-42-3.18-63.35,1.45-69.48-21.88-109.27-55.91-95-134.26,19.41-106.57,94.46-140.06,190.52-163.95,8.69-2.16,1.83-3.86,10.16-5.9-19.85-21.53-19.49-40.3-19.52-70.28,0-21.17,9.11-38.71,18-57.78-12.59-13.13-13.45-39.31-7.32-53,8-17.77,16.06-24.08,24.23-39.39,1.34-2.5,1.66-14.77,6.5-12.42,10.77,5.26,12.46,16.3,19.14,25.91,8.63,12.39,14.36,26.28,16,41.65,7.27-.53,14.61-1.8,21.88-1.65a177.21,177.21,0,0,1,37,5.12c-.1-2.39-1.15-4.34-.77-6.83,2.41-15.94,9.74-27.19,20.7-38.67,2.38-2.49,2.68-13.81,7.54-10.92,6.68,4,4.69,13.23,7.09,20,3.87,10.86,9.17,23.8,12.57,34.22,1.56,4.78,1.53,6.82.69,10.52-1.58,6.89-6,9.73-10.41,14.19,15.68,23.47,27.25,44.38,25,74.08C483.75,243.37,471.75,265.93,415.67,274.64Z"/><path d="M400.68,155.89a14.21,14.21,0,0,1-2.55-13.23l1,.31a13.18,13.18,0,0,0,2.36,12.28Z"/><path d="M393.6,146.39A11.39,11.39,0,0,1,388,133.55l1,.27a10.39,10.39,0,0,0,5.06,11.69Z"/><path d="M381.76,141.66a12.15,12.15,0,0,1-9.3-10.08l1-.12a11.09,11.09,0,0,0,8.5,9.22Z"/><path d="M367.18,144.47a5.5,5.5,0,0,1-3.62-1.47,11.88,11.88,0,0,1-2.71-4.16,9.09,9.09,0,0,1-1.05-4.48l1,.09a8.08,8.08,0,0,0,1,4,11,11,0,0,0,2.47,3.82,4.1,4.1,0,0,0,3.92,1.06l.32.95A4,4,0,0,1,367.18,144.47Z"/><path d="M357.41,152.38a7,7,0,0,1-4.06-1.28,13.42,13.42,0,0,1-1.9-1.78,4.88,4.88,0,0,1-1.73-3.34l1,0a4.15,4.15,0,0,0,1.46,2.63,12.36,12.36,0,0,0,1.75,1.65,6,6,0,0,0,5.56.71l.36.93A6.77,6.77,0,0,1,357.41,152.38Z"/><path d="M351.91,158.2a8.41,8.41,0,0,1-2.54-.38,8.77,8.77,0,0,1-5.54-5.37l.94-.33a7.63,7.63,0,0,0,11.63,3.67l.58.81A8.74,8.74,0,0,1,351.91,158.2Z"/><path d="M448.78,152.06l-.93-.38a7.75,7.75,0,0,0-.53-6.89l.85-.52A8.77,8.77,0,0,1,448.78,152.06Z"/><path d="M454.91,147.5l-.76-.65a18.67,18.67,0,0,0,3.26-4.84,8,8,0,0,0,.44-5.53l.95-.31a9,9,0,0,1-.47,6.23A19.69,19.69,0,0,1,454.91,147.5Z"/><path d="M461.74,145.77l-.32-.94a7.62,7.62,0,0,0,4.84-8.41l1-.2A8.54,8.54,0,0,1,461.74,145.77Z"/><path d="M469.29,148.88h-.1l0-1a6.49,6.49,0,0,0,6.28-5.31l1,.14A7.45,7.45,0,0,1,469.29,148.88Z"/><path d="M477.58,153.77a7.51,7.51,0,0,1-3.6-.9l.48-.87a6.78,6.78,0,0,0,7.12-.52l.61.79A7.68,7.68,0,0,1,477.58,153.77Z"/><path d="M481.69,159.72a5,5,0,0,1-3-1l.3-.4a4.71,4.71,0,0,0,5.65-.14l.32.38A5.05,5.05,0,0,1,481.69,159.72Z"/><path class="cls-1" d="M464.87,221.23c8.69,15.83-9.53,34.43-25.94,36.85s-39.14-2.21-41.34-20.26,12-28.17,27.37-32.66S456.19,205.4,464.87,221.23Z"/><ellipse class="cls-3" cx="460.67" cy="171.14" rx="20.5" ry="26"/><ellipse class="cls-3" cx="378.92" cy="170.89" rx="26.25" ry="30.75"/><circle cx="380.17" cy="178.14" r="24"/><circle cx="460.67" cy="176.64" r="20.5"/><ellipse class="cls-3" cx="393.17" cy="181.14" rx="6" ry="10"/><ellipse class="cls-3" cx="466.17" cy="178.14" rx="4.5" ry="7.5"/><circle class="cls-4" cx="375.67" cy="168.64" r="3.5"/><circle class="cls-3" cx="455.42" cy="165.89" r="2.75"/><ellipse class="cls-3" cx="370.17" cy="182.64" rx="2.5" ry="4"/><ellipse class="cls-3" cx="452.67" cy="176.64" rx="2" ry="3"/><circle cx="421.17" cy="223.14" r="5.5"/><circle cx="450.17" cy="221.14" r="4.5"/><path class="cls-1" d="M327,93.1a15.3,15.3,0,0,1-2.6-6.17c-1.58-7.93,1.34-16,4.36-23.5a37,37,0,0,1,4.49-8.73,12.94,12.94,0,0,1,8.07-5.22l5.92,18.07c1.46,4.45,2.92,9.28,1.4,13.71"/><path class="cls-1" d="M441.38,90.63a23,23,0,0,1,10-29.66,37,37,0,0,0,2.7,13.13c2.27,5.57,6,10.9,5.81,16.92-.12,4-2,7.81-4,11.34"/><path class="cls-1" d="M308.2,572.39a256.85,256.85,0,0,1-30.89-1.91c-25.53-3.06-50.81-7.1-73.8-13.44,18.94-5.77,43.58-4.12,63.14-1.32C281.56,557.86,296.17,563.41,308.2,572.39Z"/><path class="cls-1" d="M436.15,509.21c-.44,13.6-1.42,28.62.31,41.7,1.06,8-2.61,11.17-9.56,13.57a52.82,52.82,0,0,1-9.94,1.6c-8.57.51-16.11-2-15.15-11.76.32-3.3,1.82-7.56,2.24-11,13-9.48,22.94-21.82,32.06-34.9C436.1,508.68,436.16,508.89,436.15,509.21Z"/><path class="cls-5" d="M203.51,557l-.34.1"/><path class="cls-1" d="M361.05,565.24c-4.48-5.51-11.08-9-17.47-12.38-3.33-1.77-6.77-3.59-9.92-5.69-20.9-14-29-39.7-35.51-64.84-6.1-23.53-13-50.2-33.1-65.69-19-14.63-48-16.65-77.56-5.43l-.36-.93c29.92-11.35,59.27-9.27,78.53,5.57C286,431.54,293,458.39,299.12,482.08c6.46,25,14.49,50.47,35.1,64.26a112,112,0,0,0,9.83,5.63c6.47,3.43,13.17,7,17.78,12.64Z"/><path class="cls-1" d="M441.81,502c-4.93-5.92-7.9-13.9-9.08-24.41-.52-4.58-.68-9.26-.83-13.78-.13-4-.27-8.22-.67-12.3-.94-9.78-3.4-19.48-5.78-28.86l1-.25c2.39,9.42,4.86,19.16,5.81,29,.4,4.12.54,8.31.67,12.37.15,4.5.31,9.16.82,13.7,1.16,10.3,4.06,18.11,8.86,23.88Z"/><path class="cls-6" d="M146.6,390.47c3.29-16.67,16.58-30.08,32.2-36.69a4.83,4.83,0,0,0,3.09-5.47c-.13-1-.29-2.56-.54-3.68-.65-2.81-3-3.65-6.11-2.25-20.14,9.19-35.16,23.44-40.33,45.06-.78,3.3,1.05,3.69,3.17,4.77a14.91,14.91,0,0,0,3.58.81C143.78,393.28,146.09,393,146.6,390.47Z"/><path class="cls-6" d="M335.78,139.15c4.74-11.75,11.4-18.62,23.34-23.06,1.82-.67,2.15-1.74,2.54-3.43a5.83,5.83,0,0,0,.17-2.45c-.53-1.67-1-3-3.31-2.17-15.35,5.3-24.71,14.91-30.43,30.05-.88,2.31.3,2.66,1.9,3.49a4.46,4.46,0,0,0,2.27.14A3.65,3.65,0,0,0,335.78,139.15Z"/><path class="cls-6" d="M224.46,434.1c10.73-3.94,22,.77,29.88,9.82,1.2,1.38,2.58,1.39,4,.19a27.18,27.18,0,0,0,2.05-1.81c1.51-1.56,1.41-3.65-.2-5.39-10.51-11.41-22.75-17.08-36.88-12.63-2.16.68-1.94,2.2-2,4.18a15.31,15.31,0,0,0,.41,3C222.08,433.09,222.82,434.7,224.46,434.1Z"/><path class="cls-6" d="M335,45.46h0c-.58-2.67-4.44-2.19-7.73-.92-7.07,2.73-9.7,9.87-12.09,16.19-1.11,2.94-.11,4.14,1.59,5.19h0c1.7,1,4,1.47,5.17-.83,2.45-4.94,2.73-12,8.6-14.75C333.26,49.06,335.57,48.12,335,45.46Z"/><path class="cls-6" d="M449.9,53.88h0c-.13-1.76-2.64-1.75-4.86-1.19-4.77,1.21-7.09,5.61-9.19,9.51-1,1.8-.44,2.65.55,3.46h0c1,.81,2.45,1.26,3.38-.13,2-3,2.83-7.53,6.83-8.85C448.47,56.07,450,55.65,449.9,53.88Z"/><path class="cls-2" d="M404.91,224.68h0c-1-.28-1.42-.78-.4-2.17,3.37-4.56,6.93-8.43,13.29-11.31,1.95-.88,3.26-.77,4-.12h0c.7.65.85,1.62-1.13,2.39-6.49,2.52-8.87,5.59-12.21,10A3.25,3.25,0,0,1,404.91,224.68Z"/><path class="cls-6" d="M456.77,364.86h0c-1.39-.07-2.49.07-2.58-2.7-.64-21.62.38-28.89-19.12-38.43-2.49-1.22-.47-2.61.46-3.53h0c.94-.92,2.9-1.31,5.2-.05,17.91,9.85,18,22.94,18.43,42.18C459.22,364.79,458.16,364.92,456.77,364.86Z"/></svg>