<svg id="Layer_1" data-name="Layer 1" xmlns="http://www.w3.org/2000/svg" xmlns:xlink="http://www.w3.org/1999/xlink" viewBox="0 0 510 230"><defs><style>.cls-1{fill:#00940a;}.cls-2{fill:#154001;}.cls-3{fill:#66bf6c;}.cls-4{filter:url(#AI_GaussianBlur_7);font-size:94.02px;font-family:Merienda-Bold, Merienda;font-weight:700;}.cls-5{font-size:100.15px;fill:#ed690f;font-family:MeriendaOne-Regular, Merienda One;}</style><filter id="AI_GaussianBlur_7" name="AI_GaussianBlur_7"><feGaussianBlur stdDeviation="7"/></filter></defs><path class="cls-1" d="M453.62,219C342.79,211.49,171.3,213.71,59,217.59c-25.71.89-36-7.45-41.58-39.43C9.57,133.27,2.46,96.59,16.58,51c10.06-32.49,23-39.88,45-38.31,96.06,6.88,289.64,2.43,390.24-1.76,23-1,36.34,8.2,43.37,39.49,9.87,43.93,6.81,86.29.14,130C490.59,211.58,479,220.67,453.62,219Z"/><path class="cls-2" d="M459,227.14c-1.89,0-3.84-.06-5.87-.2h0c-70.95-4.78-211.67-7.65-393.85-1.35-30.61,1-43.63-11-49.73-46.06l-.73-4.18c-7.56-43.3-14.08-80.71.17-126.73C19.34,15,34.26,2.69,62.16,4.7c93.5,6.69,284.06,2.61,389.34-1.77,28.63-1.2,44,12.48,51.5,45.73,10.78,48,6.17,94.13.25,133C498.38,213.58,485.39,227.14,459,227.14ZM454.15,211c19.47,1.3,28.9-3,33.29-31.76,10.15-66.6,5.67-101.6-.05-127-6.49-28.92-17.4-34-35.22-33.26-105.64,4.4-297,8.49-391.15,1.75-17.68-1.27-27.7,3.3-36.8,32.69C11.11,95.69,17,129.63,24.53,172.6l.73,4.19c5,28.88,12.76,33.52,33.42,32.81,119.85-4.15,286.67-6,395.47,1.38Z"/><path class="cls-3" d="M71.93,8.33c-14.61-1.19-32.9-2-44.74,11.2-2.8,3.13-2.74,3.87-.08,4-.28.55-.28.52,0,0,2.66.09,3-2.88,5.68-4.9C44.14,10,60,10.92,72.37,11.9c2.93.24,4.9.64,4.45-1.85h0C76.37,7.56,75.37,8.62,71.93,8.33Z"/><path class="cls-3" d="M463.93,57.74c-3.74-21.38-76.81-10.25-95.68-10-3.05.05-8.69-2.26-8-7.42h0c.65-5.16,3.29-6.92,8.22-7.1,30.46-1.14,96.59-14.8,109.2,19.94,2,5.62-.38,7.59-4.84,9.48.15.64.14.62,0,0A6.44,6.44,0,0,1,463.93,57.74Z"/><text class="cls-4" transform="translate(26.82 150.84) scale(0.91 1)">Play again</text><text class="cls-5" transform="translate(24.62 143.75) scale(0.89 1)">Play again</text><path class="cls-3" d="M37,153.09c2.43,12.36,2.28,38.32,18,42.17,1.14.28,1.63.44,1.62,1.65a16,16,0,0,1-.2,4c-.36,1.14-.62,1.76-2.16,1.55C33.08,199.57,30.85,168.77,29,153.61c-.13-1.11.31-1.39,1.54-1.65a28.24,28.24,0,0,1,4.4-.2C36.18,151.74,36.84,152.19,37,153.09Z"/><path class="cls-3" d="M487.54,196c-2.84,16.78-5,17.83-22.24,22.24-3.46.89-3.38.62-4.3,2.88-.65.08-.61.09,0,0-.92,2.25-1.07,1.93,2.42,1.44,17.43-2.4,25.74-7.58,27.3-25.56.31-3.59,1.34-3.34-.6-4.05.16-.78.14-.75,0,0C488.18,192.2,488.11,192.61,487.54,196Z"/></svg>