<svg id="Layer_1" data-name="Layer 1" xmlns="http://www.w3.org/2000/svg" width="540" height="500" viewBox="0 0 540 500"><defs><style>.cls-1{fill:#c46e2a;}.cls-10,.cls-2{fill:none;}.cls-2{stroke:#000;}.cls-2,.cls-7,.cls-9{stroke-miterlimit:10;}.cls-3{fill:#935320;}.cls-4,.cls-9{fill:#7d3309;}.cls-5{fill:#fff;}.cls-6{fill:#d08b55;}.cls-7,.cls-8{fill:#f3e2d4;}.cls-7{stroke:#f3e2d4;}.cls-9{stroke:#935320;}</style></defs><path class="cls-1" d="M203.18,225.08c-14.66,2-28.72,3.6-42,5.2A88.59,88.59,0,0,0,176.42,177c-1-29.81-23.47-50.49-13.19-80.82,2-6,5-11.68,6-17.89,1.45-8.36-.6-16.88-2.66-25.11q-3.84-15.31-7.82-30.61c-1-3.72-4-8.45-7.4-6.66a6.57,6.57,0,0,0-1.76,1.61,326.92,326.92,0,0,0-31.34,43.69c-4.44,7.39-7.67,16.89-12.89,23.64-5.57,7.2-9,4.24-18.49,4.31-11.16.07-14.87,3.64-21-5.79-5.43-8.32-12.24-16.82-16-26C47.11,50.55,46.1,42.73,41,37.53c-4.56,1-7.64,5.33-9.38,9.66S29,56.24,26.7,60.3c-1.62,2.82-3.58,14-4,17.21-1.52,12.66-1.68,11.29-.5,21.27,1.89,16-4,25.13-10.39,39.58a91.37,91.37,0,0,0-7.45,43.69c2.77,37.78,25.4,67.94,57.73,79.41L53,322.55C52.48,360,64.65,377.83,99,397c33.75,18.85,68.39,22.42,99.39,23.81,13.29.6,29.5-.7,41-8.61,10.08-6.91,20.08-1.36,29.89,0,35.05,4.86,40.36-.3,56.64-5.48,13.2-4.2,26.93-12.08,40.6-35.4a65.86,65.86,0,0,0,6.17-14C393.08,290.11,291.21,213.06,203.18,225.08Z"/><path class="cls-2" d="M49.71,154.87a6.79,6.79,0,0,1-1.9-8.16"/><path class="cls-2" d="M44.21,150.27a4.81,4.81,0,0,1-3.39-6.21"/><path class="cls-2" d="M35.79,148.11a6.79,6.79,0,0,1-4.38-5.69"/><path class="cls-2" d="M30,147.85a11.21,11.21,0,0,1-7.29-5.37"/><path class="cls-2" d="M25.75,150.76a6.4,6.4,0,0,1-8.66-2.22"/><path class="cls-2" d="M20.72,155.36a7.59,7.59,0,0,1-9-1.82"/><path class="cls-2" d="M80.37,150.69c.51-1.55,1.53-2.87,2.13-4.38s.66-3.44-.54-4.54"/><path class="cls-2" d="M93.87,135.24a7.32,7.32,0,0,1-3.57,7.84"/><path class="cls-2" d="M98.24,143.2a6.17,6.17,0,0,0,4.93-7.23"/><path class="cls-2" d="M104.67,145.25a4.87,4.87,0,0,0,4.81-1.9,14.46,14.46,0,0,0,2.25-4.95"/><path class="cls-2" d="M108.55,148c1.42,1.13,3.63.67,5-.55a11.72,11.72,0,0,0,2.71-4.66"/><path class="cls-2" d="M112.05,152.21a5.41,5.41,0,0,0,4.39,3,4.93,4.93,0,0,0,4.61-2.54"/><path class="cls-1" d="M355.66,296.78c17.59,3.19,30.35,18.65,38.4,34.61s13.1,33.57,23.59,48c10.93,15.07,27,25.66,43.88,33.61,21.2,10,45.71,16.35,68.05,9.21-3.44-1.44-1.49.63-4.73-1.21C498,405.8,472,386.43,457.51,359.11c-5.39-10.16-9-21.15-13.75-31.66-10.9-24.3-27.89-46.18-50.11-60.87s-49.8-21.8-76.08-17.44l-7.13,1.21"/><path class="cls-3" d="M329,483.18a34.42,34.42,0,0,1-11.95-1.88,23.79,23.79,0,0,1-11.64-9.41,18.39,18.39,0,0,1-2.76-14.23c1.22-5,5.61-9.31,11.19-10.91,4.7-1.35,9.13-.51,12.24,2.31,7.95-25.78-1.32-38.25-5.69-42.42-4.09-3.91-9.39-6.29-14.51-8.6-2.3-1-4.69-2.11-6.94-3.31-23.46-12.5-35.5-43.12-26.83-68.25l.48.16c-8.59,24.91,3.34,55.26,26.59,67.64,2.24,1.19,4.61,2.26,6.91,3.3,5.16,2.32,10.5,4.73,14.65,8.69,5.14,4.91,8.08,11.7,8.75,20.19.7,8.87-1.27,17.48-3.05,23.14l-.12.4-.29-.29c-3-2.91-7.38-3.82-12-2.47-5.4,1.55-9.66,5.69-10.84,10.54-1.92,7.92,2.92,19,14.08,23.05,4.71,1.71,10.22,2.21,17.34,1.57a41.27,41.27,0,0,0,17.09-5.16c5.51-3.26,8.83-7.73,9.6-12.93.67-4.57-.75-9.16-2.13-13.6-1.31-4.23-2.67-8.6-2.26-13s2.52-8.45,4.57-12.35c.27-.51.54-1,.8-1.53,11.15-21.57,14-44.9,7.72-64l.48-.16c6.28,19.25,3.46,42.73-7.75,64.41l-.8,1.54c-2,3.85-4.12,7.84-4.52,12.16s.95,8.65,2.25,12.83c1.39,4.5,2.83,9.14,2.14,13.83-.79,5.35-4.2,9.94-9.84,13.29a41.94,41.94,0,0,1-17.3,5.23Q331.63,483.18,329,483.18Z"/><path class="cls-1" d="M272.35,326.56c-8.64,25,3.34,55.5,26.71,67.95,7.27,3.87,15.55,6.25,21.5,11.94,11.05,10.56,10.21,28.5,5.64,43.08-7.14-7-20.95-1.51-23.3,8.19s4.86,19.93,14.24,23.34c5.53,2,11.58,2.12,17.45,1.6,11.67-1.05,25.19-6.71,26.91-18.31,1.33-9-5.22-17.61-4.39-26.65.46-4.94,3.07-9.38,5.34-13.79,10.17-19.66,14.61-43.17,7.74-64.21"/><path class="cls-4" d="M44.64,72.81c-3.71-5.62-6.75-9.54-7.36-16.25-1.59,5-3,7.71-2.69,13a68.47,68.47,0,0,0,1.06,7.23c1.09,6.74,1.35,11.61.11,18.33,3.25-1.89,6.34-1.46,9.87-2.76,2-.75,9.22-1.53,10.39-3.08C57.92,86.68,46.49,75.62,44.64,72.81Z"/><path class="cls-4" d="M137.12,66.49c4.21-6.19,7.25-13.1,10.25-20,2-4.61,2.89-6.63,4.92-11.25.62,5.82,2.41,9.07,2.32,14.92-.06,4.24-.49,8.47-.47,12.71,0,4,.45,8,.2,12C154,81.06,152,87,150,92.78c-.2.59-2.29,1.94-2.8,2.29s.63-.39,0-.46c-8.28-.89-18.72-5.38-24.53-11.42-.28-.28-1.66-1.91.85-3.48A42.43,42.43,0,0,0,128.69,76,47.62,47.62,0,0,0,137.12,66.49Z"/><ellipse class="cls-5" cx="35.2" cy="171.83" rx="19.51" ry="24.83"/><ellipse class="cls-5" cx="95.75" cy="167.53" rx="21.03" ry="25.33"/><circle cx="95.49" cy="175.13" r="18.75"/><circle cx="35.2" cy="178.67" r="17.73"/><ellipse class="cls-5" cx="92.96" cy="177.91" rx="4.81" ry="6.08"/><ellipse class="cls-5" cx="100.31" cy="168.03" rx="2.53" ry="3.8"/><ellipse class="cls-5" cx="105.37" cy="173.35" rx="1.01" ry="1.52"/><ellipse class="cls-5" cx="31.15" cy="180.7" rx="3.8" ry="5.83"/><ellipse class="cls-5" cx="39.26" cy="170.31" rx="1.77" ry="3.04"/><circle class="cls-5" cx="43.82" cy="175.63" r="1.27"/><path class="cls-4" d="M116.39,222.83c1.72,17.91-22.93,24-38.06,24.9s-48.23-7-47.15-25.94,34.47-17.55,47.71-17.55S114.67,204.92,116.39,222.83Z"/><path d="M42.61,215.26c2.74-1.22,5.56-2.46,8.56-2.59s6.25,1.14,7.62,3.8c-1.68,2.63-5.9,2.89-7.21,5.72a8.61,8.61,0,0,1-1,2.35c-1.18,1.29-3.41.49-4.6-.79s-2-3-3.61-3.77c-1.11-.56-2.6-.68-3.16-1.79-.69-1.37.8-2.93,2.3-3.26s3.12,0,4.56-.56"/><path d="M76.08,215.86l-.12-.23a214.4,214.4,0,0,1,25.16-11.84l.1.24A214.05,214.05,0,0,0,76.08,215.86Z"/><path d="M78.82,223.27l-.09-.24a118.86,118.86,0,0,1,27-6.39l0,.25A118.87,118.87,0,0,0,78.82,223.27Z"/><path d="M101.69,235.17a104.93,104.93,0,0,1-24.08-2.79l.06-.24A105.43,105.43,0,0,0,103,234.91v.25Z"/><path class="cls-6" d="M160.29,159.92h0c-1.81.34-3.21-.46-3.45-3-1.14-12-5.73-19.52-16.37-25.14-2.3-1.21-2.33-2.64-1.49-4.16h0c.84-1.53,1.78-2.3,4.48-.92,12.48,6.37,17.65,15.24,19.31,29C163.13,158.68,162.1,159.58,160.29,159.92Z"/><path class="cls-6" d="M53.66,75.43h0c-1.1.49-1.8.74-3.53-1.55-6-7.93-9.68-15.69-10.54-25.55-.25-2.85.94-2.21,2.27-1.82h0c1.32.39,2.33,1.12,2.58,3.89.87,9.56,3.9,14.45,9.84,21.75C56,74.26,54.77,74.93,53.66,75.43Z"/><path class="cls-6" d="M118,72.58h0c.84,1.25,2,1.87,4.14.16a62,62,0,0,0,19.79-28c.88-2.62.11-4-1.48-4.34h0c-1.6-.32-3.2.63-3.93,3-3.1,9.89-9.71,18.21-17.49,24.75C117.19,69.69,117.15,71.32,118,72.58Z"/><path class="cls-6" d="M299.64,269.63c-22.72-19-38.82-28.67-69.63-24.95-3.27.39-4.09-.78-4.35-3.43-.54.1-.36.05,0,0-.26-2.65-.37-3.12,3.16-3.55,33.16-4,50.71,6.23,75.38,26.53,2.62,2.15,2.26,3,.7,5h0C303.34,271.19,302.05,271.65,299.64,269.63Z"/><path class="cls-4" d="M319.12,254.22a20.5,20.5,0,0,1,25.39-14.15"/><path class="cls-4" d="M328.87,257.94c5.39-4.22,11-8.38,17.56-10.42a30.7,30.7,0,0,1,17.61-.18"/><path class="cls-4" d="M352.12,262.88c4.43-1.29,8-4.58,12-6.85a28.66,28.66,0,0,1,25.38-1.19"/><path class="cls-4" d="M367.27,270.76c3.86-.87,7.28-3.06,10.91-4.67a39.31,39.31,0,0,1,38.65,4.32"/><path class="cls-4" d="M392.94,284.48l9.12-1.85a48.13,48.13,0,0,1,8.92-1.24c9.65-.13,18.38,5.42,26.17,11.12"/><path class="cls-4" d="M406.49,295.88c5,.79,10.15-.08,15.23.13a36.1,36.1,0,0,1,25.1,11.87"/><path class="cls-4" d="M418.67,309.66c7.12,1.44,14.29,2.89,21,5.6s13.12,6.76,17.48,12.57"/><path class="cls-4" d="M427.11,323a84,84,0,0,1,36.46,18.18"/><path class="cls-4" d="M436.36,338.65c2.7,2.22,6.61,1.8,10,2.53,8.92,1.92,14.28,11.7,23,14.33"/><path class="cls-4" d="M445.05,354.54c2.55,1.71,5.94,1.33,8.83,2.36a15.09,15.09,0,0,1,4.81,3.1c3,2.7,5.57,5.88,8.59,8.58s6.66,5,10.69,5.27"/><path class="cls-4" d="M455.65,372.24a66.47,66.47,0,0,1,12.3,6.25c4,2.63,7.8,5.69,12,8s9.09,3.89,13.85,3.14"/><path class="cls-4" d="M475.07,394.12a115,115,0,0,0,24.19,8.81c4.39,1.06,9.26,1.8,13.23-.35"/><path class="cls-4" d="M484.57,407.39a37.24,37.24,0,0,0,18.51,4.41,63.33,63.33,0,0,0,18.86-3.41"/><path class="cls-4" d="M502.2,414.92c-.2.52.46.93,1,1.1,4.75,1.48,9.54,3,14.49,3.41s10.15-.21,14.4-2.79"/><path class="cls-4" d="M508.22,421.93c5.81,3.14,12.89,2.15,19.41,1.07,3.24-.53,7-1.48,8.23-4.53"/><path class="cls-4" d="M347,284.34c4.22.72,8.05,2.84,11.79,4.93,4.93,2.75,10,5.6,13.51,10,5.33,6.66,6.32,15.92,5,24.35"/><path class="cls-4" d="M384.77,300.5c13.18,14.63,16.94,37.06,9.25,55.18"/><path class="cls-4" d="M403.78,329.46c5.11,6.7,4.57,16,3.47,24.37-.95,7.19-2.34,14.81-7.3,20.09"/><path class="cls-4" d="M415.4,344.8c1.9,4.11,3.83,8.33,4.25,12.84a32.47,32.47,0,0,1,0,5.31,86.11,86.11,0,0,1-8.11,30.68"/><path class="cls-4" d="M427.34,360.29a21.87,21.87,0,0,1,3.51,12.88,65.53,65.53,0,0,1-2.05,13.39l-2.69,12c-.42,1.83-.95,3.85-2.5,4.91"/><path class="cls-4" d="M438.47,376.13c1.8,8.64,3.62,17.47,2.58,26.24-.42,3.52-1.3,7-1.29,10.54s1.08,7.31,3.83,9.54"/><path class="cls-4" d="M450.08,386A32.13,32.13,0,0,1,456,404.77c0,4.53-1,9.05-.54,13.55A20.9,20.9,0,0,0,462.85,432"/><path class="cls-4" d="M465.62,400.23c-.21,4.55,2.5,8.77,2.86,13.31s-1.7,9.34-.33,13.75c1.15,3.72,4.5,6.31,7.86,8.27"/><path class="cls-4" d="M477.79,408c2.65,4,5.33,8.07,6.84,12.63.88,2.64,1.37,5.46,2.92,7.77,2.09,3.11,5.72,4.75,9.16,6.23"/><path class="cls-4" d="M492.94,417.3a19.39,19.39,0,0,0,13.27,17.37"/><path class="cls-4" d="M500,418.35a45.42,45.42,0,0,0,6,8.41,15.28,15.28,0,0,0,9,4.78"/><path class="cls-4" d="M374.8,289.65c6.35,4.83,10.33,12.38,11.74,20.24s.42,16-1.82,23.66"/><path class="cls-4" d="M385.29,278.2c2.14-2.12,5.09-3.22,8-4.1,8.53-2.6,18.2-3.75,26.07.46,2.72,1.45,5.2,3.53,8.23,4.13"/><path class="cls-4" d="M338.19,269.19a31.68,31.68,0,0,1,3.62-6.25,13.42,13.42,0,0,1,3.7-3.62c3.38-2.06,7.78-1.6,11.33-3.35"/><path class="cls-4" d="M343.42,272.42c1.24,1.08,3.11.79,4.75.76,6.29-.15,11.78,4.14,16.1,8.72,2.05,2.17,4.06,4.65,4.39,7.61"/><path class="cls-4" d="M338.78,266.05a20.87,20.87,0,0,1,2.38-7,14,14,0,0,1,7.19-5.32,42,42,0,0,1,8.92-1.78"/><path class="cls-4" d="M367.55,270.92c1.78-4.46,5.85-7.68,10.29-9.51s9.27-2.44,14-3"/><path class="cls-4" d="M348.57,260.89a24.39,24.39,0,0,1,21-10.43"/><path class="cls-4" d="M345,279.1c2.83.71,5.89-1,8.68-.16a9.81,9.81,0,0,1,3.35,2.22c2.65,2.36,5.36,4.78,7.06,7.9"/><path class="cls-4" d="M350.12,267.81l8.45-.74c3.14-.28,6.53-.66,8.85-2.8"/><path class="cls-4" d="M362.43,273.21a14.15,14.15,0,0,0,7.68,2.62,31.78,31.78,0,0,1,5,.14c4,.77,6.6,4.51,8.77,7.95"/><path class="cls-4" d="M371.17,282.91a14.42,14.42,0,0,1,8.48,5.17,42.71,42.71,0,0,1,5.29,8.62"/><path class="cls-4" d="M387,286.42c3.09-1,6.57-.23,9.4,1.4a34.85,34.85,0,0,1,7.39,6.39"/><path class="cls-4" d="M393.86,294.18a20,20,0,0,0-1.66,6.75A7.16,7.16,0,0,0,395,307"/><path class="cls-4" d="M402.12,307.76c1.93,2.13,1.71,5.37,1.6,8.25a52,52,0,0,0,1.17,13.16"/><path class="cls-4" d="M410.88,302.65A15.77,15.77,0,0,1,425,313"/><path class="cls-4" d="M408.1,292.91a52.36,52.36,0,0,1,15.55,1.91"/><path class="cls-4" d="M417.2,315.49a11.34,11.34,0,0,1,6.64,5.06,33.46,33.46,0,0,1,3.4,7.83l1.3,3.86"/><path class="cls-4" d="M415.94,322.86l2.34,8.05c.8,2.77,1.65,5.63,3.52,7.83,2.09,2.47,5.3,3.93,6.93,6.72"/><path class="cls-4" d="M409.94,323.63a45.17,45.17,0,0,0,7.28,18.65"/><path class="cls-4" d="M427.9,333.38c3.83-1,7.62,1.84,9.93,5a24.63,24.63,0,0,1,4.23,9.76"/><path class="cls-4" d="M431.25,339.36a9.41,9.41,0,0,1,2.9,5.28,33.17,33.17,0,0,1,.23,4.24c.24,4.91,2.23,9.54,4.19,14.05"/><path class="cls-4" d="M423,345.05a21.73,21.73,0,0,0,5.29,14.38"/><path class="cls-4" d="M431.79,362.37a8.54,8.54,0,0,1,3.75,5.79,25.43,25.43,0,0,1,.09,7.08l-.8,9.94"/><path class="cls-4" d="M440.47,352.26a19.75,19.75,0,0,1,5.2,11.24,58.86,58.86,0,0,1,.07,12.59"/><path class="cls-4" d="M450.51,363a26.83,26.83,0,0,0,16.38,8.88"/><path class="cls-4" d="M445.32,351.22A113.64,113.64,0,0,0,461.75,358"/><path class="cls-4" d="M440.64,335.31a25.21,25.21,0,0,1,16.6,9.42"/><path class="cls-4" d="M424.52,306.38a12.62,12.62,0,0,0,7.85,2.13,15.63,15.63,0,0,1,3.34-.14,9.36,9.36,0,0,1,2.79,1l4.9,2.39"/><path class="cls-4" d="M422.46,294.31c-.37.8.93,1.26,1.81,1.18L430,295"/><path class="cls-4" d="M452.88,373.47a10,10,0,0,1,5.7,4.33,63.44,63.44,0,0,1,3.48,6.45,37.47,37.47,0,0,0,4.32,6.43c1.42,1.71,3.52,3.44,5.64,2.76"/><path class="cls-4" d="M450.23,378c.28,2.53-1.05,4.9-2.11,7.21a38.29,38.29,0,0,0-2.4,6.92c-.33,1.37-.38,3.18.89,3.78"/><path class="cls-4" d="M453.34,381.61c3.09,2.16,4.69,5.91,5.42,9.61s.74,7.51,1.43,11.22c.25,1.36.69,2.83,1.85,3.56"/><path class="cls-4" d="M468.26,395.89c.75,4.36,4.18,7.88,5,12.22.45,2.34.54,5.39,2.8,6.16"/><path class="cls-4" d="M475.2,404.22a16.93,16.93,0,0,0,12-.11"/><path class="cls-4" d="M468,383.13a10,10,0,0,0,5.28,5.52,25.84,25.84,0,0,0,7.57,2"/><path class="cls-4" d="M477.1,413.73c2.53,1.91,2.21,5.73,1.68,8.85s-.7,7,1.94,8.75"/><path class="cls-4" d="M485.63,412.19a8.11,8.11,0,0,0,5.27,3.73,23.94,23.94,0,0,0,6.61.43"/><path class="cls-4" d="M436.49,389.5c-.76,3.58-2.48,6.89-3.27,10.46s-.43,7.78,2.31,10.2"/><path class="cls-4" d="M449,398.64a34.09,34.09,0,0,0,.77,22.25"/><path class="cls-4" d="M462.15,407.39A25.12,25.12,0,0,0,464,419.71"/><path class="cls-4" d="M465.7,373.89l9.1,1.41"/><path class="cls-4" d="M437.89,322a15.11,15.11,0,0,1,8.64,4.5"/><path class="cls-4" d="M314.94,253.49a11.26,11.26,0,0,1,1.36-13"/><path class="cls-4" d="M331.85,251.73a18.36,18.36,0,0,1,12-6.93"/><path class="cls-4" d="M402.92,301.5a17.38,17.38,0,0,1,13.15,17.74"/><path class="cls-7" d="M474,397.4a22.94,22.94,0,0,0,3.57,5.82,7.72,7.72,0,0,0,6,2.72"/><path class="cls-8" d="M474.35,405.44c1.78,2.75,1.78,6.45,3.87,9,1.84,2.24,4.86,3,7.68,3.72"/><path class="cls-8" d="M485.72,407.32a14.52,14.52,0,0,0,12.91,10"/><path class="cls-8" d="M486.21,401.54a16.15,16.15,0,0,0,13.21,4.6"/><path class="cls-8" d="M497.87,411.24c2,1.67,3.08,4.23,4.49,6.46s3.62,4.36,6.25,4.2"/><path class="cls-8" d="M468.2,395.57a10.23,10.23,0,0,0,5.48,15.57"/><path class="cls-8" d="M462.14,403.56c-1,3.33-2,6.9-.92,10.22a9,9,0,0,0,6.18,5.92"/><path class="cls-8" d="M472.65,414.6a9,9,0,0,0,.87,7.5c1.35,2.18,3.55,3.65,5.69,5.06"/><path class="cls-8" d="M489.41,419.21a18.45,18.45,0,0,0,.56,6.38,6.19,6.19,0,0,0,4.37,4.3"/><path class="cls-8" d="M507.28,415.85c5.12-.49,10.91-1.37,13.79-5.62"/><path class="cls-8" d="M486.11,395.12c1.39,2.31,4.26,3.4,6.95,3.35a21.72,21.72,0,0,0,7.77-2.07"/><path class="cls-8" d="M479.19,393.06a11.87,11.87,0,0,0,14.65-.8"/><path class="cls-8" d="M456.82,404a8.58,8.58,0,0,0,4.86,13.81"/><path class="cls-8" d="M518.68,420.18a11.48,11.48,0,0,0,12,6.28"/><path class="cls-9" d="M53.05,203.86c2.92-.19,5.34-2.51,6.53-5.17S61,193,61.14,190.13l.61-10.32"/><path class="cls-6" d="M258.93,374.92c-31.13-16.86-71.56-15-98.19-38.31-10.49-9.19-17.71-21.45-24.5-33.62s-13.43-24.66-23.09-34.69-23-17.48-36.92-16.7c-4.34.24-8.92,1.44-11.79,4.7-6.35,7.19-.83,18.13.49,27.64,1.47,10.58-2.83,21.16-2.6,31.85.24,11.39,5.58,22,10.86,32.06,11.67,22.32,24.73,45.61,46.61,58.1,4.82,2.75,9.18,7.79,14.69,7.84,4.12,0,8.88-.45,12.73,1,6.82,2.52,12.67,2.54,19.43,5.12,12.25,4.68,24.24,6.78,40.35,4.51,5.93-.83,10.91-3.66,16.78-4.85,7.47-1.52,13.87-6.42,21.26-8.33,16.72-4.33,42.87,12.92,57.06,1.57C292.31,397.9,274.51,383.36,258.93,374.92Z"/><path class="cls-1" d="M112.53,365.05C115.38,375.92,125,383.34,132.2,392c9.21,11.14,10.57,27.83,11.22,42.27.17,3.87.74,7.77-3,8.61-13.68,3-12.8,1.71-19.25,8.11-5.92,5.86-3.72,20.66,2.45,26.26s15,7.07,23.37,7,17.26-1.85,22.3-8.34,4.49-15.93,2.81-24.12c-2.69-13.22-2.35-27.16-5.34-40.32s-9.2-26-4.79-38.73c3.52-10.14,10.36-18.9,13.63-29.13A45.26,45.26,0,0,0,170.62,306c-3.38-5.28-10.71-5-16.94-4.18s-11.93,3.8-17.37,6.93a48.2,48.2,0,0,0-9.31,6.46,41.32,41.32,0,0,0-6.85,9C111.72,338.26,108.37,349.19,112.53,365.05Z"/><path class="cls-3" d="M146.43,484.5c-10.12,0-17.86-2.38-23-7.07-3.46-3.14-5.87-9.39-6-15.55-.1-4.78,1.15-8.72,3.54-11.08,5.31-5.27,5.76-5.36,13.15-6.86,1.65-.34,3.7-.75,6.23-1.31,3.25-.73,3.08-3.8,2.89-7.36,0-.33,0-.67-.05-1-.67-14.65-2.13-31.2-11.17-42.12-1.9-2.3-4-4.56-6.07-6.74-5.68-6-11.54-12.27-13.65-20.3-4.31-16.45-.46-27.51,7.65-41a42.3,42.3,0,0,1,6.89-9.06,48.75,48.75,0,0,1,9.36-6.5c5.34-3.07,11.09-6.13,17.47-7,6.58-.86,13.78-1,17.19,4.3a45.33,45.33,0,0,1,5,37.83c-1.7,5.31-4.4,10.31-7,15.14a96.36,96.36,0,0,0-6.62,14c-3.33,9.62-.6,19.12,2.29,29.18.88,3.07,1.8,6.25,2.51,9.41a163.35,163.35,0,0,1,2.87,21.07,179.32,179.32,0,0,0,2.47,19.25c1.43,7,2.69,17.16-2.86,24.32-4.28,5.52-11.85,8.36-22.5,8.45ZM112.77,365c2.08,7.91,7.9,14.1,13.52,20.09,2.06,2.18,4.19,4.45,6.11,6.76,9.13,11,10.61,27.69,11.27,42.42,0,.33,0,.66.05,1,.19,3.47.38,7.06-3.29,7.88-2.52.56-4.58,1-6.23,1.31-7.4,1.51-7.69,1.57-12.89,6.73-2.29,2.26-3.49,6.07-3.39,10.71.13,6,2.47,12.13,5.83,15.18,5.15,4.69,13,7,23.2,6.94a41.19,41.19,0,0,0,12.27-1.75,19.77,19.77,0,0,0,9.83-6.5c5.42-7,4.18-17,2.77-23.91a180.62,180.62,0,0,1-2.49-19.3,163.67,163.67,0,0,0-2.85-21c-.71-3.15-1.63-6.32-2.51-9.38-2.91-10.14-5.66-19.72-2.28-29.49a96.86,96.86,0,0,1,6.66-14.07,90.27,90.27,0,0,0,7-15.06,44.83,44.83,0,0,0-4.91-37.4c-3.26-5.08-10.27-4.91-16.7-4.07s-12,3.86-17.28,6.9a47.54,47.54,0,0,0-9.26,6.43,41.79,41.79,0,0,0-6.81,8.95C112.32,337.75,108.5,348.71,112.77,365Z"/><path class="cls-6" d="M70.72,212.74c-5.1-3.36-10.22-2.67-17-2.85-2.22-.06-3.34-.46-3.91-1.47h0c-.57-1,.42-1.16,2.86-1.11,7.46.15,13.23-.21,19.52,3.24,2.06,1.13,2,1.51,1.46,2.21h0C73.12,213.46,72.39,213.84,70.72,212.74Z"/><path class="cls-6" d="M27,132.39c.14-.14.1-.16,0,0,1.21-3.4,4.57-5.87,5.38-8.12,3-8.49,3.45-7.5,10.29-11.86a3.27,3.27,0,0,0,1-4.82c.28-.12.19-.09,0,0-1.13-1.63-1.33-3.37-3.87-1C30.25,115.3,24.69,116.1,23.29,132,22.92,136.15,25.76,135.79,27,132.39Z"/><path class="cls-6" d="M156.33,308.83h0c-1.11-.72-4.7,0-7.36,1-10.31,3.7-13.84,10.66-18.91,17.65-1.31,1.81-1,2.8.32,3h0c1.33.16,1.81,1.15,3.85-1.66,7.88-10.85,11.6-9.4,22.49-16.72C159.53,310.13,157.45,309.54,156.33,308.83Z"/><path class="cls-6" d="M309.8,380.43h0c-1.18,1.92-2.13,3.27-5.93,1.67-15.33-6.46-21.57-12.89-23.65-29.47-.51-4.11.67-4.22,2.84-4.83h0c2.17-.61,4.23-.18,4.63,3.22,1.58,13.68,7.27,19.4,20.3,23.74C311.22,375.83,311,378.52,309.8,380.43Z"/><path class="cls-10" d="M289.33,438.5a24.74,24.74,0,0,0-15.81,17.92,12.88,12.88,0,0,0,.56,8.21,11.23,11.23,0,0,0,7.57,5.67,24.84,24.84,0,0,0,9.72.06c3.86-.58,8.21-1.94,9.73-5.55,1.17-2.8.22-6.13,1.32-9,1.55-4,6.42-5.48,8.84-9,3-4.24,1.57-10,.07-14.94q-3-9.73-5.93-19.47c-6.48,3.33-13.07,4.18-20.15,5.13C285.3,419.4,290.9,438,289.33,438.5Z"/><path class="cls-1" d="M81.17,430.61a5.56,5.56,0,0,1-1.25,2.62c-1.08,1-2.76,1.08-4.26,1.26-10.48,1.27-16.95,13.16-16.17,23.69a14.53,14.53,0,0,0,2.39,7.61,15.17,15.17,0,0,0,6.42,4.55c9.16,3.91,19.43,4,29.39,3.88,3.67,0,7.88-.36,10.09-3.29,1.35-1.77,1.61-4.11,1.74-6.33,1.27-21.86-6.39-43.4-6.11-65.29a7.57,7.57,0,0,0-.58-3.82,7.19,7.19,0,0,0-2.14-2.15c-7.46-5.66-15-12.68-23.1-17.16-2,5.8,4.8,18.38,5.61,25.15A77.72,77.72,0,0,1,81.17,430.61Z"/><path class="cls-1" d="M303.06,410.81l7.27-1.7A75.64,75.64,0,0,0,313,428c1.31,4.78,3.09,9.94,1.22,14.53-1.24,3.07-.18,6.71-2.38,9.18s-4.67,11.22-5.07,11.14c-2.11-.41.23.16.68,2.27.79,3.71-2.5,7.32-6.18,8.23s-7.56-.15-11.17-1.32c-4.41-1.44-8.83-3.09-12.52-5.89s-6.63-6.91-7-11.53a12.76,12.76,0,0,1,19.4-12L288.51,414c3.15,2,6.6,1.19,10-.4S299.43,411.66,303.06,410.81Z"/></svg>