<svg xmlns="http://www.w3.org/2000/svg" width="1100" height="900" viewBox="0 0 1100 900"><defs><style>.cls-1{fill:#c46e2a;}.cls-2{fill:#935320;}.cls-3,.cls-8{fill:#7d3309;}.cls-4{fill:#fff;}.cls-5{fill:#d08b55;}.cls-6,.cls-7{fill:#f3e2d4;}.cls-6{stroke:#f3e2d4;}.cls-6,.cls-8{stroke-miterlimit:10;}.cls-8{stroke:#935320;}.cls-9{fill:#29abe2;}.cls-10{fill:#7fcdee;}</style></defs><g id="Layer_4" data-name="Layer 4"><path class="cls-1" d="M615.52,754.31,629.88,751a149.71,149.71,0,0,0,5.34,37.34c2.6,9.44,6.1,19.61,2.42,28.68-2.46,6-.37,13.23-4.71,18.11s-9.22,22.16-10,22c-4.17-.82.45.31,1.34,4.46,1.56,7.34-4.93,14.46-12.21,16.26s-14.9-.3-22-2.62c-8.7-2.83-17.43-6.09-24.72-11.62s-13.08-13.64-13.86-22.76a25.21,25.21,0,0,1,38.3-23.65l-3-56.62c6.22,3.93,13,2.35,19.69-.78S608.35,756,615.52,754.31Z"/><path class="cls-1" d="M415,390.27c-23.33,2.84-56.39,9.57-80.91,11.6,18.24-29.56,30.68-63.77,29.28-99-2.1-52.78-42.08-98.64-22.64-152.36,3.83-10.58,11.68-19.77,12.43-33.09,1-17.92-3.68-33.3-10.5-52.07C334.24,42,333,32.59,357.84,20.21c9.08-4.52,9.51-12.49,3.23-19.31-1.31-1.41-2.67.06-5.58-.15-64.83-4.62-78.1,22.39-104.37,71.43-12.63,23.58-12.5,30.51-25.88,47.09-14.29,17.71-18.11,7.22-36.2,7-21.29-.25-26.71,5.27-40.63-15.55-12.28-18.36-19.12-41.15-35.44-60C101,36.89,79.33,25.78,59.15,26.37c-4.81,10.41.32,15.13,7.31,22.37s6.75,12.94,4.19,22.8c-1.79,6.88-8.9,26.7-9.78,31.47-3.45,18.7-1.95,26.66-.75,44C62,174.77,51.6,197.76,40,224c-11,24.76-16.84,55.56-14.5,83.41C31.44,378,70.27,437.07,138.71,459c-3.41,50-14,73.8-16,130.14s30.94,110.71,90.52,139.29c58.53,28.08,129.4,45.43,195.83,45.51,28.47,0,57.82-1.57,80.42-17.06,19.74-13.52,43-2.72,56.73-1.21,49,5.37,71.14,3.37,115.4-11.52,35.86-12.06,59.91-37.8,79.76-71.23,3.92-6.59,9.33-15.45,11.92-27.39C790,476.13,555.09,373.21,415,390.27Z"/><path d="M115.15,249.52a13.82,13.82,0,0,1-3.88-16.72l.9.45a13,13,0,0,0,3.59,15.48Z"/><path d="M104.5,240.55a10,10,0,0,1-7-12.94l.93.37a9,9,0,0,0,6.32,11.58Z"/><path d="M87.82,236.25a14,14,0,0,1-9-11.66l1-.08a13,13,0,0,0,8.33,10.8Z"/><path d="M76.49,235.76a22.64,22.64,0,0,1-14.71-10.84l.87-.49A21.61,21.61,0,0,0,76.7,234.78Z"/><path d="M62,243.23a13.75,13.75,0,0,1-3.41-.44,12.65,12.65,0,0,1-8-5.9l.88-.49a12.15,12.15,0,0,0,16.39,4.2l.53.85A12,12,0,0,1,62,243.23Z"/><path d="M51.86,252.08a15.42,15.42,0,0,1-11.75-5.26l.76-.64A14.49,14.49,0,0,0,58,249.65l.46.89A14.51,14.51,0,0,1,51.86,252.08Z"/><path d="M176.46,241l-1-.31a28.34,28.34,0,0,1,2.29-4.85,33.19,33.19,0,0,0,1.91-3.82c1-2.55,1.38-6.29-.93-8.41l.68-.73c2.68,2.45,2.31,6.66,1.18,9.51a34.27,34.27,0,0,1-2,3.93A27.43,27.43,0,0,0,176.46,241Z"/><path d="M195.82,226.3l-.47-.88a14,14,0,0,0,6.79-14.92l1-.22A15,15,0,0,1,195.82,226.3Z"/><path d="M211.31,226.59l-.14-1a11.69,11.69,0,0,0,9.33-13.66l1-.23a12.68,12.68,0,0,1-10.16,14.88Z"/><path d="M225.79,230.88a7.48,7.48,0,0,1-2-.26l.26-1c3.43.94,7-1.13,9-3.58,2.25-2.76,3.37-6.39,4.35-9.59l1,.29c-1,3.29-2.16,7-4.53,9.93A11,11,0,0,1,225.79,230.88Z"/><path d="M235.45,237.28a6.55,6.55,0,0,1-4.16-1.39l.63-.78c2.64,2.13,6.74,1.13,9.18-1.05,2.63-2.37,4-5.9,5.21-9l.94.36c-1.25,3.22-2.67,6.87-5.49,9.4A9.78,9.78,0,0,1,235.45,237.28Z"/><path d="M247.76,250.31c-.21,0-.41,0-.62,0a11.08,11.08,0,0,1-9.07-6.19l.9-.44a10.11,10.11,0,0,0,8.24,5.64,9.27,9.27,0,0,0,8.62-4.74l.89.47A10.33,10.33,0,0,1,247.76,250.31Z"/><path class="cls-1" d="M719.35,529.22c34.71,6.31,59.91,36.81,75.78,68.32s25.86,66.27,46.58,94.83c21.57,29.75,53.37,50.64,86.61,66.33,41.84,19.75,90.22,32.28,134.3,18.19-6.78-2.84-2.93,1.24-9.32-2.39C1000.21,744.41,949,706.18,920.38,652.27c-10.64-20.07-17.83-41.77-27.14-62.49-21.52-48-55.06-91.16-98.91-120.16s-98.3-43-150.16-34.41c-4.39.72-9.69,1.65-14.08,2.37"/><path class="cls-2" d="M666.72,897.14c-9.1,0-16.75-1.21-23.58-3.7a47,47,0,0,1-23-18.58c-5.72-9-7.65-18.93-5.43-28.08,2.41-9.92,11.08-18.37,22.09-21.54,9.27-2.66,18-1,24.15,4.57,15.68-50.88-2.6-75.5-11.23-83.74-8.06-7.71-18.53-12.42-28.64-17-4.55-2.05-9.25-4.16-13.69-6.53-46.32-24.67-70.08-85.11-53-134.72l.94.33c-17,49.17,6.6,109.06,52.5,133.51,4.41,2.35,9.1,4.46,13.63,6.5,10.19,4.58,20.73,9.33,28.92,17.15,10.14,9.7,16,23.1,17.27,39.86,1.38,17.5-2.51,34.49-6,45.67l-.24.78-.59-.57c-5.89-5.75-14.55-7.53-23.77-4.88C626.41,829.27,618,837.44,615.69,847c-3.79,15.64,5.75,37.48,27.79,45.5,9.3,3.38,20.17,4.37,34.23,3.11,12.56-1.12,24.53-4.74,33.72-10.19,10.87-6.45,17.43-15.27,18.94-25.52,1.34-9-1.47-18.08-4.19-26.84-2.59-8.35-5.27-17-4.47-25.73s5-16.68,9-24.37c.53-1,1.06-2,1.58-3,22-42.57,27.56-88.62,15.25-126.36l1-.31c12.39,38,6.81,84.33-15.31,127.13-.52,1-1.05,2-1.58,3-4,7.61-8.13,15.47-8.91,24s1.86,17.08,4.42,25.34c2.76,8.87,5.6,18,4.23,27.29-1.56,10.55-8.28,19.62-19.42,26.23-9.31,5.52-21.44,9.19-34.14,10.33C673.87,897,670.19,897.14,666.72,897.14Z"/><path class="cls-2" d="M666.72,897.64A68.66,68.66,0,0,1,643,893.91a47.5,47.5,0,0,1-23.24-18.78c-5.8-9.08-7.75-19.19-5.5-28.47,2.45-10.09,11.26-18.68,22.44-21.9,9.11-2.62,17.82-1.09,24,4.17,15.2-50.14-2.83-74.38-11.33-82.5-8-7.65-18.42-12.34-28.49-16.87-4.56-2.06-9.26-4.17-13.72-6.55-46.53-24.78-70.4-85.49-53.22-135.32l.17-.47,1.89.65-.16.47c-16.88,48.95,6.56,108.56,52.26,132.9,4.39,2.35,9.07,4.45,13.59,6.49,10.23,4.6,20.81,9.37,29.06,17.25,10.24,9.78,16.1,23.3,17.43,40.18,1.38,17.58-2.52,34.64-6,45.86l-.49,1.56-1.17-1.14c-5.76-5.62-14.24-7.35-23.28-4.75-10.5,3-18.76,11-21,20.44-3.75,15.43,5.7,37,27.47,44.91,9.23,3.35,20,4.34,34,3.08,12.49-1.11,24.39-4.71,33.51-10.12,10.74-6.37,17.21-15.07,18.71-25.16,1.32-8.91-1.48-17.92-4.18-26.62-2.6-8.4-5.3-17.08-4.49-25.93s5-16.82,9.08-24.56c.54-1,1.06-2,1.58-3,21.94-42.45,27.48-88.36,15.21-126l-.15-.47,1.9-.63.16.48c12.43,38.12,6.84,84.6-15.34,127.52l-1.5,2.86-.09.17c-4,7.57-8.08,15.39-8.85,23.82s1.85,16.93,4.4,25.14c2.77,8.93,5.63,18.15,4.25,27.51-1.59,10.71-8.39,19.9-19.67,26.59-9.37,5.56-21.57,9.25-34.35,10.39C673.9,897.47,670.16,897.64,666.72,897.64Zm57-21.87a45.31,45.31,0,0,1-12.06,10.09c-9.25,5.49-21.3,9.13-33.93,10.26h0c12.63-1.13,24.68-4.77,33.93-10.26A45.31,45.31,0,0,0,723.74,875.77ZM633.37,827c-9.11,3.76-16.06,11.28-18.16,19.93a34.51,34.51,0,0,0,2.88,23.24c-3.62-7.79-4.61-16.15-2.88-23.24C617.3,838.25,624.26,830.73,633.37,827Zm97.79,30.21c-.06.93-.15,1.87-.29,2.8-.1.68-.23,1.36-.37,2,.14-.66.27-1.34.37-2C731,859.05,731.1,858.11,731.16,857.18Zm-70.42-26.9.46.44h0Zm62.42-28.41a36.39,36.39,0,0,0-.95,5.52A45.62,45.62,0,0,0,723.56,822a45.62,45.62,0,0,1-1.35-14.64A36.39,36.39,0,0,1,723.16,801.87Zm15.22-33.46q-2.6,5.93-5.62,11.76l-.85,1.63.85-1.63C734.77,776.28,736.65,772.35,738.38,768.41ZM650.3,745.92c4.76,4.62,12.26,14.06,15.6,29.87C663.47,763.62,658.24,753.61,650.3,745.92Zm-23.64-14.84c7.1,3.29,14.14,6.89,20.2,11.8C640.8,738,633.76,734.36,626.66,731.08Zm-18.84-8.85c2.85,1.51,5.8,2.91,8.74,4.27C613.61,725.14,610.67,723.73,607.82,722.23Zm-1.19-.65Zm-57-93.18c2.27,37.82,23.65,74.88,57,93.18C573.23,703.28,551.85,666.22,549.58,628.4Zm198.61,25.5a135.9,135.9,0,0,1,6.28,39.93,135.9,135.9,0,0,0-6.28-39.93ZM554.74,588.49c-.23.66-.44,1.32-.65,2,.21-.67.42-1.33.65-2Z"/><path class="cls-1" d="M554.9,588c-17,49.42,6.59,109.53,52.74,134.11,14.34,7.64,30.68,12.34,42.43,23.58,21.8,20.83,20.14,56.24,11.13,85-14.1-13.75-41.35-3-46,16.18s9.59,39.34,28.1,46.07c10.92,4,22.87,4.18,34.44,3.15,23-2.06,49.73-13.24,53.12-36.14,2.62-17.72-10.3-34.76-8.66-52.59.9-9.76,6-18.52,10.55-27.22C752.82,741.35,761.59,695,748,653.42"/><path class="cls-2" d="M666.72,897.14c-9.1,0-16.75-1.21-23.58-3.7a47,47,0,0,1-23-18.58c-5.72-9-7.65-18.93-5.43-28.08,2.41-9.92,11.08-18.37,22.09-21.54,9.27-2.66,18-1,24.15,4.57,15.68-50.88-2.6-75.5-11.23-83.74-8.06-7.71-18.53-12.42-28.64-17-4.55-2.05-9.25-4.16-13.69-6.53-46.32-24.67-70.08-85.11-53-134.72l.94.33c-17,49.17,6.6,109.06,52.5,133.51,4.41,2.35,9.1,4.46,13.63,6.5,10.19,4.58,20.73,9.33,28.92,17.15,10.14,9.7,16,23.1,17.27,39.86,1.38,17.5-2.51,34.49-6,45.67l-.24.78-.59-.57c-5.89-5.75-14.55-7.53-23.77-4.88C626.41,829.27,618,837.44,615.69,847c-3.79,15.64,5.75,37.48,27.79,45.5,9.3,3.38,20.17,4.37,34.23,3.11,12.56-1.12,24.53-4.74,33.72-10.19,10.87-6.45,17.43-15.27,18.94-25.52,1.34-9-1.47-18.08-4.19-26.84-2.59-8.35-5.27-17-4.47-25.73s5-16.68,9-24.37c.53-1,1.06-2,1.58-3,22-42.57,27.56-88.62,15.25-126.36l1-.31c12.39,38,6.81,84.33-15.31,127.13-.52,1-1.05,2-1.58,3-4,7.61-8.13,15.47-8.91,24s1.86,17.08,4.42,25.34c2.76,8.87,5.6,18,4.23,27.29-1.56,10.55-8.28,19.62-19.42,26.23-9.31,5.52-21.44,9.19-34.14,10.33C673.87,897,670.19,897.14,666.72,897.14Z"/><path class="cls-3" d="M104.47,91c-7.62-11-16.42-12-25.3-20.35,2.58,7,5.55,12.24,7.49,19.68.91,3.46,1,6.76,2.1,11.35,3.23,12.85,2.13,16-1.16,28.93,7.4-2.22,14-.13,22-1.56,4.53-.82,17.69-5.87,18.36-10.09C129,112,108.27,96.49,104.47,91Z"/><path class="cls-3" d="M296.34,87.22c3.73-13,2.2-23.2,12.06-33.58,6.63-7,9.35-7.47,14.59-14.32-1.12,7.91-2.37,12.09-4.2,20.37-1.33,6,1.15,13.49,4,20.48,2.67,6.59,9.08,20.17,7.5,27.24-2.4,10.82-8.73,16.32-13.15,25.67-.44.95-3.87,2.42-4.84,2.93s1.09-.32-.07-.65c-15-4.18-27.91-11-39.4-22.74a3.68,3.68,0,0,1,1.94-5.37,33.87,33.87,0,0,0,8.62-5.18C288.5,97.86,294.22,94.62,296.34,87.22Z"/><ellipse class="cls-4" cx="86.83" cy="282.61" rx="38.5" ry="49"/><ellipse class="cls-4" cx="206.33" cy="274.11" rx="41.5" ry="50"/><circle cx="205.83" cy="289.11" r="37"/><circle cx="86.83" cy="296.11" r="35"/><ellipse class="cls-4" cx="206.8" cy="277.74" rx="9.5" ry="12"/><ellipse class="cls-4" cx="190.3" cy="296.24" rx="5" ry="7.5"/><ellipse class="cls-4" cx="200.3" cy="303.74" rx="2" ry="3"/><ellipse class="cls-4" cx="90.8" cy="286.24" rx="7.5" ry="11.5"/><ellipse class="cls-4" cx="79.8" cy="304.74" rx="3.5" ry="6"/><circle class="cls-4" cx="89.8" cy="313.24" r="2.5"/><path class="cls-3" d="M247.07,383.27c3.39,35.34-45.25,47.32-75.13,49.16s-95.18-13.9-93.06-51.21,68.05-34.63,94.17-34.65S243.68,347.92,247.07,383.27Z"/><path d="M101.44,368.33c5.41-2.41,11-4.86,16.89-5.11s12.34,2.24,15,7.51c-3.32,5.18-11.64,5.69-14.23,11.27-.71,1.55-.92,3.38-2.06,4.64-2.33,2.56-6.73,1-9.1-1.55s-4-5.91-7.12-7.46c-2.19-1.09-5.13-1.33-6.23-3.52-1.36-2.71,1.58-5.78,4.54-6.44s6.15-.07,9-1.09"/><path d="M167.52,369.5l-.24-.44a423.15,423.15,0,0,1,49.66-23.37l.18.46A422.18,422.18,0,0,0,167.52,369.5Z"/><path d="M172.91,384.14l-.17-.47a234.49,234.49,0,0,1,53.2-12.62l.06.5A233.92,233.92,0,0,0,172.91,384.14Z"/><path d="M218.06,407.63a208.33,208.33,0,0,1-47.53-5.5l.11-.49a207.56,207.56,0,0,0,49.92,5.47v.5Z"/><path class="cls-5" d="M333.72,259.1h0c-3.58.67-6.32-.91-6.81-6-2.25-23.64-11.31-38.54-32.31-49.62-4.54-2.39-4.59-5.21-2.93-8.22h0c1.66-3,3.51-4.53,8.84-1.81,24.63,12.57,34.84,30.07,38.1,57.33C339.32,256.66,337.3,258.42,333.72,259.1Z"/><path class="cls-5" d="M124.93,87.56h0c1.75-1.63,2.74-2.71-.11-7.61C115,63,103.7,50.32,86.42,41.19c-5-2.64-4.74,0-5,2.73h0c-.31,2.71.26,5.1,5.11,7.68,16.72,8.9,23.29,18.16,32,34.56C121,90.9,123.18,89.18,124.93,87.56Z"/><path class="cls-5" d="M270.31,88.34h0c-2.91-.67-4.89-2.45-3.22-7.53C274.15,59.35,287,39.2,304.74,24.6c4.2-3.45,7.33-3,9-.31h0c1.72,2.71,1.1,6.33-2.71,9.34C295,46.32,284.33,64.36,277.76,83.3,276.2,87.78,273.22,89,270.31,88.34Z"/><path class="cls-5" d="M608.77,475.64c-44.84-37.43-76.63-56.59-137.43-49.25-6.46.78-8.07-1.53-8.59-6.77-1.06.2-.71.11,0,0-.52-5.23-.72-6.16,6.23-7,65.45-7.93,100.09,12.3,148.8,52.36,5.17,4.26,4.46,5.85,1.38,9.79.74.71.52.49,0,0C616.08,478.72,613.53,479.62,608.77,475.64Z"/><path class="cls-3" d="M647.22,445.24a40.45,40.45,0,0,1,50.13-27.94"/><path class="cls-3" d="M666.47,452.57c10.65-8.32,21.76-16.54,34.65-20.57a60.54,60.54,0,0,1,34.77-.34"/><path class="cls-3" d="M712.37,462.32c8.74-2.55,15.7-9,23.62-13.51a56.53,56.53,0,0,1,50.09-2.36"/><path class="cls-3" d="M742.26,477.88c7.63-1.73,14.38-6.05,21.53-9.22,24.51-10.9,54.79-7.51,76.29,8.53"/><path class="cls-3" d="M792.93,505l18-3.66c5.81-1.17,11.67-2.36,17.6-2.44,19.05-.26,36.28,10.7,51.66,21.95"/><path class="cls-3" d="M819.68,527.46c9.91,1.55,20-.16,30.05.26a71.32,71.32,0,0,1,49.56,23.41"/><path class="cls-3" d="M843.71,554.66c14.06,2.84,28.21,5.71,41.52,11s25.89,13.35,34.5,24.82"/><path class="cls-3" d="M860.38,581.07a165.71,165.71,0,0,1,72,35.87"/><path class="cls-3" d="M878.63,611.87c5.32,4.38,13,3.56,19.8,5,17.6,3.77,28.19,23.08,45.43,28.27"/><path class="cls-3" d="M895.79,643.23c5,3.38,11.72,2.63,17.42,4.66A29.44,29.44,0,0,1,922.7,654c6,5.32,11,11.59,17,16.92s13.14,9.81,21.11,10.4"/><path class="cls-3" d="M916.72,678.18A130,130,0,0,1,941,690.52c8,5.17,15.4,11.23,23.74,15.81s17.92,7.66,27.32,6.2"/><path class="cls-3" d="M955.05,721.37a226.41,226.41,0,0,0,47.74,17.38c8.67,2.09,18.27,3.55,26.11-.7"/><path class="cls-3" d="M973.79,747.55c11,6.21,23.87,8.81,36.53,8.7s25.19-2.82,37.24-6.72"/><path class="cls-3" d="M1008.58,762.42c-.39,1,.92,1.84,2,2.16,9.37,2.92,18.82,5.86,28.6,6.75s20-.43,28.41-5.51"/><path class="cls-3" d="M1020.47,776.25c11.48,6.19,25.45,4.24,38.32,2.12,6.39-1.06,13.84-2.93,16.23-9"/><path class="cls-3" d="M702.15,504.67c8.33,1.43,15.9,5.62,23.28,9.73,9.72,5.43,19.7,11.06,26.66,19.75,10.52,13.15,12.47,31.42,9.88,48.06"/><path class="cls-3" d="M776.8,536.58c26,28.87,33.44,73.14,18.25,108.92"/><path class="cls-3" d="M814.33,593.74c10.09,13.22,9,31.6,6.84,48.1-1.86,14.18-4.62,29.22-14.41,39.65"/><path class="cls-3" d="M837.26,624c3.76,8.12,7.57,16.44,8.39,25.35a64.35,64.35,0,0,1-.08,10.48,169.81,169.81,0,0,1-16,60.56"/><path class="cls-3" d="M860.83,654.59c5.14,7.3,7,16.49,6.92,25.42s-2.08,17.72-4,26.43l-5.32,23.64c-.81,3.63-1.86,7.6-4.93,9.69"/><path class="cls-3" d="M882.8,685.85c3.56,17.06,7.14,34.49,5.08,51.8-.82,6.94-2.55,13.81-2.53,20.8s2.13,14.43,7.56,18.83"/><path class="cls-3" d="M905.71,705.41a63.42,63.42,0,0,1,11.7,37c-.06,8.94-2,17.87-1,26.75a41.16,41.16,0,0,0,14.55,27"/><path class="cls-3" d="M936.39,733.42c-.42,9,4.94,17.3,5.65,26.27s-3.37,18.45-.67,27.15c2.28,7.34,8.89,12.44,15.53,16.31"/><path class="cls-3" d="M960.41,748.65c5.23,7.91,10.52,15.94,13.51,24.94,1.72,5.2,2.7,10.78,5.75,15.33,4.12,6.15,11.29,9.38,18.09,12.31"/><path class="cls-3" d="M990.31,767.11c.53,15.33,11.54,29.74,26.19,34.28"/><path class="cls-3" d="M1004.23,769.19c3.55,5.84,7.14,11.73,11.93,16.6s10.94,8.71,17.73,9.42"/><path class="cls-3" d="M757.12,515.16c12.54,9.53,20.39,24.43,23.18,39.94s.82,31.58-3.6,46.7"/><path class="cls-3" d="M777.83,492.57c4.23-4.2,10-6.36,15.74-8.1,16.86-5.14,35.93-7.41,51.47.9,5.37,2.87,10.27,7,16.24,8.16"/><path class="cls-3" d="M684.86,474.78A62.34,62.34,0,0,1,692,462.45a26.63,26.63,0,0,1,7.31-7.16c6.67-4.06,15.35-3.16,22.36-6.61"/><path class="cls-3" d="M695.18,481.15c2.46,2.13,6.14,1.57,9.39,1.49,12.41-.29,23.25,8.19,31.77,17.21,4,4.29,8,9.18,8.66,15"/><path class="cls-3" d="M686,468.58c1-4.76,2.07-9.65,4.69-13.76,3.22-5.05,8.55-8.48,14.19-10.5s11.65-2.77,17.6-3.51"/><path class="cls-3" d="M742.81,478.2c3.51-8.8,11.56-15.17,20.32-18.78s18.29-4.81,27.69-6"/><path class="cls-3" d="M705.35,458.39a48.13,48.13,0,0,1,41.47-20.59"/><path class="cls-3" d="M698.3,494.33c5.59,1.41,11.64-2,17.14-.31,2.54.8,4.61,2.62,6.6,4.39,5.24,4.65,10.58,9.43,14,15.58"/><path class="cls-3" d="M708.4,472.06l16.69-1.47c6.2-.55,12.9-1.3,17.47-5.53"/><path class="cls-3" d="M732.72,482.7a27.69,27.69,0,0,0,15.14,5.18c3.29.12,6.62-.35,9.85.27,7.87,1.52,13,8.91,17.29,15.7"/><path class="cls-3" d="M750,501.85c6.6,1,12.4,5.13,16.74,10.2s7.41,11.09,10.44,17"/><path class="cls-3" d="M781.2,508.79c6.11-2.06,13-.47,18.56,2.76s10.12,8,14.58,12.62"/><path class="cls-3" d="M794.74,524.09c-1.63,4.3-3.21,8.73-3.26,13.34s1.72,9.47,5.56,12"/><path class="cls-3" d="M811,550.9c3.83,4.2,3.38,10.6,3.16,16.29a103.57,103.57,0,0,0,2.31,26"/><path class="cls-3" d="M828.35,540.83a31.08,31.08,0,0,1,27.8,20.34"/><path class="cls-3" d="M822.86,521.59a103.54,103.54,0,0,1,30.68,3.77"/><path class="cls-3" d="M840.82,566.17c5.49,1.26,10,5.28,13.11,10s4.91,10.11,6.71,15.44l2.57,7.63"/><path class="cls-3" d="M838.32,580.7l4.62,15.9c1.59,5.47,3.27,11.11,6.95,15.46,4.12,4.87,10.47,7.74,13.69,13.25"/><path class="cls-3" d="M826.49,582.23a89.33,89.33,0,0,0,14.36,36.82"/><path class="cls-3" d="M861.94,601.46c7.55-1.92,15,3.64,19.6,9.95a49.12,49.12,0,0,1,8.35,19.27"/><path class="cls-3" d="M868.54,613.28a18.43,18.43,0,0,1,5.73,10.42,66.51,66.51,0,0,1,.46,8.36c.47,9.69,4.4,18.84,8.26,27.74"/><path class="cls-3" d="M852.19,624.51a42.85,42.85,0,0,0,10.43,28.39"/><path class="cls-3" d="M869.61,658.69c4,2.35,6.47,6.85,7.4,11.43s.56,9.32.18,14q-.8,9.81-1.58,19.61"/><path class="cls-3" d="M886.75,638.73c5.89,5.84,9,14,10.26,22.2s.69,16.56.14,24.84"/><path class="cls-3" d="M906.56,659.91a53,53,0,0,0,32.34,17.52"/><path class="cls-3" d="M896.31,636.69a223.7,223.7,0,0,0,32.44,13.4"/><path class="cls-3" d="M887.08,605.28a49.8,49.8,0,0,1,32.76,18.59"/><path class="cls-3" d="M855.26,548.17a24.78,24.78,0,0,0,15.49,4.2c2.21-.14,4.42-.59,6.61-.27a19.28,19.28,0,0,1,5.5,2l9.67,4.73"/><path class="cls-3" d="M851.2,524.35c-.73,1.58,1.84,2.49,3.57,2.34l11.21-1"/><path class="cls-3" d="M911.23,680.61c4.7,1.08,8.53,4.58,11.27,8.54s4.6,8.47,6.86,12.73a74.28,74.28,0,0,0,8.52,12.69c2.82,3.38,7,6.79,11.13,5.44"/><path class="cls-3" d="M906,689.53c.55,5-2.06,9.68-4.15,14.23a74,74,0,0,0-4.73,13.65c-.66,2.7-.77,6.29,1.75,7.47"/><path class="cls-3" d="M912.14,696.67c6.1,4.27,9.27,11.66,10.71,19s1.46,14.82,2.82,22.14c.49,2.68,1.35,5.58,3.65,7"/><path class="cls-3" d="M941.59,724.86c1.48,8.6,8.25,15.55,9.93,24.11.9,4.62,1.08,10.64,5.52,12.16"/><path class="cls-3" d="M955.29,741.3a33.43,33.43,0,0,0,23.76-.22"/><path class="cls-3" d="M941,699.68c1.63,4.9,5.78,8.64,10.43,10.88s9.82,3.13,14.93,3.87"/><path class="cls-3" d="M959.05,760.06c5,3.78,4.35,11.31,3.32,17.48s-1.39,13.8,3.81,17.26"/><path class="cls-3" d="M975.87,757c2.08,3.85,6.17,6.29,10.41,7.36s8.67,1,13.05.83"/><path class="cls-3" d="M878.89,712.24c-1.5,7.06-4.9,13.61-6.46,20.66S871.59,748.24,877,753"/><path class="cls-3" d="M903.57,730.29a67.23,67.23,0,0,0,1.51,43.92"/><path class="cls-3" d="M929.53,747.55a49.89,49.89,0,0,0,3.74,24.32"/><path class="cls-3" d="M936.54,681.43l18,2.78"/><path class="cls-3" d="M881.66,579a29.89,29.89,0,0,1,17,8.89"/><path class="cls-3" d="M639,443.78a22.2,22.2,0,0,1,2.69-25.55"/><path class="cls-3" d="M672.36,440.31A36.14,36.14,0,0,1,696,426.64"/><path class="cls-3" d="M812.62,538.55c15.49,3.39,27.22,19.21,26,35"/><path class="cls-6" d="M952.89,727.83c2,4.06,4,8.19,7,11.5s7.43,5.71,11.93,5.37"/><path class="cls-7" d="M953.61,743.71c3.53,5.43,3.53,12.73,7.64,17.74,3.63,4.42,9.6,6,15.17,7.35"/><path class="cls-7" d="M976.05,747.43a28.66,28.66,0,0,0,25.49,19.78"/><path class="cls-7" d="M977,736a31.86,31.86,0,0,0,26.08,9.08"/><path class="cls-7" d="M1000.05,755.15c4,3.3,6.08,8.35,8.86,12.75s7.13,8.61,12.33,8.3"/><path class="cls-7" d="M941.47,724.22A20.19,20.19,0,0,0,952.3,755"/><path class="cls-7" d="M929.52,740c-1.93,6.58-3.87,13.63-1.82,20.18a17.81,17.81,0,0,0,12.19,11.69"/><path class="cls-7" d="M950.27,761.79a17.71,17.71,0,0,0,1.71,14.8c2.66,4.3,7,7.21,11.23,10"/><path class="cls-7" d="M983.35,770.89c-.13,4.24-.25,8.57,1.09,12.58s4.47,7.71,8.63,8.5"/><path class="cls-7" d="M1018.61,764.25c10.1-1,21.54-2.69,27.23-11.09"/><path class="cls-7" d="M976.84,723.33c2.73,4.56,8.4,6.71,13.71,6.62s10.41-2.06,15.33-4.09"/><path class="cls-7" d="M963.18,719.28c8.41,6.22,21.22,5.52,28.9-1.58"/><path class="cls-7" d="M919,740.93a16.92,16.92,0,0,0,9.59,27.24"/><path class="cls-7" d="M1041.11,772.8a22.65,22.65,0,0,0,23.78,12.39"/><path class="cls-8" d="M122.06,345.83c5.75-.39,10.54-4.95,12.89-10.21s2.73-11.15,3.07-16.9l1.21-20.37"/><path class="cls-5" d="M528.42,683.47C467,650.2,387.17,653.88,334.61,607.84c-20.7-18.12-35-42.32-48.35-66.35S259.75,492.82,240.67,473s-45.41-34.5-72.87-33c-8.56.48-17.59,2.85-23.27,9.28-12.53,14.19-1.64,35.8,1,54.55,2.91,20.89-5.59,41.78-5.13,62.87.48,22.48,11,43.36,21.43,63.29,23,44.05,48.82,90,92,114.66,9.52,5.44,18.13,15.39,29,15.5,8.14.08,17.55-.91,25.14,1.89,13.47,5,25,5,38.34,10.1,24.19,9.24,47.85,13.37,79.66,8.9,11.7-1.65,21.52-7.23,33.11-9.58,14.75-3,27.38-12.67,42-16.44,33-8.55,84.63,25.5,112.64,3.11C594.31,728.83,559.18,700.13,528.42,683.47Z"/><path class="cls-1" d="M239.45,664c5.63,21.45,24.69,36.1,38.83,53.18,18.19,22,20.86,54.93,22.15,83.43.34,7.65,1.47,15.34-6,17-27,6-25.27,3.37-38,16-11.68,11.58-7.33,40.78,4.83,51.84s29.69,14,46.13,13.82c16.23-.13,34.07-3.65,44-16.48,10.11-13,8.86-31.44,5.56-47.61-5.32-26.09-4.65-53.6-10.53-79.57s-18.18-51.28-9.46-76.44c6.93-20,20.45-37.32,26.89-57.5a89.32,89.32,0,0,0-9.74-74.25c-6.69-10.43-21.16-9.87-33.44-8.26s-23.55,7.51-34.3,13.68c-6.48,3.72-12.94,7.62-18.37,12.75s-9.68,11.37-13.52,17.77C237.86,611.11,231.24,632.67,239.45,664Z"/><path class="cls-2" d="M306.37,899.76c-20,0-35.25-4.7-45.45-14-6.81-6.2-11.57-18.54-11.83-30.7-.2-9.43,2.28-17.2,7-21.87,10.49-10.39,11.37-10.57,26-13.54,3.25-.66,7.3-1.48,12.28-2.59,6.41-1.42,6.08-7.49,5.71-14.51,0-.66-.07-1.32-.1-2-1.31-28.92-4.2-61.57-22-83.13-3.76-4.54-7.95-9-12-13.3C254.7,692.27,243.12,680,239,664.1c-8.51-32.46-.91-54.29,15.1-81,3.23-5.39,7.69-12.29,13.6-17.88,5.51-5.21,12.15-9.19,18.47-12.82,10.55-6.06,21.9-12.11,34.48-13.75,13-1.7,27.2-2,33.93,8.49a89.51,89.51,0,0,1,9.8,74.67c-3.35,10.49-8.68,20.35-13.83,29.89-4.79,8.85-9.74,18-13.07,27.62-6.58,19-1.19,37.75,4.51,57.6,1.75,6.07,3.55,12.34,5,18.57,3.08,13.6,4.39,27.83,5.66,41.6,1.15,12.56,2.35,25.55,4.88,38,2.83,13.84,5.31,33.87-5.65,48-8.45,10.89-23.38,16.5-44.4,16.67ZM239.93,663.85c4.1,15.61,15.58,27.82,26.69,39.64,4.06,4.32,8.26,8.78,12.05,13.36,18,21.79,20.94,54.64,22.25,83.72,0,.65.07,1.31.11,2,.36,6.85.75,13.94-6.5,15.55-5,1.11-9,1.93-12.29,2.59-14.61,3-15.18,3.09-25.46,13.28-4.51,4.47-6.89,12-6.69,21.13.26,11.9,4.88,23.95,11.51,30,10.17,9.24,25.58,13.84,45.79,13.69a81.19,81.19,0,0,0,24.21-3.45c8.38-2.71,14.91-7,19.41-12.83,10.71-13.82,8.25-33.56,5.46-47.21-2.54-12.49-3.74-25.5-4.9-38.09-1.26-13.73-2.57-27.94-5.63-41.47-1.41-6.2-3.21-12.46-4.95-18.51-5.75-20-11.18-38.92-4.5-58.2,3.36-9.7,8.33-18.89,13.14-27.78,5.13-9.49,10.43-19.31,13.75-29.72a88.46,88.46,0,0,0-9.68-73.82c-6.43-10-20.27-9.7-33-8-12.4,1.62-23.65,7.62-34.11,13.62-6.27,3.6-12.85,7.55-18.28,12.69-5.82,5.5-10.24,12.33-13.43,17.66C239.05,610.1,231.51,631.72,239.93,663.85Z"/><path class="cls-5" d="M156.93,363.36c-10.06-6.64-20.18-5.28-33.55-5.63-4.38-.12-6.59-.9-7.72-2.91h0c-1.12-2,.83-2.28,5.64-2.18,14.73.29,26.12-.42,38.54,6.4,4.06,2.23,3.94,3,2.88,4.35h0C161.66,364.77,160.22,365.53,156.93,363.36Z"/><path class="cls-5" d="M70.59,204.76c.27-.28.21-.32,0,0,2.4-6.71,9-11.59,10.62-16,6-16.75,6.81-14.8,20.31-23.41a6.47,6.47,0,0,0,2-9.51c.55-.24.37-.18,0,0-2.23-3.23-2.64-6.66-7.63-2.08C77.05,171,66.08,172.6,63.32,203.9,62.59,212.19,68.19,211.47,70.59,204.76Z"/><path class="cls-5" d="M325.91,553h0c-2.2-1.42-9.27,0-14.54,1.94-20.34,7.31-27.31,21-37.31,34.83-2.59,3.57-2,5.53.62,5.84h0c2.63.3,3.58,2.26,7.61-3.29,15.54-21.41,22.89-18.54,44.38-33C332.23,555.58,328.12,554.42,325.91,553Z"/><path class="cls-5" d="M628.84,694.34h0c-2.34,3.78-4.21,6.45-11.71,3.29-30.27-12.74-42.57-25.43-46.68-58.16-1-8.12,1.32-8.33,5.61-9.53h0c4.28-1.2,8.35-.35,9.12,6.34,3.13,27,14.36,38.3,40.08,46.87C631.63,685.27,631.17,690.56,628.84,694.34Z"/><path class="cls-1" d="M177.56,793.38a10.86,10.86,0,0,1-2.48,5.17c-2.13,2.08-5.44,2.13-8.39,2.49-20.7,2.51-33.47,26-31.92,46.76.39,5.3,1.55,10.74,4.71,15s7.85,6.92,12.67,9c18.07,7.72,38.36,7.9,58,7.67,7.25-.09,15.56-.72,19.93-6.5,2.65-3.5,3.17-8.12,3.43-12.5,2.49-43.15-12.62-85.65-12.06-128.87,0-2.57.09-5.28-1.15-7.54a14.45,14.45,0,0,0-4.22-4.24c-14.73-11.17-29.53-25-45.6-33.87-3.85,11.46,9.48,36.27,11.08,49.64A153.83,153.83,0,0,1,177.56,793.38Z"/><path class="cls-9" d="M111.73,327.14c-.59,2-5.32,5.93-6,7.48-2.18,5-6.48,17.34-13.69,11.24-5.27-4.45-6.52-10.68-14.52-12.14-6.83-1.25-15-2.82-16.09-8.17-1.31-6.54,7.69.69,13.85,1.41,3.62.41,15,1.48,20.12.46C102,326.1,114.74,316.67,111.73,327.14Z"/><path class="cls-9" d="M228.71,317c-1.58,2.52-1.62,7.52-6.58,8.69-5.67,1.34-5.2,6.31-11.38,6.32-7.66,0-2.92,5.72-5.57,7.6-5.62,4-16.25-10.41-20.05-11.94-5.23-2.11-6.07-11.95-2-10.23,9.11,3.85,18.36,5.15,26,4.15C216.31,320.62,232.89,310.32,228.71,317Z"/><path class="cls-10" d="M97.65,338.34c.78-.86.72-2.41,3.09-3.57s4.08-1.4,3.07-.07-.22,3.78-3.27,5.33S96.86,339.21,97.65,338.34Z"/><path class="cls-10" d="M204.19,331.62c-3.21.69-2.51,5-1.4,5s-5.16-6-1.36-6.81,6-3,7.15-1.94S207.4,330.92,204.19,331.62Z"/><path class="cls-9" d="M90.09,358.82c-.15,2,.23,8.86-3.13,7.87s.24-6.21-1.06-8.09-3.45-4.94.67-5.33S90.24,356.8,90.09,358.82Z"/><path class="cls-9" d="M226.48,361.69c1,1.43-1.44,7.1-4,6s1.55-3.82,0-5.43-1.57-5.65,1.54-5.64S225.5,360.25,226.48,361.69Z"/><path class="cls-9" d="M219.53,343.65c-1.32,2,4.06,3.44,2.39,5.65s-8.3-2.34-7.08-4.65-.91-5.59,2-7.14S220.85,341.68,219.53,343.65Z"/><path class="cls-9" d="M81.3,374.28c-1,1.32,1.74,1.91.85,4s-4.86.44-4.71-1.35-.25-6,3.52-5.81C83,371.25,82.25,373,81.3,374.28Z"/><path d="M110.67,415.42c3.62-7.64,10.52-8.06,19.9-8.45s24.29.76,29.71,11.25c-4.52-16.37-17.3-30.38-35.33-28.55S108.91,402.61,110.67,415.42Z"/></g></svg>