<svg id="Layer_1" data-name="Layer 1" xmlns="http://www.w3.org/2000/svg" width="585" height="557" viewBox="0 0 585 557"><defs><style>.cls-1{fill:#d98f9d;}.cls-2{fill:#e8bcc4;}.cls-3,.cls-4{fill:#fff;}.cls-4{stroke:#fff;}.cls-4,.cls-5{stroke-miterlimit:10;}.cls-5{fill:none;stroke:#000;}.cls-6{fill:#f0d2d8;}.cls-7{fill:#29abe2;}.cls-8{fill:#7fcdee;}</style></defs><path class="cls-1" d="M72.29,485.86a42.62,42.62,0,0,1-5.87-.43,51.47,51.47,0,0,1-17.33-5.74,48.35,48.35,0,0,1-22.1-3.8c-11.41-5-20.06-14.82-23.15-26.19l7.72-2.1c2.46,9.06,9.43,16.9,18.66,21a37.19,37.19,0,0,0,7.07,2.28c-7-7.39-11.84-18.83-6.67-28.35,3.69-6.8,12-11,22.16-11.33,5-.15,9.08.61,12.45,2.31,8.7,4.39,12,14.54,12.11,22.57.11,6.12-1.33,11-4.29,14.6a21.45,21.45,0,0,1-9.4,6.13c1.28.3,2.58.55,3.88.73,4.27.6,12.26.92,17.84-3.66,4.88-4,6.91-10.79,8.89-18.58l7.76,2c-1.8,7.09-4.27,16.79-11.57,22.8C85.8,483.85,79.49,485.86,72.29,485.86ZM54,439.15H53c-2.74.08-11.93.83-15.36,7.16s.82,14.86,6.69,20.24a42.56,42.56,0,0,0,6.59,5,45.81,45.81,0,0,0,8.36-1.72c3.73-1.15,6.14-2.5,7.6-4.26,1.7-2.05,2.52-5.19,2.45-9.34-.1-5.44-2.19-12.78-7.72-15.58A16.82,16.82,0,0,0,54,439.15Z"/><path class="cls-2" d="M402.5,246.63C453.38,280.83,458,335,453.72,391.26c1.91,46.26-1.33,92.53,5.68,138.46,1.37,8.95-6.29,11-13.8,12a31.92,31.92,0,0,1-9.6-.33c-7.54-2.13-12.33-3.85-12.62-12.58-.59-17.74.78-36.38-.11-54.3-1.55,2.36-3,5.26-4.78,7.49-9.64,12.36-19.46,24.38-31.94,33.8-13,9.81-27.25,15.51-42.11,21.64a16.69,16.69,0,0,1,1.1,1.45,161.91,161.91,0,0,1-43.11,15.24c-3.7-3.11-6.33-7-10.64-9.42-13.48-7.68-25.61-13.81-41.55-15.89a182,182,0,0,0-63.19,2.65c-69.58-23.31-108.69-54-94.83-134.51,18.85-109.45,96-140.89,194.83-162,8.95-1.91,4.15-4.74,11.77-6.1-17-20-18.21-39.15-18.65-65.35-.3-18.5,8.59-38.75,16.48-56.41-9-6.27-11.75-20.89-12.11-29.14-.47-10.71-13.86,3-21.38.19-1.22-.46-12.85-1.57-8.88-7.52,8.84-13.26,25.7-23.09,42.62-29.51,21.82-8.27,44.19-10.66,52.33,16.55,7-2.2,13.09-5.44,20.41-6.18,12.75-1.27,24,1.4,36.08,5,.11-3.25-1.7-3.84-.06-7.45C416.24,26,432.31,23.37,455.3,31.19c5,1.69,15.9-2.48,16.2,4.84.41,10.07-10.23,7.49-16.61,8.7-10.27,2-4.91,9.36-2.82,15.91.95,3,1.91,5.79,1.08,8.82-1.55,5.65-5,8.25-8.93,12.17,15.53,23.86,29.07,46.08,28,75.5C470.3,212.59,459.64,236.16,402.5,246.63Z"/><path d="M332.06,138.54a7,7,0,0,1-4.05-1.28,13.42,13.42,0,0,1-1.9-1.78,4.89,4.89,0,0,1-1.74-3.34l1,0a4.12,4.12,0,0,0,1.47,2.63,11.85,11.85,0,0,0,1.75,1.65,6,6,0,0,0,5.56.71l.36.93A6.82,6.82,0,0,1,332.06,138.54Z"/><path d="M333.57,132.36A8.47,8.47,0,0,1,331,132a8.8,8.8,0,0,1-5.54-5.37l.95-.33A7.62,7.62,0,0,0,338.06,130l.58.81A8.74,8.74,0,0,1,333.57,132.36Z"/><path d="M464.24,139.93a7.55,7.55,0,0,1-3.61-.9l.48-.87a6.78,6.78,0,0,0,7.13-.52l.6.79A7.67,7.67,0,0,1,464.24,139.93Z"/><path d="M463.34,133.88a5,5,0,0,1-3-1l.3-.4a4.71,4.71,0,0,0,5.65-.14l.32.38A5.1,5.1,0,0,1,463.34,133.88Z"/><path class="cls-1" d="M446.53,195.39c8.68,15.83-9.53,34.43-25.94,36.85S381.44,230,379.25,212s12-28.17,27.37-32.66S437.84,179.56,446.53,195.39Z"/><ellipse class="cls-3" cx="442.33" cy="145.3" rx="20.5" ry="26"/><ellipse class="cls-3" cx="360.58" cy="145.05" rx="26.25" ry="30.75"/><circle cx="361.83" cy="152.3" r="24"/><circle cx="442.33" cy="150.8" r="20.5"/><ellipse class="cls-3" cx="360.97" cy="152.91" rx="6" ry="10"/><ellipse class="cls-3" cx="437.47" cy="149.41" rx="4.5" ry="7.5"/><circle class="cls-4" cx="374.97" cy="153.91" r="3.5"/><circle class="cls-3" cx="449.08" cy="152.05" r="2.75"/><ellipse class="cls-3" cx="371.47" cy="140.91" rx="2.5" ry="4"/><ellipse class="cls-3" cx="445.97" cy="140.91" rx="2" ry="3"/><circle cx="402.83" cy="197.3" r="5.5"/><circle cx="431.83" cy="195.3" r="4.5"/><path class="cls-1" d="M310,82.35a11.45,11.45,0,0,1-3.33-4.51c-1.21-4,1.82-7.37-2.47-9.44-1.75-.84-4.1-.68-6.45-1.79a6.41,6.41,0,0,1-3.47-7c8.53-1.82,16.46-4.43,25-1.77,6.31,2,11,5.67,12.77,11.87"/><path class="cls-1" d="M422.62,60.42c-.18-5.63,1.94-10.75,7-14s10.52-3.15,16.31-2.48c-1.87,2.51-5.41,5-6.45,7.73-1.39,3.72,1,6.18,0,10.1a61.05,61.05,0,0,1-3.45,9.15"/><path class="cls-1" d="M289.86,546.55A256.85,256.85,0,0,1,259,544.64c-25.53-3.06-50.81-7.1-73.8-13.44,18.94-5.77,43.58-4.12,63.14-1.32C263.22,532,277.83,537.57,289.86,546.55Z"/><path class="cls-1" d="M417.81,483.38c-.45,13.59-1.42,28.61.3,41.69,1.06,8-2.6,11.17-9.56,13.57a52.71,52.71,0,0,1-9.93,1.6c-8.58.51-16.12-2-15.16-11.76.33-3.3,1.83-7.56,2.25-11,13-9.48,22.94-21.82,32.05-34.9C417.76,482.84,417.82,483.05,417.81,483.38Z"/><path class="cls-5" d="M185.17,531.2l-.34.1"/><path class="cls-1" d="M342.71,539.4c-4.49-5.5-11.09-9-17.47-12.38a112,112,0,0,1-9.92-5.69c-20.91-14-29-39.7-35.52-64.84-6.09-23.53-13-50.2-33.1-65.69-19-14.63-48-16.65-77.56-5.43l-.35-.93c29.91-11.35,59.27-9.27,78.52,5.57,20.37,15.7,27.32,42.54,33.46,66.23,6.46,25,14.49,50.47,35.11,64.26,3.1,2.07,6.52,3.88,9.82,5.64,6.48,3.42,13.17,7,17.78,12.63Z"/><path class="cls-1" d="M423.47,476.18c-4.93-5.92-7.91-13.9-9.09-24.41-.51-4.58-.67-9.25-.82-13.78-.14-4-.27-8.22-.67-12.3-.95-9.78-3.4-19.48-5.78-28.86l1-.25c2.38,9.42,4.85,19.16,5.81,29,.39,4.12.53,8.31.67,12.37.15,4.5.3,9.16.82,13.7,1.16,10.3,4.05,18.11,8.85,23.88Z"/><path class="cls-6" d="M128.25,364.63c3.3-16.67,16.59-30.08,32.21-36.69a4.81,4.81,0,0,0,3.08-5.47,37.19,37.19,0,0,0-.54-3.68c-.64-2.81-3-3.65-6.11-2.24-20.14,9.18-35.16,23.43-40.32,45.05-.79,3.3,1.05,3.69,3.17,4.77a14.91,14.91,0,0,0,3.58.81C125.44,367.44,127.75,367.17,128.25,364.63Z"/><path class="cls-6" d="M317.44,113.31c4.74-11.74,11.39-18.62,23.33-23.06,1.83-.67,2.15-1.74,2.54-3.43a5.53,5.53,0,0,0,.17-2.45c-.53-1.67-1-3-3.3-2.17-15.35,5.3-24.71,14.91-30.44,30.05-.87,2.31.3,2.66,1.9,3.49a4.51,4.51,0,0,0,2.28.14A3.66,3.66,0,0,0,317.44,113.31Z"/><path class="cls-6" d="M206.11,408.26c10.73-3.94,22,.77,29.88,9.82,1.2,1.38,2.59,1.39,4,.19.57-.48,1.45-1.19,2-1.81,1.51-1.56,1.4-3.65-.2-5.39C231.36,399.66,219.12,394,205,398.44c-2.16.68-1.93,2.2-2,4.18a14.57,14.57,0,0,0,.42,3C203.73,407.25,204.47,408.86,206.11,408.26Z"/><path class="cls-6" d="M300.12,50.12h0c.42-2.7-3.35-3.65-6.87-3.65-7.59,0-12.61,5.7-17.13,10.73-2.09,2.34-1.59,3.82-.39,5.41h0c1.21,1.59,3.24,2.83,5.12,1.1,4.07-3.73,6.88-10.21,13.35-10.65C297.21,52.85,299.7,52.81,300.12,50.12Z"/><path class="cls-6" d="M435.57,32.22h0c.33-1.73-2.1-2.38-4.39-2.42-4.92-.07-8.31,3.57-11.35,6.78-1.41,1.49-1.12,2.45-.37,3.49h0c.74,1,2,1.86,3.3.76,2.72-2.37,4.69-6.53,8.9-6.76C433.61,34,435.23,34,435.57,32.22Z"/><path class="cls-2" d="M386.57,198.84h0c-1-.28-1.43-.78-.4-2.17,3.36-4.56,6.93-8.43,13.29-11.31,1.94-.88,3.25-.77,4-.12h0c.7.65.84,1.62-1.14,2.39-6.49,2.53-8.87,5.59-12.21,10A3.24,3.24,0,0,1,386.57,198.84Z"/><path class="cls-6" d="M438.43,339h0c-1.39-.07-2.5.07-2.58-2.7-.64-21.62.37-28.89-19.12-38.43-2.5-1.22-.48-2.61.46-3.53h0c.93-.92,2.9-1.31,5.19-.05,17.91,9.85,18,22.94,18.44,42.18C440.88,339,439.82,339.08,438.43,339Z"/><ellipse class="cls-2" cx="360.13" cy="115.65" rx="34.49" ry="11.93" transform="translate(-14.41 62.86) rotate(-9.78)"/><ellipse class="cls-2" cx="438.97" cy="117.35" rx="10.03" ry="25.39" transform="translate(190.79 497.97) rotate(-71.86)"/><ellipse class="cls-3" cx="359.48" cy="131.42" rx="19.12" ry="3.79" transform="matrix(0.99, -0.17, 0.17, 0.99, -17.1, 62.97)"/><ellipse class="cls-3" cx="443.44" cy="131.96" rx="2.74" ry="16.39" transform="translate(223 538.73) rotate(-78.12)"/><path class="cls-7" d="M379.19,173.1c-.4,1.9-3.64,5.5-4.11,6.94-1.49,4.61-4.43,16.08-9.37,10.43-3.61-4.13-4.47-9.91-9.94-11.27-4.68-1.15-10.29-2.61-11-7.57-.9-6.07,5.26.64,9.48,1.3,2.48.39,10.24,1.38,13.78.43C372.55,172.14,381.25,163.39,379.19,173.1Z"/><path class="cls-7" d="M459.3,163.66c-1.08,2.34-1.11,7-4.5,8.06-3.89,1.24-3.57,5.86-7.79,5.87-5.25,0-2,5.29-3.82,7-3.85,3.72-11.13-9.65-13.73-11.07-3.58-2-4.16-11.09-1.37-9.49,6.24,3.57,12.58,4.78,17.81,3.85C450.81,167.05,462.16,157.5,459.3,163.66Z"/><path class="cls-8" d="M369.55,183.49c.53-.8.49-2.24,2.12-3.31s2.79-1.3,2.1-.07-.15,3.51-2.24,4.95S369,184.3,369.55,183.49Z"/><path class="cls-8" d="M442.51,177.25c-2.2.65-1.72,4.69-1,4.65s-3.54-5.56-.93-6.31,4.13-2.82,4.89-1.8S444.71,176.61,442.51,177.25Z"/><path class="cls-7" d="M364.37,202.48c-.1,1.87.16,8.22-2.14,7.3s.16-5.76-.72-7.5-2.37-4.59.45-4.95S364.48,200.61,364.37,202.48Z"/><path class="cls-7" d="M457.77,205.14c.67,1.33-1,6.59-2.72,5.56s1.06-3.54,0-5-1.08-5.23,1.05-5.23S457.1,203.81,457.77,205.14Z"/><path class="cls-7" d="M453,188.42c-.91,1.83,2.77,3.19,1.63,5.23s-5.68-2.17-4.85-4.31-.62-5.18,1.37-6.62S453.92,186.59,453,188.42Z"/><path class="cls-7" d="M358.35,216.82c-.65,1.23,1.2,1.77.58,3.73s-3.32.41-3.22-1.25-.17-5.58,2.41-5.39C359.51,214,359,215.59,358.35,216.82Z"/><path d="M434.84,215.64c-.84,5.87-15.13,5.92-19.87,2.4s-11.59,5.69-14.22.67,9.5-11.41,12.2-10.59S435.68,209.78,434.84,215.64Z"/></svg>