<svg xmlns="http://www.w3.org/2000/svg" width="800" height="900" viewBox="0 0 800 900"><defs><style>.cls-1{fill:#ffece9;}.cls-2{fill:#fff;}.cls-3,.cls-5{stroke:#000;stroke-miterlimit:10;}.cls-4{fill:#ff95bd;}.cls-5,.cls-8{fill:none;}.cls-6{fill:#ccc;}.cls-7{fill:#ffd5e5;}.cls-9{fill:#29abe2;}.cls-10{fill:#7fcdee;}</style></defs><g id="Layer_3" data-name="Layer 3"><path class="cls-1" d="M792.49,648.56c-5.71,1.26-10.32-1-14.6-4.57a376.47,376.47,0,0,1-30-27.93,66.53,66.53,0,0,0,3,12.29q-6.75-7.76-13.39-15.59c2.83,15.7,9.48,27.16,20.3,38.75a251.22,251.22,0,0,1-34.89-33.11,108.51,108.51,0,0,0,22.28,40.68c-4.38-4.18-8.87-7.84-12.72-12.62a77.44,77.44,0,0,1-15.95-33c2.41,24.08,10.51,41.66,27.31,59.1-17.41-8.23-28.08-19.09-36.24-36.52-.41-5-.7-10-.89-15.06-1.2,4.33-.84,8.25.16,12.58.19.87.61,1.62.73,2.48a92.41,92.41,0,0,0,4,17.23c-4.92-13.33-7.92-26.15-7.1-40.38.42-7.35,3.11-14.12,3.69-21.4.79-10,.81-19.54-1.14-29.45C702.19,537.8,694,516,682.54,493.76c-1.16-2.26-4.17-6.24-5.55-8.77,4.71,29.74,7,59.11,5,89.27-1.6,24.46-6.66,48-12.59,71.71-.53,73.35-19.91,146.15-7.1,219.34,1.7,9.76-1.49,11.75-11.61,14.4-15.33,4-36.57,5.47-52.9,6.53-6.23.41-7.82-1-12.39-4.12a17.72,17.72,0,0,0,2.8-.75c9-4.87,9.42-8.58,4.91-18a79.56,79.56,0,0,1-6.28-18.23c3.85-32.41,7.92-64.71,11.51-97.13q-4.82,3.42-9.77,6.62c-.48,30.29-4.15,60.19-1.74,90.51-1,9-2.13,18.55-3,27.5-.36,3.8.37,6.09,1.56,9.45-15,1-34.11-3.24-48-.87-10.22,1.75-19.75,6.75-18.69-6.58,3.16-39.47,15.62-54.38-15.6-86.53-43.09,8.51-86.78,11.22-130.69,11.2-1.77,25.23-.95,47.94,7.33,72,3.13,9.13-.7,14.26-11,14.49-16,.37-35.27,4.43-51.31,3.3-10.34-.72-13.37-6.18-12.55-15.62,2.3-26.39,3.93-52.91,2.66-79.49A420.91,420.91,0,0,1,242.76,776a297.24,297.24,0,0,0,4.76,103.08c2,9.46-3.35,14.68-13.94,13.79-16.06-1.34-36-1.28-51.93-3.8-10.49-1.67-13.46-1.87-13.09-13.4,1.84-57.48,1.71-114.23-23-168-44.51-56-60.33-127-52.81-196.79,7-65.07,31.83-118.71,80.29-162-54.4-35.54-83.21-90.2-81.94-155.61.75-38.72,15.59-70.67,41-99.42-18.39,4.82-29.12,20.62-42.27,32.46s-32,10.36-45.8,19.21c-9,5.78-12.46,24.83-24.58,11.34C-11.2,122.73,21.67,51.24,65.94,45.06c35.35-4.93,69.59-.69,102,13.17,30.1-20.77,58-29.56,94.93-28.44,8.2.25,16.21,3.13,24.89,5.43C314.93,3.62,371.43,2,405.45,13.7,448,28.3,513,96.6,480.42,137.13c-15.45,19.24-33.24-10.12-47-15.61-15.23-6.09-28.54-8.1-45.23-12.37-13.84-3.53-24.7-21.46-39.81-24.54,35,36.85,52.37,76,50.29,127.19-1.3,32.08-12.52,56.67-26,84.86,10.51,0,22.52.22,33,.92,120.91,8.13,230,49.7,268.35,175.09,5.2-.86,8.78,9.93,10.1,12.52A271.09,271.09,0,0,1,702.29,530c1.9,6.2,3.16,12.39,5.3,18.18s4.54,11,6.82,16.44,3.57,10.81,6.31,15.87a102.4,102.4,0,0,0,19.19,25.37C756.29,621.62,774.35,635,792.49,648.56Z"/><ellipse class="cls-2" cx="162.28" cy="181.11" rx="51.59" ry="37.79" transform="translate(-24.29 337.08) rotate(-88.03)"/><ellipse class="cls-2" cx="294.07" cy="166.73" rx="54.75" ry="40.94" transform="translate(117.36 454.91) rotate(-88.04)"/><ellipse class="cls-3" cx="294.74" cy="177.81" rx="43.7" ry="39.89" transform="translate(107.15 466.43) rotate(-88.08)"/><ellipse class="cls-3" cx="160.83" cy="192.65" rx="40.01" ry="36.74" transform="translate(-37.08 346.95) rotate(-88.09)"/><ellipse class="cls-2" cx="165.46" cy="199.81" rx="13.69" ry="11.02" transform="translate(-39.88 358.34) rotate(-88.04)"/><ellipse class="cls-2" cx="146.95" cy="186.63" rx="5.25" ry="5.26" transform="translate(-10.28 8.57) rotate(-3.23)"/><ellipse class="cls-2" cx="156.28" cy="177.6" rx="4.2" ry="4.21"/><ellipse class="cls-2" cx="294.02" cy="185.85" rx="15.93" ry="12.07" transform="translate(98.22 473.34) rotate(-88.04)"/><ellipse class="cls-2" cx="270.11" cy="172.72" rx="5.25" ry="5.26"/><ellipse class="cls-2" cx="279.41" cy="163.24" rx="3.67" ry="3.69"/><path class="cls-4" d="M118.82,69.88c-12.4-.64-22.28-5.13-33,1.33-15.21,9.13-20.21,27.28-33.93,37.73-7.1,5.42-13.68,6.49-16.88,15.55,4.59-1.6,6.28-1.73,11.43-.83s10.25-3.15,15-5.23c8.29-3.63,18-3.26,25.8-7.73,13.78-7.87,21-21.25,36.65-27.23,3.75-1.44,20.34.82,15.81-9.18C137,68.57,123.65,70.13,118.82,69.88Z"/><path class="cls-4" d="M379.61,46c15.48,1.54,28.46,9,41.7,17.95s26.48,21.08,39.74,30.37c3.56,2.49,7.54,4.69,9.47,8.5s.94,8.75-3.64,9.87c-5.41,1.32-7.49-4.06-10.43-8C450.07,96.19,440,95.55,430.1,97,418,98.69,407,100,396.14,94.45c-5.86-3-8-8.18-13-11.84-9.09-6.63-15.68-6.85-27.42-6.14-10.14.6-26.7-6.64-13.28-18.15C352.23,49.94,365.65,44.64,379.61,46Z"/><path d="M340.92,145.52a12.88,12.88,0,0,1-10.6-5.36l.87-.59a11.85,11.85,0,0,0,15.58,3.27l.56.89A12.06,12.06,0,0,1,340.92,145.52Z"/><path d="M124.4,153.61a16.07,16.07,0,0,1-11.66-4.84l.76-.72a15.46,15.46,0,0,0,19.57,1.77l.62.85A15.69,15.69,0,0,1,124.4,153.61Z"/><path d="M116.63,160.83a15.82,15.82,0,0,1-8.26-2.1l.54-.91c6.12,3.67,14.07,1.48,21-.86l.33,1C125.91,159.43,121.15,160.83,116.63,160.83Z"/><path d="M342.23,156.94q-.48,0-1,0a10.89,10.89,0,0,1-7.83-4l.83-.64a10.32,10.32,0,0,0,14.64,1.16l.72.76A10.68,10.68,0,0,1,342.23,156.94Z"/><path d="M261,276.55c-.22,4.84-2.15,10-7.64,9.94s-8.94-5.87-8.56-11,3.91-10.12,9.51-9.78S261.24,271.7,261,276.55Z"/><path d="M620.15,374.78c-1.88-.5-3.7-1.51-4.09-3.3-42.62-41.06-97.17-65.19-156-71.05L405.82,295c-5.77-.58-11.06.22-16.84-.22-10.74-.82-19.07,10.65-19.48,21.45s4.57,20.95,8.57,31a186.15,186.15,0,0,1,9.58,32.28c1.44,7.24,2.48,14.64,5.3,21.46,8.7,21.07,33.32,34.32,36.34,56.92.91,6.88-.37,13.88.11,20.8.76,10.77,5.71,20.72,9.37,30.88,5.18,14.35,7.87,29.47,9.91,44.6,1.91,14.15,5,30.87,18,36.66,9.91,4.41,22.56.58,31.45,6.8,2.89,2,5.05,4.91,7.65,7.3a28.38,28.38,0,0,0,27.68,5.91c12.81-21.77,1.4-51,11.65-74.09,6.49-14.65,20.57-24.27,30.3-37a73.55,73.55,0,0,0,15-42.78c.24-10.66-1.8-21.58,1.13-31.83,3-10.6,10.91-19,17.78-27.56,4.56-5.7,11.75-11.63,13.87-18.5C623,379.07,620.29,374.82,620.15,374.78Z"/><path d="M104.22,638.45c4.26,1.31,6.87,2,10.61-.39s6.84-5.7,10.3-8.51a49.46,49.46,0,0,1,31.3-10.95,5.34,5.34,0,0,1,2.63.5c1.46.83,1.87,2.69,2.36,4.29,3.33,10.9,16.2,16.7,27.44,15.07s20.84-9,28.59-17.35,14.21-17.84,22.48-25.65c7.55-7.13,16.46-12.71,23.92-19.94s13.59-16.82,13.27-27.22c-.24-7.58-3.94-14.75-9-20.37s-11.5-9.84-18-13.66a97.37,97.37,0,0,0-12-6.16c-5.76-2.37-12.2-4.11-16.19-8.91-6-7.27-3.87-18-3.27-27.43a70.08,70.08,0,0,0-1.45-19.27c-.86-4-2.18-8.08-5.06-11-5.69-5.73-15-4.8-22.7-7.29-4.15-1.35-7.86-3.74-11.65-5.92a125.57,125.57,0,0,0-26.57-11.41c-3.12-.93-6.46-1.74-9.6-.89-2.13.57-4,1.85-5.93,2.86a26.06,26.06,0,0,1-18.06,2.19c-14.41,25.08-21.92,54.42-25.14,83.18s-2,57.88.91,86.68C95.05,608.31,97.69,622.26,104.22,638.45Z"/><path class="cls-5" d="M377.48,330.58l0,.63"/><path class="cls-6" d="M167.46,873.71l27,6.24a21.55,21.55,0,0,0,5.81.8,31.86,31.86,0,0,0,6.25-1.3c5.48-1.35,11.3-1.25,17-1.14,7,.13,16.81-2,23.8-1.87.85,6.89,6.79,15.07,4.41,21.66-1.82,5-9.15,6.8-15.36,6.82a62.33,62.33,0,0,1-13.08-1.36c-3-.64-6.2-1.48-9-.43-.16-3.83-3.35-.24-5.11-3.78-1.72.82-1.23-5.77-3-5a22.77,22.77,0,0,1-10.19,8.36c-3,1.23-6.59,1.16-10,1-5.21-.17-10.63-.39-15.26-2.49a6,6,0,0,1-2.23-1.54,5.37,5.37,0,0,1-.9-2.51C166.41,889.7,168.22,881.33,167.46,873.71Z"/><path class="cls-6" d="M329.57,868.78l39-5.22c3.28-.44,7.06-.73,9.44,1.52a72.06,72.06,0,0,0,5.4,19.61c-5.6,6.27-14.82,8.18-23.37,8.23s-17.14-1.37-25.6-.2c-6.4.89-12.9,3.25-19.14,1.6a17.36,17.36,0,0,1-11.43-10.7c-2.51-6.67-2.42-13,3.58-14.61C313.15,867.47,323.1,869.65,329.57,868.78Z"/><path class="cls-6" d="M518.72,868.77c0,2.87-1,5.61-1.58,8.41s-.64,6,1.06,8.22c1.81,2.36,5,2.84,7.85,2.9s5.83-.12,8.74-.31c6.87-.45,14.38-1.19,19.28-6.34a5.62,5.62,0,0,1,1.47-1.29c2.32-1.16,4.35,1.88,6,3.94,4.37,5.38,12.07,5.4,18.76,5a3.47,3.47,0,0,0,2.33-.73,3.8,3.8,0,0,0,.83-2.13,42.45,42.45,0,0,0-.12-14.4,4.86,4.86,0,0,0-.86-2.29c-.83-1-2.23-1.1-3.48-1.15l-43.37-1.45C530.3,867,524.07,868.39,518.72,868.77Z"/><path class="cls-4" d="M281.23,272.35c-.14,7.12-4.5,11.75-3.76,18.64.6,5.54,4.11,9.42,3.5,15.08-.86,8-6.78,13.41-14.11,17.09-25.81,13-56.45,11.84-80-5.33-5.35-3.9-9-8.3-9.61-14.81-.36-3.71,1.19-6.54,2-10.36,1.64-8.07-1.85-14.17-1.34-22.67,2.31-38.41,28.93-16.15,54.12-16.69C254.26,252.82,281.93,237.45,281.23,272.35Z"/><path class="cls-6" d="M584.17,890.09c2.74.68,4.87,2.85,7.53,3.78,5.35,1.88,10.91-1.61,16.26-3.49,11-3.88,23.21-.88,34.86-2a49.55,49.55,0,0,0,23.69-8.71,4.91,4.91,0,0,0,2.31-2.8,5.14,5.14,0,0,0-.36-2.44l-2.57-7.93c-1.44-4.47-3.34-9.45-7.71-11.25-3.69-1.52-7.88-.21-11.66,1.05-14.17,4.74-28.92,8.67-44,7.85-7-.38-10.37-3-13.93,3C585.51,872.24,586.49,883.85,584.17,890.09Z"/><path d="M206.64,272.33c-.18,3.3,1.2,8.68-3.53,8.86s-7.43-5.48-7.28-9.09,3.73-8.78,8-8.28S206.82,269,206.64,272.33Z"/><path d="M252.34,271.85c.14,3.45-.63,10-5.41,8.5s-5.42-3.78-6-10.86,7.69-6.75,10.69-6S252.2,268.4,252.34,271.85Z"/><path class="cls-2" d="M377.44,218.41h0c2.14,1,3.54,1.59,5.47-2.3,15.35-31,9.76-47.39-5.85-76.1-2-3.61-3.54-3.14-5.6-2.13h0c-2.07,1-3.85,2.46-2,5.89,14.7,27.29,20.53,39.23,5.86,68.72C373.46,216.2,375.29,217.42,377.44,218.41Z"/><path class="cls-2" d="M68.22,67.51c-34.9,9.1-16.15,20.35-38.53,33.94-4.32,2.62-5.79,1.56-7.56-.64h0c-1.76-2.19-2.74-4.28,1.35-6.69C44.64,81.58,24.71,69.83,68.31,57c8.41-2.48,7.9.14,7.52,4.23h0C75.44,65.27,75,65.76,68.22,67.51Z"/><path class="cls-2" d="M337.14,38.53c26.58-19,47.65-10.74,75.91.86,5.51,2.26,7.65.29,9.15-3.31h0c1.5-3.6,2.16-6.47-3.76-9-30.39-12.78-54.28-22.21-83.72-2.91-5.74,3.77-6.19,5.71-5.64,10.65h0C329.63,39.8,332,42.23,337.14,38.53Z"/><path class="cls-2" d="M661.29,537.68h0c-2.75,0-5.14,1-5.31-4.91-1.3-45.43,7.61-58.06-22-97.6-3.87-5.18,2.19-5.59,5.26-5.86h0c3.07-.27,8.09,3.47,11.54,7.54,26.27,31.1,14.65,56.78,15.4,95C666.28,536.92,664,537.65,661.29,537.68Z"/><path class="cls-7" d="M267,264.5c-5.42-10.1-23.17-3.73-33.81-3.44-1.58.05-3.22-.53-3.21-2.61h0c0-2.08.93-2.46,2.91-2.52,13.29-.46,30.17-6.41,38.46,5.53,1.23,1.78.66,2.46-.79,3.8.14.22.14.19,0,0C269.06,266.61,267.77,266,267,264.5Z"/><path class="cls-8" d="M321.73,292.55a24.69,24.69,0,0,0,3.95,21,9.1,9.1,0,0,0,4.05-5.67,5.36,5.36,0,0,1-3.83-6.68c.31-.93.89-1.75,1.19-2.68a5.25,5.25,0,0,0-5-6.55"/><ellipse class="cls-2" cx="296.92" cy="139.23" rx="7.69" ry="34.3" transform="translate(133.83 423.74) rotate(-85.3)"/><ellipse class="cls-1" cx="160.42" cy="129.58" rx="42.27" ry="16.96" transform="matrix(0.99, -0.17, 0.17, 0.99, -19.68, 29.13)"/><ellipse class="cls-2" cx="158.71" cy="155.94" rx="32.47" ry="8.19" transform="matrix(0.99, -0.17, 0.17, 0.99, -24.18, 29.23)"/><ellipse class="cls-1" cx="305.94" cy="111.08" rx="21.94" ry="60.52" transform="translate(170.17 406.89) rotate(-85.3)"/><path class="cls-9" d="M188.38,230.53c-1.18,2.87-4.33,5.59-5.06,9.3C181,251.67,170.8,258.48,166.26,250c-3.31-6.18-9.55-11.09-17.78-13.38-7-2-14.63-5.89-15.93-11.35-1.59-6.66,5.3-2.07,14,.84,5.13,1.71,19.93,1.71,23.93,1.71C175.64,227.82,194.44,215.86,188.38,230.53Z"/><path class="cls-9" d="M327.38,206.51c-3.38,4.87-4,15.27-11.51,17.29-8.62,2.31-10.33,10.86-15,10.79-5.79-.09-10.78,9-14.14,8.62-7.15-.87-10.26-15.39-17.43-19.5-9.86-5.65-7.79-18-2.92-15.58,10.88,5.3,25.47,7.73,36.37,7.68C313,215.77,336.3,193.64,327.38,206.51Z"/><path class="cls-9" d="M316.59,250.44c-3.17,4,2.52,8.11-1.36,12s-9.53-7.49-6.11-11.57,1.12-9.3,5.38-12.51S319.76,246.42,316.59,250.44Z"/><path class="cls-9" d="M156.41,262.65c-3,2.89,2.47,13.76-1.42,12.82s-3.6-12.14-3.13-15.42-.75-10.61,4.38-8.74S159.38,259.76,156.41,262.65Z"/><path class="cls-9" d="M304,276.33c.08,2.15,3.46,8-1.65,9.4s-5-2.68-3.85-6.28-1.5-8.78,2.86-9.13C303.73,270.13,304,274.18,304,276.33Z"/><path class="cls-9" d="M168.12,289.82c.93,2-2.44,11.4-4.75,9.47s1.58-6.21,0-8.86-1.22-9.36,2.17-9.25S167.18,287.84,168.12,289.82Z"/><path class="cls-10" d="M283.86,228.16c.49,2,4.18,7.82,2.67,9.06s-5.86-5-6.31-7.17-3-7.86-1.22-8.36S283.38,226.14,283.86,228.16Z"/><path class="cls-10" d="M166.78,246.32c1,.63,2.64,2.91,4.19,2.72s2-1.15.5-2.28-4-5.26-6.06-5.12S165.76,245.68,166.78,246.32Z"/><path d="M260.77,309.11c7,17.17-22.2,4.36-31.6,3.51s-30.49,11.17-29,1.42,11.39-22.57,26.35-15.05S252.53,288.91,260.77,309.11Z"/></g></svg>