<svg xmlns="http://www.w3.org/2000/svg" width="660" height="660" viewBox="0 0 660 660"><defs><style>.cls-1{fill:#8f5b48;}.cls-2{fill:#73321a;}.cls-3{fill:#844c36;}.cls-4,.cls-6{fill:#fff;}.cls-5,.cls-6{stroke:#000;stroke-miterlimit:10;}.cls-7{fill:#ab8476;}.cls-8{fill:#9d6f5f;}.cls-9{fill:#29abe2;}.cls-10{fill:#7fcdee;}</style></defs><g id="Layer_3" data-name="Layer 3"><path class="cls-1" d="M271.55,589a135.83,135.83,0,0,1,18.8-13.13,196,196,0,0,1-18.64,13.26Z"/><path class="cls-1" d="M342.9,445c-7.31-42.32-32.53-81.13-63.62-112.53-17.43-17.6-31-34.22-54.14-51.65-4.56-3.44-22.77-25.11-18.06-40.66,1.48-4.9,5.07-28.38,8.53-36,.42-.94,1.18-4.88,1.48-5.74,2.26-6.54,7-25.45,6.92-29.92-.69-31.86-10.11-56-30.26-78.74,24.43-1.69,27.88-13.85,30.85-34.88,2-14.06,8.42-25.68,5-38.27-.49-1.79-.31-2.21-2.09-2.59-8.51-1.81-17.19,3.45-32.06,4.89-18.45,1.78-34.73,6.15-33.08,32.76.45,7.32-1.28,11.31,0,18.06a113.75,113.75,0,0,0-36.11-6.45,103.75,103.75,0,0,0-29,3.91C98.89,60.39,102,55.5,101,47.74,98.68,30.24,80.64,23.1,65.07,15,41.35,2.61,46.93,31.9,46.58,50.65c-.24,13.09,11.56,26.17,25.6,28.77C43.86,102,29.76,135.38,24,170.79a79.91,79.91,0,0,0,11.05,54.85C45.9,243.33,62.24,256,80.77,263.8,12.23,311-1.68,362.61,2.45,442.51c4.08,79.09,43.89,142.87,124.88,167-12.64,4.21-26.88,6.69-39.23,10.88-7.64,2.6-10.69,7.08-16.57,12.17-4.69,4-7.65,12.34-1.47,16.91,7.77,5.74,10.12,9,21.53,7.46,19.45-2.67,44.77,3.82,64.29-1.16,11.45-2.92,6.11-13,9.88-21.76,1.9-4.38.06-12.29-2.67-16.65,9.51.63,19.14,1.16,28.64.5a233.49,233.49,0,0,0,44.78-7.7c1.46-1.43,3.88-2.13,4.69-4.07-34-17.21-73.68-78.32-77.82-115.33-5.63-50.28,29.71-101.13,88.23-91.59s77.94,52.59,75.62,113.32c-.39,10.24,1,22.16-2.27,32.57C341.83,513.16,349.34,482.28,342.9,445ZM83.24,265.1c.7.25,1.4.49,2.11.72A1.59,1.59,0,0,1,83.24,265.1Z"/><path class="cls-2" d="M366.13,523.19c.14-6.09,2.6-11.88,3.65-17.88s.3-13-4.5-16.8"/><path class="cls-3" d="M645.88,390c10.47,27,8.33,28.42-12.43,5.85-19.05-20.71-27.18-47.06-44.44-67.24-.83-1,1.07,1.16.76.28-2.23-.53-6.83-5.34-9-9.07-11.25-19.46-22.74-32.16-46.61-34.87l-.16,0c-1.83.57-4.85.4-10-.39-10.75-1.66-42.36,2.56-57.29,24.35-13.1,19.12-19.7,32-25,97-1.58,19.39,5.09,78.81-16,111-24.15,36.89-78.2,45.77-111.62,49.24-6.83.71-10.84.86-13.27.43-5-.9-3.3-4.31-5.75-10.51-1.24-3.14,6.33-7.72,8.67-9.06C310.61,543,314,536,324,538.12l.17,0c30.33,6.69,68-38.33,71-65.18a45.76,45.76,0,0,0-.42-11.13c-12.08-65-18.84-110.52,10.1-173.53a86.88,86.88,0,0,1,3.79-7.86,44.22,44.22,0,0,1,10.08-21.19c6-6.85,8.05-9,14-13.42,1-.73,3.9.42,2.43,1.33-2.17,1.35,43-27.34,88.42-16,2.74.69,4.77,1.33,6.33,1.88,2.73-.15,6.62,1.54,12.86,4.74,33.84,17.32,48.19,35.73,68.47,63.51,3.17,4.34,4.18,6.72,4,8.26,1.81.54,2.82,1.81,3.67,3.67,6.47,14.16,13.69,46.44,18.63,63.45C639.12,381.93,643.77,384.51,645.88,390Z"/><path class="cls-2" d="M357.29,516.76a28,28,0,0,1-17.45,20.85"/><path class="cls-2" d="M340,538.08l-.35-.94a27.48,27.48,0,0,0,17.14-20.47l1,.18A28.49,28.49,0,0,1,340,538.08Z"/><path class="cls-2" d="M330.12,538.06a29.8,29.8,0,0,0,9.71-25"/><path class="cls-2" d="M330.45,538.43l-.66-.75a29.22,29.22,0,0,0,9.54-24.53l1-.1A30.25,30.25,0,0,1,330.45,538.43Z"/><path class="cls-2" d="M356,529.91a38.91,38.91,0,0,0,5.62-25"/><path class="cls-2" d="M370.94,519.62c4.19-1.35,5.61-6.49,6.06-10.86a86.86,86.86,0,0,0-.61-22.26"/><path class="cls-2" d="M389.54,467.77a35,35,0,0,1-2,37.22C385.17,494.61,395.7,476.44,389.54,467.77Z"/><path class="cls-2" d="M402,479.35c.12-7.85.18-15.83-2.09-23.34s-7.26-14.6-14.57-17.45"/><path class="cls-2" d="M408.15,453.77a40.1,40.1,0,0,0-25.62-32.15"/><path class="cls-2" d="M409.53,433.65c-1-17.32-15-33-32.14-36"/><path class="cls-2" d="M409.54,408l-6.31-14.49c-1.32-3-2.69-6.13-5-8.47-6.62-6.65-17.94-4.73-26.28-9"/><path class="cls-2" d="M406.48,386.21a108.28,108.28,0,0,0-7.19-18.72c-2.47-5-5.67-10.12-10.81-12.27-5-2.09-11-1-15.64-3.82"/><path class="cls-2" d="M407.34,360.38c-4.17-6.66-4.29-15-6-22.64s-6.41-15.93-14.21-16.94"/><path class="cls-2" d="M414.62,325.94A37.56,37.56,0,0,0,392,295.75"/><path class="cls-2" d="M404.1,330.77c1.43-2.09-.08-4.88-1.57-6.94l-16.19-22.42a3.55,3.55,0,0,0-3.49.83"/><path class="cls-2" d="M396.58,367.18c2.41-1.17,1.95-4.72.93-7.19a51.81,51.81,0,0,0-14.81-20c-1.08-.9-3.1-1.53-3.56-.2"/><path class="cls-2" d="M413.29,307.86a68.47,68.47,0,0,0-15.64-25.08"/><path class="cls-2" d="M418.62,301.2l-5.25-13.94c-1.58-4.2-3.17-8.46-3.53-12.93s.67-9.25,3.75-12.51"/><path class="cls-2" d="M428.22,287.74c-2.63-7.32-5.3-14.78-5.54-22.55s2.34-16,8.48-20.78"/><path class="cls-2" d="M432.07,268.26c.06-7,.13-14.13,2.1-20.86s6.15-13.13,12.46-16.19l1.91,2.5"/><path class="cls-2" d="M465.57,249.58a36,36,0,0,1,35.7-39.1"/><path class="cls-2" d="M482.25,243.61c1.3-8.47,8.7-15,16.86-17.64s17-1.92,25.47-.67"/><path class="cls-2" d="M503.37,245.62c-.72-5.76,3.57-11.28,8.92-13.53s11.45-1.83,17.12-.61,11.19,3.2,16.94,4"/><path class="cls-2" d="M518.78,246.34,528,245c5.76-.81,11.6-1.63,17.36-.84s11.52,3.42,14.82,8.2"/><path class="cls-2" d="M488.67,237.2c5.61.94,10.46-3.63,14.56-7.56s9.91-7.84,15.07-5.43"/><path class="cls-2" d="M445.58,255.75c-2.54-2.69-2.14-7.18-.11-10.27s5.3-5.09,8.46-7l18.28-11"/><path class="cls-2" d="M514.88,244.92c5.54-2.68,11.49-4.39,17.4-6.08l14.51-4.17c5.19-1.48,11.92-2.48,15,2"/><path class="cls-2" d="M533.65,255.25c6.86-1.77,13.77-3.55,20.85-3.92,4.85-.25,9.72.17,14.55-.35,4.11-.46,8.2-1.6,12.32-1.2s8.46,2.88,9.26,6.94"/><path class="cls-2" d="M555.63,267.69c5-4.39,10.46-9,17.08-9.77,3.57-.42,7.16.32,10.65,1.19A130.37,130.37,0,0,1,598.64,264"/><path class="cls-2" d="M572,277.75c5.49-6,15-5.7,23-3.87,7.69,1.78,15.6,4.84,20.32,11.17"/><path class="cls-2" d="M587.13,294c5.81-3.9,13.62-3.73,20.18-1.3s12.16,6.87,17.64,11.22"/><path class="cls-2" d="M600.88,307.85l10-.31c5-.15,10.15-.28,14.81,1.51,6.81,2.62,11.45,8.84,15.72,14.76"/><path class="cls-2" d="M634.63,351.67c-5.53-10.46-12.24-21.91-23.64-25.06,3.15,3.12,10.43-1.36,14.56.24C632.94,329.71,632.87,343.94,634.63,351.67Z"/><path class="cls-2" d="M616.37,359.53c6.79.65,13.71,1.32,20,4s11.85,7.87,13.31,14.54"/><path class="cls-2" d="M627.4,379.7c7.84,2.06,16.08,4.36,21.77,10.13,4.65,4.72,7,11.19,9,17.49"/><path class="cls-2" d="M638.37,398.84c10.82,1.05,19.53,12.27,17.87,23"/><path class="cls-2" d="M632.17,368c-.89,1.76,1,3.58,2.67,4.64l20.36,13.05"/><path class="cls-2" d="M638,389.55a39.45,39.45,0,0,0-6.79,16.13c-.24,1.37.91,3.47,1.85,2.45"/><path class="cls-2" d="M627.84,373.67c-2.32,4.25-4.67,8.58-5.59,13.32s-.18,10.07,3.07,13.65l1.25-5.32"/><path class="cls-2" d="M615.14,360a34.21,34.21,0,0,0-4.86,24.51"/><path class="cls-2" d="M605.91,344.47a28.58,28.58,0,0,0-4.49,28.22"/><path class="cls-2" d="M333.63,555.14a12.72,12.72,0,0,0,16.29,16.35"/><path class="cls-2" d="M345.66,572.73A13.18,13.18,0,0,1,333.16,555l.94.35A12.22,12.22,0,0,0,349.75,571l.34.94A13,13,0,0,1,345.66,572.73Z"/><path class="cls-2" d="M322.08,557.09c-.5,3.9-1,7.89-.25,11.75s3,7.66,6.58,9.26c3,1.33,6.41,1,9.66.63"/><path class="cls-2" d="M333.62,579.55a13.25,13.25,0,0,1-5.41-1c-3.43-1.53-6-5.13-6.87-9.62-.77-4-.25-8,.25-11.92l1,.13c-.49,3.82-1,7.77-.26,11.59.82,4.18,3.17,7.51,6.29,8.9,2.95,1.31,6.37.93,9.4.59l.11,1A41.59,41.59,0,0,1,333.62,579.55Z"/><path class="cls-2" d="M347.83,551.41c-1.39,3.06.4,6.54,2.14,9.41,2.68,4.42,6.15,9.35,11.32,9.69,4.54.3,10-2.94,13.12.33"/><path class="cls-2" d="M367.39,549.57c1.75,4.29,5.93,7.22,10.36,8.6s9.15,1.43,13.78,1.48c2.15,0,5-.59,5.12-2.73"/><path class="cls-2" d="M377.26,536.79c3.63,4.13,7.66,8.28,12.9,9.94,6.76,2.14,14-.28,20.71-2.68"/><path class="cls-2" d="M399.7,531.53c2.73,4.12,8.24,5.67,13.14,5s9.38-3,13.73-5.4a17.82,17.82,0,0,0,4.4-3"/><path class="cls-2" d="M414.76,517.44c4.55,2.6,10.5,1.64,14.92-1.18s7.6-7.2,10.38-11.65"/><path class="cls-2" d="M423.73,501.54c3.08,1.3,6.44-1,8.79-3.41a54.76,54.76,0,0,0,11.33-17.05"/><path class="cls-2" d="M434.86,463.57c6.22-.13,16,2.21,20.84-1.7a57.53,57.53,0,0,1-21.59,18.72"/><path class="cls-2" d="M427.54,457.07a28.9,28.9,0,0,0,27.15-19.83"/><path class="cls-2" d="M434,439.27a31.54,31.54,0,0,0,20.87-14.8"/><path class="cls-2" d="M435.18,418.82a48.77,48.77,0,0,1,23.42-4.93"/><path class="cls-2" d="M437,404.57a29.58,29.58,0,0,1,25.24-19"/><path class="cls-2" d="M433.21,381.07a45.45,45.45,0,0,1,22.52-15.49c5.11-1.55,11.46-1.86,15,2.15"/><path class="cls-2" d="M434.15,363.48c6.38-11.67,22.78-16.5,34.47-10.16"/><path class="cls-2" d="M439.43,346a23,23,0,0,1,32.88-10.11"/><path class="cls-2" d="M447.06,325.41c8-8.73,22.27-11,32.58-5.07"/><path class="cls-2" d="M452.56,311.36c3.49-7.89,12.78-12.09,21.39-11.55s16.52,5,23.21,10.44"/><path class="cls-2" d="M467,294.37a39.58,39.58,0,0,1,41.08,3"/><path class="cls-2" d="M487.65,280.71c13.81-4.33,30.28,3,36.31,16.16"/><path class="cls-2" d="M516,276.86c6.69-1.82,14,.95,19.23,5.46s8.91,10.58,12.47,16.54"/><path class="cls-2" d="M552.23,281.78a72.77,72.77,0,0,1,10.4,31.37"/><path class="cls-2" d="M569.83,292.18a99.49,99.49,0,0,1,3.72,31.92"/><path class="cls-2" d="M580.59,306.24c12.31,10.16,16.72,28.79,10.28,43.38"/><path class="cls-2" d="M598.92,331.38c4.34,4.66,4.23,11.94,2.67,18.12s-4.27,12.19-4.24,18.56"/><path class="cls-2" d="M134.89,461.31c-5.59,0-13.62-2.42-16.29-5.08l-.1-.1,0-.14a73.25,73.25,0,0,0-2.68-8.76c-1.43-4.08-2.91-8.29-3.31-12.72a79.33,79.33,0,0,1,.65-15.23c.28-2.55.54-5,.67-7.36.11-1.95.17-3.69.23-5.33a82.55,82.55,0,0,1,1.33-13.78,148.82,148.82,0,0,1,4.31-15.75c1.12-3.63,2.18-7.06,3-10.22l.09-.18c2.83-3.72,5.83-7.28,8.73-10.73s5.76-6.86,8.54-10.49l.14-.12c2.58-1.54,5.47-3.12,8.52-4.8,5.79-3.19,11.78-6.49,16-9.63a43.81,43.81,0,0,0,7.63-7.46,48,48,0,0,1,6.2-6.36l.64.77a48.1,48.1,0,0,0-6.08,6.24,44.33,44.33,0,0,1-7.8,7.61c-4.29,3.18-10.31,6.5-16.13,9.7-3,1.66-5.86,3.23-8.4,4.74-2.78,3.61-5.69,7.09-8.52,10.44s-5.83,6.95-8.64,10.62c-.83,3.16-1.88,6.56-3,10.17A150.36,150.36,0,0,0,116.33,393,81.56,81.56,0,0,0,115,406.62c-.06,1.65-.12,3.39-.23,5.36-.14,2.42-.41,4.95-.67,7.41a77.44,77.44,0,0,0-.65,15c.38,4.3,1.84,8.46,3.26,12.47a78,78,0,0,1,2.68,8.73c3.39,3.19,15.44,6.11,19.33,4a143.23,143.23,0,0,0,8.89-13.16c1.46-2.34,3-4.76,4.53-7.11.91-2.8,1.76-5.8,2.58-8.71a146.21,146.21,0,0,1,4.52-14.18c1.61-4,2.55-6.1,3.75-8.74.88-2,1.88-4.16,3.35-7.62,3.63-8.51,14.87-21.64,24.92-23.68a119,119,0,0,1,19.25-1.8c3.62-.14,7-.27,10.35-.6a119.21,119.21,0,0,0,16-2.87c2.38-.55,4.84-1.11,7.57-1.66l.2,1c-2.72.54-5.17,1.11-7.55,1.66A120,120,0,0,1,221,375c-3.33.33-6.77.46-10.41.6a117.71,117.71,0,0,0-19.08,1.78c-9.73,2-20.65,14.78-24.2,23.09-1.48,3.48-2.48,5.69-3.36,7.64-1.19,2.63-2.13,4.71-3.73,8.7-1.73,4.33-3.13,9.29-4.49,14.08-.83,2.94-1.69,6-2.61,8.82l-.06.12c-1.57,2.35-3.08,4.79-4.55,7.14a143.67,143.67,0,0,1-9,13.33l-.15.13A9.31,9.31,0,0,1,134.89,461.31Z"/><path class="cls-2" d="M68.28,393.39c-.16-11-1.5-26.28-7.07-36.78-6.48-12.22-18.76-23.05-36.51-32.19a17.77,17.77,0,0,1-1.64-.89l-.29.26,0-.44h-.48l-.11.39c-.13.47,0,.51,2,1.58,17.56,9,29.7,19.73,36.08,31.77,10.48,19.77,6,57.33,5.94,57.7v.11c0,.18,1.57,18.6-2.9,24.66a51.32,51.32,0,0,0-3.62,6.32c-2.8,5.37-6.28,12.05-10.32,13a4.89,4.89,0,0,1-4.17-1.07c-9.41-6.89-14-14.4-14-23,0-3.19.25-5.91.49-8.55.59-6.4,1.06-11.47-2.54-18.67-5.08-10.15-10-16.45-19-16.45H9.84a25.88,25.88,0,0,1-7.25-.7,5.15,5.15,0,0,1-.22,1,27,27,0,0,0,7.49.74c8.7-.15,13.37,5.7,18.46,15.9,3.48,6.95,3,11.88,2.45,18.13-.25,2.66-.5,5.4-.5,8.64,0,8.89,4.71,16.66,14.4,23.76A6.39,6.39,0,0,0,48.46,460a5.46,5.46,0,0,0,1.2-.14c4.49-1,7.93-7.67,11-13.51a53.07,53.07,0,0,1,3.54-6.19c4.62-6.25,3.22-24,3.1-25.29A177.16,177.16,0,0,0,68.28,393.39Z"/><path class="cls-2" d="M22.77,323.89l0,.45Z"/><path class="cls-3" d="M327.69,532c-5.82,26.11-21.26,34.33-37.34,43.88-6.35,3.77-12.8,7.75-18.8,13.13l.16.13a17.15,17.15,0,0,1,6.12,14.16c-.49,6.74,5,22.29,6.83,28.09,2.82,9,2.53,19-5.42,21.48-25,7.91-49.91,1.38-74.85,3-7.93.5-10.16-3.32-15.62-7.87-3.51-2.92-6.8-8-3.49-12.41,5.15-6.91,10.13-11.93,18.86-14.56a81.11,81.11,0,0,0,24.55-12.49c1.73-1.25,3.4-2.52,5-3.79-30.86-15.25-70.26-76.89-75.57-115.74-7.22-52.78,37.94-100.91,86.86-94.58s82.11,27.08,85,105.25C330.5,512.85,329.62,523.4,327.69,532Z"/><path class="cls-2" d="M249.41,657.37c-6.09,0-12.14-.32-18.12-.64a233.46,233.46,0,0,0-26.87-.39c-6.64.42-9.53-2.2-13.18-5.52-.87-.79-1.77-1.61-2.79-2.46-3.79-3.16-7-8.48-3.57-13.09,5.33-7.15,10.39-12.11,19.12-14.74a80,80,0,0,0,24.4-12.42c1.37-1,2.78-2.05,4.39-3.29-14.51-7.47-31.54-25.21-46.86-48.84-15.18-23.42-25.75-48.44-28.28-66.93-3.55-26,5.66-53,24.64-72.08,17.43-17.56,40.32-26,62.78-23.06,28.2,3.64,46.72,11.61,60.06,25.83,15.71,16.75,24,42.88,25.38,79.9.47,12.74-.29,23.36-2.33,32.47h0c-5.64,25.31-20.25,33.95-35.71,43.1l-1.86,1.11c-6.31,3.74-12.46,7.53-18.3,12.68a17.77,17.77,0,0,1,6,14.34c-.42,5.71,3.67,18.24,5.86,25,.37,1.13.69,2.13.95,2.94,2.79,8.92,2.75,19.41-5.75,22.1C269.42,656.51,259.37,657.37,249.41,657.37Zm-36.29-2.28c6.12,0,12.24.32,18.22.64,15.66.84,31.85,1.71,47.75-3.33,7.8-2.47,7.74-12.39,5.09-20.85-.25-.81-.57-1.8-.94-2.93-2.37-7.27-6.34-19.45-5.91-25.35a16.77,16.77,0,0,0-5.94-13.74l-.55-.45.38-.44c6-5.4,12.37-9.32,18.88-13.18l1.86-1.11c15.27-9,29.7-17.57,35.24-42.45h0c2-9,2.78-19.57,2.31-32.23-2.89-78.26-35.9-98.48-84.56-104.77-22.16-2.87-44.74,5.43-61.95,22.77-18.77,18.91-27.87,45.54-24.35,71.25,2.5,18.34,13,43.21,28.12,66.51,15.48,23.88,32.67,41.68,47.17,48.85l.72.35-.63.49c-1.88,1.47-3.49,2.67-5.05,3.8a80.65,80.65,0,0,1-24.7,12.56c-8.46,2.55-13.39,7.4-18.6,14.38-3.89,5.23,2.16,10.69,3.41,11.73,1,.87,1.94,1.69,2.82,2.49,3.61,3.28,6.22,5.66,12.45,5.27C207.27,655.16,210.19,655.09,213.12,655.09Z"/><ellipse class="cls-4" cx="129.27" cy="162.34" rx="25.5" ry="32.5"/><ellipse class="cls-4" cx="60.27" cy="154.34" rx="19.5" ry="27.5"/><path class="cls-4" d="M60.27,182.34c-11,0-20-12.56-20-28s9-28,20-28,20,12.57,20,28S71.3,182.34,60.27,182.34Zm0-55c-10.48,0-19,12.12-19,27s8.52,27,19,27,19-12.11,19-27S70.75,127.34,60.27,127.34Z"/><ellipse class="cls-5" cx="60.77" cy="160.17" rx="19" ry="23.33"/><ellipse class="cls-5" cx="128.77" cy="168.84" rx="25" ry="26"/><path d="M123.77,130.34v-1c4.69,0,8.5-4.71,8.5-10.5h1C133.27,125.19,129,130.34,123.77,130.34Z"/><path d="M136.77,131.34v-1c5.79,0,10.5-4.26,10.5-9.5h1C148.27,126.63,143.11,131.34,136.77,131.34Z"/><path d="M114.77,135.34v-1a.35.35,0,0,0-.27.12c.33-.46.77-4.05.77-9.62h1C116.27,131.81,115.77,135.34,114.77,135.34Z"/><path d="M145.77,137.34v-1c4.14,0,7.5-2.46,7.5-5.5h1C154.27,134.43,150.46,137.34,145.77,137.34Z"/><path d="M150.77,145.34v-1c4.69,0,8.5-3.36,8.5-7.5h1C160.27,141.53,156,145.34,150.77,145.34Z"/><path d="M153.77,153.34v-1c5.79,0,10.5-2.46,10.5-5.5h1C165.27,150.49,160.22,153.34,153.77,153.34Z"/><path class="cls-2" d="M53.68,217.12c2.49,24.17,23.82,27.06,42,27.06S131,238.87,130.85,220s-20.55-26.15-38.59-29.41S51.2,193,53.68,217.12Z"/><path d="M68.47,202c-2,4.91,4,9.32,8.83,10.62s11.55-1,12.79-6.64-5.31-6.95-9.56-7.52S70.42,197.09,68.47,202Z"/><path d="M75.77,136.34c-1.5,0-1.5-10.16-1.5-13.5h1c0,7.42.47,12.11.8,12.64a.4.4,0,0,0-.3-.14Z"/><path d="M67.77,128.34c-2.3,0-3.5-5.78-3.5-11.5h1c0,6.41,1.48,10.5,2.5,10.5Z"/><path d="M58.77,126.34c-2.3,0-3.5-5.78-3.5-11.5h1c0,6.41,1.48,10.5,2.5,10.5Z"/><path d="M52.77,128.34c-4.13,0-7.5-3.81-7.5-8.5h1c0,4.14,2.92,7.5,6.5,7.5Z"/><path d="M47.77,132.34c-4.69,0-8.5-2.91-8.5-6.5h1c0,3,3.37,5.5,7.5,5.5Z"/><path class="cls-2" d="M87.77,171.84c0,9.95-5.37,18-12,18"/><path class="cls-2" d="M182.77,63.84c0-18.24,13-33,29-33"/><path class="cls-2" d="M81.77,56.84c0-14.37-8-26-18-26"/><path class="cls-2" d="M63.69,12.16c-6.1-1.07-14.14-2.8-16.89-9l.68-.84"/><path class="cls-2" d="M51.52,14.52A22.26,22.26,0,0,1,38.71,8.58c-1.3-1.24-2.53-3-1.91-4.72"/><path class="cls-2" d="M65.05,14.11a7,7,0,0,1-2-8.24"/><path class="cls-2" d="M50.4,16.19a12,12,0,0,1-15.83-1"/><path class="cls-2" d="M49.82,21.18a11.07,11.07,0,0,1-13.7,3.35"/><path class="cls-2" d="M49,26.61a18.52,18.52,0,0,1-15,6.86"/><path class="cls-2" d="M49.33,31.44c-.9,3.37-1.84,6.82-3.9,9.62s-5.54,4.86-9,4.23"/><path class="cls-2" d="M49.16,41.06A16.49,16.49,0,0,1,38.35,52.64"/><path class="cls-2" d="M47.73,53.35A13,13,0,0,1,44,59.89a14.76,14.76,0,0,0-2.55,2.57c-1.84,2.88-.09,6.63,1.65,9.58"/><path class="cls-2" d="M48.27,58.34v.41c0,5.61-3.36,10.89-3.28,16.5,0,1.73.65,4,2.37,4"/><path class="cls-2" d="M52.16,66.51c1,3.1,0,6.6,1,9.72a7.82,7.82,0,0,0,5,5"/><path class="cls-2" d="M57.64,72.16a6.65,6.65,0,0,0,1.24,5.37A19.57,19.57,0,0,0,63,81.45a11.8,11.8,0,0,0,3.89,2.32"/><path class="cls-2" d="M63.58,76.28a10.3,10.3,0,0,0,7.08,6.29"/><path class="cls-2" d="M49.51,28.61a12.88,12.88,0,0,1-10.38,8"/><path class="cls-2" d="M67.92,16.19a4,4,0,0,1-.72-5.78"/><path class="cls-2" d="M76,21.12a6.71,6.71,0,0,1-3.06-7"/><path class="cls-2" d="M80.6,22.78a2.81,2.81,0,0,1-2-3.23"/><path class="cls-2" d="M61.71,12a11.11,11.11,0,0,1-4.59-5.61"/><path class="cls-2" d="M54.57,11.93a9.8,9.8,0,0,1-9.63-5.49"/><path class="cls-2" d="M194,19.4a30.75,30.75,0,0,0,7.15-3,10.41,10.41,0,0,0,4.7-6"/><path class="cls-2" d="M207.82,17.64A13.17,13.17,0,0,0,220,8"/><path class="cls-2" d="M223.43,15.1c4.6-1.45,7.36-6,9.69-10.24"/><path class="cls-2" d="M224.7,15.29A16.32,16.32,0,0,0,238,10.34"/><path class="cls-2" d="M227,17.38c2.76-1.84,6.46-1.75,9.56-.59s5.74,3.28,8.32,5.36"/><path class="cls-2" d="M228.59,20.84a10.31,10.31,0,0,1,8,2.28c3.7,3.11,4.81,8.5,8.41,11.73"/><path class="cls-2" d="M228.12,25.31c1.95-.72,4.17.46,5.41,2.14s1.76,3.74,2.49,5.69a28.22,28.22,0,0,0,5,8.5"/><path class="cls-2" d="M226.84,31.28c2.67-.77,5.36,1.59,6.22,4.22s.5,5.5.61,8.27S234.6,49.6,237,51"/><path class="cls-2" d="M225.2,39.31c1.64-1.27,4.12.48,4.56,2.5s-.32,4.09-.52,6.14a11.7,11.7,0,0,0,2.91,8.87"/><path class="cls-2" d="M222.87,47.63c1-.24,1.83.89,2.29,1.85a15.67,15.67,0,0,1,2,6.42c0,1.78-.57,3.54-.46,5.32S228,65,229.8,64.91"/><path class="cls-2" d="M220.82,61c1.33-.27,2.5.92,3.2,2.1a14.39,14.39,0,0,1,1.9,5.59c.23,1.94.09,4,1.08,5.72,1.41,2.4,4.94,3.83,4.66,6.6"/><path class="cls-2" d="M219,71.09c3.21,2.18,3.68,6.67,3.67,10.55s0,8.28,2.9,10.92"/><path class="cls-2" d="M219.25,76.88c2.32.43,3.65,3,3.59,5.39s-1.11,4.55-1.92,6.76-1.34,4.72-.38,6.87"/><path class="cls-2" d="M209.14,85.67a20.75,20.75,0,0,0-.44,3.77c0,4.06,3.82,9,5.53,12.63.12.25.28.51.54.57s.56-.28.38-.48"/><path class="cls-2" d="M212.14,83.72c2.16.28,3,3,2.85,5.2s-.62,4.62.7,6.36"/><path class="cls-2" d="M203.56,88.59A13.31,13.31,0,0,1,205,91.87c.54,2.2-.06,4.54.28,6.79s2.36,4.62,4.52,3.91"/><path class="cls-2" d="M199.82,90.39a5.12,5.12,0,0,0,2.71,7.26"/><path class="cls-2" d="M84.18,25.33a4.57,4.57,0,0,1-2.06-4.46"/><path class="cls-2" d="M77.7,21.5a4.54,4.54,0,0,1-2.31-5.18"/><path class="cls-2" d="M71.19,18.32a8.13,8.13,0,0,1-1.45-6.06"/><path class="cls-2" d="M62.77,12.21A5.28,5.28,0,0,1,61.07,5"/><path class="cls-2" d="M57.72,10.84A5.41,5.41,0,0,1,54.19,5.9"/><path class="cls-2" d="M50.23,9.59A3.43,3.43,0,0,0,53,12.87c-2.46.89-7.82,1.27-9.88-.35,2.74,1.82,4.58,5,7.83,4.45-.5,1.93-4.16,5-6,5.69a18.86,18.86,0,0,1-5.89.88"/><path class="cls-2" d="M49,23.77a12,12,0,0,1-7.84,4.39"/><path class="cls-2" d="M51.08,16,45,16.73a5.55,5.55,0,0,1-3-.19,1.92,1.92,0,0,1-1.09-2.45"/><path class="cls-2" d="M49.28,30.72a9.55,9.55,0,0,1-6.71,7.76"/><path class="cls-2" d="M49.4,38a14.46,14.46,0,0,1-5.56,8.28"/><path class="cls-2" d="M48.87,48.6a32.34,32.34,0,0,1-5.87,6"/><path class="cls-2" d="M48.26,56.62a20,20,0,0,0-4.86,8.83"/><path class="cls-2" d="M49.19,61.07c2.24,4.22-1.68,9.31-.9,14"/><path class="cls-2" d="M54.59,69.94,56,77"/><path class="cls-2" d="M80.48,22.51,83,25"/><path class="cls-2" d="M61.5,74.87a4.9,4.9,0,0,0,1.82,5.71"/><path class="cls-2" d="M202.9,18.54c2.48-1.78,4.84-.48,7.17-1.4,3.3-1.29,4.83-5.4,6.6-8.3"/><path class="cls-2" d="M227.54,6.29a5.65,5.65,0,0,1-2.4,5.32A16.63,16.63,0,0,1,219.53,14C221.29,12.77,226.55,8.21,227.54,6.29Z"/><path class="cls-2" d="M202.75,18.81A10,10,0,0,0,210,12.4"/><path class="cls-2" d="M225.3,14.27a6.35,6.35,0,0,0,7.11-4.37"/><path class="cls-2" d="M226.27,16.81c3.25.43,6.06-2.73,9.34-2.67,1.07,0,2.1.39,3.16.45a2.79,2.79,0,0,0,2.75-1.21"/><path class="cls-2" d="M228.72,19.38a16.72,16.72,0,0,1,3.4-.9,8.74,8.74,0,0,1,8.53,4.41"/><path class="cls-2" d="M228.21,24.2a4.8,4.8,0,0,1,5.11.19,14,14,0,0,1,3.73,3.87"/><path class="cls-2" d="M228.13,29.75a2.22,2.22,0,0,1,2.62-.26,5.64,5.64,0,0,1,1.95,2,35,35,0,0,1,4,7.93"/><path class="cls-2" d="M226.43,35.64c1.62.71,3.41,1.58,4,3.26a11.6,11.6,0,0,1,.28,2.71,7.48,7.48,0,0,0,2.84,5.24"/><path class="cls-2" d="M224.29,43.17a6,6,0,0,1,2.76,6.33,8,8,0,0,0-.37,1.92,1.39,1.39,0,0,0,1.11,1.4"/><path class="cls-2" d="M222.4,54.75c.89,1.51,1.82,3.18,1.55,4.91-.14.89-.59,1.86-.15,2.65.68,1.22,3.11,1.33,2.88,2.71"/><path class="cls-2" d="M220.64,67.34a7.84,7.84,0,0,1,2.94,5,51.65,51.65,0,0,0,1.22,5.81"/><path class="cls-2" d="M217.54,75.56a16.7,16.7,0,0,1,4.2,8.68"/><path class="cls-2" d="M214.19,80.13A4.14,4.14,0,0,1,217,83a12.33,12.33,0,0,1,.3,4.16"/><path class="cls-2" d="M210.14,85a5.89,5.89,0,0,1,3,7.67"/><path class="cls-2" d="M206.52,88.24a12.2,12.2,0,0,1,1.76,8.61"/><path class="cls-2" d="M201.61,89.48a17,17,0,0,1,2.15,6.61"/><path class="cls-2" d="M198.06,91a4.42,4.42,0,0,0,.39,5.28"/><path class="cls-2" d="M226.42,33.16a10.83,10.83,0,0,1,4.77,6.28l1.52-.5"/><path class="cls-2" d="M51.15,64.5c.77,2.88.16,5.93-.45,8.84"/><path class="cls-2" d="M208.46,17.89a4.94,4.94,0,0,0,3.43-6.45"/><path class="cls-2" d="M188,20.4a9.92,9.92,0,0,0,8.63-4.8"/><path class="cls-2" d="M184.3,20.57a7,7,0,0,0,4.64-3.89"/><path class="cls-2" d="M180.35,21.31a3.06,3.06,0,0,0,1.68-2.4"/><ellipse class="cls-6" cx="130.84" cy="160.47" rx="8" ry="11.5"/><ellipse class="cls-4" cx="120.84" cy="174.97" rx="3.5" ry="5.5"/><ellipse class="cls-6" cx="62.84" cy="155.47" rx="7" ry="9.5"/><ellipse class="cls-6" cx="51.84" cy="165.47" rx="3" ry="4.5"/><ellipse class="cls-4" cx="129.34" cy="179.97" rx="2" ry="3.5"/><ellipse class="cls-4" cx="57.84" cy="171.47" rx="1.5" ry="3"/><path class="cls-7" d="M56.83,109.75c0,.33,0,.24,0,0,1.66.46,2.24-.1,3-2C63.85,96.5,70.23,91.45,81.24,87.05c1.91-.76,2.15-1.9,1.28-3.41.26-.07.18-.06,0,0-.86-1.51-1.79-1.85-3.68-.91-10.92,5.38-18.77,12.13-23.4,23.52C54.63,108.22,55.16,109.29,56.83,109.75Z"/><path class="cls-7" d="M324.74,438c-1.4.6.35.5,0,0-2.58,1.11-4.5.66-5.57-3.24-8.34-30.53-16.76-41.09-44.84-55.49-3.58-1.84-3.35-3.38-1.88-5.74.73-1.18-.62-.18,0,0,1.47-2.37,2.7-3.26,6.43-1.27,29.21,15.66,38.41,28.51,48.09,60C328.21,436.28,327.33,436.9,324.74,438Z"/><path class="cls-7" d="M90.24,42.36c.12.15.09.1,0,0,1-.49,1.2-.81.45-2C83.84,29.87,75.52,24.64,63.74,21c-1.29-.4-1.73-.29-2.28.62h0c-.56.91-.53,1.62.71,2,11.22,3.65,19.15,7.75,25.82,18C88.72,42.73,89.27,42.86,90.24,42.36Z"/><path class="cls-7" d="M212.05,22.74c-17.29.35-26.86,0-33.79,16.76-.87,2.11-.59,2,.69,2.18h0c1.28.19,1.6.12,2.26-1.76,5.29-15,15.55-14.44,30.36-14.16,1.86,0,2.51-.14,2.49-1.66h0C214,22.57,214.22,22.7,212.05,22.74Z"/><path class="cls-7" d="M201.53,198.62h0c-.06-2.86,1.72-5.48,2.77-7.72,7.14-15.16,4.72-27.52-.2-42.6-.73-2.24.12-3.52,1.67-4h0c1.55-.46,2.63-.89,3.6,2.09,6.51,20.12,8,32.84-3.46,51.15C204.21,200.27,201.59,201.49,201.53,198.62Z"/><path class="cls-7" d="M104,203.76c-3.85-3.47-8.85-6.84-15.22-7.87-2.21-.36-3-.93-2.36-1.92-.32-.07-.22-.06,0,0,.6-1,1.5-1.12,3.76-.66a42.47,42.47,0,0,1,17.43,8.6c1.46,1.22,1.77,2,.42,2.63.17.16.13.11,0,0A3.4,3.4,0,0,1,104,203.76Z"/><path class="cls-2" d="M363.32,535.71a27.82,27.82,0,0,0,9.8-2.9,23.13,23.13,0,0,0,10.35-10.14A17.24,17.24,0,0,0,384,508.4c-1.33-3-3.62-5.54-5.87-8"/><path class="cls-2" d="M385.71,526.39c7.82-3.11,11.7-11.19,16.49-17.57,6.44-8.57,8.36-17.78,4.58-28-2-5.51-5.2-10.53-8.35-15.49"/><path class="cls-2" d="M328.76,549.32c2.86-.47,4.75-3.14,6.31-5.59l6.44-10.12c3.36-5.27,6.86-11.2,5.78-17.35"/><path class="cls-2" d="M339.43,549.79a68,68,0,0,0,14.13-11.62c2.77-3,5.42-6.69,5.05-10.76"/><path class="cls-2" d="M353.67,548.62l8.31-9.41a24.28,24.28,0,0,0,3.72-5c2.7-5.37,1.11-11.85-1-17.48"/><path class="cls-2" d="M372.61,535.05a19.78,19.78,0,0,0,5.4-7.66c2.66-6.47,2.46-13.71,2.22-20.7"/><path class="cls-2" d="M382.22,530.48a30.44,30.44,0,0,0,3.25-17.08,60,60,0,0,0-2.38-10.48l-3.51-12.1"/><path class="cls-2" d="M391.86,518.82c5.82-10.43,1.82-23.55,4.28-35.24"/><path class="cls-2" d="M407.07,504.07c-.63-11-6.29-20.92-11.81-30.42L389.06,463"/><path class="cls-2" d="M407.9,461.83a48,48,0,0,1,3.15,21.41"/><path class="cls-2" d="M415.47,469.7a45.73,45.73,0,0,0-1.84-36.28c-1-2-2.32-4.09-4.39-5-2.37-1-5.09-.27-7.55.5"/><path class="cls-2" d="M420.28,437.73a23.67,23.67,0,0,0,1.41-12.81c-1.3-7.66-6.26-14.15-11.38-20"/><path class="cls-2" d="M421.21,412.42c2-5.35,4-11.29,2-16.62-1.72-4.5-5.95-7.51-10.23-9.7"/><path class="cls-2" d="M423.73,383.24a58.81,58.81,0,0,0-1.62-21.42,14.36,14.36,0,0,0-2-4.8,15.12,15.12,0,0,0-3.16-3A87.51,87.51,0,0,0,406,347"/><path class="cls-2" d="M409.71,377.61c1.7-3.48,1.07-7.74-.71-11.18s-4.57-6.23-7.31-9"/><path class="cls-2" d="M391.87,345c-.67-4.24-1.37-8.57-3.37-12.37s-5.58-7.05-9.85-7.49"/><path class="cls-2" d="M422.85,347c2.79-7.76-1.41-17.35-9-20.57"/><path class="cls-2" d="M428.59,327.37c3.19-1.59,4.73-5.52,4.31-9.06s-2.45-6.7-4.85-9.33a33.31,33.31,0,0,0-13.73-9"/><path class="cls-2" d="M421.63,322.52a16.27,16.27,0,0,0-10.32-18.77"/><path class="cls-2" d="M416.39,343.89a30.38,30.38,0,0,0-10-18"/><path class="cls-2" d="M320.2,553.07a9.71,9.71,0,0,1,6.85,4.27,29.08,29.08,0,0,1,3.47,7.55"/><path class="cls-2" d="M314.17,561.67a13.48,13.48,0,0,1-1.26,18"/><path class="cls-2" d="M337.92,551.33c.84,2.17,4,2.1,5.67,3.75a6.24,6.24,0,0,1,1.37,2.8,37.37,37.37,0,0,1,1.37,10"/><path class="cls-2" d="M357.64,549.85a16.65,16.65,0,0,1,11.47,13.76"/><path class="cls-2" d="M370.55,544.29l7.85,5.87a9.14,9.14,0,0,1,2.46,2.38,4.6,4.6,0,0,1,.65,2.81"/><path class="cls-2" d="M391.08,530c1.19,3.25,4.2,5.59,7.46,6.73A30,30,0,0,0,408.79,538"/><path class="cls-2" d="M393.73,523.12a15.54,15.54,0,0,0,23.89.57"/><path class="cls-2" d="M399.48,517.88a4.88,4.88,0,0,0,4.78,1.62,12.44,12.44,0,0,0,4.76-2.29c4.65-3.21,9-7.28,10.92-12.61"/><path class="cls-2" d="M424.14,506.44a11.48,11.48,0,0,0,5.86,2.34c3.68.24,7.14-2.11,9.27-5.13s3.14-6.65,4.14-10.2"/><path class="cls-2" d="M412.45,499.51c6.47-3.39,9.34-12.3,6.07-18.83"/><path class="cls-2" d="M425,485.32a1.18,1.18,0,0,0-.38,1.58,15.59,15.59,0,0,0,3.48-18.47"/><path class="cls-2" d="M419.17,473.1c2.4-1.9,3.75-4.79,5-7.59a44.27,44.27,0,0,0,3.78-11.78c.54-4.1-.07-8.5-2.47-11.86"/><path class="cls-2" d="M428.84,435c7.12-1.85,11.9-10.06,10-17.17"/><path class="cls-2" d="M429.26,411.5c5.49.35,11.12.69,16.42-.8s10.31-5.19,11.85-10.48"/><path class="cls-2" d="M431.86,387.53c3.53,1.72,7.83.81,11.34-1s6.56-4.35,10.06-6.14,7.78-2.76,11.34-1.09"/><path class="cls-2" d="M432.41,462.38c2.68-3,5.79-6.14,9.79-6.46,2.59-.2,5.14.85,7.73.76s5.21-1.41,7.59-2.7"/><path class="cls-2" d="M427.22,425.38a10.27,10.27,0,0,1,1.78-7.56,30.45,30.45,0,0,1,5.45-5.78"/><path class="cls-2" d="M430.21,399.19a6,6,0,0,1,3.18-5.45c1.83-.94,4-.85,6-1.21s4.21-1.47,4.61-3.49"/><path class="cls-2" d="M431,372.52c0-2.06.07-4.34,1.48-5.84,2.17-2.31,5.91-1.4,9.09-1.41,4.66,0,8.93-2.45,13-4.8"/><path class="cls-2" d="M430.47,357.25c1.22-4.13,5-7.13,9-8.56s8.46-1.56,12.77-1.66"/><path class="cls-2" d="M426.77,343.91c2-3.4,4.18-6.85,7.35-9.21s7.64-3.4,11.14-1.57"/><path class="cls-2" d="M448.5,328.35c3.56.87,7-1.9,10.67-2a7.72,7.72,0,0,1,7.11,4.39"/><path class="cls-2" d="M438.72,324.7a27.7,27.7,0,0,1,.28-5,12.87,12.87,0,0,1,6.1-8.85,11,11,0,0,1,10.62-.12"/><path class="cls-2" d="M428.36,297.51a60,60,0,0,0-13.56-14.08"/><path class="cls-2" d="M409.9,294.93a20.33,20.33,0,0,0-3.9-11.67,28.55,28.55,0,0,0-6-5.82"/><path class="cls-2" d="M435.91,306.92a26.69,26.69,0,0,1-9.1-19.61c0-2.64.63-5.72,3-6.86"/><path class="cls-2" d="M444.37,268.93c-4.94,5.21-5.55,13-5.88,20.21a33.53,33.53,0,0,0,.39,9,11.3,11.3,0,0,0,4.84,7.34c.5-4.86,6.34-8.88,11.13-9.86s9.73.16,14.45,1.41"/><path class="cls-2" d="M446.47,288l-.73,2,6.84-7.06a10.27,10.27,0,0,1,3.25-2.55,9.28,9.28,0,0,1,3.75-.48,45.87,45.87,0,0,1,14,2.51"/><path class="cls-2" d="M455.91,275.61c-1.26.73-3-.41-3.27-1.84a5.64,5.64,0,0,1,1.14-4.1,18.62,18.62,0,0,1,6.05-5.86c3.6-2.17,7.81-3,12-3.62,4.32-.6,8.67-.91,13-1.21a20.34,20.34,0,0,1,7.18.34c4.15,1.22,7,4.89,9.64,8.35"/><path class="cls-2" d="M452.26,265.09c-1.28-1.71-.07-4.11,1.14-5.87l5.05-7.39c2.08-3.05,5-6.49,8.65-5.83"/><path class="cls-2" d="M472.37,278.24c2.78-1.26,4.5-4.16,7.18-5.61s5.72-1.26,8.66-1A138.84,138.84,0,0,1,503.93,274"/><path class="cls-2" d="M443.64,264.08a11.55,11.55,0,0,1,1-11.84"/><path class="cls-2" d="M507.5,267.45,519.65,270a4,4,0,0,1,2.15.93,3.71,3.71,0,0,1,.71,2.7,26.71,26.71,0,0,1-.77,5.83"/><path class="cls-2" d="M503.37,255.75c2.61-.93,5.47-1.88,8.09-1a12.48,12.48,0,0,1,2.82,1.54l10.43,7"/><path class="cls-2" d="M479.7,251.17q2.55-3,5.32-5.85a6.78,6.78,0,0,1,2.3-1.73,7,7,0,0,1,3.5-.06l14,2.16"/><path class="cls-2" d="M470.08,255a77.74,77.74,0,0,1,4-8.71,15.85,15.85,0,0,1,3.64-5,6.22,6.22,0,0,1,5.76-1.37"/><path class="cls-2" d="M530.91,265.33l7.38,1.07a5.15,5.15,0,0,1,2,.57,5,5,0,0,1,1.54,2l4.83,8.82"/><path class="cls-2" d="M536.56,278.72c2.32,1.47,5,2.39,7.24,3.92a16.06,16.06,0,0,1,7,12.81"/><path class="cls-2" d="M560.21,285.32c2.52,2,6.18,2.88,7.59,5.77a10.17,10.17,0,0,1,.76,3.79l.83,11.72"/><path class="cls-2" d="M558.93,276c6.1,3.69,12.81,8.27,13.87,15.32"/><path class="cls-2" d="M520.37,258.18a3.82,3.82,0,0,1,2.39-3.13,9.7,9.7,0,0,1,4.08-.6,48.77,48.77,0,0,1,15.78,2.8"/><path class="cls-2" d="M514.53,252.41a10.09,10.09,0,0,1,13.76-2.18"/><path class="cls-2" d="M545,269.73c1.7-1.42,2.69-3.51,4.21-5.12a10.76,10.76,0,0,1,12.55-2.05"/><path class="cls-2" d="M556.36,272.38c2.93-1.22,6-2.29,9.2-2.08s6.41,2,7.51,4.95"/><path class="cls-2" d="M575.09,289.57a14.46,14.46,0,0,1,17.26-1.37"/><path class="cls-2" d="M583,296.13l-2.49,9.27a7.73,7.73,0,0,0-.37,3.65,2.64,2.64,0,0,0,2.57,2.21"/><path class="cls-2" d="M587.38,302.53a79.75,79.75,0,0,1,11.29-1.83,3.81,3.81,0,0,1,1.81.15,3.74,3.74,0,0,1,1.46,1.44l3,4.26"/><path class="cls-2" d="M595.06,309.27a41.29,41.29,0,0,0,.84,8,9.31,9.31,0,0,0,1.84,4.42,3.76,3.76,0,0,0,4.34,1.15"/><path class="cls-2" d="M599.58,314.52a15.88,15.88,0,0,1,14.9,12.85"/><path class="cls-2" d="M606.22,330.51l-1.48,5.43a2.49,2.49,0,0,0-.11,1.32,2.46,2.46,0,0,0,.67,1l5.16,5.37"/><path class="cls-2" d="M613.89,333.87a17.66,17.66,0,0,1,9.72,17.4"/><path class="cls-2" d="M615,349.13c.33,2.67-1.24,5.16-1.87,7.76s.47,6.2,3.15,6.25"/><path class="cls-2" d="M615,341.61c3.79,3.56,4.13,9.35,4.21,14.55"/><path class="cls-2" d="M626.77,348.56c2,1.45,4.89,1.35,6.65,3.07,2,2,1.66,5.45,3.54,7.53"/><path class="cls-2" d="M623.81,365.88A17.06,17.06,0,0,0,622,382.35"/><path class="cls-2" d="M627,373.33a20.82,20.82,0,0,1,5.92,4,7.08,7.08,0,0,1,2,6.55"/><path class="cls-2" d="M634.52,390.33a39.18,39.18,0,0,0-4.27,20.05"/><path class="cls-2" d="M638.27,400.26a35.51,35.51,0,0,0,2.48,13.59c.57,1.46,1.47,3.06,3,3.35"/><path class="cls-2" d="M422.52,274.46c-3.93-1.81-6.65-5.67-7.95-9.8s-1.36-8.55-1.2-12.88c.09-2.29.38-4.88,2.2-6.28"/><path class="cls-2" d="M409.67,300.68c-4.13-.69-7-4.38-9.44-7.78l-8.36-11.69"/><path class="cls-7" d="M105.88,582.75h0c-.66,2.18-1.89,3.54-5.27,2.72-28-6.84-48.79-19.93-56.84-48.56-1-3.45.09-4.18,2.23-5h0c2.14-.78,4.15-.51,5.12,2.65,8.06,26.23,25.89,36.86,51.8,43.33C106.05,578.7,106.53,580.57,105.88,582.75Z"/><path class="cls-8" d="M201.63,428.1c.88.29.63.1,0,0,1.75,3.11.45,4.44-3.93,6.4-15.08,6.76-16.87,15.47-18.82,30.93-.57,4.5-2.28,6.26-5.56,5.38-.64.52-.4.45,0,0-3.28-.88-2.55-2.34-1.88-7.33,2.31-17.17,5.92-27.71,22.3-35.85C198.5,425.27,199.88,425,201.63,428.1Z"/><path class="cls-9" d="M152.18,182.74c-1.7,3.27-1.26,9.72-5.74,11.56-5.14,2.11-5.52,7.51-8.4,7.84-3.58.4-5.95,6.41-8,6.42-4.49,0-7.55-8.67-12.3-10.64-6.53-2.71-6.22-10.45-3-9.37,7.13,2.4,16.33,2.75,23,1.86C144,189.58,156.68,174.1,152.18,182.74Z"/><path class="cls-9" d="M143.75,217c-2.13,2.7,1.69,5.46-.92,8.07s-6.4-5-4.11-7.78.76-6.26,3.62-8.41S145.88,214.34,143.75,217Z"/><path class="cls-9" d="M134.3,234.44c.06,1.45,2.33,5.38-1.1,6.32s-3.39-1.8-2.59-4.22-1-5.9,1.92-6.14C134.1,230.27,134.25,233,134.3,234.44Z"/><path class="cls-10" d="M124.75,198.05c.33,1.36,2.8,5.26,1.79,6.1s-3.94-3.33-4.24-4.82-2-5.29-.82-5.62S124.42,196.7,124.75,198.05Z"/><path class="cls-9" d="M70.07,185.68c-.91,1.65-2.8,3-3.58,5.21C64,198,58.1,201.1,56.78,195.41a15.77,15.77,0,0,0-7.43-10.08c-3.31-1.93-6.69-5.14-6.73-8.63,0-4.28,2.89-.73,7,2,2.39,1.58,9.82,3.1,11.83,3.51C64,182.7,74.76,177.26,70.07,185.68Z"/><path class="cls-9" d="M50.41,202.19c-1.82,1.48-.31,8.74-2.15,7.76s-.45-7.85.15-9.82.82-6.63,3.18-4.94S52.22,200.72,50.41,202.19Z"/><path class="cls-9" d="M53.24,220.15c.24,1.32-2.51,6.78-3.45,5.35s1.49-3.67,1-5.46.44-5.89,2.13-5.48S53,218.83,53.24,220.15Z"/><path class="cls-10" d="M57.45,193.19c.44.5,1,2.07,1.8,2.11s1.15-.5.5-1.35-1.42-3.66-2.47-3.78S57,192.69,57.45,193.19Z"/><path d="M68.38,232.5c4.88-3.45,9.24-6.6,16.13-6.17s13.73,6.3,18,12.39c-3.31-12.05-6.92-24.69-20-22.61S70.33,222.79,68.38,232.5Z"/></g></svg>