<svg id="Layer_1" data-name="Layer 1" xmlns="http://www.w3.org/2000/svg" width="100" height="100" viewBox="0 0 100 100"><defs><style>.cls-1{fill:#ccc;}.cls-2{fill:#4d4d4d;}</style></defs><path class="cls-1" d="M93.49,42.5H86.73a36,36,0,0,0-5-12.25L88,24a2,2,0,0,0,0-2.85l-7.77-7.76a2,2,0,0,0-2.84,0l-6.18,6.18a36.25,36.25,0,0,0-12.66-5.3V6.51a2,2,0,0,0-2-2h-11a2,2,0,0,0-2,2v7.76a36.43,36.43,0,0,0-11.56,4.59L25.88,12.8a2,2,0,0,0-2.84,0l-7.77,7.76a2,2,0,0,0,0,2.85L21,29.17A36.19,36.19,0,0,0,15.27,42.5H6.51a2,2,0,0,0-2,2v11a2,2,0,0,0,2,2h8.76a36.25,36.25,0,0,0,5.3,12.66L15,75.74a2,2,0,0,0,0,2.84l7.76,7.77a2,2,0,0,0,2.85,0l5.65-5.65a36,36,0,0,0,12.25,5v7.76a2,2,0,0,0,2,2h11a2,2,0,0,0,2-2V85.73A36.19,36.19,0,0,0,71.83,80l5.79,5.79a2,2,0,0,0,2.85,0L88.23,78a2,2,0,0,0,0-2.84l-6.09-6.09A36.43,36.43,0,0,0,86.73,57.5h6.76a2,2,0,0,0,2-2v-11A2,2,0,0,0,93.49,42.5Zm-42,29a22,22,0,1,1,22-22A22,22,0,0,1,51.5,71.5Z"/><circle class="cls-1" cx="51.5" cy="49.5" r="22"/><circle class="cls-2" cx="51.5" cy="49.5" r="22"/></svg>