<svg id="Layer_1" data-name="Layer 1" xmlns="http://www.w3.org/2000/svg" xmlns:xlink="http://www.w3.org/1999/xlink" viewBox="0 0 140 90"><defs><style>.cls-1{fill:url(#linear-gradient);}.cls-2{fill:#00940a;stroke:#006837;stroke-miterlimit:10;}.cls-3{fill:#154001;}.cls-4{fill:#66bf6c;}.cls-5{filter:url(#AI_GaussianBlur_7);font-family:Merienda-Bold, Merienda;font-weight:700;}.cls-5,.cls-6{font-size:45px;}.cls-6{fill:#ed690f;font-family:MeriendaOne-Regular, Merienda One;}</style><linearGradient id="linear-gradient" x1="-196.67" y1="-852.47" x2="1403.33" y2="-852.47" gradientTransform="translate(-3.37 574.3) scale(1.13 1.51)" gradientUnits="userSpaceOnUse"><stop offset="0" stop-color="#f15a24" stop-opacity="0.7"/><stop offset="0.4" stop-color="#009245"/><stop offset="0.45" stop-color="#008240"/><stop offset="1" stop-opacity="0.7"/></linearGradient><filter id="AI_GaussianBlur_7" name="AI_GaussianBlur_7"><feGaussianBlur stdDeviation="7"/></filter></defs><rect class="cls-1" x="-226.16" y="-1387.72" width="1812.47" height="1355.74" transform="translate(-187.2 -247.01) rotate(18.14)"/><path class="cls-2" d="M122.14,84.22c-29.09-2.82-74.11-2-103.6-.52C11.79,84,9.09,80.89,7.62,68.83c-2-16.94-3.91-30.77-.21-48C10.05,8.6,13.46,5.81,19.23,6.4c25.21,2.6,76,.92,102.44-.66,6-.36,9.54,3.09,11.38,14.9,2.59,16.57,1.79,32.55,0,49C131.84,81.43,128.8,84.86,122.14,84.22Z"/><path class="cls-3" d="M123.54,87.3c-.5,0-1,0-1.54-.07h0c-18.63-1.81-55.57-2.89-103.39-.51-8,.4-11.45-4.15-13-17.38l-.2-1.57c-2-16.34-3.69-30.45,0-47.81,2.73-12.68,6.65-17.33,14-16.57,24.54,2.53,74.57,1,102.2-.67C129.1,2.27,133.14,7.43,135.1,20c2.83,18.09,1.62,35.51.07,50.17C133.89,82.19,130.48,87.3,123.54,87.3Zm-1.26-6.09c5.11.49,7.58-1.12,8.73-12,2.67-25.13,1.49-38.33,0-47.93-1.7-10.91-4.56-12.83-9.24-12.55C94,10.41,43.8,12,19.08,9.41c-4.64-.48-7.27,1.25-9.66,12.33-3.44,16-1.89,28.78.08,45l.19,1.58C11,79.2,13,81,18.47,80.69c31.46-1.57,75.25-2.25,103.81.52Z"/><path class="cls-4" d="M21.94,4.76C18.11,4.31,13.31,4,10.2,9c-.73,1.18-.72,1.45,0,1.49h0c.7,0,.79-1.09,1.49-1.85,3-3.25,7.13-2.89,10.39-2.52.77.09,1.28.24,1.17-.7h0C23.11,4.47,22.85,4.87,21.94,4.76Z"/><path class="cls-4" d="M124.84,23.4c-1-8.07-20.16-3.87-25.11-3.76a2.41,2.41,0,0,1-2.11-2.8h0c.17-1.95.86-2.61,2.16-2.68,8-.43,25.35-5.59,28.66,7.52.54,2.12-.1,2.86-1.27,3.58,0,.24,0,.23,0,0C126,26,125,24.71,124.84,23.4Z"/><text class="cls-5" transform="translate(44.8 63.63) scale(0.76 1)">Yes</text><text class="cls-6" transform="translate(46.61 59.27) scale(0.75 1)">Yes</text><path class="cls-4" d="M13,52.19c.78,6.44.78,19.94,5.64,22,.35.15.5.23.5.86a13.3,13.3,0,0,1-.06,2.1c-.1.6-.18.92-.66.8-6.55-1.58-7.3-17.61-7.89-25.51,0-.57.09-.72.47-.85a5.22,5.22,0,0,1,1.36-.09C12.72,51.48,12.92,51.72,13,52.19Z"/><path class="cls-4" d="M132.4,75.92c-1.42,6.33-2.18,6.77-8.19,8.9-1.2.42-1.17.32-1.54,1.19h0c-.38.86-.42.74.78.47,6-1.38,9-3.54,10-10.28.21-1.35.55-1.28-.09-1.49.07-.3.07-.28,0,0C132.73,74.5,132.69,74.65,132.4,75.92Z"/></svg>